<svg width="224" height="130" fill="none" xmlns="http://www.w3.org/2000/svg"><g clip-path="url(#clip0)"><path d="M13.4549 121.797a1.258 1.258 0 00-.7408.26c-.6314-1.668-1.6088-2.741-2.7069-2.741-1.098 0-2.0755 1.073-2.7069 2.741a1.2579 1.2579 0 00-.7408-.26c-1.2475 0-2.2588 2.11-2.2588 4.712h11.4131c0-2.602-1.0114-4.712-2.2589-4.712z" fill="#00BAFC"/><path d="M58.8028 126.246H.9369v.526h57.8659v-.526z" fill="#3F3D56"/><path d="M219.142 110.743a1.26 1.26 0 00-.741.26c-.631-1.668-1.609-2.74-2.707-2.74-1.098 0-2.075 1.072-2.707 2.74a1.2548 1.2548 0 00-.74-.26c-1.248 0-2.259 2.11-2.259 4.712h11.413c0-2.602-1.012-4.712-2.259-4.712z" fill="#00BAFC"/><path d="M194.585 24.1599h-55.102v-1.1357h-24.985v1.1357H59.1697a3.7274 3.7274 0 00-3.7272 3.7272v75.4509a3.7274 3.7274 0 003.7272 3.727H194.585c.988 0 1.936-.393 2.635-1.092a3.7272 3.7272 0 001.092-2.635V27.8871c0-.4895-.096-.9742-.284-1.4264a3.7079 3.7079 0 00-.808-1.2091 3.7275 3.7275 0 00-2.635-1.0917z" fill="#3F3D56"/><path opacity=".2" d="M193.314 30.7458H60.4407v74.9572H193.314V30.7458z" fill="#000"/><path d="M126.764 28.7026c.752 0 1.363-.6101 1.363-1.3628s-.611-1.3628-1.363-1.3628c-.753 0-1.363.6101-1.363 1.3628s.61 1.3628 1.363 1.3628z" fill="#00BAFC"/><path d="M223.063 114.929H30.2645v.526H223.063v-.526z" fill="#3F3D56"/><path d="M145.032 58.7512v-5.5457a6.8037 6.8037 0 00-6.805-6.8042h-5.545c0-.7486-2.406-1.3619-5.463-1.42v-6.6877a3.8032 3.8032 0 002.453-1.3472 3.804 3.804 0 00.865-2.6609 3.8049 3.8049 0 00-1.191-2.5319 3.8015 3.8015 0 00-2.602-1.0301 3.799 3.799 0 00-2.601 1.0301 3.7959 3.7959 0 00-1.191 2.5319 3.7993 3.7993 0 003.317 4.0081v6.6877c-3.056.0581-5.462.6714-5.462 1.42h-6.496c-.893 0-1.778.176-2.604.518a6.8037 6.8037 0 00-4.2 6.2862v5.5457c-.787 0-1.425 2.6582-1.425 5.9374 0 3.2792.638 5.9374 1.425 5.9374v6.4956a6.8031 6.8031 0 001.993 4.8113 6.808 6.808 0 002.207 1.475c.826.342 1.711.518 2.604.518h23.916c.894 0 1.779-.176 2.604-.518a6.8022 6.8022 0 003.683-3.6824 6.8031 6.8031 0 00.518-2.6039V70.626c.787 0 1.425-2.6583 1.425-5.9374 0-3.2792-.638-5.9374-1.425-5.9374z" fill="#00BAFC"/><path d="M115.674 48.5388h21.191c1.599 0 3.133.6352 4.263 1.7659a6.0275 6.0275 0 011.766 4.2631v21.1915c0 1.599-.635 3.1325-1.766 4.2632a6.0274 6.0274 0 01-4.263 1.7659h-21.191a6.0314 6.0314 0 01-4.264-1.7659 6.0311 6.0311 0 01-1.765-4.2632V54.5679c0-1.5991.635-3.1326 1.765-4.2632a6.0314 6.0314 0 014.264-1.7659z" fill="#3F3D56"/><path d="M118.669 64.3324a4.2786 4.2786 0 01-3.021-1.2536 4.285 4.285 0 01-1.254-3.0214.2382.2382 0 01.238-.2375c.063 0 .123.025.168.0696a.239.239 0 01.069.1679c0 1.0078.401 1.9744 1.113 2.687a3.8022 3.8022 0 002.687 1.113c1.008 0 1.975-.4004 2.687-1.113a3.7984 3.7984 0 001.113-2.687c0-.063.025-.1234.07-.1679a.2365.2365 0 01.168-.0696c.063 0 .123.025.168.0696a.239.239 0 01.069.1679 4.2798 4.2798 0 01-1.253 3.0214 4.281 4.281 0 01-3.022 1.2536zM126.269 72.4073a3.331 3.331 0 01-2.35-.975 3.3302 3.3302 0 01-.975-2.35c0-.063.025-.1234.07-.1679a.2365.2365 0 01.168-.0696c.063 0 .123.025.168.0696a.239.239 0 01.069.1679c0 .7559.301 1.4808.835 2.0152a2.85 2.85 0 004.031 0 2.851 2.851 0 00.834-2.0152c0-.063.025-.1234.07-.1679a.2365.2365 0 01.168-.0696c.063 0 .123.025.168.0696a.239.239 0 01.069.1679 3.326 3.326 0 01-.975 2.35 3.3275 3.3275 0 01-2.35.975zM133.869 64.3324a4.2807 4.2807 0 01-4.275-4.275c0-.063.025-.1234.07-.1679a.2365.2365 0 01.168-.0696c.063 0 .123.025.168.0696a.239.239 0 01.069.1679c0 1.0078.401 1.9744 1.113 2.687a3.8005 3.8005 0 002.687 1.113c1.008 0 1.975-.4004 2.687-1.113a3.7984 3.7984 0 001.113-2.687c0-.063.025-.1234.07-.1679a.2365.2365 0 01.168-.0696c.063 0 .123.025.168.0696a.239.239 0 01.069.1679 4.2798 4.2798 0 01-1.253 3.0214 4.281 4.281 0 01-3.022 1.2536z" fill="#00BAFC"/><path d="M118.669 62.4324c1.181 0 2.138-.957 2.138-2.1375 0-1.1805-.957-2.1375-2.138-2.1375-1.18 0-2.137.957-2.137 2.1375 0 1.1805.957 2.1375 2.137 2.1375zM133.869 62.4324c1.181 0 2.138-.957 2.138-2.1375 0-1.1805-.957-2.1375-2.138-2.1375-1.18 0-2.137.957-2.137 2.1375 0 1.1805.957 2.1375 2.137 2.1375zM126.269 71.2198c1.05 0 1.9-.4254 1.9-.95 0-.5247-.85-.95-1.9-.95-1.049 0-1.9.4253-1.9.95 0 .5246.851.95 1.9.95z" fill="#00BAFC"/><path d="M202.043 104.339h-12.968v-.934a.1856.1856 0 00-.054-.131.1856.1856 0 00-.131-.054h-4.446c-.025 0-.049.005-.071.014a.1755.1755 0 00-.06.04.1856.1856 0 00-.054.131v.934h-2.779v-.934c0-.024-.005-.048-.014-.071a.1885.1885 0 00-.041-.06.1755.1755 0 00-.06-.04.1872.1872 0 00-.071-.014h-4.446a.1898.1898 0 00-.131.054.2032.2032 0 00-.04.06.1951.1951 0 00-.014.071v.934h-2.779v-.934a.1856.1856 0 00-.054-.131.1856.1856 0 00-.131-.054h-4.446a.1856.1856 0 00-.131.054.1856.1856 0 00-.054.131v.934h-2.779v-.934a.1856.1856 0 00-.054-.131.197.197 0 00-.06-.04.1951.1951 0 00-.071-.014h-4.446c-.025 0-.049.005-.071.014a.1755.1755 0 00-.06.04.1885.1885 0 00-.041.06.1951.1951 0 00-.014.071v.934h-2.779v-.934a.1856.1856 0 00-.054-.131.1755.1755 0 00-.06-.04.1872.1872 0 00-.071-.014h-4.446a.1856.1856 0 00-.131.054.1856.1856 0 00-.054.131v.934h-2.779v-.934a.1856.1856 0 00-.054-.131.1856.1856 0 00-.131-.054h-4.446c-.025 0-.049.005-.071.014a.1755.1755 0 00-.06.04.1856.1856 0 00-.04.06.1775.1775 0 00-.015.071v.934h-2.778v-.934c0-.024-.005-.048-.014-.071a.1885.1885 0 00-.041-.06.1755.1755 0 00-.06-.04.1872.1872 0 00-.071-.014H108.49c-.025 0-.049.005-.071.014a.1755.1755 0 00-.06.04.1885.1885 0 00-.041.06.1951.1951 0 00-.014.071v.934h-2.778v-.934c0-.024-.005-.048-.014-.071a.1885.1885 0 00-.041-.06.1755.1755 0 00-.06-.04.1872.1872 0 00-.071-.014h-4.446a.1856.1856 0 00-.131.054.1856.1856 0 00-.054.131v.934h-2.7788v-.934a.1892.1892 0 00-.0141-.071.1878.1878 0 00-.0402-.06.1828.1828 0 00-.0601-.04.1914.1914 0 00-.0709-.014h-4.4461a.1839.1839 0 00-.1711.114.1892.1892 0 00-.0141.071v.934h-2.7789v-.934a.1871.1871 0 00-.014-.071.1894.1894 0 00-.0402-.06.1828.1828 0 00-.0601-.04.1914.1914 0 00-.0709-.014h-4.4461a.1914.1914 0 00-.0709.014.1828.1828 0 00-.1002.1.1854.1854 0 00-.0141.071v.934h-2.7789v-.934a.1892.1892 0 00-.0141-.071.1828.1828 0 00-.1002-.1.1914.1914 0 00-.0709-.014H78.108a.1914.1914 0 00-.0709.014.1828.1828 0 00-.0601.04.1878.1878 0 00-.0402.06.1892.1892 0 00-.0141.071v.934h-2.7788v-.934a.1892.1892 0 00-.0141-.071.1839.1839 0 00-.1711-.114h-4.4461a.191.191 0 00-.0709.014.1828.1828 0 00-.0601.04.1878.1878 0 00-.0402.06.1892.1892 0 00-.0141.071v.934h-2.7788v-.934a.1892.1892 0 00-.0141-.071.1878.1878 0 00-.0402-.06.1828.1828 0 00-.0601-.04.1905.1905 0 00-.0708-.014h-4.4461a.1906.1906 0 00-.0709.014.1828.1828 0 00-.0601.04.1878.1878 0 00-.0402.06.1892.1892 0 00-.0141.071v.934h-8.5217c-.5839 0-1.162.115-1.7014.339a4.4375 4.4375 0 00-1.4425.964 4.4504 4.4504 0 00-.9637 1.442 4.4494 4.4494 0 00-.3385 1.702v2.01a4.4453 4.4453 0 004.4461 4.446H202.043c1.179 0 2.31-.468 3.144-1.302a4.446 4.446 0 001.302-3.144v-2.01c0-.584-.115-1.162-.338-1.702a4.4577 4.4577 0 00-.964-1.442 4.4354 4.4354 0 00-1.443-.964 4.4318 4.4318 0 00-1.701-.339z" fill="#3F3D56"/><path d="M169.406 83.6289H80.7657v.526h88.6403v-.526z" fill="#00BAFC"/><path d="M87.0783 83.3659H65.2471a146.1027 146.1027 0 000-24.7246h21.8312c-1.202 8.468-1.2723 16.7228 0 24.7246z" fill="#D0CDE1"/><path d="M84.185 63.6388H68.4034v1.0522H84.185v-1.0522zM84.185 67.0582H68.4034v1.0521H84.185v-1.0521zM84.185 70.4775H68.4034v1.0521H84.185v-1.0521zM84.185 73.8969H68.4034v1.0521H84.185v-1.0521zM84.185 77.3162H68.4034v1.0521H84.185v-1.0521z" fill="#3F3D56"/><path d="M29.0661.8436s-3.4301-1.225-5.6352 3.6752c-2.2052 4.9003-5.6353 10.2905-5.6353 10.2905l1.9601.4901s.49-3.4302 1.7151-3.9202l-.4901 4.4102s14.7008 5.1452 21.3161-.49l-.245-1.7151s.98.245.98 1.7151l.7351-.7351s-.7351-1.4701-2.9402-3.4302c-1.4473-1.2865-1.9447-3.734-2.1156-5.2644a6.3702 6.3702 0 00-1.4667-3.4692C35.779.7022 33.1088-1.1029 29.0661.8436z" fill="#2F2E41"/><path d="M19.1739 108.929l1.0521 6.05 4.2085-.79.789-5.26h-6.0496z" fill="#FFB9B9"/><path d="M25.2235 112.348l-5.7866.526.263 4.735-.263 6.049s-3.4194 6.839 1.5782 6.313c4.9975-.526 4.4714-3.156 4.4714-3.156l1.3151-1.578-.789-3.946-.7891-8.943z" fill="#2F2E41"/><path d="M42.8463 108.929l-1.0521 6.05-4.2084-.79-.7891-5.26h6.0496z" fill="#FFB9B9"/><path d="M36.7967 112.348l5.7866.526-.2631 4.735.2631 6.049s3.4193 6.839-1.5782 6.313c-4.9975-.526-4.4714-3.156-4.4714-3.156l-1.3152-1.578.7891-3.946.7891-8.943z" fill="#2F2E41"/><path d="M30.7471 17.1326c3.3411 0 6.0496-2.7085 6.0496-6.0496s-2.7085-6.0497-6.0496-6.0497-6.0496 2.7086-6.0496 6.0497c0 3.3411 2.7085 6.0496 6.0496 6.0496z" fill="#FFB9B9"/><path d="M26.8017 14.2393l.789 9.4689 7.3648-.263s-2.1042-6.0496-.7891-8.4168l-7.3647-.7891z" fill="#FFB9B9"/><path d="M31.0101 21.8671l3.0295-1.8895 3.2832 1.6264 5.2605 2.3673-1.8412 22.3573s4.2084 13.9404 3.4194 20.7791c-.7891 6.8387 8.6798 41.0323 1.0521 42.6103-7.6278 1.578-13.1514 3.156-13.4144.526-.263-2.63-.7891-42.8733-.7891-42.8733s-.7891 42.6103-3.9454 43.1363c-3.1563.526-16.8337 2.63-15.7816-.526 1.0521-3.156 8.1538-58.3919 11.5732-61.5482l.526-2.6303-4.4714-21.3052 8.3969-4.1849 3.7023 1.5547z" fill="#2F2E41"/><path d="M15.2284 54.4824l-.263 10.7841s-2.5319 10.647 1.7589 10.5841c4.2907-.063 1.1344-10.5841 1.1344-10.5841l1.8412-10.5211-4.4715-.263zM55.0015 43.1641l7.392 7.8565s8.9903 6.2404 5.7525 9.0567c-3.2377 2.8162-7.9074-7.126-7.9074-7.126l-8.3919-6.6076 3.1548-3.1796z" fill="#FFB9B9"/><path d="M22.9878 47.7751l18.0147-.5523-.2341-1.2231v-.0053l-17.4124-.3156-.3682 2.0963z" fill="#D0CDE1"/><path d="M26.6702 48.3013c.8716 0 1.5781-.7066 1.5781-1.5782s-.7065-1.5782-1.5781-1.5782-1.5782.7066-1.5782 1.5782.7066 1.5782 1.5782 1.5782zM21.0151 24.7604l-1.7097-.3946s-2.2357.9206-2.7618 3.8139-7.3648 25.5136-3.9454 26.8288c3.4193 1.3151 8.4169 1.8411 8.4169 1.3151 0-.5261 2.1042-20.2531 2.1042-20.2531l-2.1042-11.3101zM37.1032 25.763l5.4801-1.7917s2.6302 0 2.6302 2.8933c0 1.1935 5.041 10.9976 5.041 10.9976s12.1123 8.6339 10.2581 8.9429c-3.1563.5261-4.9975 6.0496-4.9975 6.0496L43.6789 42.3336 37.1032 25.763zM23.3688 11.5335s1.9601-2.6952 3.6752-3.1852c1.7151-.49 1.9601-2.9401 1.9601-2.9401s4.4102 4.9002 7.1054 5.1452c2.6951.245.245-5.8803.245-5.8803l-4.9003-1.225-4.6552.49-3.6752 2.4501.245 5.1453z" fill="#2F2E41"/><path d="M24.829 11.346c.4358 0 .7891-.53.7891-1.1836 0-.6538-.3533-1.1837-.7891-1.1837s-.7891.53-.7891 1.1837c0 .6536.3533 1.1836.7891 1.1836z" fill="#FFB9B9"/></g><defs><clipPath id="clip0"><path fill="#fff" transform="translate(.937)" d="M0 0h222.126v130H0z"/></clipPath></defs></svg>