<svg width="170" height="130" fill="none" xmlns="http://www.w3.org/2000/svg"><g clip-path="url(#clip0)"><path opacity=".1" d="M166.336 29.6001a34.6215 34.6215 0 00-6.713-9.0421l-93.1249-.7757 76.6729-9.1034a50.5229 50.5229 0 00-15.556-2.6087C120.234 3.031 110.747.0075 100.399.0075c-9.2846 0-17.8699 2.4395-24.8694 6.5786-5.9481-2.5907-12.7289-4.0598-19.9335-4.0598-20.6913 0-37.9323 12.115-41.8004 28.1819l152.5403-1.1081zM169.61 43.0748a29.4977 29.4977 0 00-2.902-12.717L5.3108 44.6801a31.3796 31.3796 0 00-3.7813 8.0732l49.9799 6.2986L.3899 63.6433c1.538 18.1889 19.9815 32.5501 42.5117 32.5501 11.3408 0 21.6452-3.6389 29.2811-9.5736 7.6598 6.047 18.0631 9.7653 29.5263 9.7653 17.008 0 31.688-8.1869 38.524-20.0234 13.714-3.6809 24.368-12.9206 28.014-24.48l-63.206-8.2873h64.569v-.5196zM75.2631 129.999c23.9831 0 43.4249-.868 43.4249-1.938 0-1.07-19.4418-1.938-43.4249-1.938s-43.4252.868-43.4252 1.938c0 1.07 19.4421 1.938 43.4252 1.938z" fill="#00BAFC"/><path d="M101.037 124.652v1.171H66.4068v-.951a11.3734 11.3734 0 005.265-3.998 11.3783 11.3783 0 002.1543-6.25 11.3782 11.3782 0 00-1.6832-6.393 11.3757 11.3757 0 00-4.9529-4.379h33.612a11.3745 11.3745 0 00-4.8741 4.254 11.3785 11.3785 0 00-1.7684 6.222 11.3828 11.3828 0 001.9086 6.182 11.382 11.382 0 004.9689 4.142z" fill="#C8CAD7"/><path opacity=".1" d="M100.802 103.852a11.401 11.401 0 00-3.9996 3.06 11.4037 11.4037 0 00-2.2901 4.486H73.4811a11.3962 11.3962 0 00-2.2904-4.485 11.3914 11.3914 0 00-3.9992-3.061h33.6105z" fill="#000"/><path d="M26.7463 97.8857v6.5743c0 3.63 2.6566 6.572 5.9347 6.572h101.895c3.278 0 5.934-2.942 5.934-6.572v-6.5743H26.7463z" fill="#C8CAD7"/><path opacity=".1" d="M101.037 124.652v1.171H66.4068v-.951a11.3684 11.3684 0 002.6701-1.422h29.8366c.663.475 1.3745.878 2.1235 1.202z" fill="#000"/><path d="M111.058 123.815H56.3853c-.7857 0-1.4227.637-1.4227 1.423v.624c0 .786.637 1.423 1.4227 1.423h54.6727c.786 0 1.423-.637 1.423-1.423v-.624c0-.786-.637-1.423-1.423-1.423z" fill="#C8CAD7"/><path d="M140.51 25.8503a5.9328 5.9328 0 00-5.934-5.9257H32.6855a5.933 5.933 0 00-5.9392 5.9257v73.3142H140.51V25.8503z" fill="#474157"/><path d="M137.413 28.4979v62.9963c.001.3838-.075.7638-.222 1.1183a2.912 2.912 0 01-.633.9481 2.913 2.913 0 01-.948.6333 2.9222 2.9222 0 01-1.118.222H32.7769a2.9197 2.9197 0 01-2.6997-1.8034 2.9188 2.9188 0 01-.222-1.1183V28.4979a2.9216 2.9216 0 012.9217-2.9217H134.484c.384-.0009.765.0739 1.121.2203.355.1464.678.3614.95.6328.272.2714.488.5938.635.9488.147.355.223.7355.223 1.1198z" fill="#4C4C78"/><path d="M83.6298 24.1161c.7567 0 1.3702-.6134 1.3702-1.3702 0-.7568-.6135-1.3702-1.3702-1.3702-.7568 0-1.3703.6134-1.3703 1.3702 0 .7568.6135 1.3702 1.3703 1.3702zM83.6298 108.112c1.8658 0 3.3784-1.512 3.3784-3.378s-1.5126-3.379-3.3784-3.379c-1.8659 0-3.3784 1.513-3.3784 3.379s1.5125 3.378 3.3784 3.378zM52.5831 27.0378v67.3781H32.7769a2.9214 2.9214 0 01-2.6997-1.8034 2.9188 2.9188 0 01-.222-1.1183V28.4979l.1063-.3968.2845-1.0633h22.3371z" fill="#fff"/><path d="M55.1244 28.101v6.065H29.8552v-5.6681l.1063-.3969h25.1629z" fill="#4C4C78"/><path d="M137.413 28.4979H29.8552a2.921 2.921 0 01.8558-2.0654 2.9202 2.9202 0 012.0659-.8548H134.484c.384-.0012.765.0735 1.12.2197a2.9162 2.9162 0 011.586 1.5809c.147.3549.223.7353.223 1.1196z" fill="#C8CAD7"/><path d="M32.7768 27.7686a.7307.7307 0 00.7308-.7308.7307.7307 0 10-1.4615 0c0 .4036.3271.7308.7307.7308zM34.9677 27.7686a.7308.7308 0 100-1.4616.7308.7308 0 000 1.4616zM37.1586 27.7686a.7308.7308 0 100-1.4616.7308.7308 0 000 1.4616z" fill="#EDEDF4"/><path d="M48.8064 30.7711H33.632v1.3972h15.1744v-1.3972z" fill="#00BAFC"/><path opacity=".5" d="M48.8064 37.5848H33.632v1.3972h15.1744v-1.3972zM48.8064 42.4023H33.632v1.3972h15.1744v-1.3972zM48.8064 47.2198H33.632v1.3972h15.1744v-1.3972zM48.8064 52.0359H33.632v1.3972h15.1744v-1.3972zM48.8064 56.8535H33.632v1.3971h15.1744v-1.3971zM48.8064 61.671H33.632v1.3971h15.1744V61.671zM48.8064 66.4871H33.632v1.3972h15.1744v-1.3972z" fill="#00BAFC"/><path opacity=".5" d="M132.247 35.9091H65.0066v.2246h67.2404v-.2246zM132.247 41.125H65.0066v.2246h67.2404v-.2246zM132.247 46.3424H65.0066v.2246h67.2404v-.2246zM132.247 51.5582H65.0066v.2247h67.2404v-.2247zM132.247 56.7741H65.0066v.2246h67.2404v-.2246z" fill="#DCE0ED"/><path opacity=".5" d="M132.248 56.9972H64.9243v-10.258l6.1743 3.0429 6.3899.8656 5.6067-1.6907 6.7643-5.2458 3.4024-1.9648 2.4874-.4792 2.3796.1273 3.9141 1.9333 5.32 3.3889 4.175.5376 3.311-1.1411 7.016-5.7475 3.582-1.2774 3.748.5796 3.053 1.7625v15.5668z" fill="#00BAFC"/><path d="M76.6589 50.6508c-6.062 0-11.6657-3.7079-11.7346-3.7558l.1662-.2486c.0869.0584 8.7096 5.7639 16.037 2.9052 2.6746-1.0408 4.5734-2.6626 6.4184-4.229 1.9213-1.6368 3.7363-3.1838 6.2087-3.8547 2.8453-.7682 5.9377-.0718 8.2934 1.863 2.013 1.6547 6.023 4.3128 10.259 3.5176 2.16-.4043 3.981-1.9827 5.908-3.6524 3.69-3.2047 7.518-6.5127 14.12-1.7626l-.175.2426c-6.417-4.6109-10.147-1.3792-13.753 1.7461-1.959 1.6982-3.81 3.2946-6.049 3.7214-4.357.8161-8.452-1.8929-10.505-3.5806-2.2805-1.8749-5.2801-2.5458-8.0235-1.8045-2.4095.6529-4.1931 2.1774-6.0934 3.7917-1.8585 1.5829-3.7813 3.2212-6.4993 4.2814a12.5635 12.5635 0 01-4.5779.8192z" fill="#00BAFC"/><path d="M97.3621 42.904c.9205 0 1.6667-.7462 1.6667-1.6667 0-.9205-.7462-1.6667-1.6667-1.6667-.9206 0-1.6668.7462-1.6668 1.6667 0 .9205.7462 1.6667 1.6668 1.6667z" fill="#00BAFC"/><path d="M55.5916 77.4578c-2.2777-1.3118-3.1448-1.6368-3.1448-1.6383l-.0464-.0329a1.8962 1.8962 0 01-.5751-.7263v-.1498.015c.0375-.6948.5302-1.3253.9989-1.8764.3993-.4702.7987-.9399 1.198-1.4092a1.3743 1.3743 0 00.3085-.5001 1.1236 1.1236 0 00.033-.2995v-.1228c0-.3505-.0165-.7009-.0285-1.0483-.012-.307-.0899-.6919-.3968-.7488-.1588-.0329-.3684.024-.4493-.1123a.2517.2517 0 01-.021-.1812v.0135a.0759.0759 0 010-.0165 4.128 4.128 0 00.1138-.7203 1.0323 1.0323 0 00-.0494-.3639c-.1782-.5076-.7877-.7158-1.3268-.8116-.5391-.0959-1.1441-.1782-1.4825-.5991a4.9213 4.9213 0 00-.2995-.4058 1.1796 1.1796 0 00-.5526-.2725 3.1026 3.1026 0 00-2.0037.1752c-.2606.1168-.5226.2725-.8087.2561-.286-.0165-.5511-.2247-.8446-.2741-.4732-.0809-.9269.2681-1.1606.6799a1.6476 1.6476 0 00-.2141.8012v.0464c-.0059.302.1045.5948.3085.8176.2036.2127.5076.3579.599.6365.0344.1138.027.2366.0569.3504 0 .015.009.0285.0135.0434l-.0165.0195a3.5598 3.5598 0 00-.7488 2.1894 3.633 3.633 0 002.5458 3.4443v.1078a1.5487 1.5487 0 01-.4941 1.2055l-3.2317 1.2969s-1.9468-.2307-2.6476 2.6131a4.8123 4.8123 0 00-.1198 1.4422c.0254.4297-.0345 1.1845-.5331 2.1609-.7982 1.5634-.617 5.15 1.0153 5.5049 1.5409.3354 2.1444.1962 2.2073.1797v.0629c-.0254.6739-.2695 6.4783-1.1576 7.1881-.2471.1932-.2006.325 0 .4133v.1048c-.0269.4253-.1647 2.0412-.7592 2.9621-.6829 1.0613-.605 7.2013-.605 7.2013l-.4702 3.623s.289 2.237 0 2.628c-.2591.349-.599 8.627-.6769 10.421h-.03a.8796.8796 0 00-.4017.126.8685.8685 0 00-.2961.3c-.3864.62-1.7192 1.762-1.7192 1.762-.289.412-1.3612.806-1.9273.992a1.1717 1.1717 0 00-.2186.094c-.212.115-.3822.294-.4867.512a.55.55 0 00-.0691.208.5503.5503 0 00.0182.219c.1497.355 3.1553.599 3.916.248.599-.278 2.9711-.647 3.9565-.79a.8117.8117 0 00.4724-.232.808.808 0 00.2314-.472.4645.4645 0 00-.0899-.352c-.1886-.234-.286-.872-.3294-1.288a.8726.8726 0 00.2216-.132 9.4466 9.4466 0 01.5436-3.8c.7248-1.917.9435-5.469.7623-7.779 0 0 2.2118-9.519 3.9534-10.407.027.033.8716 1.117.9794 4.474.1078 3.41 1.3403 5.647 1.3403 5.647s-.5436 5.79 0 7.957l-.7143 3.413a1.3528 1.3528 0 01-.0854-.078s.021.096.0509.247l-.0149.072.0299.007c.0809.427.2007 1.171.1498 1.609-.0285.25-.0974.59-.1498.925-.0749.526-.0958 1.036.1812 1.147.4493.183 3.1193.433 3.5731-.15a.839.839 0 00.1318-.877.8745.8745 0 00-.1318-.223s-.7083-1.158-.5077-1.974a.5964.5964 0 00.0056-.242.5951.5951 0 00-.0909-.225c.1038-1.292.3117-2.574.6214-3.832.4493-1.709 1.4107-5.456.7069-7.921a4.271 4.271 0 00-.0899-.284 10.6348 10.6348 0 01-.3998-4.156 8.4482 8.4482 0 010-3.623c.4313-1.987.7353-3.934.7353-3.934s.2396-2.6277.0299-4.239l-.0135-.1033.1139-.0255s-.6155-2.7345-.8342-4.4746a194.1147 194.1147 0 00-.1916-1.487 3.927 3.927 0 00.5915-.1498c1.9587-.6754 2.5742-6.7853 2.5742-6.7853v-1.9378s.6529-2.9606-1.6323-4.2799zM41.0012 124.63l-.0958-.051.0958.051z" fill="url(#paint0_linear)"/><path d="M54.4102 112.711c.849 2.443-.1498 6.407-.5991 8.177a24.8104 24.8104 0 00-.599 3.893 8.2227 8.2227 0 01-3.1148-.072l.7487-3.645c-.5301-2.159 0-7.929 0-7.929s-1.198-2.231-1.3088-5.629c-.1048-3.344-.9285-4.425-.9554-4.46-1.7117.89-3.8651 10.373-3.8651 10.373.1767 2.301-.036 5.841-.7488 7.753a9.5923 9.5923 0 00-.5316 3.787c-.2471.209-.5915.244-.9629.185-1.0108-.164-2.2223-1.035-2.2223-1.035s.3893-10.333.6724-10.725c.283-.393 0-2.62 0-2.62l.4597-3.61s-.0704-6.124.599-7.1883c.581-.918.7143-2.5293.7413-2.9516v-.1049l1.0243-1.2264s9.9121-.7488 10.6549 0c.1827.1827.2995.599.3624 1.1201.2036 1.6054-.03 4.2241-.03 4.2241s-.2995 1.947-.7218 3.928a8.5983 8.5983 0 000 3.611 10.7823 10.7823 0 00.3969 4.145z" fill="#65617D"/><path d="M53.7901 128.233c-.4418.584-3.043.337-3.4862.15-.2711-.113-.2501-.62-.1768-1.144.0465-.334.1139-.674.1408-.921.0719-.638-.2111-1.931-.2111-1.931s.584.62.7248 0a.6782.6782 0 01.1856-.31.6743.6743 0 01.319-.169c.3034-.092.6297-.071.9195.057.4597.199 1.2265.624 1.0887 1.198-.1947.813.4957 1.966.4957 1.966a.8994.8994 0 01.1288.223.8514.8514 0 01.0602.459.8536.8536 0 01-.189.422z" fill="#A27772"/><path opacity=".1" d="M53.7901 128.233c-.4417.584-3.0429.337-3.4862.15-.2711-.113-.2501-.62-.1767-1.144.2785.13.7487.239 1.5454.166.1851-.018.3712-.024.5571-.018.5632.026 1.1275.015 1.6892-.033a.8505.8505 0 01.0598.458.8475.8475 0 01-.1886.421zM44.7166 113.419c.1767 2.301-.0359 5.841-.7488 7.753a9.5923 9.5923 0 00-.5316 3.787c-.2471.208-.5915.244-.9629.184.2142-1.497 1.1232-7.926 1.7072-13.007.6634-5.788 3.7692-9.77 3.7692-9.77l.62.682c-1.6997.888-3.8531 10.371-3.8531 10.371z" fill="#000"/><path d="M52.7283 76.2165l-.4328 2.1234-2.1159 3.5582-2.6102-1.1157s-3.5491-3.7168-1.3193-4.247a1.9665 1.9665 0 00.7412-.3294c.4373-.331.5751-.8102.5781-1.2804a3.939 3.939 0 00-.3624-1.523l4.5659-1.4331a7.2633 7.2633 0 00-.3279 1.8494c-.0345 1.243.4267 1.8569.8056 2.149.141.1139.3035.1984.4777.2486z" fill="#FBBEBE"/><path opacity=".1" d="M51.7729 71.9695a7.2633 7.2633 0 00-.3279 1.8494 3.609 3.609 0 01-3.8756 1.1067 3.9372 3.9372 0 00-.3624-1.523l4.5659-1.4331z" fill="#000"/><path d="M52.2956 71.3854a3.6106 3.6106 0 11-5.6165-3.002 3.6109 3.6109 0 012.0059-.6085 3.6017 3.6017 0 013.6106 3.6105z" fill="#FBBEBE"/><path opacity=".1" d="M52.7283 76.2164l-.4328 2.1235-2.1159 3.5581-2.6102-1.1156s-3.5491-3.7169-1.3193-4.247a1.9652 1.9652 0 00.7412-.3295c-.4028 1.1067 1.2594 3.4084 1.2594 3.4084.1932.2845.638.1063.638.1063 1.0692-.1617 3.0415-3.2406 3.3619-3.7528.141.114.3035.1985.4777.2486zM54.7725 96.8058c-.6289.1498-4.1062.912-5.424.7203-1.4511-.2126-4.2739-.3534-4.2739-.3534s-1.7971.0959-2.3482-.1497v-.1049l1.0243-1.2264s9.9122-.7488 10.6549 0c.1947.1767.2995.5915.3669 1.1141z" fill="#000"/><path d="M48.2508 79.7207s-1.8674-2.5862-1.1636-3.5941l-3.1553 1.2939s-1.8988-.2306-2.5832 2.6027a4.9425 4.9425 0 00-.1183 1.4391c.0255.4268-.0329 1.1785-.5196 2.1519-.7787 1.5574-.599 5.1335.9913 5.4869 1.5904.3535 2.1595.1767 2.1595.1767s-.2127 6.4783-1.1322 7.2211c-.9194.7428 2.3467.5661 2.3467.5661s2.8213.1497 4.2724.3549c1.4511.2051 5.5214-.7488 5.5214-.7488s-.5991-2.7255-.8147-4.4596c-.2156-1.7341-.7068-5.427-.7068-5.427l3.6105-4.8909s.6364-2.9561-1.5934-4.265c-2.2298-1.3088-3.0699-1.6323-3.0699-1.6323s-2.2463 3.6495-3.4083 3.8262c0 .003-.4433.1827-.6365-.1018z" fill="#FF748E"/><path opacity=".1" d="M44.1087 80.7479s-.0345 1.1681.1782 1.6278c.2126.4598.9898 3.0086.9898 3.0086h-1.7685s.9554-1.0258.885-1.5215c-.0704-.4957-.2845-3.1149-.2845-3.1149z" fill="#000"/><path d="M49.3485 89.5594s-3.9086-.9554-4.2725-1.7685c-.3639-.8132-1.3687-2.6372-1.3687-2.6372l.4118-.5556 1.9019 1.4976s2.2657 1.797 3.3275 1.9827c1.0617.1857 0 1.481 0 1.481z" fill="#FBBEBE"/><path opacity=".05" d="M49.3485 89.5594s-3.9086-.9554-4.2725-1.7685c-.3639-.8132-1.3687-2.6372-1.3687-2.6372l.4118-.5556 1.9019 1.4976s2.2657 1.797 3.3275 1.9827c1.0617.1857 0 1.481 0 1.481z" fill="#000"/><path d="M52.7284 84.9604v2.1205h-.3414a9.9202 9.9202 0 00-4.8131 1.2459l-.6379.3534-.1722.0959-1.0977-2.4709 1.0273-.921h.0524c.2516.024 1.3373.1138 1.797-.0404.4598-.1543.9809-.62 2.2673-.2905.6349.1617 1.1755.873 1.797.6514l.1213-.7443z" fill="#FBBEBE"/><path opacity=".1" d="M56.1442 81.1014l.7083.7966v1.9288s-.599 6.089-2.5128 6.7614c-1.9139.6724-5.3237-.3894-5.3237-.3894s-.8821-2.3361-.4703-2.4784c.4119-.1423 3.645-.9943 3.645-.9943s-.0464-3.5716.6619-4.6334c0 0-.4597-3.3275 1.1322-3.3979 1.5918-.0704 2.1594 2.4066 2.1594 2.4066z" fill="#000"/><path d="M56.2476 81.1014l.7083.7966v1.9288s-.599 6.089-2.5144 6.7614c-1.9153.6724-5.3222-.3894-5.3222-.3894s-.882-2.3361-.4702-2.4784c.4118-.1423 3.6435-.9943 3.6435-.9943s-.0449-3.5716.6634-4.6334c0 0-.4613-3.3275 1.1321-3.3979 1.5934-.0704 2.1595 2.4066 2.1595 2.4066z" fill="#FF748E"/><path opacity=".1" d="M51.3057 72.9189a1.3938 1.3938 0 00-.0809-.6889.5285.5285 0 00-.56-.3235c-.2995.0704-.4343.4643-.7308.5586-.2501.0794-.5242-.0973-.644-.3309a1.6938 1.6938 0 01-.1228-.7698v-.888c0-.322-.0104-.6694-.2096-.9225-.2471-.3145-.8266-.4493-1.213-.4388a1.029 1.029 0 00-.6934.2786.899.899 0 01-.7293.2605.6297.6297 0 01-.5076-.4402.0345.0345 0 010-.012 3.611 3.611 0 012.5287-1.4154 3.6103 3.6103 0 013.6811 4.9883 3.6118 3.6118 0 01-.8397 1.2192c.0598-.356.1003-.7149.1213-1.0752z" fill="#000"/><path d="M46.3205 69.548a.635.635 0 01-.5092-.4402c-.0284-.1138-.021-.2366-.0554-.3489-.0824-.2786-.3789-.4239-.578-.635-.3984-.4223-.3729-1.1186-.0914-1.6278.2291-.4103.6709-.7563 1.1336-.6769.2861.0509.5332.2546.8237.2726.2905.0179.5346-.1378.7892-.2546a2.9708 2.9708 0 011.9557-.1737c.2009.0399.3873.1336.5391.271.1031.1295.1991.2645.2876.4044.3294.4208.9209.5031 1.4466.599.5256.0958 1.1216.2995 1.2938.8101.1153.3355 0 .6994-.0614 1.0483a.2996.2996 0 00.0135.2171c.0824.1363.2875.0794.4493.1108.2995.0629.3743.4493.3848.7488.014.3474.0235.6969.0285 1.0483.0088.13-.0013.2607-.03.3878a1.3718 1.3718 0 01-.2995.4867l-1.1695 1.4047c-.5182.623-1.0678 1.3478-.9644 2.1519-.2456.1094-.5362-.1018-.617-.3594-.0809-.2576-.0165-.5331.0389-.7967a9.7882 9.7882 0 00.1842-1.3822 1.3971 1.3971 0 00-.0809-.6903.5296.5296 0 00-.5615-.3235c-.2995.0704-.4328.4642-.7293.5586-.2501.0809-.5242-.0974-.644-.331a1.7128 1.7128 0 01-.1228-.7697v-.888c0-.322-.0104-.6694-.2096-.9225-.2456-.3145-.8266-.4492-1.213-.4388a1.0285 1.0285 0 00-.6933.2786.8995.8995 0 01-.7383.2605z" fill="#7C5C5C"/><path opacity=".1" d="M47.1351 80.6596l1.1097 4.5525s.873-.0045-1.1097-4.5525zM50.9238 79.8973s-1.4525 2.3781-.885 4.8355l.2696.0195s-.4822-1.1382.6154-4.855zM51.8434 93.3497s1.782-.59 1.9123.7787c0 0-.3369-.939-1.9123-.7787zM46.6934 85.4906s-.3535 2.4784.283 3.4698a7.7783 7.7783 0 01-3.1149.4238l-.2126-3.8936h3.0445z" fill="#000"/><path opacity=".1" d="M46.936 88.6804l-.1722.0958-1.0977-2.4709 1.0273-.921h.0524c-.0165.1198-.3025 2.2478.1902 3.2961z" fill="#000"/><path d="M46.6933 85.3843s-.3534 2.4784.2831 3.4698a7.7786 7.7786 0 01-3.1149.4238l-1.2384-3.8936h4.0702z" fill="#FF748E"/><path d="M43.6309 126.726a.8007.8007 0 01-.2235.469.7997.7997 0 01-.4639.232c-.9599.15-3.2766.509-3.8606.788-.7488.355-3.6809.106-3.8232-.247a.5605.5605 0 01.0509-.427c.0685-.141.1647-.266.2828-.369a1.173 1.173 0 01.4046-.23c.5541-.186 1.5994-.577 1.8809-.987 0 0 1.3028-1.141 1.6742-1.756a.8441.8441 0 01.2874-.298.8482.8482 0 01.394-.126c.31-.015.6544.142.7967.82 0 0 1.6982.969 2.1579.12 0 0 .0704 1.305.3519 1.662.0373.05.0644.106.0798.166.0154.06.0189.122.0101.183z" fill="#A27772"/><path opacity=".1" d="M43.6309 126.726a.8007.8007 0 01-.2235.469.7997.7997 0 01-.4639.232c-.9599.15-3.2766.509-3.8606.788-.7488.355-3.6809.106-3.8232-.247a.5605.5605 0 01.0509-.427c.101-.215.267-.393.4747-.509.4793.317 1.5425.629 3.8816.263 2.2313-.348 3.335-.69 3.8741-.922a.467.467 0 01.0807.168c.0155.06.0186.123.0092.185z" fill="#000"/><g opacity=".1" fill="#000"><path opacity=".1" d="M53.2899 68.8442a.0774.0774 0 000-.018c.07-.2619.1068-.5316.1093-.8026a5.069 5.069 0 01-.1093.6439.3934.3934 0 000 .1767zM51.2248 72.1567a1.047 1.047 0 01.0869.4044 1.2147 1.2147 0 00-.0869-.5631.5313.5313 0 00-.5615-.325c-.2995.0704-.4328.4658-.7293.5601-.2501.0794-.5242-.0988-.644-.3324a1.6748 1.6748 0 01-.1228-.7698v-.8865c0-.322-.0104-.6694-.2096-.9225-.2471-.316-.8266-.4492-1.2145-.4403a1.0229 1.0229 0 00-.6919.2801.8987.8987 0 01-.7293.259.6278.6278 0 01-.5091-.4402c-.03-.1138-.021-.2351-.0554-.3489-.0824-.2786-.3789-.4224-.5781-.6335a1.165 1.165 0 01-.2995-.7488 1.2119 1.2119 0 00.2995.9075c.1992.2112.4957.3564.5781.635.0344.1123.0254.2351.0554.3489a.634.634 0 00.5091.4403.8985.8985 0 00.7293-.2606c.188-.1745.434-.2732.6904-.277.3879-.012.9674.1258 1.2145.4402.1992.2531.2081.5991.2096.9225v.8866a1.6767 1.6767 0 00.1228.7712c.1198.2336.3939.4103.644.3309.2995-.0943.4268-.4881.7293-.56a.5341.5341 0 01.563.3219zM54.1345 71.1819c-.065.1817-.167.348-.2995.4882-.3914.4672-.7813.9349-1.1696 1.4032-.4912.5915-1.0123 1.2758-.9749 2.0306.036-.6919.5181-1.3208.9749-1.8704l1.1696-1.4047a1.3878 1.3878 0 00.2995-.4867 1.3475 1.3475 0 00.0299-.3893.9727.9727 0 01-.0299.2291zM51.0825 74.8673a.832.832 0 01-.0359-.1902.9457.9457 0 00.0359.3489c.0794.2576.3714.4688.617.3594 0-.0524-.0105-.1048-.012-.1497-.2426.0973-.5316-.1168-.605-.3684z"/></g><path opacity=".1" d="M39.3255 124.515s.3699.65 1.7117.076l-1.7117-.076zM50.6543 124.67s1.1576 1.362 2.6147.45l-2.6147-.45zM54.0208 108.569s-.8177.511-.8446.803c-.027.292.4223-.213.4223-.213l.4223-.59zM54.3427 112.483a1.6991 1.6991 0 01-1.0064.393c-.6109.027-.56.823-.1602.584.3998-.24 1.1666-.977 1.1666-.977zM54.4984 112.994s-.3924 1.926-.7114 1.554l.7114-1.554z" fill="#000"/><g opacity=".5" fill="#DCE0ED"><path opacity=".5" d="M80.8324 68.6839h-9.8837v2.0966h9.8837v-2.0966zM103.527 68.6839h-9.8833v2.0966h9.8833v-2.0966zM126.222 68.6839h-9.883v2.0966h9.883v-2.0966z"/></g><path opacity=".1" d="M143.063 120.676c2.228 0 4.033-.305 4.033-.681 0-.376-1.805-.681-4.033-.681-2.227 0-4.032.305-4.032.681 0 .376 1.805.681 4.032.681zM17.6444 129.28c2.2272 0 4.0328-.305 4.0328-.682 0-.376-1.8056-.681-4.0328-.681-2.2273 0-4.0329.305-4.0329.681 0 .377 1.8056.682 4.0329.682z" fill="#00BAFC"/><path d="M134.237 128.315c3.326 0 6.022-.456 6.022-1.018s-2.696-1.018-6.022-1.018-6.021.456-6.021 1.018 2.695 1.018 6.021 1.018z" fill="#00BAFC"/><path d="M136.726 125.633c.275-.224.475-.526.574-.867.074-.344-.072-.756-.4-.882-.369-.141-.763.114-1.062.373-.3.259-.64.551-1.03.497a1.5779 1.5779 0 00.485-1.469.614.614 0 00-.135-.299c-.205-.219-.575-.126-.821.046-.778.548-.995 1.605-1 2.558-.078-.343-.012-.701-.013-1.049-.002-.347-.099-.748-.396-.933-.184-.098-.39-.146-.599-.14-.35-.014-.741.021-.979.277-.3.319-.22.852.037 1.198.258.346.653.569 1.014.811.29.174.538.41.725.691.021.04.039.081.052.124h2.196c.49-.25.945-.565 1.352-.936zM17.8286 118.49s.8236 1.077-.3789 2.696c-1.2025 1.618-2.1939 2.995-1.797 4.008 0 0 1.815-3.017 3.2945-3.059 1.4796-.042.5062-1.83-1.1186-3.645z" fill="#00BAFC"/><path opacity=".1" d="M17.8286 118.49c.072.104.129.218.1692.338 1.4406 1.693 2.2073 3.273.8221 3.312-1.2893.037-2.8363 2.343-3.2077 2.926.0122.045.0267.089.0435.133 0 0 1.815-3.018 3.2945-3.059 1.4796-.042.5032-1.835-1.1216-3.65z" fill="#000"/><path d="M19.3575 119.862c0 .379-.0419.686-.0943.686-.0524 0-.0944-.3-.0944-.686 0-.387.0525-.201.1049-.201.0524 0 .0838-.178.0838.201z" fill="#FFD037"/><path d="M19.8831 120.314c-.3324.181-.6229.291-.6469.244-.0239-.046.2231-.231.5556-.412.3324-.181.2022-.049.2261 0 .024.05.1977-.013-.1348.168z" fill="#FFD037"/><path d="M13.4843 118.49s-.8236 1.077.3789 2.696c1.2025 1.618 2.1939 2.995 1.797 4.008 0 0-1.8135-3.017-3.2945-3.059-1.4811-.042-.5062-1.83 1.1186-3.645z" fill="#00BAFC"/><path opacity=".1" d="M13.4843 118.49c-.072.104-.129.218-.1692.338-1.4406 1.693-2.2074 3.273-.8222 3.312 1.2894.037 2.8363 2.343 3.2077 2.926-.012.045-.027.09-.0449.133 0 0-1.8135-3.018-3.2945-3.059-1.4811-.042-.5017-1.835 1.1231-3.65z" fill="#000"/><path d="M11.9538 119.862c0 .379.0435.686.0959.686s.0943-.3.0943-.686c0-.387-.0524-.201-.1048-.201s-.0854-.178-.0854.201z" fill="#FFD037"/><path d="M11.4297 120.314c.3325.181.6215.291.6469.244.0255-.046-.2231-.231-.5556-.412-.3324-.181-.2021-.049-.2276 0-.0254.05-.1962-.013.1363.168z" fill="#FFD037"/><path d="M12.2204 125.058s2.3002-.072 2.995-.564c.6949-.493 3.5387-1.085 3.7109-.292.1722.792 3.4563 3.937.8596 3.958-2.5967.02-6.0336-.405-6.7254-.826-.6919-.42-.8401-2.276-.8401-2.276z" fill="#A8A8A8"/><path opacity=".2" d="M19.8263 127.884c-2.5967.021-6.035-.404-6.7269-.825-.5256-.322-.7368-1.474-.8056-2.004h-.0779s.1497 1.854.8386 2.276c.6889.423 4.1287.846 6.7254.825.7488 0 1.0078-.272.9943-.667-.1048.242-.3908.39-.9479.395z" fill="#000"/><path d="M70.2494 83.3252c0-3.0609 2.4904-5.4121 5.5529-5.4121h.0434v-1.3927h-.0434c-3.8307 0-6.9455 2.9756-6.9455 6.8048a6.9263 6.9263 0 002.3795 5.2264l.9869-.9869a5.5417 5.5417 0 01-1.9738-4.2395z" fill="#00BAFC"/><path opacity=".5" d="M75.9849 76.522v1.3927a5.551 5.551 0 013.6928 9.6628 5.5517 5.5517 0 01-7.3153.1264l-.9899.9869a6.9417 6.9417 0 006.2546 1.5085 6.9434 6.9434 0 004.8076-4.2757 6.9434 6.9434 0 00-.7684-6.3879 6.9424 6.9424 0 00-5.6844-3.0137h.003zM121.51 77.8428c3.061 0 5.412 2.4904 5.412 5.5528v.0434h1.392v-.0434c0-3.8292-2.975-6.9455-6.804-6.9455a6.9272 6.9272 0 00-2.872.6224 6.9287 6.9287 0 00-2.355 1.7571l.987.9869a5.5422 5.5422 0 011.901-1.456 5.5444 5.5444 0 012.339-.5177z" fill="#00BAFC"/><path d="M128.313 83.5782h-1.393a5.5491 5.5491 0 01-.643 2.5575 5.5587 5.5587 0 01-1.751 1.9719 5.5536 5.5536 0 01-5.084.6399 5.56 5.56 0 01-2.185-1.4765A5.5554 5.5554 0 01116 84.9528a5.5463 5.5463 0 01-.045-2.6368c.196-.8698.6-1.6794 1.176-2.3603l-.983-.9868a6.95 6.95 0 00-1.522 2.9419 6.9373 6.9373 0 00.014 3.3126 6.9495 6.9495 0 001.547 2.929 6.9458 6.9458 0 002.729 1.8786 6.9403 6.9403 0 003.288.4005 6.9472 6.9472 0 003.1-1.1689 6.9506 6.9506 0 002.205-2.472c.525-.9898.802-2.092.808-3.2124h-.004z" fill="#00BAFC"/><path opacity=".5" d="M101.323 76.9293l-.277 1.3867c2.038.8221 3.341 2.8198 3.341 5.1484 0 1.0007-.27 1.9829-.782 2.8426a5.5505 5.5505 0 01-4.9996 2.7057 5.5512 5.5512 0 01-4.2853-8.7757 5.5507 5.5507 0 012.2902-1.8566l-.617-1.2505a6.9427 6.9427 0 00-.921 12.1599 6.9432 6.9432 0 003.5065 1.1083 6.94 6.94 0 003.5802-.8383 6.9416 6.9416 0 002.651-2.5497 6.9469 6.9469 0 00.976-3.5457c0-3.0055-1.779-5.5692-4.463-6.5351z" fill="#00BAFC"/><path d="M99.0153 77.8323a4.8485 4.8485 0 011.9337.4013l.277-1.3852a6.1278 6.1278 0 00-2.2107-.4088 6.914 6.914 0 00-2.8453.6125l.623 1.2474a5.4947 5.4947 0 012.2223-.4672z" fill="#00BAFC"/></g><defs><linearGradient id="paint0_linear" x1="46.1392" y1="128.598" x2="46.1392" y2="65.3548" gradientUnits="userSpaceOnUse"><stop stop-color="gray" stop-opacity=".25"/><stop offset=".54" stop-color="gray" stop-opacity=".12"/><stop offset="1" stop-color="gray" stop-opacity=".1"/></linearGradient><clipPath id="clip0"><path fill="#fff" transform="translate(.39)" d="M0 0h169.22v130H0z"/></clipPath></defs></svg>