<svg width="180" height="130" fill="none" xmlns="http://www.w3.org/2000/svg"><g clip-path="url(#clip0)"><path opacity=".1" d="M57.6649 4.9038C62.496.605 70.0765-.2762 76.9759.066c21.6735 1.0763 41.2371 11.5403 58.1591 23.3765 6.127 4.2838 12.159 8.9016 16.135 14.8023 8.101 12.0098 5.694 28.6507-5.562 38.5442-3.83 3.3679-8.473 5.952-13.24 8.2353-8.475 4.0688-17.619 7.3342-27.237 8.2666-6.8593.6614-13.8033.124-20.6217-.8002-19.0513-2.5874-37.7522-8.3014-53.4258-18.0676-6.8746-4.2888-13.3556-9.6175-16.1895-16.5549-2.8338-6.9373-1.0201-15.7248 6-19.83 2.9033-1.698 6.3753-2.4652 9.7729-3.1844 5.0029-1.0597 10.0853-2.1047 14.6005-4.259 4.6624-2.2253 10.1829-6.5306 9.2587-11.4559-.9887-5.294-1.7839-9.9365 3.0388-14.2352zM141.152 118.215c9.995 0 18.097-.52 18.097-1.161s-8.102-1.16-18.097-1.16c-9.995 0-18.098.519-18.098 1.16 0 .641 8.103 1.161 18.098 1.161zM94.1127 110.448c9.9953 0 18.0973-.52 18.0973-1.161s-8.102-1.161-18.0973-1.161c-9.9949 0-18.0974.52-18.0974 1.161s8.1025 1.161 18.0974 1.161zM27.6718 128.859c9.9949 0 18.0974-.519 18.0974-1.16 0-.641-8.1025-1.161-18.0974-1.161-9.9949 0-18.0974.52-18.0974 1.161s8.1025 1.16 18.0974 1.16zM62.0611 130c4.1127 0 7.4466-.214 7.4466-.478s-3.3339-.478-7.4466-.478c-4.1126 0-7.4466.214-7.4466.478s3.334.478 7.4466.478zM173.65 117.592c3.205 0 5.803-.167 5.803-.372 0-.206-2.598-.372-5.803-.372s-5.804.166-5.804.372c0 .205 2.599.372 5.804.372zM120.387 109.783c2.718 0 4.921-.141 4.921-.316 0-.174-2.203-.316-4.921-.316-2.717 0-4.92.142-4.92.316 0 .175 2.203.316 4.92.316z" fill="#00BAFC"/><path d="M174.485 108.292s.777 1.017-.358 2.551c-1.134 1.534-2.073 2.829-1.694 3.784 0 0 1.714-2.848 3.108-2.888 1.394-.04.48-1.733-1.056-3.447z" fill="#00BAFC"/><path opacity=".1" d="M174.485 108.292c.069.098.125.205.165.319 1.361 1.599 2.085 3.09.777 3.128-1.219.035-2.68 2.214-3.031 2.764.012.042.025.084.042.124 0 0 1.714-2.848 3.108-2.888 1.394-.04.474-1.733-1.061-3.447z" fill="#000"/><path d="M175.931 109.586c0 .359-.039.648-.089.648-.05 0-.089-.289-.089-.648 0-.358.049-.188.099-.188.049 0 .079-.169.079.188z" fill="#FFD037"/><path d="M176.427 110.015c-.314.165-.587.274-.611.231-.025-.043.211-.218.525-.39.314-.172.19-.047.214 0 .023.046.186-.013-.128.159z" fill="#FFD037"/><path d="M170.383 108.292s-.777 1.017.358 2.551c1.136 1.534 2.072 2.829 1.693 3.784 0 0-1.712-2.848-3.108-2.888-1.395-.04-.478-1.733 1.057-3.447z" fill="#00BAFC"/><path opacity=".1" d="M170.383 108.292c-.071.098-.126.205-.166.319-1.36 1.599-2.086 3.09-.778 3.128 1.218.035 2.681 2.214 3.03 2.764-.011.042-.025.084-.041.124 0 0-1.713-2.848-3.108-2.888-1.396-.04-.472-1.733 1.063-3.447z" fill="#000"/><path d="M168.938 109.586c0 .359.039.648.089.648.049 0 .091-.289.091-.648 0-.358-.051-.188-.101-.188-.05 0-.079-.169-.079.188z" fill="#FFD037"/><path d="M168.442 110.015c.314.165.588.274.611.231.024-.043-.211-.218-.525-.39-.315-.172-.191-.047-.214 0-.023.046-.187-.013.128.159z" fill="#FFD037"/><path d="M169.194 114.495s2.172-.066 2.827-.532c.655-.467 3.341-1.024 3.505-.276.164.747 3.264 3.718.812 3.738-2.452.02-5.699-.382-6.354-.779-.655-.397-.79-2.151-.79-2.151z" fill="#A8A8A8"/><path opacity=".2" d="M176.373 117.165c-2.452.02-5.699-.382-6.352-.78-.496-.303-.697-1.391-.763-1.893h-.072s.137 1.752.79 2.149 3.9.799 6.354.779c.707 0 .952-.257.939-.63-.1.23-.369.37-.896.375z" fill="#000"/><path d="M121.26 101.834s.662.868-.307 2.181c-.969 1.312-1.772 2.42-1.448 3.238 0 0 1.464-2.437 2.658-2.48 1.194-.043.407-1.474-.903-2.939z" fill="#00BAFC"/><path opacity=".1" d="M121.26 101.834c.058.084.104.176.136.273 1.157 1.367 1.784 2.645.661 2.675-1.041.029-2.293 1.894-2.592 2.366.01.036.022.071.036.105 0 0 1.465-2.437 2.659-2.48 1.194-.043.41-1.474-.9-2.939z" fill="#000"/><path d="M122.495 102.942c0 .305-.034.553-.076.553-.041 0-.077-.248-.077-.553 0-.306.043-.166.086-.166s.067-.14.067.166z" fill="#FFD037"/><path d="M122.92 103.307c-.269.145-.496.235-.524.197-.028-.038.182-.185.45-.331.268-.145.165-.04.184 0 .018.04.158-.013-.11.134z" fill="#FFD037"/><path d="M117.749 101.834s-.662.868.306 2.181c.967 1.312 1.774 2.42 1.45 3.238 0 0-1.467-2.437-2.661-2.48-1.193-.043-.408-1.474.905-2.939z" fill="#00BAFC"/><path opacity=".1" d="M117.749 101.834c-.059.084-.105.176-.138.273-1.157 1.367-1.783 2.645-.661 2.675 1.043.029 2.293 1.894 2.593 2.366-.01.034-.022.071-.035.105 0 0-1.467-2.437-2.66-2.48-1.194-.043-.412-1.474.901-2.939z" fill="#000"/><path d="M116.512 102.942c0 .305.035.553.078.553s.076-.248.076-.553c0-.306-.043-.166-.086-.166s-.068-.14-.068.166z" fill="#FFD037"/><path d="M116.089 103.307c.268.145.496.235.522.197.027-.038-.18-.185-.45-.331-.269-.145-.165-.04-.183 0-.018.04-.159-.013.111.134z" fill="#FFD037"/><path d="M116.724 107.141s1.858-.058 2.419-.456c.56-.399 2.86-.877 2.999-.237.139.64 2.792 3.183.694 3.199-2.098.017-4.876-.33-5.434-.661-.559-.331-.678-1.845-.678-1.845z" fill="#A8A8A8"/><path opacity=".2" d="M122.874 109.424c-2.1.018-4.877-.33-5.436-.661-.425-.26-.595-1.19-.651-1.62h-.063s.117 1.498.678 1.838c.56.341 3.336.685 5.434.662.605 0 .815-.22.804-.539-.078.205-.316.317-.766.32z" fill="#000"/><g opacity=".8"><path opacity=".8" d="M24.9785 102.799a12.3641 12.3641 0 0112.1207 14.778 12.3638 12.3638 0 01-9.7134 9.712c-2.398.477-4.8836.232-7.1425-.703a12.3647 12.3647 0 01-5.5485-4.552 12.3666 12.3666 0 01-2.0849-6.868 12.359 12.359 0 01.9393-4.734 12.3499 12.3499 0 012.6811-4.013 12.353 12.353 0 014.0138-2.681 12.3648 12.3648 0 014.7344-.939z" fill="#E74D89"/><path opacity=".8" d="M24.9785 128.406a13.2446 13.2446 0 01-12.9741-15.836 13.2465 13.2465 0 013.6269-6.778 13.2408 13.2408 0 016.7805-3.621 13.2446 13.2446 0 0115.8264 12.985 13.2642 13.2642 0 01-3.8877 9.37 13.2607 13.2607 0 01-9.372 3.88zm11.1781-11.436a16.688 16.688 0 00-7.0547-.496 48.2982 48.2982 0 012.2039 8.068 11.251 11.251 0 004.8508-7.572zm-6.7538 8.617a47.203 47.203 0 00-2.4139-8.576.2052.2052 0 01-.0727.02c-6.3918 2.227-8.6817 6.652-8.8884 7.065a11.2775 11.2775 0 006.944 2.382 11.0292 11.0292 0 004.4244-.891h.0066zm-12.8349-2.848c.258-.435 3.3662-5.572 9.2091-7.469.1439-.051.2993-.092.4448-.133-.2794-.644-.5903-1.285-.9226-1.917-5.6544 1.688-11.1451 1.616-11.6428 1.606 0 .114-.0099.228-.0099.34a11.3107 11.3107 0 002.9214 7.573zm-2.6734-9.882a41.8848 41.8848 0 0010.4673-1.378 72.6227 72.6227 0 00-4.1962-6.537 11.3543 11.3543 0 00-6.2711 7.915zm8.432-8.68a59.5085 59.5085 0 014.2276 6.613c4.0292-1.511 5.7271-3.791 5.9355-4.08a11.2842 11.2842 0 00-7.5111-2.849c-.8934.006-1.7831.114-2.652.322v-.006zm11.4163 3.842c-.2381.322-2.1345 2.756-6.3191 4.464.258.539.5175 1.088.7556 1.637.0827.197.1653.393.2497.58 3.7696-.478 7.5094.289 7.8831.362a11.2818 11.2818 0 00-2.5693-7.045v.002z" fill="#B2215A"/></g><path d="M55.6396 77.4256c-.2993-.3753-.6399-2.9561-.6399-2.9561l-1.3226-6.577-.6845-3.7894s-.1653-4.7864-3.1612-7.1606l-.2331-.1836v-.1273a4.3417 4.3417 0 00-.2993-1.3474.9566.9566 0 01-.1074-.4514.4586.4586 0 01.0595-.1752 1.4722 1.4722 0 01.539-.4531c.5439-.3306 1.0069-.8514 1.1325-1.4681a.3557.3557 0 010-.0413c0-.0265 0-.0546.0116-.0827.0116-.0281 0-.0298 0-.0463a.771.771 0 000-.086v-.0364-.1025a.0966.0966 0 010-.0215c0-.038-.0083-.0777-.0149-.1157v-.0083a1.3367 1.3367 0 00-.7671-1.0382.4968.4968 0 00.3389-.2828.6428.6428 0 00.0479-.1273.6433.6433 0 00.0215-.1256v-.0199a.7945.7945 0 000-.1091v-.0347a.7296.7296 0 00-.0231-.1075.1648.1648 0 000-.0281l-.0099-.0231c-.1108-.3175-.3737-.5622-.6002-.8168-1.3061-1.4632-1.5591-3.5216-1.9145-5.4295-.1968-1.0582-.5688-2.2634-1.5939-2.6652a7.916 7.916 0 00-.8828-.2248c-.9094-.2414-1.6534-.8763-2.5429-1.1871a3.8385 3.8385 0 00-1.8699-.1571c-.4778.0794-.8779.3141-1.3392.4249-.992.243-2.1956-.0281-2.976.7738-.5472.5571-.5902 1.4069-.8597 2.1328-.5093 1.3474-1.8319 2.3279-2.1742 3.7282-.2199.9027.0083 1.8187.248 2.7264a9.9663 9.9663 0 01.3638 1.8682 4.2144 4.2144 0 010 .4795 4.6572 4.6572 0 01-.3125 1.359c-1.1177.4134-2.2733.9011-2.3593 1.1756-.1653.5406-2.8636 2.0815-2.8636 2.0815s-1.025.8746-1.025 1.2069c0 .3324-.3406 1.374-.5556 1.374-.2149 0-.6398 4.2044-.6398 4.2044v4.3714s-1.5789 5.1617-1.9427 9.7414c0 0-.6382 2.9248.4034 4.6029.1363.2277.3101.4306.5142.6002l.5324 1.3904a3.2844 3.2844 0 01.7043-.8266c.0265.1736.0562.3769.0926.6034.0446.2844.0976.6068.1653.9524-.3306.5175-1.1292 1.6004-2.0881 2.0055-.8862.3736.2678 1.3623 1.0647 1.9393-.2116 1.0532-.5175 2.3461-.7655 2.5147-.4282.291-1.7938 3.9548-1.7938 3.9548s-2.69 6.2831 1.1755 6.9941c3.8655.71 5.8363-.958 5.8363-.958h.9258s1.1259-.635 1.1574-1.9474c.6299-.5191 1.5971-1.3425 1.7938-1.6748.1968-.3323-.3455-1.4136-.6894-2.0039l.0909-.1653s3.6754-4.7037 4.1449-4.2044c.4696.4993.7688 1.2896.5555 1.7905l.2017 2.8818v4.4955s-.5274 2.04 0 2.248c.5275.209 0 .992 0 .992s.1968.916.2332 1.207c.0189.375.0189.75 0 1.125l-.1769 4.497-.3423 6.659s-.3836.543-.0843.916c.2993.374.1653 1.25.0843 1.416-.081.165-.1273 1.54-.1273 1.54s-1.24 1.29-.2563 1.624l.0381.012c-.4067.377-.4117 1.225-.3803 1.488.0314.262-.2612 1.322-.4811 1.922a1.489 1.489 0 01-.2017.429c-.1505.105 0 1.271 0 1.271s4.8046.395 5.2113 0c.1653-.154.124-.527.0083-.959a9.9345 9.9345 0 00-.7341-1.81c-.2794-.519-.1488-1.186-.1488-1.186v-.496c.3224.052.5323.081.5323.081s.5986-.496.3423-.957c-.2563-.461.4695-3.037.4695-3.037s.8118-2.915.8118-3.206c0-.291 1.0681-4.079 1.0681-4.079s1.5806-6.702.8118-9.867c0 0 .6828-.79.5968-.992-.086-.202-.2844-1.083.0083-1.4564.2926-.3737 1.531-5.0377 1.8732-5.828.1571-.3654.5506-1.374.9275-2.3577 1.7013-.2546 3.7283-.7241 3.7283-.7241s-.3026-1.288-.5274-2.604l.1852-.9044.0661-.3125c.1527.15.2886.3163.4051.496l.3405-1.6649s.0381-.0579.1025-.1653c.3985-.6233 1.8501-2.8636 2.5462-3.5431.8118-.8052.3009-4.3863 0-4.76z" fill="url(#paint0_linear)"/><path d="M45.2748 49.572h-4.712v5.2906h4.712V49.572z" fill="#925978"/><path opacity=".1" d="M45.2748 49.572h-4.712v5.2906h4.712V49.572z" fill="#000"/><path d="M33.6585 95.1626s1.1987 1.9013.9093 2.3973c-.2893.496-2.27 2.108-2.27 2.108l-.5853-3.968 1.946-.5373z" fill="#FF6484"/><path d="M29.9385 101.28l.8746-.124h.8961s1.1904-.685 1.1226-2.108c-.0678-1.4235 0-2.8107 0-2.8107l-2.8933 5.0427z" fill="#575988"/><path opacity=".1" d="M29.9385 101.28l.8746-.124h.8961s1.1904-.685 1.1226-2.108c-.0678-1.4235 0-2.8107 0-2.8107l-2.8933 5.0427z" fill="#000"/><path d="M31.7092 81.8946l-4.96 5.456s-.5787 3.596-.992 3.8853c-.4133.2894-1.7261 3.9267-1.7261 3.9267s-2.6007 6.2414 1.1375 6.9444c3.7382.702 5.6412-.951 5.6412-.951l3.1744-5.7454s3.5563-4.6707 4.011-4.1747c.4547.496.744 1.2814.5373 1.7774l.1935 2.852v4.4637s-.5093 2.026 0 2.232c.5092.207 0 .992 0 .992s.1917.91.2265 1.199c.0347.289 0 1.116 0 1.116l-.1654 4.464-.3306 6.613s-.372.538-.0827.91.1653 1.24.0827 1.405c-.0827.165-.124 1.529-.124 1.529s-1.1987 1.282-.248 1.612c.9506.331 3.72.744 3.72.744s.5786-.496.3306-.95c-.248-.455.4547-3.018.4547-3.018s.7853-2.893.7853-3.182c0-.29 1.0334-4.051 1.0334-4.051s1.5293-6.655.7853-9.796c0 0 .6613-.785.5787-.992-.0827-.207-.2761-1.075 0-1.4467.2761-.372 1.488-5.0014 1.8186-5.7867.3307-.7853 1.736-4.588 1.736-4.588v-7.0267l-17.6179-.4133z" fill="#575988"/><path d="M46.5165 56.9706l-2.8537 5.3915-.7522 1.4186-.1141.2166-7.3574.2893s-.2099-.4646-.5075-1.1854c-.5142-1.2483-1.2913-3.2687-1.6831-4.9733a10.219 10.219 0 01-.215-1.2383c-.1091-1.0317.0563-1.7674.7176-1.8303a1.2983 1.2983 0 01.496.0513 3.7575 3.7575 0 001.4186.1372c1.7459-.2116 2.2568-2.0551 2.3427-3.7878 0-.1223.0116-.2447.0133-.3653 0-.3754 0-.7391-.0248-1.0731a15.0764 15.0764 0 00-.1951-1.6897 7.1742 7.1742 0 011.3656-.5042c1.3954-.3572 3.3612-.3472 3.3877 2.5296a9.2224 9.2224 0 00.1885 1.898 4.287 4.287 0 00.3554 1.0267c.4845.9308 1.1574 1.0317 1.4732 1.0201a.8241.8241 0 00.1736-.0182l1.7707 2.6867z" fill="#FFC5CB"/><path opacity=".1" d="M39.1724 60.0921c.1018.2929.1538.6009.1537.911a4.1286 4.1286 0 01-.0231.9804 1.3907 1.3907 0 01-.4596.8482M41.254 52.6752c2.4425 0 4.4226-1.9801 4.4226-4.4226 0-2.4426-1.9801-4.4227-4.4226-4.4227-2.4426 0-4.4227 1.9801-4.4227 4.4227 0 2.4425 1.9801 4.4226 4.4227 4.4226z" fill="#000"/><path d="M45.675 48.0872a4.4213 4.4213 0 01-2.8059 4.1173 4.421 4.421 0 01-4.8573-1.1099 1.5114 1.5114 0 01-.1091-.124 4.4212 4.4212 0 01.0665-5.8462 4.4215 4.4215 0 015.8084-.668 4.4215 4.4215 0 011.8957 3.6308h.0017z" fill="#FFC5CB"/><path opacity=".1" d="M34.1545 59.1199s1.5707 4.092 4.8774 3.4307c0 0 3.3381.2612 5.2493-2.1907 1.9113-2.4519 2.0254 14.0534 2.0254 14.0534l-.744 10.9533s-5.3287 3.1826-7.6434 2.7693c-2.3147-.4133-3.4307-1.6533-3.4307-1.6533s-2.4386-2.2734-3.1-2.5627c-.6613-.2893.2894-14.384.2894-14.384l.7853-5.2906 1.6913-5.1254z" fill="#000"/><path d="M34.1545 58.7892s1.5707 4.092 4.8774 3.4307c0 0 3.3381.2612 5.2493-2.1907 1.9113-2.4518 2.0254 14.0534 2.0254 14.0534l-.744 10.9533s-5.3287 3.1827-7.6434 2.7694c-2.3147-.4134-3.4307-1.6534-3.4307-1.6534s-2.4386-2.2733-3.1-2.5626c-.6613-.2894.2894-14.384.2894-14.384l.7853-5.2907 1.6913-5.1254z" fill="#E8F4FF"/><path opacity=".1" d="M33.9892 81.8946s3.5547 3.968 3.348 4.3813c-.2066.4134-3.4306-3.1826-3.348-4.3813zM33.3775 72.0275s1.1358 1.5873 1.8467 1.4219l-1.8467-1.4219z" fill="#000"/><path opacity=".1" d="M35.8327 55.1106s0 .0479-.0116.1372c-.038.5076-.1802 2.3477-.372 4.3979-.1075 1.1573-.2298 2.3709-.3555 3.4554-.205 1.7642-.4232 3.1761-.6084 3.3762-.5373.5786-.3307 6.0346-.3307 6.0346v6.9027s-.453 2.1906-.8266 2.6866c-.3737.496-1.2863 2.356-2.0171 2.604a2.5581 2.5581 0 00-.6828.544c-.6614.6613-1.5972 1.7641-2.3147 2.6337-.5919.7259-1.03 1.2863-1.03 1.2863s-2.8934-1.8186-1.6534-2.356c.9276-.4017 1.6947-1.4764 2.0204-1.984.1108-.1653.1653-.2827.1653-.2827a7.6715 7.6715 0 01.2629-1.1375 3.8728 3.8728 0 01.458-.992 1.131 1.131 0 01.6845-.5175c1.0746-.2066 1.612-10.416 1.612-10.416l-3.3067-7.2151-.3307-.7209s.4134-4.1746.62-4.1746c.2067 0 .5374-1.0334.5374-1.364 0-.3307.992-1.1987.992-1.1987s2.6222-1.5343 2.7875-2.0716c.0876-.2827 1.2896-.7936 2.4089-1.2136 1.0052-.3769 1.9427-.6811 1.9427-.6811.5472.8333-.6514 2.2667-.6514 2.2667z" fill="#000"/><path d="M35.6673 55.1106s0 .0479-.0115.1372a261.1989 261.1989 0 01-.372 4.3979c-.1075 1.1573-.2298 2.3709-.3555 3.4554-.205 1.7642-.4233 3.1761-.6084 3.3762-.5374.5786-.3307 6.0346-.3307 6.0346v6.9027s-.453 2.1906-.8267 2.6866c-.3736.496-1.2863 2.356-2.017 2.604a2.5601 2.5601 0 00-.6829.544c-.6613.6613-1.5971 1.7641-2.3146 2.6337-.5919.7259-1.0301 1.2863-1.0301 1.2863s-2.8933-1.8186-1.6533-2.356c.9275-.4017 1.6947-1.4764 2.0204-1.984.1108-.1653.1653-.2827.1653-.2827a7.659 7.659 0 01.2629-1.1375 3.8728 3.8728 0 01.458-.992 1.131 1.131 0 01.6844-.5175c1.0747-.2066 1.6121-10.416 1.6121-10.416l-3.3067-7.2151-.3307-.7209s.4133-4.1746.62-4.1746.5373-1.0334.5373-1.364c0-.3307.992-1.1987.992-1.1987s2.6222-1.5343 2.7876-2.0716c.0876-.2827 1.2896-.7936 2.4089-1.2136 1.0052-.3769 1.9427-.6811 1.9427-.6811.5472.8333-.6515 2.2667-.6515 2.2667z" fill="#FF6484"/><path opacity=".1" d="M52.1081 64.6074l-3.5695 4.1845s3.1 16.0787 2.728 16.8227a.6441.6441 0 00-.0546.1951 4.94 4.94 0 00.0215 1.1573c.043.4051.1091.8548.1835 1.3029.2183 1.3061.5109 2.5858.5109 2.5858s-4.1747.992-5.456.868c-1.2813-.124-.5373-2.1907-.3307-3.1413.2067-.9507-1.4053-2.2816-1.4053-2.2816l-2.2733-9.3331s-.1654-2.0667-.6614-3.0587-.0413-2.0667-.2066-3.472c-.1174-1.0019.6034-4.583 1.1474-6.6646.2066-.7919.3885-1.3656.496-1.4995a.1016.1016 0 01.0165-.0199c.3307-.2893 0-1.984 0-1.984s.7853-4.464.7027-4.836c-.0463-.2116.2133-.7308.4464-1.1391.1769-.3092.3389-.5556.3389-.5556s1.5988 1.0135 4.34 3.229l.248.2017c2.8934 2.356 3.0587 7.1093 3.0587 7.1093l-.2811.3291z" fill="#000"/><path d="M52.2734 64.6074l-3.5695 4.1845s3.1 16.0787 2.728 16.8227a.6441.6441 0 00-.0546.1951 4.94 4.94 0 00.0215 1.1573c.043.4051.1091.8548.1835 1.3029.2183 1.3061.5109 2.5858.5109 2.5858s-4.1747.992-5.456.868c-1.2813-.124-.5373-2.1907-.3307-3.1413.2067-.9507-1.4053-2.2816-1.4053-2.2816l-2.2733-9.3331s-.1654-2.0667-.6614-3.0587-.0413-2.0667-.2066-3.472c-.1174-1.0019.6034-4.583 1.1474-6.6646.2067-.7919.3885-1.3656.496-1.4995a.1052.1052 0 01.0165-.0199c.3307-.2893 0-1.984 0-1.984s.7854-4.464.7027-4.836c-.0463-.2116.2133-.7308.4464-1.1391.1769-.3092.3389-.5556.3389-.5556s1.5988 1.0135 4.34 3.229l.248.2017c2.8934 2.356 3.0587 7.1093 3.0587 7.1093l-.2811.3291z" fill="#FF6484"/><path opacity=".1" d="M44.7359 66.8492c-.0414.3307.992 17.8974 2.0666 18.9307l-2.0666-18.9307z" fill="#000"/><path d="M30.7999 91.2773c-1.1574.7274-2.0402-1.1871-2.6454-3.3943-.2827-1.0367-.496-2.1378-.6613-3.0604a36.753 36.753 0 01-.1554-.9457c-.1141-.7374-.1653-1.2201-.1653-1.2201l1.2168-.2447 1.3458-.2695.1654 1.5194.0777.6894s.2116.3505.496.8978c.7985 1.6004 2.1543 4.8889.3257 6.0281zM52.0519 85.9535l-.2893 1.4269-.1802.8977-.01.0447s-3.6125 4.8972-4.7699 2.8718c-.8845-1.5475 1.2731-4.0854 2.3379-5.1948.3306-.3439.5555-.5505.5555-.5505l1.6814.3604.6746.1438z" fill="#FFC5CB"/><path d="M42.1318 127.485c-.3935.392-5.0426 0-5.0426 0s-.1455-1.157 0-1.261c.0877-.131.1536-.275.1951-.427.2132-.603.496-1.653.4662-1.908-.0413-.35-.0198-1.756.9292-1.653 0 0 1.24-2.521 2.6056.579v.744c-.0682.398-.0181.807.1439 1.177.2943.575.5324 1.176.7109 1.797.1124.428.1455.797-.0083.952z" fill="#FF6484"/><path d="M42.1318 127.485c-.3935.392-5.0426 0-5.0426 0s-.1455-1.157 0-1.261c.0877-.131.1536-.275.1951-.427.615-.263 1.4516-.517 2.0369-.296.739.281 2.103.774 2.8106 1.032.1207.428.1538.797 0 .952z" fill="#E8F4FF"/><path opacity=".1" d="M37.9985 51.46c.1173.4729.2794.9507.286 1.4335.0099.6613-.2761 1.2995-.5803 1.8947-.3472.6812-.7391 1.4119-.6234 2.1675a6.388 6.388 0 00.2464.8432 3.7021 3.7021 0 01-.2348 2.6652c-.2711.5472-.8266 1.0763-1.4202.8994-.0446-.5836-.1174-1.2202-.3935-1.7178a1.6415 1.6415 0 00-.4414-.5192c-.4299-.3306-1.0234-.4001-1.4136-.7737a1.1836 1.1836 0 01-.1835-.2249 1.726 1.726 0 01-.2315-1.0647c0-.0562.0116-.1125.0215-.1654a4.473 4.473 0 01.4001-1.1573c.1025-.2215.21-.4431.3174-.6613a10.4546 10.4546 0 00.625-1.5343c1.0052-.377 1.9427-.6812 1.9427-.6812.5505.8267-.6481 2.2667-.6481 2.2667s0 .048-.0116.1373c1.7459-.2315 2.2634-2.075 2.3428-3.8077zM40.4752 45.2402c-.4828.1537-.9441.4612-1.1574.9242-.2281.5125-.1107 1.1044-.1653 1.6632a2.093 2.093 0 01-.0694.3621c-.205.6861-.8482 1.1706-1.1012 1.8319a2.0991 2.0991 0 00-.0496.1521 1.9382 1.9382 0 00-.0347.7969 4.4197 4.4197 0 01-.5-5.0453 4.4191 4.4191 0 014.5701-2.195 4.419 4.419 0 013.6255 3.5441 4.419 4.419 0 01-2.0908 4.6188c.1868-.5572.3836-1.1127.5357-1.6815.3571-1.3375.4183-2.8834-.4232-3.9828a2.945 2.945 0 00-3.1397-.9887zM49.1123 58.6272c-.1455.5274-.5159 1.1061-1.0615 1.0813-.2595-.0116-.496-.1653-.7556-.1901-.3686-.0331-.7175.205-.939.496a6.7126 6.7126 0 00-.5225.9821c-.4067.7903-1.2036 1.5012-2.0832 1.3772l-.0909-.0166a1.3417 1.3417 0 01-.2629-.081c-.7887-.3306-1.2152-1.3458-1.1871-2.2435.0331-1.0235.4613-1.9923.6018-3.0075.1306-.9357.0116-1.8897.1124-2.8288a6.9069 6.9069 0 01.1654-.9193c.4844.9309 1.1573 1.0317 1.4731 1.0201.1769-.3091.3389-.5555.3389-.5555s1.5988 1.0135 4.34 3.229a4.417 4.417 0 01-.1289 1.6566z" fill="#000"/><path d="M42.8792 40.3265c.858.3092 1.5805.9391 2.4601 1.1788.2891.0569.5745.1309.8548.2216.992.3984 1.3524 1.5954 1.5426 2.6453.3422 1.8947.5885 3.9382 1.8517 5.3915.2248.2579.4861.5059.5902.8267.1042.3207-.0363.7638-.372.8349.5754.2431.8581.954.7374 1.5674-.1207.6134-.5687 1.1193-1.0961 1.4566-.2464.1653-.544.3306-.5771.6216a.9696.9696 0 00.1042.4497 4.442 4.442 0 01.1405 2.7677c-.1455.5258-.5158 1.1061-1.0614 1.0813-.2596-.0116-.496-.1654-.7539-.1902-.3704-.033-.7176.2051-.9408.496a6.6356 6.6356 0 00-.5224.9821c-.4051.7903-1.202 1.5013-2.0832 1.3773-1.0135-.1439-1.5723-1.3227-1.5409-2.3412.0314-1.0184.4629-1.9922.6034-3.0074.129-.9358.0099-1.8897.1125-2.8288.1488-1.3756.7621-2.6536 1.1193-3.9895.3571-1.3359.4166-2.8834-.4249-3.9829a2.9433 2.9433 0 00-3.1414-.992c-.4844.1538-.944.4613-1.1573.9242-.2778.625-.0413 1.369-.2364 2.0253-.2199.7374-.9474 1.2434-1.1574 1.984-.2447.8912.3307 1.7972.3472 2.7198.01.6613-.2761 1.2995-.5786 1.8947-.3489.6812-.7407 1.4119-.6233 2.1675.062.2864.1438.5681.2446.8432a3.7101 3.7101 0 01-.2281 2.6817c-.2712.5473-.8366 1.0763-1.4202.8994-.0645-.8184-.1802-1.7409-.835-2.2369-.4315-.3307-1.025-.4001-1.4152-.7754a1.5973 1.5973 0 01-.4183-1.2929 4.0433 4.0433 0 01.4216-1.3326c.4745-1.0251 1.0515-2.0469 1.1176-3.1744.0992-1.7013-.992-3.3778-.5952-5.0377.3307-1.3888 1.6137-2.3627 2.0998-3.7052.2596-.7208.3009-1.5657.8266-2.1195.7606-.7953 1.9229-.5258 2.8851-.7655.4464-.1124.8267-.3439 1.2962-.4216a3.5783 3.5783 0 011.8237.1554z" fill="#925978"/><path opacity=".1" d="M31.1405 75.6086v5.3733c0 .2216 0 .4514-.0133.6829-.0562 1.488-.2827 3.0371-.2827 3.0371a4.9839 4.9839 0 00-.9457-1.0399c-.7919-.6233-1.4665-.544-1.9741-.2596a2.4816 2.4816 0 00-.5886.4745c-.114-.7374-.1653-1.2201-.1653-1.2201l1.2169-.2447a1.1304 1.1304 0 01.6844-.5175c1.0747-.2067 1.612-10.416 1.612-10.416l-3.3066-7.2152v-.3521l1.1176-1.7774c1.86-1.612 2.3147.7027 2.3147.7027s.3307 6.2827.3307 6.448v6.324z" fill="#000"/><path d="M30.8098 75.2399v5.3733c0 .2216 0 .4514-.0132.6828-.0562 1.488-.2827 3.0372-.2827 3.0372-2.3147-3.2653-3.9482-.2315-3.9482-.2315l-.5158-1.3805a2.326 2.326 0 01-.496-.5952c-1.0069-1.6665-.3902-4.5715-.3902-4.5715.3521-4.5466 1.8798-9.672 1.8798-9.672v-4.34l1.121-1.7773c1.86-1.612 2.6453.7027 2.6453.7027v12.772z" fill="#FF6484"/><path opacity=".1" d="M30.7999 81.1308c-.0562 1.488-.2828 3.0371-.2828 3.0371-2.3146-3.2653-3.9481-.2314-3.9481-.2314l-.5159-1.3806a2.33 2.33 0 01-.496-.5952c1.078-.5935 3.4539-1.688 5.2428-.8299z" fill="#000"/><path d="M30.7999 81.2961c-.0562 1.488-.2828 3.0372-.2828 3.0372-2.3146-3.2654-3.9481-.2315-3.9481-.2315l-.5159-1.3805a2.33 2.33 0 01-.496-.5952c1.078-.5936 3.4539-1.6881 5.2428-.83z" fill="#FF6484"/><path opacity=".1" d="M30.7999 81.2961c-.0562 1.488-.2828 3.0372-.2828 3.0372-2.3146-3.2654-3.9481-.2315-3.9481-.2315l-.5159-1.3805a2.33 2.33 0 01-.496-.5952c1.078-.5936 3.4539-1.6881 5.2428-.83z" fill="#fff"/><path opacity=".1" d="M27.6685 70.1146s.744 4.092 1.488 5.2907c.744 1.1986-1.488-5.2907-1.488-5.2907zM25.7638 77.0586s.4547 2.48 1.4053 2.7693c.9507.2893-1.4053-2.7693-1.4053-2.7693zM51.3773 85.8097l.6745.1438-.2893 1.4269a3.281 3.281 0 00-.3637-.4051 3.548 3.548 0 00-2.2585-.9755 4.3319 4.3319 0 00-1.0978.0695 9.2761 9.2761 0 00.3108-1.7179 1.1086 1.1086 0 00-.1041-.6381c-.3307-.4547-.496-4.6707-.496-4.6707s.2893-2.1493.4546-2.5627c.1654-.4133-.7439-2.5263-.7026-3.1645.0413-.6381.5373-6.1355.5373-6.4248 0-.2893 1.0747-5.952 3.3067-3.8027l.868 1.1987.0562.3207-3.5696 4.1846s3.1 16.0787 2.728 16.8227a.6431.6431 0 00-.0545.1951z" fill="#000"/><path d="M55.1138 82.2253c-.6746.6746-2.0782 2.9-2.4635 3.5183l-.0992.1654-.3306 1.6533s-1.1574-1.984-3.844-1.488a9.2849 9.2849 0 00.3108-1.7178 1.109 1.109 0 00-.1042-.6382c-.3306-.4547-.496-4.6707-.496-4.6707s.2894-2.1493.4547-2.5627c.1653-.4133-.744-2.5263-.7027-3.1644.0414-.6382.5374-6.1356.5374-6.4249 0-.2893 1.0746-5.952 3.3066-3.8027l.868 1.1987.6614 3.7613 1.2813 6.5307s.3307 2.5627.62 2.9347c.2893.372.782 3.9217 0 4.707z" fill="#FF6484"/><path opacity=".1" d="M52.647 85.5782l-.0992.1654-.3306 1.6533s-1.1574-1.984-3.844-1.488a9.2849 9.2849 0 00.3108-1.7178c.9209.0579 2.7759.3174 3.963 1.3871z" fill="#000"/><path d="M52.647 85.7436l-.0992.1653-.3306 1.6534s-1.1574-1.984-3.844-1.488a9.286 9.286 0 00.3108-1.7179c.9209.0579 2.7759.3175 3.963 1.3872z" fill="#FF6484"/><path opacity=".1" d="M52.647 85.7436l-.0992.1653-.3306 1.6534s-1.1574-1.984-3.844-1.488a9.286 9.286 0 00.3108-1.7179c.9209.0579 2.7759.3175 3.963 1.3872z" fill="#fff"/><path opacity=".1" d="M49.9438 74.1239s2.8107-.0347 3.224 1.4285c.4134 1.4632-3.224-1.4285-3.224-1.4285zM49.4065 78.2573s4.7533-.2067 4.5467 1.86c-.2067 2.0667-4.5467-1.86-4.5467-1.86zM49.6958 81.4399s.372-.0826.62.7853c.248.868-.62-.7853-.62-.7853zM40.0685 101.652s1.1325-.331 1.6533 0c.5208.331-1.6533 0-1.6533 0zM40.2719 102.851s2.6866.041 2.9346.33c.248.29-2.9346-.33-2.9346-.33z" fill="#000"/><g opacity=".1" fill="#000"><path opacity=".1" d="M34.5497 51.7246c.0793-1.3524-.587-2.6867-.6696-4.011-.086 1.3359.5919 2.6817.6613 4.0441a.2504.2504 0 00.0083-.0331zM37.7059 53.9599c-.3439.6713-.7275 1.3888-.6283 2.1345.0711-.5671.3621-1.116.6283-1.6368.3025-.5952.5886-1.2268.5803-1.8948 0-.0727-.005-.1454-.0149-.2182-.0578.5654-.3058 1.1044-.5654 1.6153zM49.8034 50.9359c.1226.0519.2347.1259.3306.2183a.777.777 0 00.043-.5556s0-.0148-.0082-.0231a.5084.5084 0 01-.3654.3604zM37.0925 59.6358c-.2712.5472-.8366 1.0763-1.4202.8994-.0645-.8184-.1802-1.741-.835-2.237-.4315-.3306-1.025-.4001-1.4136-.7737a1.4538 1.4538 0 01-.41-.8763c0 .0264-.0083.0529-.0099.0794a1.5919 1.5919 0 00.4199 1.2929c.3886.3753.9821.4497 1.4136.7754.6614.496.7705 1.4186.835 2.237.5836.1769 1.149-.3522 1.4202-.8995a3.7072 3.7072 0 00.3654-1.8699 3.6698 3.6698 0 01-.3654 1.3723zM50.5407 52.5034c-.1207.6117-.5688 1.1193-1.0945 1.4565-.248.1654-.5456.3307-.5787.6217a.7198.7198 0 00.0562.3307 1.4504 1.4504 0 01.5225-.4498c.5257-.3306.9738-.8448 1.0945-1.4565a1.5069 1.5069 0 000-.5374.3366.3366 0 010 .0348zM49.1123 57.7989c-.1455.5258-.5142 1.1061-1.0615 1.0813-.2596-.0115-.496-.1653-.7539-.1901-.3704-.0331-.7176.205-.9408.496a6.5655 6.5655 0 00-.5208.9821c-.4067.7903-1.2036 1.5012-2.0832 1.3772-.8795-.124-1.4433-1.0714-1.5293-1.9989 0 .0513-.0116.1025-.0116.1554-.033 1.0234.5258 2.1973 1.5409 2.3412.8796.124 1.6765-.587 2.0832-1.3773a6.4922 6.4922 0 01.5208-.9821c.2232-.2959.5704-.534.9408-.496.2579.0248.496.1786.7539.1902.5473.0248.916-.5555 1.0615-1.0813a4.3612 4.3612 0 00.1471-1.4318 4.3678 4.3678 0 01-.1471.9341zM43.6199 45.8982c.4191.5777.65 1.2704.6613 1.984.043-.8994-.1256-1.7856-.6613-2.4899a2.9433 2.9433 0 00-3.1414-.992c-.4844.1538-.944.4613-1.1573.9242-.2794.625-.043 1.3706-.2381 2.0254-.2199.7373-.9473 1.2433-1.1573 1.984a1.8972 1.8972 0 00-.043.7274 1.6608 1.6608 0 01.043-.2298c.2034-.7407.9308-1.2466 1.1573-1.984.1951-.6613-.0413-1.4004.2381-2.0253.2067-.463.6613-.7705 1.1573-.9242a2.9435 2.9435 0 013.1414 1.0002z"/></g><g opacity=".8"><path opacity=".8" d="M94.4317 109.289c7.3233 0 13.2603-5.937 13.2603-13.26 0-7.3232-5.937-13.2598-13.2603-13.2598-7.3231 0-13.2597 5.9366-13.2597 13.2598 0 7.323 5.9366 13.26 13.2597 13.26z" fill="#1769FF"/><path opacity=".8" d="M90.5382 90.0191a7.4989 7.4989 0 011.5657.1521 3.361 3.361 0 011.2118.496 2.325 2.325 0 01.7821.9176 3.205 3.205 0 01.2794 1.4153 2.6456 2.6456 0 01-.4133 1.5144 3.0007 3.0007 0 01-1.2202.992 2.8953 2.8953 0 011.6533 1.1193 3.6744 3.6744 0 01.1935 3.5022 3.0455 3.0455 0 01-.9507 1.084 4.2192 4.2192 0 01-1.364.624 6.2708 6.2708 0 01-1.5723.201h-5.8197V90.0191h5.6544zm-.3307 4.8641a1.9045 1.9045 0 001.1573-.3306c.3042-.2205.4558-.5853.4547-1.0945a1.4013 1.4013 0 00-.1521-.6895 1.1244 1.1244 0 00-.4034-.4216 1.7214 1.7214 0 00-.5804-.21 3.925 3.925 0 00-.6828-.0578h-2.48v2.8106l2.6867-.0066zm.1521 5.0989a3.4854 3.4854 0 00.7407-.076 1.801 1.801 0 00.6216-.2513 1.2713 1.2713 0 00.4299-.4795 1.666 1.666 0 00.1653-.7754c0-.6151-.1736-1.0565-.5224-1.3227a2.2226 2.2226 0 00-1.3805-.3968h-2.8768v3.3067l2.8222-.005zm7.9194-.2529c.3594.3478.8752.5228 1.5476.5228a2.134 2.134 0 001.2494-.3674 1.495 1.495 0 00.64-.7655h2.103c-.337 1.0439-.853 1.7899-1.549 2.2389-.76.468-1.64.703-2.5327.676a4.9771 4.9771 0 01-1.8501-.331 3.834 3.834 0 01-1.3971-.934 4.1986 4.1986 0 01-.8845-1.4466 5.326 5.326 0 01-.3108-1.8517 5.0713 5.0713 0 01.3191-1.8187 4.207 4.207 0 012.3146-2.4221 4.4939 4.4939 0 011.8104-.3538 4.1404 4.1404 0 011.9361.4299c.535.2751.999.6714 1.354 1.1573.36.4962.62 1.0578.766 1.6533.157.6325.213 1.286.165 1.9361h-6.2828c.0331.7704.2298 1.3326.5886 1.6781l.0132-.0016zm2.702-4.5765c-.287-.3141-.722-.4712-1.3049-.4712a2.0752 2.0752 0 00-.9506.1935 1.779 1.779 0 00-.6052.4794 1.7594 1.7594 0 00-.3207.6052 2.8039 2.8039 0 00-.1091.572h3.8815c-.11-.6051-.309-1.0647-.598-1.3789h.007zm-3.7072-4.5268h4.8562v1.3475h-4.8562v-1.3475z" fill="#fff"/></g><g opacity=".8"><path opacity=".8" d="M154.352 103.795v.375a13.2601 13.2601 0 01-3.456 8.557 13.2657 13.2657 0 01-8.202 4.232c-.529.063-1.062.094-1.595.094-2.623 0-5.187-.778-7.367-2.235a13.2602 13.2602 0 01-4.884-5.951 13.2612 13.2612 0 012.875-14.4506 13.2627 13.2627 0 016.79-3.6285 13.261 13.261 0 0113.612 5.6396 13.269 13.269 0 012.234 7.3675h-.007z" fill="#B3BBC6"/><path opacity=".8" d="M154.345 104.17a13.2549 13.2549 0 01-3.456 8.557 13.2595 13.2595 0 01-8.201 4.231l-10.826-8.053 1.352-8.763 5.354.331 3.045 2.553 2.166-3.53 3.637 3.022 1.956 1.401v-4.4197l4.93 4.5627c.012.037.03.072.043.108z" fill="#666C76"/><path opacity=".8" d="M140.143 104.12c0-2.81-1.728-4.715-5.018-4.715h-3.249v9.46h3.317c3.194 0 4.95-1.934 4.95-4.745zm-2.359.015c0 2.029-1.042 2.907-2.713 2.907h-.852v-5.813h.852c1.603 0 2.713.917 2.713 2.906zm11.696 4.73v-9.46h-2.181v5.291l-3.482-5.291h-2.277v9.459h2.181v-5.661l3.728 5.661h2.031v.001z" fill="#fff"/></g><path d="M144.382 89.6884c-.165-.3307-1.708-2.5429-1.708-2.5429l-.046-.1984-.506-2.2568-.035-.1653c.331-.0843.569-.1885.644-.3191.363-.6365-.308-1.4103-.308-1.4103l-.14-3.3463-.364-8.1014s-.756-2.7114-.868-3.3463c-.113-.6349-1.148-1.9642-1.148-1.9642s.224-.6613-.056-1.1342c-.279-.4728-.896-2.6833-.896-2.6833l-.531-6.1173-.253-6.0182c.254-.0018.507.022.756.0711.036.0298.016-.0446-.036-.1785a.1081.1081 0 01.036.0132c.086.0694-.144-.4481-.392-.9755l-.03-.0612c.119-.4315.612-2.1791.954-2.8106.255-.4663-.234-3.6853-.608-5.8842l-.078-.4531c.607-1.0614 1.303-2.265 1.303-2.265s1.762-5.0328 2.49-7.2185c.727-2.1857 0-7.8533 0-7.8533s0-.2778-.04-.7109c-.114-1.1706-.55-3.4605-2.227-4.35-2.295-1.2168-3.022-2.7098-3.022-2.7098s-2.864-2.6056-3.226-1.731l-.025-.0496a5.7272 5.7272 0 01-.467-1.3772 4.496 4.496 0 01-.027-.1472 4.444 4.444 0 00.943-1.0218c0 .0728-.012.1455-.017.2183V10.7896a.6908.6908 0 000 .091v.0545a.5228.5228 0 00.521-.2893c.089-.1909.149-.3944.177-.6035a3.701 3.701 0 01.524-1.2499c.245-.3753.572-.7523.615-1.1805a.989.989 0 000-.1885c-.022-.2182-.124-.4215-.156-.6381a1.4066 1.4066 0 010-.3307c0-.0645.015-.129.025-.1918.01-.0628.027-.1653.038-.258.012-.0925.022-.1438.03-.2165V5.78a2.3937 2.3937 0 000-.5737 1.1098 1.1098 0 00-.163-.4964 1.1055 1.1055 0 00-.373-.3666c-.165-.0843-.355-.1108-.52-.1951-.437-.2232-.576-.7589-.827-1.1722a2.0689 2.0689 0 00-1.637-.9408c-.661-.0264-1.309.263-1.959.1654-.415-.0662-.797-.291-1.217-.3208-.613-.043-1.166.3307-1.663.6895-.352.253-.728.539-.843.9556-.093.3406 0 .7324-.192 1.03-.124.1935-.349.3042-.488.496a.8236.8236 0 00-.165.5307v.1422c.011.1273.034.2563.056.382a.2628.2628 0 010 .0396c.05.3489-.063.5936-.189.9342a1.4592 1.4592 0 00-.089.448v.0562a.7672.7672 0 000 .096c.015.1188.067.23.149.3174a.4983.4983 0 01.165-.1654v.1604a4.3593 4.3593 0 001.323 3.1248c0 .0479-.013.0975-.02.1455-.071.496-.165 1.0416-.279 1.564l-.04.1654h-.827s.141-.6084-1.231.1389c-1.373.7473-3.052 1.106-3.307 1.2433-.255.1372-3.358 2.5461-3.358 2.5461s-2.688 1.5475-2.604 4.2028l-.307 2.976-.224 5.5585s-.42 4.7302 0 5.3932c.42.6629 1.148 4.5913 1.007 5.0889-.101.3604.913 2.8934 1.617 4.3698a5.9978 5.9978 0 00-.524.6349s-.281 1.1077-.281 1.2185c0 0 0 .0115.013.0182-.62.6282-1.608 1.6616-1.608 1.8897 0 .3307.196.62-.111.6002-.308-.0199-.318.3406-.299.5605.018.2198-.374-.1092-.346.3042.028.4133-2.855 6.9142-2.855 6.9142s-1.315 3.181-1.819 3.7068c-.504.5257-1.204 2.8487-1.147 3.7051.056.8564.084 1.1077-.141 1.1077-.225 0-.671.7738-.671.7738l-2.211 6.8035s-.645 2.1013-.84 2.0749c-.195-.0265-.634 3.6109-.634 3.6109s-.475 1.078-.559 1.078c-.017 0 .061.0777.205.2l-.096.081a7.0724 7.0724 0 01-.653.496c-.009 0-1.278-.8812-2.15-.7985-.871.0826-2.6582.3025-3.5559-.3307-.496-.3538-1.5426-.6613-2.3841-.6746-.6713-.0099-1.2152.1654-1.2533.6746-.0843 1.1325 3.0504 3.2637 3.0504 3.2637s3.3069.9391 3.9469 1.8186c.639.8796 3.283 2.2122 3.283 2.2122s.795-.3505 1.095-.7027a.344.344 0 00.082-.1197.3515.3515 0 00.027-.1432c-.056-.4149 1.091-1.9839 1.091-1.9839l.165-.7788c.081-.3852.184-.8547.285-1.2664.013-.0562.026-.1114.039-.1654a.9647.9647 0 00.386-.0595c1.119-.4414 1.231-1.6533 1.231-1.6533l1.675-3.5034s.728-2.0187.951-2.3792c.223-.3604 1.959-3.9812 1.959-3.9812s.308-1.5492.589-2.0187c.281-.4696.307-1.488.307-1.488s.587-1.5492 1.204-2.1576a8.1565 8.1565 0 001.147-1.5756s2.546-4.011 4.282-5.1436c0 0 4.172-5.0889 4.423-5.532.251-.4431 1.035-1.6038 1.984-.5539.949 1.0499 1.958 2.4073 1.958 2.4073l1.709 4.6458 1.903 5.952s.895 1.4368.84 1.741c-.055.3042 1.455 3.0157 1.455 3.0157s.587.992.476 1.488c-.111.496.42.992.42.992l.165 2.0187s.617 1.984.448 2.2965c-.168.3124.589 2.2121.589 2.2121s0 1.6864.279 2.2403c.28.5539.62 2.7644.592 2.9297-.028.1653 0 1.6881 0 1.6881s.197 0 .509-.01l.014.1654.139 1.6649.013.1537a.66.66 0 00-.256.4861c0 .4497.066 1.7707.122 2.8107.013.2761.028.5307.041.744a.5513.5513 0 00.058.214.5489.5489 0 00.333.2783.5492.5492 0 00.221.0186 7.3762 7.3762 0 012.389.0892 8.7738 8.7738 0 002.659.1951s.061-.6233.071-1.1821c.008-.3571-.005-.6861-.07-.8134z" fill="url(#paint1_linear)"/><path d="M142.241 87.2233h-3.774l-.037-.4447-.137-1.66-.102-1.2565h3.306l.202.9143.498 2.2485.044.1984zM107.548 80.5537c-.071.0695-.189.4878-.308.992-.213.8862-.436 2.0386-.436 2.0386l-.139.0331-2.943.7109s-1.543-3.5266-.827-3.6092c.253-.0529.491-.1588.699-.3109.236-.1564.462-.3276.677-.5125.392-.3307.691-.6382.691-.6382s2.779 1.1028 2.586 1.2962z" fill="#FFAAB0"/><path opacity=".1" d="M107.548 80.5538c-.071.0694-.189.4877-.308.992-1.017-.0596-2.554-1.2665-2.976-1.6533.392-.3307.691-.6382.691-.6382s2.786 1.106 2.593 1.2995zM141.697 84.7747c-.906.2447-2.567.3191-3.406.3423l-.102-1.2565h3.307l.201.9142z" fill="#000"/><path d="M117.716 46.1099s-2.067 2.0385-2.067 2.3692c0 .3307.193.6167-.109.5985-.303-.0182-.313.3389-.294.5588.018.2199-.367-.1107-.341.3026.026.4133-2.811 6.8894-2.811 6.8894s-1.294 3.1695-1.79 3.6919c-.496.5225-1.186 2.8388-1.129 3.6936.056.8547.082 1.1011-.139 1.1011-.222 0-.662.7721-.662.7721l-2.175 6.7787s-.635 2.0947-.827 2.0666c-.192-.0281-.661 3.6093-.661 3.6093s-.47 1.0746-.553 1.0746c-.082 0 2.398 2.1494 3.5 1.7096 1.103-.4398 1.212-1.6534 1.212-1.6534l1.654-3.472s.717-2.0121.937-2.3708c.22-.3588 1.93-3.968 1.93-3.968s.302-1.5426.578-2.0105c.276-.4679.303-1.488.303-1.488s.578-1.5442 1.185-2.1493a8.0962 8.0962 0 001.129-1.5707s2.509-3.9961 4.216-5.1253c0 0 4.106-5.0708 4.354-5.5122.248-.4415 1.02-1.5972 1.957-.5506.938 1.0466 1.928 2.3973 1.928 2.3973l1.681 4.6294 1.874 5.9239s.883 1.4334.826 1.736c-.056.3025 1.434 3.0041 1.434 3.0041s.578.992.468 1.488c-.111.496.413.992.413.992l.165 2.0121s.607 1.984.442 2.2865c-.166.3026.578 2.2039.578 2.2039s0 1.6815.277 2.232c.276.5506.605 2.7561.578 2.9215-.026.1653 0 1.6814 0 1.6814s4.158-.0281 4.517-.6613-.302-1.4054-.302-1.4054l-.139-3.3347-.357-8.0733s-.744-2.7015-.855-3.3347c-.111-.6333-1.129-1.9559-1.129-1.9559s.219-.6614-.057-1.1309c-.276-.4696-.881-2.6718-.881-2.6718l-.524-6.0909-.269-6.6398-20.065-3.5546z" fill="#DCE6F2"/><path opacity=".1" d="M138.548 50.3804c-.166-.1389-6.944-.1934-7.027-.1934-.083 0-2.645-1.0202-2.645-1.0202s-5.704-.9357-6.586-.5224c-.881.4133-3.61-.7721-3.61-.7721v-.5241s-1.46-.496-1.46-.6051c0-.1092.276-1.2136.276-1.2136l.165-.0578.632-.2166 19.372 3.1132s.256.5258.496 1.0399c.24.5142.471 1.0416.387.9722z" fill="#000"/><path d="M138.548 50.2151c-.166-.1389-6.944-.1935-7.027-.1935-.083 0-2.645-1.0201-2.645-1.0201s-5.704-.9358-6.586-.5224c-.881.4133-3.61-.7722-3.61-.7722v-.5241s-1.46-.496-1.46-.6051c0-.1091.276-1.2135.276-1.2135l.165-.0579.632-.2166 19.372 3.1132s.256.5258.496 1.04.471 1.0416.387.9722z" fill="#F1FAFF"/><path opacity=".1" d="M106.961 82.6403l-.166.7787s-.054.076-.139.1984l-2.934.7109s-1.543-3.5265-.827-3.6092c.253-.0528.491-.1588.699-.3108-.15 1.1044.706 2.2667.706 2.2667 1.209.9093 2.661-.0347 2.661-.0347z" fill="#000"/><path d="M106.961 82.8072l-.166.7788s-1.129 1.5706-1.074 1.984a.3668.3668 0 01-.026.1428.3482.3482 0 01-.082.1201c-.294.3505-1.078.6993-1.078.6993s-2.589-1.3227-3.224-2.2039c-.635-.8812-3.885-1.8187-3.885-1.8187s-3.0851-2.1229-3.0025-3.2521c.0364-.496.5721-.6812 1.2334-.6712.8267.0099 1.8567.319 2.3478.6712.8829.6332 2.6453.4133 3.5003.3307.855-.0827 2.111.7969 2.111.7969-.286 1.1573.671 2.4552.671 2.4552 1.222.911 2.674-.0331 2.674-.0331z" fill="#575988"/><path d="M105.621 85.8311c-.294.3505-1.077.6994-1.077.6994s-2.59-1.3227-3.224-2.2039c-.635-.8812-3.8858-1.8187-3.8858-1.8187s-3.0851-2.1228-3.0025-3.252c.0364-.496.5721-.6812 1.2334-.6713.496.8267 1.2285 1.9757 1.7691 2.2965.8829.5241 2.6188 1.5161 2.6188 1.5161s2.755 1.736 2.948 1.9294c.159.1604 1.754 1.2152 2.62 1.5045z" fill="#F1FAFF"/><path opacity=".1" d="M142.245 87.2217h-3.78l-.036-.4448c.476-.448 1.496-.6613 1.496-.6613.708-.2166 2.012.7126 2.27.9044l.05.2017z" fill="#000"/><path d="M143.992 90.5647c-.01.5572-.071 1.1772-.071 1.1772a8.5351 8.5351 0 01-2.617-.1934 7.1437 7.1437 0 00-2.351-.0893.54.54 0 01-.412-.1237.538.538 0 01-.136-.1729.5435.5435 0 01-.056-.2127c-.011-.2116-.026-.4662-.039-.7407-.057-1.03-.121-2.346-.121-2.7941 0-.7704 1.736-1.1292 1.736-1.1292.787-.2414 2.315.9374 2.315.9374s1.516 2.2039 1.681 2.5346c.064.1273.078.4547.071.8068z" fill="#575988"/><path d="M143.992 90.5647c-.01.5572-.071 1.1772-.071 1.1772a8.5351 8.5351 0 01-2.617-.1935 7.1464 7.1464 0 00-2.351-.0893.5417.5417 0 01-.219-.019.5335.5335 0 01-.193-.1047.537.537 0 01-.136-.1729.543.543 0 01-.056-.2126c-.011-.2116-.026-.4662-.039-.7407.634-.0959 1.57-.1885 2.222-.038.757.1752 2.496.3224 3.46.3935z" fill="#F1FAFF"/><path opacity=".1" d="M106.349 74.0098s-.579.9921 0 1.4467c.579.4547 0-1.4467 0-1.4467zM137.432 77.8539c.165.3307.605.8267.529 1.4053-.076.5787-.529-1.4053-.529-1.4053z" fill="#000"/><path d="M136.922 17.3964s-2.524-.2563-5.141-.6035l-.108-.0149c-3.039-.405-6.157-.9292-5.553-1.3111.269-.1653.496-.5853.682-1.1143.117-.3389.214-.6838.293-1.0334.013-.0545.025-.1107.038-.1653.114-.5208.205-1.0647.276-1.5574.141-1.0036.199-1.8038.199-1.8038s6.476-2.4536 5.677.6051a3.3377 3.3377 0 00-.023 1.4979c.095.4751.25.9362.461 1.3723 1.032 2.2022 3.199 4.1284 3.199 4.1284z" fill="#FFAAB0"/><path opacity=".1" d="M133.285 10.3962a3.3377 3.3377 0 00-.023 1.4979 4.3812 4.3812 0 01-5.853-.2992c.141-1.0036.199-1.8038.199-1.8038s6.476-2.4536 5.677.6051z" fill="#000"/><path d="M134.882 8.3262a4.3808 4.3808 0 01-1.279 3.0995c-.407.4073-.89.7306-1.421.9514a4.3807 4.3807 0 01-3.353.0038 4.3892 4.3892 0 01-1.423-.9482 4.3816 4.3816 0 01-1.286-3.0966v-.01c0-1.162.461-2.2763 1.283-3.098a4.3818 4.3818 0 013.098-1.2833c1.162 0 2.276.4617 3.098 1.2833a4.3797 4.3797 0 011.283 3.098z" fill="#FFAAB0"/><path opacity=".1" d="M131.838 16.6127a.8158.8158 0 01-.057.1802l-.108-.0149c-3.039-.405-6.157-.9291-5.553-1.3111.269-.1653.496-.5852.682-1.1143.117-.3388.214-.6838.293-1.0333.013-.0546.025-.1108.038-.1654h.127c.01.0695.331 2.1874 3.173 2.5495l.096.0115c1.109.124 1.392.4878 1.309.8978z" fill="#000"/><path d="M131.673 16.7781c-.139.6861-1.309 1.4995-1.309 1.4995l-3.252-.6067s-2.039-1.8187-2.039-1.8733c0-.0545 1.212-2.48 1.212-2.48h.81c.01.0695.331 2.1874 3.173 2.5495l.096.0115c1.109.1257 1.392.4894 1.309.8995z" fill="#F1FAFF"/><path opacity=".1" d="M136.922 17.3964s-2.594-.2629-5.249-.6184c-.139.6862-1.309 1.4996-1.309 1.4996l-3.252-.6068s-2.039-1.8186-2.039-1.8732c0-.0545 1.212-2.48 1.212-2.48h.041c.107.3666.267.7154.476 1.035.511.7804 1.488 1.6351 3.307 1.5277l.152-.0116c2.73-.2265 3.343-2.1163 3.456-2.6023 1.038 2.2039 3.205 4.13 3.205 4.13zM138.161 49.2429l-.055.2001c-.661-.496-5.482-.8267-5.482-.8267s-1.268-.1488-2.48-.3423c-.88-.1405-1.73-.3058-2.042-.4563a2.0824 2.0824 0 00-.223-.0843c-1.098-.3439-4.464-.7423-4.464-.7423s-1.654.744-2.535.4133c-.881-.3307-3.389-1.8749-3.389-1.8749s.054-.0827.165-.2232l.632-.2166 19.372 3.1133s.263.5257.501 1.0399z" fill="#000"/><path d="M138.472 40.5298c.368 2.1924.849 5.3982.6 5.8628-.387.7159-.966 2.8933-.966 2.8933-.661-.496-5.482-.8267-5.482-.8267s-1.268-.1488-2.48-.3422c-.88-.1405-1.73-.3059-2.042-.4563a2.0613 2.0613 0 00-.223-.0843c-1.098-.3439-4.464-.7424-4.464-.7424s-1.654.744-2.535.4133c-.881-.3306-3.389-1.8748-3.389-1.8748a8.1113 8.1113 0 011.24-1.3492c.853-.7721 2.424-7.4135 2.384-7.4962-.04-.0826-.428-2.2039-.318-3.4439.111-1.24-.33-7.3028-.33-7.3028s-4.433-1.7161-4.51-4.3615c-.078-2.6453 2.562-4.1879 2.562-4.1879s3.059-2.3973 3.307-2.5362c.248-.1388 1.901-.496 3.252-1.24 1.351-.744 1.212-.1372 1.212-.1372s.552 2.9214 3.831 2.728c3.278-.1934 3.637-2.728 3.637-2.728.352-.8812 3.176 1.736 3.176 1.736s.716 1.488 2.976 2.6999c1.653.8862 2.08 3.1678 2.192 4.3334.042.4315.04.7093.04.7093l-6.641 4.7682 2.61 10.8839s.165.8878.361 2.0815z" fill="#575988"/><path d="M122.042 46.1925s2.178 3.7465 4.436 2.6999c.509-.2314.932-.618 1.207-1.1044.891-1.5409 0-3.5067-1.726-3.968-.636-.1654-1.322-.2695-1.878-.1654-1.571.2778-2.039 2.5379-2.039 2.5379z" fill="#FFAAB0"/><path opacity=".1" d="M122.042 46.1925s2.178 3.7465 4.436 2.6999c.509-.2314.932-.618 1.207-1.1044.891-1.5409 0-3.5067-1.726-3.968-.636-.1654-1.322-.2695-1.878-.1654-1.571.2778-2.039 2.5379-2.039 2.5379zM118.846 18.8298s1.718 1.1573 1.755 2.976l-1.755-2.976zM121.546 19.711c0 .1108-.496 7.7707.386 10.3879.881 2.6173-.386-10.3879-.386-10.3879zM134.882 8.3262a4.3466 4.3466 0 01-.709 2.3907v-.1653c-.028-.4596-.271-.8746-.508-1.2714a2.5209 2.5209 0 00-.661-.8168 1.262 1.262 0 01-.223-.1653c-.152-.1653-.136-.4282-.165-.6613a1.4848 1.4848 0 00-.396-.8107 1.4741 1.4741 0 00-.793-.4293.4975.4975 0 00-.371.0529c-.112.0793-.165.2265-.259.3174-.149.134-.377.1174-.574.0794-.433-.086-.884-.243-1.304-.1042-.721.2397-.992 1.2367-1.731 1.4219a4.24 4.24 0 01-.662.0463.914.914 0 00-.403.124v-.01c0-1.162.461-2.2764 1.283-3.098a4.3818 4.3818 0 013.098-1.2833 4.38 4.38 0 013.098 1.2833 4.3806 4.3806 0 011.284 3.098l-.004.0017z" fill="#000"/><path d="M126.163 5.418c.137-.1836.357-.2943.481-.4878.188-.296.096-.6861.188-1.025.113-.415.483-.6994.827-.9523.496-.3572 1.033-.7292 1.637-.6878.413.0297.788.2546 1.198.3207.64.1042 1.282-.1835 1.93-.1653.324.0162.639.11.919.2734.281.1634.517.3917.691.6657.256.41.392.944.827 1.1573.165.0843.35.1108.512.195.15.0915.276.2173.368.367.092.1499.147.3193.16.4945.023.3494-.002.7003-.073 1.0432-.032.1728-.04.3492-.023.5241.03.2166.132.4183.154.6366.049.496-.331.9308-.607 1.3557a3.7654 3.7654 0 00-.514 1.2466 2.0107 2.0107 0 01-.176.6018.5176.5176 0 01-.512.2894c-.032-.2993.043-.6018.023-.9027-.028-.4597-.271-.8747-.508-1.2698a2.5089 2.5089 0 00-.661-.8184 1.1688 1.1688 0 01-.221-.1653c-.154-.1654-.138-.4266-.166-.6614a1.4751 1.4751 0 00-.396-.8097c-.213-.222-.49-.3719-.793-.4286a.4954.4954 0 00-.37.0512c-.112.0794-.165.2265-.259.3175-.149.1339-.377.119-.574.0793-.433-.0843-.885-.243-1.305-.1041-.721.2397-.992 1.2367-1.731 1.4218-.219.0336-.44.0491-.661.0463a.6949.6949 0 00-.32.0788.6973.6973 0 00-.249.2172c-.221-.2315-.177-.6085-.068-.9094.128-.3521.243-.6018.181-.9721-.063-.3704-.146-.7077.091-1.0234z" fill="#794F6A"/><path opacity=".1" d="M110.069 65.5365s-1.571.8267-.744.992.744-.992.744-.992zM135.944 67.5206s.868-1.1574 1.818-.4547c.951.7027-1.818.4547-1.818.4547zM137.961 68.2645s1.083-.372 1.744 0h-1.744zM116.558 49.4991s2.315 2.2321 3.059 2.3147c.744.0827-3.059-2.3147-3.059-2.3147zM116.889 20.1525l-.602 1.2664-.304 2.976-.22 5.5387s-.413 4.712 0 5.3733c.413.6614 1.129 4.5748.992 5.0708-.137.496 1.819 5.1253 2.178 5.4015.358.2761 1.625.3306 2.341.1917l1.309 1.245 3.707-3.4207-2.288-1.736s.524-.8829-.936-1.8468c0 0-.661-1.1028-.69-1.6815a12.2768 12.2768 0 00-.606-3.472c-.523-1.5425-.827-10.1117-.827-10.1117s-1.243-6.2563-4.054-4.7947z" fill="#000"/><path d="M116.558 20.1525l-.601 1.2664-.305 2.976-.22 5.5387s-.413 4.712 0 5.3733c.414.6614 1.13 4.5748.992 5.0708-.137.496 1.819 5.1253 2.178 5.4015.359.2761 1.625.3306 2.341.1917l1.309 1.245 3.707-3.4207-2.288-1.736s.524-.8829-.936-1.8468c0 0-.661-1.1028-.689-1.6815a12.3134 12.3134 0 00-.607-3.472c-.522-1.5425-.827-10.1117-.827-10.1117s-1.243-6.2563-4.054-4.7947z" fill="#575988"/><path opacity=".1" d="M122.319 40.8737c-.166.0827-3.501 3.1695-2.261 3.2521 1.24.0827 2.261-3.2521 2.261-3.2521z" fill="#000"/><path d="M126.561 44.5938s-4.767.496-4.519 2.4254c.248 1.9294 3.638 3.7878 4.712 3.2025 1.075-.5853 1.984-1.1441 1.984-1.1441l-2.177-4.4838z" fill="#FFAAB0"/><path opacity=".1" d="M141.11 21.4752l.69 1.3226s.716 5.6478 0 7.8252c-.716 2.1775-2.452 7.192-2.452 7.192s-2.095 3.6655-2.149 3.8308c-.055.1654-4.025 5.8958-4.741 6.2-.715.3042-2.066.1439-2.149-.1901-.083-.334-1.901 1.4219-1.901 1.4219s-3.505-4.2359-2.948-4.6773c.557-.4415 2.245-.5506 2.245-.5506s.124.4134.261-.4414c.138-.8548.772-1.2946 1.24-1.24.468.0545.276-.4398.359-.9639.083-.5241 1.377-1.4599 1.377-1.4599s.635-1.0201.635-1.6269 1.323-1.1292 1.432-1.1292c.109 0 .083-.248.083-1.1292 0-.8813.661-2.4536.661-2.4536l.408-4.96.718-5.0427s1.961-6.1437 6.231-1.9277z" fill="#000"/><path opacity=".1" d="M138.111 38.4483s.166.8878.366 2.0733c-.331.5935-.594 1.0664-.614 1.1226-.054.1653-4.022 5.8974-4.738 6.2-.716.3026-2.067.1438-2.15-.1885-.036-.1488-.415.1141-.826.453-.513.4233-1.077.9672-1.077.9672s-.555-.6712-1.188-1.5078c-.959-1.2632-2.095-2.9016-1.761-3.1678.557-.4414 2.247-.5506 2.247-.5506s.124.4134.261-.4414.772-1.2946 1.24-1.24c.468.0546.276-.4414.359-.9639.082-.5224 1.377-1.4615 1.377-1.4615s.633-1.0185.633-1.6253c0-.6067 1.323-1.1292 1.434-1.1292.11 0 .082-.248.082-1.1309s.662-2.4519.662-2.4519l.408-4.96.716-5.0426s1.957-6.1455 6.228-1.9295l.319.6134c.041.4315.04.7093.04.7093l-6.642 4.7682 2.624 10.8839z" fill="#000"/><path d="M141.441 21.4752l.689 1.3226s.716 5.6478 0 7.8252c-.715 2.1775-2.451 7.192-2.451 7.192s-2.095 3.6655-2.15 3.8308c-.054.1654-4.024 5.8958-4.74 6.2-.716.3042-2.067.1439-2.149-.1901-.083-.334-1.902 1.4219-1.902 1.4219s-3.505-4.2359-2.947-4.6773c.557-.4415 2.245-.5506 2.245-.5506s.124.4134.261-.4414.772-1.2946 1.24-1.24c.468.0545.276-.4398.359-.9639.082-.5241 1.377-1.4599 1.377-1.4599s.635-1.0201.635-1.6269 1.323-1.1292 1.432-1.1292c.109 0 .082-.248.082-1.1292 0-.8813.662-2.4536.662-2.4536l.408-4.96.718-5.0427s1.96-6.1437 6.231-1.9277z" fill="#575988"/><path opacity=".1" d="M129.152 43.6183s.165.372.909.5075c.744.1356-.909-.5075-.909-.5075zM138.052 21.5016c-.027.0827-2.48 2.8553-1.984 3.5778.496.7225 1.984-3.5778 1.984-3.5778zM135.269 34.2323s1.405 1.3789 1.129 2.0402-1.129-2.0402-1.129-2.0402zM135.489 31.6151c.083.1372 3.115.4959 3.28 1.6533.166 1.1573-3.28-1.6533-3.28-1.6533z" fill="#000"/><g opacity=".1" fill="#000"><path opacity=".1" d="M135.797 6.8316c0-.0628.014-.1273.024-.1918a4.331 4.331 0 00.08-.9573c-.014.21-.05.42-.08.6266a1.831 1.831 0 00-.024.5225zM126.073 6.5075c.02-.122.02-.2466 0-.3687-.02-.1173-.041-.2347-.053-.3521-.017.229.001.4593.053.6828v.038zM135.944 7.7327c-.071.3935-.367.7456-.594 1.0945-.246.38-.42.802-.514 1.2449-.028.2082-.087.411-.175.6018a.5207.5207 0 01-.211.225.5174.5174 0 01-.302.0644.0463.0463 0 000-.0166 2.2357 2.2357 0 000 .3472.5167.5167 0 00.302-.0644.521.521 0 00.211-.2249c.088-.1908.147-.3936.175-.6018.094-.443.268-.8649.514-1.245.275-.4249.661-.853.605-1.3574.007-.023-.008-.0446-.011-.0677zM134.171 10.0622c-.028-.4596-.271-.8763-.507-1.2714a2.5428 2.5428 0 00-.662-.8267 1.2565 1.2565 0 01-.223-.1653c-.152-.1654-.135-.4282-.165-.6613a1.4819 1.4819 0 00-.396-.8097 1.4746 1.4746 0 00-.793-.4287.4953.4953 0 00-.37.0513c-.113.0793-.166.2265-.26.319a.6728.6728 0 01-.574.0794c-.433-.086-.884-.2447-1.304-.1041-.721.238-.992 1.235-1.733 1.4202-.219.0333-.44.0494-.661.048a.6878.6878 0 00-.567.2943.5515.5515 0 01-.144-.2894.7084.7084 0 00-.001.327.705.705 0 00.145.293.6878.6878 0 01.567-.2943 4.2 4.2 0 00.661-.048c.738-.1851 1.012-1.1821 1.733-1.4202.42-.1405.871.0182 1.304.1042a.673.673 0 00.574-.0794c.103-.0926.147-.2397.26-.319a.4954.4954 0 01.37-.0513c.303.0567.58.2066.793.4286.213.222.351.5052.396.8097.028.2282.011.4844.165.6614.068.0632.143.1187.223.1653.276.226.502.5077.662.8266.23.3853.463.7887.496 1.2334.01-.0971.014-.1949.011-.2926z"/></g><path d="M79.8312 24.2759V41.626a.2724.2724 0 00.2777.2761c4.7781-.1488 8.7627-4.0986 8.7627-8.9511 0-4.8526-3.9813-8.804-8.7627-8.9512a.2712.2712 0 00-.2777.2761z" fill="#61BEEC"/><path d="M67.8991 47.9698V33.6106a10.5073 10.5073 0 012.0948-6.3736c1.3011-1.7095 3.3265-3.257 6.3885-3.2372a.3142.3142 0 01.3157.3125v14.7808s.496 8.0782-8.6237 9.0338a.1662.1662 0 01-.1205-.0419.165.165 0 01-.0548-.1152z" fill="#4064AC"/><path opacity=".1" d="M30.3039 22.3795c2.8763 0 5.208-2.3317 5.208-5.208s-2.3317-5.208-5.208-5.208-5.208 2.3317-5.208 5.208 2.3317 5.208 5.208 5.208zM19.3919 7.9955c1.7806 0 3.224-1.4434 3.224-3.224 0-1.7805-1.4434-3.224-3.224-3.224-1.7806 0-3.224 1.4435-3.224 3.224 0 1.7806 1.4434 3.224 3.224 3.224zM2.5295 13.9475c1.0958 0 1.984-.8882 1.984-1.984 0-1.0957-.8882-1.984-1.984-1.984-1.0957 0-1.984.8883-1.984 1.984 0 1.0958.8883 1.984 1.984 1.984z" fill="#00BAFC"/><path d="M68.3107 111.092a2.8606 2.8606 0 00-.377.71c-.0231.061-.0463.132-.0694.2a.6042.6042 0 00-.1306-.045 1.8335 1.8335 0 00-.5903-.051c0-.076.01-.165.0116-.241.0248-.872-.0777-2.087-.9093-1.573-.7969.496-.2282 1.323.286 1.854l.1323.129c-.4696.33-.5588 1.112-.6366 1.924-.0777.812-.7671 1.701-1.2251 2.206-.0463.051-.0876.097-.1289.14a1.6723 1.6723 0 00-1.331-.342 6.8784 6.8784 0 00-.0611-.225c-.3687-1.344-1.1375-3.659-2.1196-4.155l.1289-.165c.4167-.546.8862-1.356.1935-1.563-.6928-.206-.7556.703-.7176 1.384 0 .085.0133.166.0199.242a1.0054 1.0054 0 00-.3987.102 1.0079 1.0079 0 00-.3255.252l-.1074-.126c-.5622-.661-1.5922-1.715-1.9047-.919-.2893.74.6167 1.701 1.2549 2.258l.0397.035c-.4282 1.739 1.4417 3.156 2.4486 3.776l.1306.079c-1.3888 1.637-2.2469 4.704-2.2469 4.704l3.8903.694s2.5775-2.225 2.2469-4.313h.0264c2.5776-.516 3.1628-3.264 2.7627-4.896.0149 0 .0298-.011.0447-.019a2.9338 2.9338 0 001.1937-.901c.7208-1.007-.7903-2.138-1.531-1.155z" fill="#00BAFC"/><path opacity=".1" d="M68.3107 111.092a2.8606 2.8606 0 00-.377.71c-.0231.061-.0463.132-.0694.2a.6042.6042 0 00-.1306-.045 1.8335 1.8335 0 00-.5903-.051c0-.076.01-.165.0116-.241.0248-.872-.0777-2.087-.9093-1.573-.7969.496-.2282 1.323.286 1.854l.1323.129c-.4696.33-.5588 1.112-.6366 1.924-.0777.812-.7671 1.701-1.2251 2.206-.0463.051-.0876.097-.1289.14a1.6723 1.6723 0 00-1.331-.342 6.8784 6.8784 0 00-.0611-.225c-.3687-1.344-1.1375-3.659-2.1196-4.155l.1289-.165c.4167-.546.8862-1.356.1935-1.563-.6928-.206-.7556.703-.7176 1.384 0 .085.0133.166.0199.242a1.0054 1.0054 0 00-.3987.102 1.0079 1.0079 0 00-.3255.252l-.1074-.126c-.5622-.661-1.5922-1.715-1.9047-.919-.2893.74.6167 1.701 1.2549 2.258l.0397.035c-.4282 1.739 1.4417 3.156 2.4486 3.776l.1306.079c-1.3888 1.637-2.2469 4.704-2.2469 4.704l3.8903.694s2.5775-2.225 2.2469-4.313h.0264c2.5776-.516 3.1628-3.264 2.7627-4.896.0149 0 .0298-.011.0447-.019a2.9338 2.9338 0 001.1937-.901c.7208-1.007-.7903-2.138-1.531-1.155z" fill="#000"/><path d="M60.5699 112.213l-.4547 1.323s-.253-.178-.5721-.46c-.6382-.557-1.5442-1.517-1.2549-2.258.3125-.795 1.3426.255 1.9047.919.2265.271.377.476.377.476zM61.5288 111.458a6.5741 6.5741 0 01-.4431.521 6.9625 6.9625 0 01-.081-.7c-.0381-.681.0347-1.585.7175-1.384.6828.202.2232 1.014-.1934 1.563zM67.3932 111.665c-.0133.438-.0563.787-.0563.787a5.6852 5.6852 0 01-.5671-.498c-.5141-.534-1.0829-1.357-.286-1.853.8316-.523.9342.696.9094 1.564zM70.0799 112.238a2.925 2.925 0 01-1.1937.901c-.13.058-.2637.106-.4001.146l-.5357-.752c.0567-.249.1307-.493.2215-.731.0914-.253.2184-.492.377-.71.7407-.983 2.2518.148 1.531 1.146z" fill="#00BAFC"/><path opacity=".1" d="M60.1929 111.746c.2265.262.3769.467.3769.467l-.4546 1.323s-.253-.178-.5721-.46c.0713-.426.2474-.827.5126-1.168.0446-.053.0925-.111.1372-.162zM61.5288 111.458a6.5741 6.5741 0 01-.4431.521 6.9916 6.9916 0 01-.081-.7.9018.9018 0 01.5241.179z" fill="#000"/><path d="M63.7657 116.737l-1.1325.496s-.2464-.119-.6019-.339c-1.1887-.732-3.5778-2.573-1.9757-4.742 1.6021-2.169 2.938 1.721 3.4637 3.624.1604.571.2464.961.2464.961z" fill="#00BAFC"/><path opacity=".1" d="M66.7698 111.954a.9212.9212 0 01.6233-.281 9.5194 9.5194 0 01-.0562.787 5.6862 5.6862 0 01-.5671-.506zM68.8862 113.139c-.13.058-.2637.106-.4001.146l-.5357-.752c.0567-.249.1307-.493.2215-.731.3456.203.6002.704.7143 1.337z" fill="#000"/><path d="M66.0787 118.055l-.1901.033c-3.7911.577-1.2499-1.47-1.2499-1.47s.1653-.165.4018-.413c.4579-.505 1.1457-1.389 1.2251-2.206.119-1.228.2562-2.381 1.7062-2.042 1.4235.328 1.6914 5.378-1.8931 6.098z" fill="#00BAFC"/><path d="M66.0093 127.494h-7.2432v1.904h7.2432v-1.904z" fill="#D4DFEC"/><path d="M67.079 121.303h-9.4636v6.647h9.4636v-6.647z" fill="#D4DFEC"/><path opacity=".1" d="M66.0093 127.494h-7.2432v1.904h7.2432v-1.904z" fill="#000"/><path opacity=".1" d="M67.079 121.303h-9.4636v6.647h9.4636v-6.647z" fill="#000"/><path d="M66.4854 127.494h-7.2432v1.904h7.2432v-1.904z" fill="#D4DFEC"/><path opacity=".1" d="M63.5193 115.778c.1654.569.2464.959.2464.959l-1.1325.496s-.2464-.119-.6019-.339c.4431-.56.9424-.985 1.488-1.116zM66.0788 118.055l-.1902.033c-3.7911.577-1.2499-1.47-1.2499-1.47s.1653-.165.4018-.413c.7076.567 1.0002 1.205 1.0383 1.85z" fill="#000"/><path d="M59.9084 121.679s2.1229-7.606 5.1006-5.258c2.9776 2.348-1.2103 5.952-1.2103 5.952l-3.8903-.694z" fill="#00BAFC"/><path opacity=".1" d="M60.9881 113.584a.2383.2383 0 00.2381-.238.2383.2383 0 00-.2381-.238.2382.2382 0 00-.238.238c0 .131.1065.238.238.238zM60.9682 114.695a.2383.2383 0 00.2381-.238.2383.2383 0 00-.2381-.238.2383.2383 0 00-.238.238c0 .131.1066.238.238.238zM67.8726 113.802c.1315 0 .238-.106.238-.238a.2382.2382 0 00-.238-.238.2383.2383 0 00-.2381.238c0 .132.1066.238.2381.238zM62.3175 119.498c.1314 0 .238-.107.238-.238a.2377.2377 0 00-.238-.238.2377.2377 0 00-.2381.238c0 .131.1066.238.2381.238zM67.3766 115.647c.1315 0 .238-.106.238-.238a.2382.2382 0 00-.238-.238.2383.2383 0 00-.2381.238c0 .132.1066.238.2381.238zM64.9164 118.109a.2377.2377 0 00.2381-.238.2383.2383 0 00-.2381-.238.2383.2383 0 00-.2381.238c0 .132.1066.238.2381.238zM61.8015 114.06a.2377.2377 0 00.2381-.238.2383.2383 0 00-.2381-.238.2383.2383 0 00-.2381.238c0 .132.1066.238.2381.238zM67.2178 114.517a.2385.2385 0 000-.477.2385.2385 0 000 .477zM66.4044 116.362a.2385.2385 0 000-.477.2385.2385 0 000 .477zM63.9046 119.319a.2377.2377 0 00.2381-.238.2383.2383 0 00-.2381-.238.2383.2383 0 00-.2381.238c0 .132.1066.238.2381.238zM63.3887 118.149a.2383.2383 0 00.2381-.238.2377.2377 0 00-.2381-.238.2377.2377 0 00-.238.238c0 .131.1066.238.238.238zM62.1587 115.509a.2385.2385 0 000-.477.2385.2385 0 000 .477zM66.4854 127.494h-7.2432v.696h7.2432v-.696z" fill="#000"/><path d="M67.5551 121.303h-9.4637v6.647h9.4637v-6.647z" fill="#D4DFEC"/><path opacity=".1" d="M64.2221 120.391a.2383.2383 0 00.2381-.238.2377.2377 0 00-.2381-.238.2377.2377 0 00-.2381.238c0 .131.1066.238.2381.238zM62.7935 120.688a.2377.2377 0 00.2381-.238.2383.2383 0 00-.2381-.238.2383.2383 0 00-.2381.238c0 .132.1066.238.2381.238z" fill="#000"/></g><defs><linearGradient id="paint0_linear" x1="39.341" y1="127.93" x2="39.341" y2="39.7643" gradientUnits="userSpaceOnUse"><stop stop-color="gray" stop-opacity=".25"/><stop offset=".54" stop-color="gray" stop-opacity=".12"/><stop offset="1" stop-color="gray" stop-opacity=".1"/></linearGradient><linearGradient id="paint1_linear" x1="39224.3" y1="54940.5" x2="39224.3" y2="6127.73" gradientUnits="userSpaceOnUse"><stop stop-color="gray" stop-opacity=".25"/><stop offset=".54" stop-color="gray" stop-opacity=".12"/><stop offset="1" stop-color="gray" stop-opacity=".1"/></linearGradient><clipPath id="clip0"><path fill="#fff" transform="translate(.5455)" d="M0 0h178.909v130H0z"/></clipPath></defs></svg>