<svg width="22" height="24" fill="none" xmlns="http://www.w3.org/2000/svg"><g clip-path="url(#clip0)"><path d="M11.0049 6.6095c-3.1232 0-5.6424 2.4047-5.6424 5.386 0 2.9812 2.5192 5.3859 5.6424 5.3859s5.6424-2.4047 5.6424-5.3859c0-2.9813-2.5192-5.386-5.6424-5.386zm0 8.8875c-2.0183 0-3.6683-1.5703-3.6683-3.5015 0-1.9313 1.645-3.5016 3.6683-3.5016 2.0232 0 3.6683 1.5703 3.6683 3.5016 0 1.9312-1.65 3.5015-3.6683 3.5015zm7.1893-9.1078c0 .6985-.5893 1.2563-1.3161 1.2563-.7317 0-1.3161-.5625-1.3161-1.2563 0-.6937.5893-1.2562 1.3161-1.2562s1.3161.5625 1.3161 1.2562zm3.737 1.275c-.0835-1.6828-.4861-3.1734-1.7776-4.4016-1.2867-1.228-2.8483-1.6124-4.6112-1.6968-1.817-.0985-7.263-.0985-9.08 0-1.758.0797-3.3195.464-4.611 1.6922C.5597 4.486.162 5.9767.0736 7.6595c-.1032 1.7344-.1032 6.9328 0 8.6672.0834 1.6828.4861 3.1734 1.7776 4.4016 1.2916 1.2281 2.8483 1.6125 4.6112 1.6968 1.817.0985 7.2629.0985 9.0799 0 1.7629-.0796 3.3245-.464 4.6112-1.6968 1.2866-1.2282 1.6892-2.7188 1.7776-4.4016.1032-1.7344.1032-6.9281 0-8.6625zm-2.3473 10.5234c-.383.9188-1.1245 1.6266-2.092 1.9969-1.4486.5485-4.8861.4219-6.487.4219-1.6009 0-5.0433.1219-6.487-.4219-.9626-.3656-1.704-1.0734-2.092-1.9969-.5746-1.3828-.442-4.664-.442-6.1921 0-1.5282-.1277-4.8141.442-6.1922.383-.9188 1.1245-1.6266 2.092-1.9969 1.4486-.5484 4.8861-.4219 6.487-.4219 1.6009 0 5.0433-.1219 6.487.4219.9625.3656 1.7041 1.0734 2.092 1.9969.5746 1.3828.442 4.664.442 6.1922 0 1.5281.1326 4.814-.442 6.1921z" fill="#fff"/></g><defs><clipPath id="clip0"><path fill="#fff" d="M0 0h22v24H0z"/></clipPath></defs></svg>