<svg width="59" height="20" fill="none" xmlns="http://www.w3.org/2000/svg"><g clip-path="url(#clip0)"><path d="M0 19.5676V.2162h6.7026a6.888 6.888 0 012.448.4316 6.2454 6.2454 0 012.0131 1.2147A5.692 5.692 0 0113.0262 6.16a5.6899 5.6899 0 01-1.8625 4.27 6.2366 6.2366 0 01-2.0132 1.2147 6.8888 6.8888 0 01-2.4463.4324H3.0537v7.4864L0 19.5676zM6.7835 9.1619a3.372 3.372 0 001.3516-.2543 2.958 2.958 0 001-.6891 3.0773 3.0773 0 00.6212-.9718 2.8919 2.8919 0 00.2162-1.081 2.9962 2.9962 0 00-.8374-2.0682 3.2125 3.2125 0 00-2.3483-.9588H3.0537v6.0264l3.7298-.0032zM15.4045 6.3244v13.2432h3.0002V6.3244h-3.0002z" fill="#191919"/><path d="M18.9109 2.0244a1.978 1.978 0 01-.1444.7754 1.9778 1.9778 0 01-.4362.6572 1.909 1.909 0 01-1.4196.5943V0a1.9115 1.9115 0 011.4196.5944 1.979 1.979 0 01.5806 1.43z" fill="#35AF39"/><path d="M16.9082 0v4.0538a1.9369 1.9369 0 01-1.4414-.5944 1.9736 1.9736 0 01-.583-1.435 1.9756 1.9756 0 01.583-1.43A1.9432 1.9432 0 0116.9082 0z" fill="#00BAFC"/><path d="M24.9996 12.8375l-4.568-6.5131h3.4869l2.8642 4.189h.081l2.6723-4.189h3.6214l-4.6215 6.5131 4.7024 6.7301h-3.563l-2.865-4.3243h-.081l-2.8407 4.3243h-3.538l4.649-6.7301zM46.837 16.4054a7.2015 7.2015 0 01-2.3799 2.5678c-1.0258.6856-2.2866 1.0284-3.7825 1.0284a7.0165 7.0165 0 01-2.7428-.5271 6.4974 6.4974 0 01-2.1759-1.473 6.7554 6.7554 0 01-1.4325-2.2294 7.5374 7.5374 0 01-.5134-2.8245 7.5918 7.5918 0 01.4859-2.716 6.9167 6.9167 0 011.3645-2.244 6.5009 6.5009 0 014.8781-2.094c1.0257 0 1.9403.1711 2.7436.5134a5.8182 5.8182 0 012.0406 1.4325 6.276 6.276 0 011.2835 2.2164 8.681 8.681 0 01.4462 2.8342v.2429a1.2187 1.2187 0 00-.0275.243.9003.9003 0 00-.0268.2162H36.8103a4.1842 4.1842 0 00.4591 1.6487c.2323.4442.5489.8389.9321 1.162a3.6437 3.6437 0 001.23.6754 4.3017 4.3017 0 001.324.2162c.8638 0 1.5756-.207 2.1354-.6211a5.1483 5.1483 0 001.3767-1.5386l2.5694 1.2706zm-2.7848-5.1081a3.7964 3.7964 0 00-.2567-.9054 2.7693 2.7693 0 00-.6211-.9175 3.5918 3.5918 0 00-1.0811-.7158c-.4411-.1981-.9769-.2972-1.6074-.2972-.8638 0-1.6072.2567-2.2302.7701-.6229.5134-1.0419 1.202-1.2567 2.0658h7.0532zM49.323 6.3244h2.8342v2.0002h.162a3.7247 3.7247 0 01.6656-.9556 4.3408 4.3408 0 01.9467-.7628 6.0141 6.0141 0 011.1086-.5134c.36-.129.7391-.1968 1.1215-.2008.373-.007.7453.034 1.1078.1222.2925.0765.5741.1897.8381.337l-.8648 2.7297a2.8728 2.8728 0 00-.6624-.2025 4.9406 4.9406 0 00-.8778-.068 2.9851 2.9851 0 00-1.3386.2996 3.4632 3.4632 0 00-1.0673.8147 3.7362 3.7362 0 00-.7159 1.2219 4.3333 4.3333 0 00-.2567 1.4941v6.9269h-2.9961L49.323 6.3244z" fill="#191919"/></g><defs><clipPath id="clip0"><path fill="#fff" d="M0 0h58.1067v20H0z"/></clipPath></defs></svg>