<svg width="178" height="130" fill="none" xmlns="http://www.w3.org/2000/svg"><g clip-path="url(#clip0)"><path opacity=".1" d="M104.096 17.9684c-10.4394-.3629-20.3817-3.7324-29.8756-7.4196S55.3229 2.7759 45.1274.8226c-6.547-1.2565-14.0425-1.434-19.3233 2.0775-5.0808 3.3872-6.7228 9.2181-7.6051 14.6328-.6646 4.076-1.0549 8.3632.7645 12.1779 1.2646 2.6485 3.5066 4.8744 5.0583 7.4196 5.3986 8.8261 1.5823 19.7104-4.2663 28.3285-2.742 4.0421-5.9276 7.9035-8.0455 12.2037-2.1178 4.3001-3.0969 9.2342-1.2436 13.6231 1.8356 4.3549 6.2116 7.6196 10.9521 9.9193 9.6277 4.668 20.9685 6.005 32.035 6.762 24.4896 1.676 49.1085.95 73.6625.224 9.087-.269 18.213-.542 27.153-1.947 4.964-.78 10.089-2.019 13.692-5 4.576-3.7952 5.71-10.2229 2.644-14.9811-5.143-7.9826-19.356-9.9665-22.954-18.533-1.978-4.7147.053-9.9681 2.929-14.3408 6.168-9.3826 16.505-17.612 17.049-28.3366.374-7.3647-4.596-14.7408-12.28-18.2264-8.053-3.6534-19.223-3.1937-25.162 2.8533-6.121 6.2131-16.873 8.6084-26.091 8.289z" fill="#00BAFC"/><g opacity=".9"><path opacity=".9" d="M115.883 40.1273h-.69a.369.369 0 00-.369.3693v11.0392c0 .204.165.3693.369.3693h.69c.204 0 .37-.1653.37-.3693V40.4966a.3698.3698 0 00-.37-.3693zM67.7637 30.9011h-.0629a.3693.3693 0 00-.3693.3694v3.1388c0 .204.1653.3694.3693.3694h.0629a.3694.3694 0 00.3694-.3694v-3.1388a.3694.3694 0 00-.3694-.3694zM67.8363 37.9998h-.1645a.3693.3693 0 00-.3694.3693v6.0099c0 .204.1654.3694.3694.3694h.1645a.3694.3694 0 00.3694-.3694v-6.0099a.3693.3693 0 00-.3694-.3693zM67.8073 47.1098h-.121a.3693.3693 0 00-.3693.3694v6.068c0 .204.1653.3693.3693.3693h.121a.3693.3693 0 00.3694-.3693v-6.068a.3694.3694 0 00-.3694-.3694z" fill="#3A3768"/><path opacity=".9" d="M109.306 18.0878H74.0753c-3.4733 0-6.289 2.8156-6.289 6.2889v84.5853c0 3.473 2.8157 6.289 6.289 6.289h35.2307c3.473 0 6.289-2.816 6.289-6.289V24.3767c0-3.4733-2.816-6.2889-6.289-6.2889z" fill="#3A3768"/><path opacity=".9" d="M93.1292 20.9879h-5.4276a.6242.6242 0 00-.6242.6242v.1064c0 .3448.2795.6243.6242.6243h5.4276a.6243.6243 0 00.6243-.6243v-.1064a.6242.6242 0 00-.6243-.6242zM95.5325 22.4363a.7694.7694 0 100-1.5387.7694.7694 0 000 1.5387z" fill="#E6E8EC"/></g><path opacity=".1" d="M38.9675 120.774c17.8137 0 32.2545-1.472 32.2545-3.287 0-1.816-14.4408-3.288-32.2545-3.288-17.8136 0-32.2544 1.472-32.2544 3.288 0 1.815 14.4408 3.287 32.2544 3.287zM110.686 130c8.345 0 15.111-.69 15.111-1.54 0-.851-6.766-1.541-15.111-1.541s-15.11.69-15.11 1.541c0 .85 6.765 1.54 15.11 1.54zM162.317 122.238c8.345 0 15.11-.689 15.11-1.54 0-.851-6.765-1.54-15.11-1.54-8.345 0-15.11.689-15.11 1.54 0 .851 6.765 1.54 15.11 1.54z" fill="#00BAFC"/><path d="M108.839 20.6169h-5.467v.6597c0 .829-.33 1.6241-.916 2.2103a3.1245 3.1245 0 01-2.21.9156H82.7965a3.1255 3.1255 0 01-2.2103-.9156 3.1255 3.1255 0 01-.9156-2.2103v-.6597h-5.1357a3.7954 3.7954 0 00-3.7953 3.7969v84.5082c-.0002.498.0978.992.2885 1.453.1906.46.4701.879.8226 1.232.3524.352.7709.632 1.2315.823.4605.19.9542.289 1.4527.289h34.3041c1.007 0 1.973-.4 2.685-1.112a3.7974 3.7974 0 001.112-2.685V24.4138a3.797 3.797 0 00-3.797-3.7969zM132.145 13.8247s-13.581-.8194-11.979 8.6971c0 0-.323 1.6823 1.206 2.4453 0 0 .024-.7049 1.392-.4662a6.206 6.206 0 001.476.071 3.065 3.065 0 001.805-.7436s3.816-1.5775 5.302-7.8164c0 0 1.098-1.3614 1.055-1.7114l-2.292.9791s.782 1.6533.161 3.0275c0 0-.074-2.9678-.515-2.9033-.09.0129-1.192.5726-1.192.5726s1.349 2.8791.323 4.9728c0 0 .385-3.5486-.752-4.7647l-1.613.9419s1.575 2.9743.508 5.4019c0 0 .273-3.7228-.846-5.1728l-1.462 1.1403s1.479 2.9308.578 4.9438c0 0-.12-4.3324-.895-4.6599 0 0-1.28 1.1291-1.475 1.5904 0 0 1.013 2.1291.386 3.2517 0 0-.386-2.8872-.702-2.9033 0 0-1.274 1.913-1.406 3.2259 0 0 .054-1.95 1.096-3.4065 0 0-1.23.2113-1.95 1.0097 0 0 .199-1.3517 2.259-1.471 0 0 1.053-1.4517 1.335-1.5388 0 0-2.056-.1726-3.303.3806 0 0 1.097-1.2758 3.68-.6951l1.442-1.1791s-2.706-.3694-3.854.0387c0 0 1.322-1.1291 4.245-.3065l1.571-.9387s-2.308-.4984-3.684-.3226c0 0 1.452-.7823 4.144.0661l1.129-.5048s-1.692-.3323-2.188-.3855c-.495-.0533-.521-.1888-.521-.1888a5.8644 5.8644 0 013.199.3646s2.377-.892 2.337-1.042zM118.216 9.5923s-6.13-.3694-5.414 3.9308c0 0-.143.7597.546 1.1049 0 0 .011-.3226.629-.2113.22.037.443.0478.666.0322.301-.0202.588-.138.816-.3355 0 0 1.724-.7129 2.395-3.5324 0 0 .497-.6145.484-.7726l-1.035.442s.353.7468.074 1.3678c0 0-.032-1.3404-.232-1.3098-.041 0-.538.2597-.538.2597s.609 1.3001.149 2.2469c0 0 .174-1.6033-.339-2.1533l-.729.4258s.711 1.3436.229 2.4404c0 0 .124-1.6823-.382-2.3372l-.661.5162s.669 1.3242.261 2.2339c0 0-.053-1.9581-.403-2.1065 0 0-.579.5097-.667.7194 0 0 .457.9678.173 1.4694 0 0-.174-1.3049-.323-1.3113 0 0-.575.8645-.635 1.4516a3.1456 3.1456 0 01.495-1.5387 1.7285 1.7285 0 00-.881.4564s.089-.6113 1.023-.6645c0 0 .476-.6565.603-.6968 0 0-.929-.0774-1.492.1726 0 0 .495-.5759 1.663-.3226l.645-.5323s-1.222-.1613-1.742.0177c0 0 .599-.5096 1.918-.1387l.71-.4242s-1.042-.2242-1.663-.1435c0 0 .655-.3533 1.871.029l.508-.2274s-.763-.15-.987-.1742c-.224-.0242-.235-.0855-.235-.0855.483-.0805.98-.0247 1.433.1613 0 0 1.084-.392 1.067-.4597zM7.0582 110.548c3.582 0 6.4858-.491 6.4858-1.097s-2.9038-1.097-6.4858-1.097c-3.582 0-6.4857.491-6.4857 1.097s2.9038 1.097 6.4857 1.097z" fill="#00BAFC"/><path d="M9.739 107.656c.2965-.241.5126-.566.6194-.933.079-.371-.0791-.806-.4323-.95-.3968-.153-.821.123-1.142.4-.321.278-.6903.596-1.1113.536.2156-.197.3767-.446.4674-.723a1.687 1.687 0 00.0504-.859.6467.6467 0 00-.1452-.323c-.2194-.236-.6194-.134-.884.052-.8387.59-1.0725 1.729-1.0758 2.754-.0855-.371-.0145-.756-.016-1.129-.0017-.372-.1066-.806-.426-1.003a1.2945 1.2945 0 00-.6451-.153c-.3774-.013-.7968.024-1.0549.3-.3226.342-.237.918.042 1.29.279.373.7016.613 1.0903.875.3131.185.58.439.7807.743a.7077.7077 0 01.058.132h2.363a6.5792 6.5792 0 001.4614-1.009zM134.54 94.1196s1.396 1.8259-.645 4.5808c-2.04 2.7546-3.721 5.0806-3.04 6.7986 0 0 3.077-5.116 5.582-5.189 2.505-.072.858-3.1128-1.897-6.1904z" fill="#00BAFC"/><path opacity=".1" d="M134.54 94.1196c.122.1767.218.3694.286.5726 2.444 2.8711 3.745 5.5518 1.395 5.6178-2.187.063-4.813 3.976-5.44 4.963.019.077.044.152.074.226 0 0 3.077-5.116 5.582-5.189 2.505-.072.858-3.1128-1.897-6.1904z" fill="#000"/><path d="M137.134 96.452c0 .6452-.073 1.1629-.161 1.1629-.089 0-.162-.521-.162-1.1629 0-.642.091-.3387.18-.3387.088 0 .143-.3065.143.3387z" fill="#FFD037"/><path d="M138.024 97.2133c-.564.3064-1.054.4935-1.098.4145-.044-.079.381-.3903.945-.6984.565-.3081.341-.0823.384 0 .044.0823.334-.0242-.231.2839z" fill="#FFD037"/><path d="M127.169 94.1196s-1.395 1.8259.645 4.5808c2.041 2.7546 3.721 5.0806 3.042 6.7986 0 0-3.077-5.116-5.582-5.189-2.505-.072-.86-3.1128 1.895-6.1904z" fill="#00BAFC"/><path opacity=".1" d="M127.169 94.1196a2.2323 2.2323 0 00-.285.5726c-2.444 2.8711-3.746 5.5518-1.397 5.6178 2.189.063 4.813 3.976 5.442 4.963-.021.077-.045.152-.074.226 0 0-3.078-5.116-5.583-5.189-2.505-.072-.858-3.1128 1.897-6.1904z" fill="#000"/><path d="M124.574 96.452c0 .6452.072 1.1629.161 1.1629.089 0 .161-.521.161-1.1629 0-.642-.09-.3387-.179-.3387-.088 0-.143-.3065-.143.3387z" fill="#FFD037"/><path d="M123.679 97.2133c.563.3064 1.055.4935 1.096.4145.042-.079-.379-.3903-.943-.6984-.565-.3081-.342-.0823-.384 0-.042.0823-.327-.0242.231.2839z" fill="#FFD037"/><path d="M125.019 105.26s3.902-.121 5.078-.958c1.176-.837 6.002-1.837 6.29-.493.289 1.343 5.863 6.679 1.452 6.714-4.412.036-10.236-.687-11.409-1.401-1.172-.715-1.411-3.862-1.411-3.862z" fill="#A8A8A8"/><path opacity=".2" d="M137.928 110.056c-4.405.035-10.236-.687-11.409-1.402-.895-.544-1.25-2.497-1.369-3.398h-.131s.247 3.146 1.421 3.861c1.174.714 7.004 1.437 11.409 1.402 1.271-.012 1.711-.463 1.687-1.129-.178.404-.662.658-1.608.666z" fill="#000"/><path opacity=".3" d="M107.441 78.6916H94.855v12.586h12.586v-12.586zM88.8919 62.0781H76.306v12.586h12.5859v-12.586zM90.1017 95.0213h-12.586v12.5857h12.586V95.0213z" fill="#3A3768"/><path d="M87.2935 31.1754h-12.586v12.5859h12.586V31.1754zM104.917 74.1544l-9.3325 8.4445 8.4445 9.3326 9.333-8.4445-8.445-9.3326zM107.233 46.342H94.647v12.586h12.586V46.342zM91.3227 60.3748H78.7368v12.586h12.5859v-12.586z" fill="#fff"/><path d="M157.327 118.164c.732.095 1.492.161 2.193-.074.108-.034.233-.108.218-.219a.251.251 0 00-.05-.107c-.265-.397-.489-.82-.666-1.263a.1043.1043 0 00-.04-.056.0967.0967 0 00-.071 0c-.323.084-.604.293-.926.382-.164.045-.335.058-.503.039-.146-.016-.346-.137-.476-.123.08.479.264.932.321 1.421zM171.187 116.937c.484-.323.984-.681 1.269-1.192.021-.03.033-.066.034-.102a.2038.2038 0 00-.04-.1 4.1421 4.1421 0 00-1.031-1.113c-.214.151-.407.33-.576.531-.121.127-.456.337-.459.527 0 .115.127.239.187.323.08.119.161.242.23.364.038.074.421.742.386.762z" fill="#00BAFC"/><path d="M160.198 119.645c.01.114-.021.229-.087.322a.427.427 0 01-.186.108c-1.026.367-2.206-.092-3.226.271-.211.075-.409.181-.621.252a3.4 3.4 0 01-.769.137c-.363.036-.726.057-1.089.066-.275.02-.551-.004-.819-.071a.988.988 0 01-.629-.498.4854.4854 0 01-.031-.355c.016-.042.038-.08.066-.114a.992.992 0 01.242-.196l.378-.243c.176-.125.368-.227.571-.303.148-.049.308-.07.458-.113.53-.162.934-.576 1.309-.979l.513-.547c.048-.06.109-.109.178-.142.07-.024.145-.032.219-.023.498.037.98.199 1.399.471.108.079.223.147.345.203.161.047.33.061.496.04.166-.021.327-.076.471-.16.133-.07.104-.113.162-.238.058-.124.19-.204.306-.09.035.04.06.088.073.139.113.366.069.758.069 1.14-.003.06.005.12.023.178.028.056.062.11.1.161.008.013.015.027.021.042.063.173.083.359.058.542z" fill="#514E7F"/><path d="M160.198 119.645c.01.114-.021.229-.087.322a.427.427 0 01-.186.108c-1.026.367-2.206-.091-3.226.271-.211.075-.409.181-.621.252a3.4 3.4 0 01-.769.137c-.363.036-.726.057-1.089.066-.275.02-.551-.004-.819-.071a.988.988 0 01-.629-.498.4854.4854 0 01-.031-.355c.016-.042.038-.08.066-.114.062.125.105.29.142.35.051.089.121.166.204.226.084.059.179.101.28.12.148.008.296-.011.437-.056.929-.231 1.916-.234 2.807-.582.297-.141.604-.259.919-.354.329-.049.661-.076.994-.08.524-.042 1.03-.2 1.548-.283.064.173.085.358.06.541z" fill="#464353"/><path d="M173.529 116.874c-.048.388-.295.724-.566 1.008a6.493 6.493 0 00-.791.866c-.267.406-.385.908-.73 1.252a2.009 2.009 0 01-.439.322c-.18.107-.371.194-.569.262-.515.161-1.07.127-1.613.088a1.4332 1.4332 0 01-.51-.1 1.4732 1.4732 0 01-.216-.13c-.132-.086-.242-.2-.323-.334a.3362.3362 0 01-.03-.241.5454.5454 0 01.161-.235c.121-.126.251-.243.389-.35.189-.123.36-.273.506-.445.09-.137.156-.287.195-.445.078-.277.126-.561.142-.847 0-.191.02-.38.06-.566.082-.291.298-.554.272-.855a.2195.2195 0 01.012-.129.2.2 0 01.101-.063c.17-.067.348-.107.529-.121.09-.006.18.008.264.042.084.033.159.084.22.15.076.09.125.216.236.256.053.011.108.011.161 0 .271-.027.56-.061.768-.237a.9758.9758 0 00.235-.319.9667.9667 0 00.087-.386c0-.1-.045-.205.109-.226.117-.016.209.107.269.187.236.276.412.597.518.944a.2516.2516 0 01.098-.019c.069-.001.137.015.198.046.062.032.114.078.154.134.094.145.131.32.103.491z" fill="#514E7F"/><path d="M173.529 116.874c-.048.388-.295.724-.566 1.008a6.493 6.493 0 00-.791.866c-.267.406-.385.908-.73 1.252a2.009 2.009 0 01-.439.322c-.18.107-.371.194-.569.262-.515.161-1.07.127-1.613.088a1.4332 1.4332 0 01-.51-.1 1.4732 1.4732 0 01-.216-.13c-.132-.086-.242-.2-.323-.334a.769.769 0 01.333-.079c.24.013.414.238.645.308.322.098.645-.133.982-.212.216-.05.445-.035.657-.104.177-.069.341-.168.483-.294.197-.14.371-.309.518-.5.123-.191.225-.394.305-.606.174-.408.38-.801.615-1.176a.7872.7872 0 01.125-.162c.05-.046.113-.08.162-.122.221-.161.313-.447.39-.712.021-.081.05-.161.087-.237a.413.413 0 01.198.047c.062.031.114.077.154.134.091.142.128.313.103.481z" fill="#464353"/><path d="M150.357 82.4192c.273.2054.498.468.658.7694.162.3032 1.047 2.6582.995 2.9953.291-.2936 1.442-.342 1.731-.6339.123-.1226.786-.7355.884-.8775.098-.1419.837-.4468.918-.5919.301-.5404-2.139-2.5808-1.828-3.1227a.133.133 0 00.026-.0839.1354.1354 0 00-.04-.0645 3.8805 3.8805 0 00-.707-.4839 1.1243 1.1243 0 01-.538-.6452c-.23.1059-.441.2486-.625.4226-.446.3817-.886.7732-1.319 1.1742-.171.1613-.497.3662-.576.5904-.079.2242.258.4194.421.5516z" fill="#A1616A"/><path d="M154.307 81.5498a7.051 7.051 0 00-1.045.8549c-.303.2984-.59.6452-.666 1.0662-.031.1613-.026.3322-.052.4984-.108.7226-.735 1.2533-1.011 1.9355a3.282 3.282 0 00-.177.6452c-.078.4184-.12.8424-.126 1.2678 0 .4129.397.6968.545 1.0823.123.382.211.7745.263 1.1726.161.7423.382 1.4704.66 2.1775.545 1.5049 2.311 5.6664 2.856 7.1729 1.669-.4194 6.115-1.3823 7.592-2.2582.494-.2935-3.419-3.6098-2.892-3.8388a.2651.2651 0 00.147-.1113.2615.2615 0 000-.1613c-.526-2.3049-2.176-4.1937-2.923-6.4519-.259-.779-.725-1.4436-1.08-2.1855-.323-.671-.492-1.4114-.875-2.0485a1.3565 1.3565 0 00-.279-.35 1.7049 1.7049 0 00-.309-.1855c-.212-.1129-.415-.1758-.628-.2823z" fill="#514E7F"/><path d="M150.446 82.1563c1.443 0 2.613-1.1699 2.613-2.613s-1.17-2.613-2.613-2.613-2.613 1.1699-2.613 2.613 1.17 2.613 2.613 2.613z" fill="#A1616A"/><path d="M153.104 80.7707a.8752.8752 0 01.982-.1403.4822.4822 0 01.22.1896.4738.4738 0 01.072.2814l1.291.0193c.206-.0047.412.0142.614.0565a.8941.8941 0 01.513.3226c.016.0209.034.0451.06.05a.1021.1021 0 00.059-.021c.199-.1012.424-.1416.646-.1161.7.0451 1.348.3968 1.896.8339.101.0676.18.1636.226.2758.045.1468 0 .3355.107.4355 0 1.2178.417 2.3517.697 3.5372.048.2113.251.3968.391.5629.174.1837.316.3953.42.6259.235.6145-.09 1.3355.14 1.9533.117.2525.267.4885.445.7016.208.2614.339.5751.379.9065.01.1484-.009.2968 0 .4468.014.199.05.3959.107.5871.093.3565.193.7129.297 1.0678.161.5742.387 1.1952.901 1.5017-1.243.2113-2.553.4161-3.739-.0146a1.9347 1.9347 0 01-.466-.2338c-.427-.3049-.634-.8275-.817-1.3194-.207-.5533-.417-1.1146-.459-1.7033a1.9057 1.9057 0 00-.077-.5565c-.121-.3226-.44-.5145-.734-.692a3.528 3.528 0 01-.882-.6871 1.3646 1.3646 0 01-.286-.4789 1.352 1.352 0 01-.072-.5534c.022-.1822.093-.3581.101-.5419a.4351.4351 0 00-.052-.2646.4374.4374 0 00-.199-.1822c-.905-.2742-1.337-1.3452-1.539-2.2695a7.282 7.282 0 01-.116-1.4516l-.011-.9339a1.2432 1.2432 0 01-.296-.4048c-.07-.1537-.108-.32-.111-.4888a.9739.9739 0 000-.2952.8316.8316 0 00-.206-.3226 2.7353 2.7353 0 01-.502-.6839zM150.32 83.7596c-.029.2919.037.5903-.029.8774-.026.1097-.069.2145-.102.3226-.097.4118-.054.8442.121 1.2291.176.3814.386.7459.628 1.0888.083.116.151.2423.201.3758.042.1402.068.2846.078.4306.064.5837.167 1.1625.308 1.7324.123.4968.282.9984.61 1.3919a.4195.4195 0 00.251.171.4574.4574 0 00.215-.0451l.668-.2533a.475.475 0 00.161-.0838.4021.4021 0 00.093-.2613c.047-.5388-.114-1.0727-.293-1.5824-.542-1.5387-1.262-3.0211-1.613-4.613-.099-.4452-.15-1.1291-.474-1.4759-.134-.1452-.089-.0839-.249 0a2.134 2.134 0 00-.234.1242.766.766 0 00-.34.571z" fill="#464353"/><path d="M152.333 86.679c.177.9388.359 1.878.544 2.8179l2.593-.6807c.021-.271-.124-.5226-.224-.7758-.237-.5936-.242-1.2533-.434-1.863-.145-.4646-.397-.892-.532-1.3597-.079-.271-.118-.5549-.195-.8275a6.3549 6.3549 0 00-.305-.7887 5.089 5.089 0 00-.566-1.0501c-.333.1242-.686.2678-.875.5662-.098.17-.153.3616-.161.5581-.045.5839.161 1.1694.095 1.7468a5.1753 5.1753 0 00.06 1.6565z" fill="#00BAFC"/><path d="M155.514 99.194c.145.5549-.066 1.129-.237 1.681-.26.824-.437 1.671-.529 2.53-.01.221-.054.439-.131.646-.096.177-.201.349-.315.516-.261.461-.254 1.026-.198 1.553.037.348.094.695.161 1.039.086.418.191.856.068 1.264.205-.045.345.22.337.431-.008.211-.082.437.018.623.255.092.258.442.25.711.004.47.063.938.176 1.394.385 1.848.793 3.692 1.226 5.53.934.291 2.024.592 2.914.191a.576.576 0 00.23-.141.5807.5807 0 00.14-.23.6628.6628 0 00-.036-.286l-.422-1.535a2.8147 2.8147 0 01-.152-1.129c.042-.286.161-.592.026-.842-.049-.086-.123-.162-.178-.236-.222-.322-.106-.756-.087-1.15.007-.088 0-.177-.019-.263-.03-.1-.072-.197-.124-.288a4.4096 4.4096 0 01-.484-2.194c.013-.098 0-.197-.039-.287a.6554.6554 0 01-.071-.116.317.317 0 01.023-.212 1.858 1.858 0 01-.341-.322.484.484 0 00.149-.153.4758.4758 0 00.068-.201c.008-.071 0-.143-.024-.211a.4755.4755 0 00-.112-.18.2551.2551 0 00.121-.062.2412.2412 0 00.07-.115.242.242 0 000-.136.253.253 0 00-.072-.115c-.055-.039-.125-.055-.161-.11-.06-.08-.011-.195.037-.282l.258-.466c.192-.345.236-.773.442-1.11a8.354 8.354 0 00.681-1.553l.735-2.048.5.433c.168.128.307.287.412.47.071.179.115.369.132.561.184 1.113.885 2.078 1.145 3.176.036.249.116.489.236.71.05.064.095.132.135.203.037.109.056.222.057.337.022.225.093.442.208.637.114.195.269.363.454.492.246.161.557.286.686.553.028.083.066.162.113.236.119.143.377.161.429.34.027.102-.026.221.032.31.032.04.073.072.121.09l.721.362c.807.401 1.213 1.322 1.808 1.998.206.219.387.459.541.716.256.458.375 1.034.806 1.329.116.061.221.139.313.233.137.179.087.43.098.656.012.226.186.494.4.426-.075.273-.075.561 0 .834a4.2007 4.2007 0 002.549-1.033c.21-.183.413-.417.414-.695a.2635.2635 0 00-.03-.138.3777.3777 0 00-.162-.123c-.672-.365-.875-1.21-1.212-1.897-.299-.605-.738-1.129-1.11-1.69-.807-1.21-1.345-2.673-2.557-3.473-.266-.176-.576-.332-.708-.623a5.0426 5.0426 0 01-.142-.516.4369.4369 0 00-.138-.221.437.437 0 00-.241-.101c.077-.262.106-.535.087-.807a.9951.9951 0 00-.04-.347 1.706 1.706 0 00-.177-.342 3.3147 3.3147 0 01-.457-1.774c.01-.322.066-.645-.031-.953-.048-.161-.132-.295-.192-.445a2.7935 2.7935 0 01-.138-.831l-.066-1.0628a5.091 5.091 0 00-.137-1.0501c-.225-.8242-.439-4.2776-1.199-4.6663-.76-.3887-2.056 2.2678-2.903 2.3211-.379.0163-.752.088-1.11.2129-.566.2129-1.042.6097-1.505.9984l-1.568 1.3162a5.6804 5.6804 0 01-.972.7016zM147.992 76.6415c.183-.2288.414-.4142.677-.5425.263-.1283.552-.1965.845-.1994a3.5455 3.5455 0 011.68.4226c.153.0865.315.1542.484.2016.278.0564.584-.0194.834.1129.332.1758.395.6242.366.9984-.029.3742-.098.7839.1 1.1049.07.092.134.1879.192.2871a.9514.9514 0 01-.018.6145 4.9604 4.9604 0 01-.322-.4048c-.116-.1274-.315-.2145-.457-.1194-.142.0952-.142.271-.148.4275-.007.1564-.048.3451-.197.3967a.3221.3221 0 01-.18-.0173.3176.3176 0 01-.142-.1117c-.254-.3097-.152-.8065-.402-1.1162-.144-.1774-.381-.2629-.513-.4484-.103-.1451-.129-.3338-.219-.4838-.091-.15-.302-.2726-.444-.1613a.6007.6007 0 00-.118.1613.6783.6783 0 01-.806.2419 1.4249 1.4249 0 00-.35-.15.4295.4295 0 00-.23.0514.4363.4363 0 00-.169.1647.8616.8616 0 00-.104.4613c0 .2178.038.4565-.088.6339a.6465.6465 0 01-.187.1613c-.185.1178-.438.1968-.613.0629a.4659.4659 0 01-.124-.1966.4697.4697 0 01-.013-.2324c.034-.1538.077-.3053.131-.4533.097-.3419-.029-.7274.077-1.05a3.328 3.328 0 01.458-.8178z" fill="#464353"/><path d="M149.393 84.4371a.3964.3964 0 00.024.2403.3956.3956 0 00.13.1258c.373.2306.796.3673 1.233.3984.056.0021.111.017.161.0436a.3054.3054 0 01.091.1602.311.311 0 01-.018.1833.9158.9158 0 00-.078.3646c.032.2306.305.3355.537.3645.323.0657.659.0008.934-.1807.174-.1586.306-.3574.386-.579.634-1.4517.856-3.0647 1.498-4.5164a.9166.9166 0 00.097-.3016.2968.2968 0 00-.022-.1557.306.306 0 00-.097-.1233c-.12-.0742-.305-.0323-.386-.1468-.04-.0597-.035-.1387-.071-.2-.074-.1323-.268-.1162-.402-.1871-.103-.0565-.175-.1613-.29-.192a.3724.3724 0 00-.167.0298.3742.3742 0 00-.136.1009c-.376.3516-.574.85-.784 1.321a15.6835 15.6835 0 01-1.129 2.0824c.05-.0775-.239-.6662-.352-.6888-.196-.0403-.451.3065-.558.4371a2.7662 2.7662 0 00-.601 1.4195z" fill="#00BAFC"/><path d="M163.298 86.5016h-12.586v12.586h12.586v-12.586z" fill="#fff"/><path d="M163.196 93.4341a5.1274 5.1274 0 00-.597.6259c-.183.2283-.28.5138-.274.8064a.4079.4079 0 00.078.2355c.025.0336.06.0583.101.0707a.201.201 0 00.123-.0013.3256.3256 0 00.11-.0984c.116-.1409.24-.2755.371-.4032.048-.0468.109-.0968.174-.0791a.1877.1877 0 01.076.05.5144.5144 0 01.161.2436.593.593 0 01-.032.2541.5808.5808 0 01-.139.2153 1.2183 1.2183 0 00-.289.4274.1808.1808 0 000 .1371.2237.2237 0 00.086.0742 1.2427 1.2427 0 001.043.0677c.224-.0887.418-.2435.645-.3226.099-.026.195-.0616.286-.1064a.5975.5975 0 00.165-.1632.5947.5947 0 00.088-.2142c.029-.1537.035-.3108.018-.4662a5.3148 5.3148 0 00-.389-1.7581.2106.2106 0 00-.063-.0936.2196.2196 0 00-.106-.0306c-.282-.029-.747-.1742-1.02-.0694a.7008.7008 0 00-.24.2145c-.063.0565-.376.3097-.376.3839z" fill="#A1616A"/><path d="M163.1 93.1841c0-.271-.336-.921.195-.9678 0-.2871-.408-.4678-.334-.771.026-.1032.108-.1855.121-.2887.034-.2952-.499-.4549-.412-.7387.033-.1081.15-.1742.176-.2839.06-.2549-.396-.3694-.405-.6307 0-.0887.049-.1726.046-.2597 0-.1113-.097-.1951-.15-.2903-.137-.2468-.071-.6291-.323-.7549.161.0129.224-.2339.153-.3855-.071-.1516-.209-.2822-.209-.45a.7199.7199 0 000-.1855c-.047-.1613-.312-.1726-.355-.3339a1.3847 1.3847 0 010-.1822c-.016-.1258-.145-.2033-.266-.2404a1.0576 1.0576 0 01-.355-.1258c-.078-.0596-.162-.1613-.25-.1048-.031.0177-.047.0532-.071.0806-.099.1146-.287.0646-.413-.0209-.37-.25-.552-.7001-.632-1.1388-.081-.4387-.076-.8919-.173-1.3274a3.0433 3.0433 0 00-.118-.3968 2.075 2.075 0 01-.187-.3968c-.019-.2533.507-.0807.707-.0549.194.0181.386.0543.574.1081.199.0752.395.1608.585.2565.807.3532 1.762.3968 2.404.9887.211.1952.388.45.661.5371.125.0252.249.0575.371.0968.305.1436.352.5468.518.8387.052.077.097.1579.137.242a.9555.9555 0 01.043.3097l.023.7661c.037 1.2904.076 2.5695-.061 3.8453-.046.4194-.108.8533.014 1.2581.032.1097.079.2146.107.3226.026.1313.04.2646.042.3984l.017.4952a.1595.1595 0 01-.024.1145.1568.1568 0 01-.063.0312.1649.1649 0 01-.071.0011c-.692-.0613-1.389-.4516-2.042-.2162" fill="#464353"/><path d="M150.238 91.1631a.2174.2174 0 00-.078.0645.551.551 0 00-.108.3274.551.551 0 00.108.3274c.017.0192.03.041.039.0646a.189.189 0 01-.019.1096.3592.3592 0 00-.038.211.3585.3585 0 00.088.1955c.05.042.117.0629.15.1178.056.0935-.023.2129-.01.3226.016.1435.186.2145.323.2322a.3407.3407 0 00.167-.0023.3413.3413 0 00.147-.0816.259.259 0 000-.2854.7554.7554 0 00-.213-.213.3226.3226 0 00.305-.2951.4562.4562 0 00-.184-.4017c-.029-.0242-.064-.0484-.072-.0871-.008-.0387.03-.0919.066-.129.161-.1613.285-.5565-.018-.6452a.7503.7503 0 00-.323.0145c-.077.0242-.077.071-.137.1033-.059.0322-.126.0161-.193.05z" fill="#A1616A"/><path opacity=".1" d="M153.407 80.0224a.5335.5335 0 00-.228.0568.5238.5238 0 00-.181.1496 1.1612 1.1612 0 00-.171.5484 4.8066 4.8066 0 01-.646 1.7517M153.972 80.4643a.6245.6245 0 00-.311.0897.6254.6254 0 00-.225.2329c-.073.174-.119.3585-.135.5468a2.9828 2.9828 0 01-.537 1.1468" fill="#000"/><path d="M49.9115 90.7405c.0935 1.0194-.6759 2.0065-.4517 3.0033.0484.2129.1404.4146.1742.6291.092.5919-.2613 1.1533-.5984 1.6484L46.142 100.27a2.7564 2.7564 0 01-.4146.511c-.5548.484-1.3839.441-2.1113.587a3.6263 3.6263 0 00-1.413.626.0924.0924 0 00-.0193.128c.1203.163.2795.294.4631.38.1837.086.386.125.5885.113.0758.1 0 .247-.1048.323-.1613.108-.3694.135-.4001.4a.4316.4316 0 00.0533.264.819.819 0 00.5064.352c1.0017.306 2.0856-.231 2.834-.968.7484-.737 1.2904-1.656 2.0259-2.403.4081-.412.871-.7664 1.2904-1.1664.8387-.7968 1.4887-1.7742 2.1178-2.742a3.0447 3.0447 0 00.4581-.9323c.0774-.3323.0419-.6823.1322-1.0113.1162-.4291.4323-.7726.6936-1.1291.5145-.7065.8565-1.5727.7888-2.4437-.0678-.871-.6065-1.7323-1.4291-2.0275a1.2798 1.2798 0 00-.8065-.05c-.3371.1049-.5855.3839-.8162.6452l-.5484.6355a1.4648 1.4648 0 00-.3226.4839.509.509 0 00.1129.5404" fill="#FBBEBE"/><path opacity=".05" d="M49.9115 90.7405c.0935 1.0194-.6759 2.0065-.4517 3.0033.0484.2129.1404.4146.1742.6291.092.5919-.2613 1.1533-.5984 1.6484L46.142 100.27a2.7564 2.7564 0 01-.4146.511c-.5548.484-1.3839.441-2.1113.587a3.6263 3.6263 0 00-1.413.626.0924.0924 0 00-.0193.128c.1203.163.2795.294.4631.38.1837.086.386.125.5885.113.0758.1 0 .247-.1048.323-.1613.108-.3694.135-.4001.4a.4316.4316 0 00.0533.264.819.819 0 00.5064.352c1.0017.306 2.0856-.231 2.834-.968.7484-.737 1.2904-1.656 2.0259-2.403.4081-.412.871-.7664 1.2904-1.1664.8387-.7968 1.4887-1.7742 2.1178-2.742a3.0447 3.0447 0 00.4581-.9323c.0774-.3323.0419-.6823.1322-1.0113.1162-.4291.4323-.7726.6936-1.1291.5145-.7065.8565-1.5727.7888-2.4437-.0678-.871-.6065-1.7323-1.4291-2.0275a1.2798 1.2798 0 00-.8065-.05c-.3371.1049-.5855.3839-.8162.6452l-.5484.6355a1.4648 1.4648 0 00-.3226.4839.509.509 0 00.1129.5404" fill="#000"/><path d="M27.8687 95.0713c.1613.5097.3226 1.0194.5178 1.5162a12.828 12.828 0 001.3403 2.4452c.3441.5027.7139.9873 1.1081 1.4513.4936.583 1.0452 1.168 1.2194 1.912.1017.429.0678.879.1097 1.318.042.438.1855.904.5404 1.167.2694.167.5745.268.8903.294.2226.035.5016.047.6178-.147a.5512.5512 0 00.0613-.255l.0548-.645c.0113-.139.0597-.323.1984-.323s.2097.18.3226.262a.359.359 0 00.1359.04.3367.3367 0 00.1409-.016.3607.3607 0 00.1227-.071.3484.3484 0 00.0844-.115.8047.8047 0 00.0129-.564 2.674 2.674 0 00-.5058-.999 2.676 2.676 0 00-.8701-.706 4.1366 4.1366 0 01-.671-.35 2.2827 2.2827 0 01-.5274-.665c-1.2194-2.0077-2.4452-4.0319-3.3066-6.211a4.5953 4.5953 0 01-.3403-1.2243 7.9045 7.9045 0 01.0532-1.2904 7.3846 7.3846 0 00-.2129-2.3033 1.8106 1.8106 0 00-.221-.5597c-.3532-.5387-1.1871-.6177-1.7129-.2468a1.7661 1.7661 0 00-.4711.5512 1.7662 1.7662 0 00-.2096.6941c-.0387.4339.2129.8871.3403 1.2903.3947 1.2495.7872 2.4996 1.1775 3.7502z" fill="#A1616A"/><path opacity=".05" d="M27.8687 95.0713c.1613.5097.3226 1.0194.5178 1.5162a12.828 12.828 0 001.3403 2.4452c.3441.5027.7139.9873 1.1081 1.4513.4936.583 1.0452 1.168 1.2194 1.912.1017.429.0678.879.1097 1.318.042.438.1855.904.5404 1.167.2694.167.5745.268.8903.294.2226.035.5016.047.6178-.147a.5512.5512 0 00.0613-.255l.0548-.645c.0113-.139.0597-.323.1984-.323s.2097.18.3226.262a.359.359 0 00.1359.04.3367.3367 0 00.1409-.016.3607.3607 0 00.1227-.071.3484.3484 0 00.0844-.115.8047.8047 0 00.0129-.564 2.674 2.674 0 00-.5058-.999 2.676 2.676 0 00-.8701-.706 4.1366 4.1366 0 01-.671-.35 2.2827 2.2827 0 01-.5274-.665c-1.2194-2.0077-2.4452-4.0319-3.3066-6.211a4.5953 4.5953 0 01-.3403-1.2243 7.9045 7.9045 0 01.0532-1.2904 7.3846 7.3846 0 00-.2129-2.3033 1.8106 1.8106 0 00-.221-.5597c-.3532-.5387-1.1871-.6177-1.7129-.2468a1.7661 1.7661 0 00-.4711.5512 1.7662 1.7662 0 00-.2096.6941c-.0387.4339.2129.8871.3403 1.2903.3947 1.2495.7872 2.4996 1.1775 3.7502z" fill="#000"/><path d="M52.3454 114.224c-.6323.385-1.4194.408-2.1549.322-.1177-.014-.2581-.024-.3339.068-.1097.132.0194.323.1533.435.4342.325.9436.534 1.4807.608.4809.068.966.1 1.4516.097 1.321.023 2.6485.044 3.9566-.147a.528.528 0 00.2162-.062.4124.4124 0 00.1613-.249.9897.9897 0 00-.3452-.942 2.9196 2.9196 0 00-.9226-.495l-1.1485-.447c-.2693-.105-.7032-.384-.9952-.361-.5419.035-1.0629.905-1.5194 1.173z" fill="#3F3D56"/><path d="M55.231 116.922a2.8171 2.8171 0 01-1.9275.719c-.1806 0-.4322.034-.4322.215a.2834.2834 0 00.0516.15c.2249.374.5798.652.9968.781.3938.093.8008.119 1.2033.075l1.1774-.061c.2226-.011.4468-.022.6678-.05.221-.027.4613-.072.692-.108a9.2736 9.2736 0 011.7145-.081.5003.5003 0 00.2244-.007.5126.5126 0 00.1982-.105c.1049-.133.0436-.323.0097-.484-.071-.341 0-.699-.0661-1.042-.1129-.6-.6291-1.062-1.2017-1.279-.529-.202-1.4678-.433-1.9694-.097-.5387.356-.8629.943-1.3388 1.374z" fill="#3F3D56"/><path d="M52.9051 101.686c-.4839.637-.9678 1.373-.8549 2.16.0645.424.3016.798.4758 1.192.2189.54.3811 1.101.4839 1.674.1791.834.3581 1.669.4694 2.515.1236.957.1587 1.923.1048 2.887-.0145.232-.0403.484-.2016.645-.0645.065-.1484.118-.1758.205a.3484.3484 0 00.0371.242c.2955.605.808 1.077 1.4355 1.321a5.495 5.495 0 001.9517.364.5419.5419 0 00.2613-.034.5008.5008 0 00.2016-.23c.4839-.92.2146-2.029.2226-3.065 0-.866.2097-1.724.1726-2.59-.0306-.694-.2161-1.371-.2839-2.063-.1113-1.129.0968-2.274.3049-3.395.1613-.859.3226-1.718.5242-2.568a4.8944 4.8944 0 01.5549-1.4907c.2258-.3565.5322-.6549.7903-.9903a4.4956 4.4956 0 00.8839-3.2856c-.0161-.1162-1.6613.4161-1.8033.4838a5.591 5.591 0 00-1.6129 1.034c-.3807.3613-.6791.8451-1.013 1.2516-.471.5732-.9344 1.1495-1.3903 1.7291a118.4811 118.4811 0 00-1.5388 2.0081z" fill="#464353"/><path opacity=".05" d="M52.9051 101.686c-.4839.637-.9678 1.373-.8549 2.16.0645.424.3016.798.4758 1.192.2189.54.3811 1.101.4839 1.674.1791.834.3581 1.669.4694 2.515.1236.957.1587 1.923.1048 2.887-.0145.232-.0403.484-.2016.645-.0645.065-.1484.118-.1758.205a.3484.3484 0 00.0371.242c.2955.605.808 1.077 1.4355 1.321a5.495 5.495 0 001.9517.364.5419.5419 0 00.2613-.034.5008.5008 0 00.2016-.23c.4839-.92.2146-2.029.2226-3.065 0-.866.2097-1.724.1726-2.59-.0306-.694-.2161-1.371-.2839-2.063-.1113-1.129.0968-2.274.3049-3.395.1613-.859.3226-1.718.5242-2.568a4.8944 4.8944 0 01.5549-1.4907c.2258-.3565.5322-.6549.7903-.9903a4.4956 4.4956 0 00.8839-3.2856c-.0161-.1162-1.6613.4161-1.8033.4838a5.591 5.591 0 00-1.6129 1.034c-.3807.3613-.6791.8451-1.013 1.2516-.471.5732-.9344 1.1495-1.3903 1.7291a118.4811 118.4811 0 00-1.5388 2.0081z" fill="#000"/><path d="M56.3988 96.7859c.1032.4935.5823.871.5952 1.3758.0113.4033-.2758.742-.4839 1.0888a7.2977 7.2977 0 00-.4936 1.1195 17.0889 17.0889 0 01-1.4516 2.882c-.2759.439-.5855.915-.521 1.429.0432.24.1278.471.25.683l.829 1.646c.1818.329.3236.678.4226 1.041.0726.313.0791.645.121.955.1307 1.009.6033 2.026.3226 3.005-.0242.083-.1129.185-.179.127.2742.511.4951 1.027.4726 1.613-.0097.305-.1033.621.0096.905a.9846.9846 0 01.1259.345c0 .082-.0388.161-.0468.244-.0226.232.1903.427.4129.501.2226.074.4645.07.6887.136.4323.129.7388.5 1.1098.758.3745.259.817.404 1.2726.414a.3203.3203 0 00.1871-.037.303.303 0 00.1048-.227 1.267 1.267 0 00-.4564-1.099.5037.5037 0 01-.1613-.177.4294.4294 0 01-.0162-.198c.0678-.906.0516-1.816-.0484-2.718a4.2004 4.2004 0 01-.0419-.865c.0478-.237.071-.479.0694-.721a3.6973 3.6973 0 00-.221-.689c-.1274-.411-.0919-.853-.1049-1.29a11.3104 11.3104 0 00-.3645-2.208 1.6789 1.6789 0 00-.3435-.797c-.1726-.181-.4517-.351-.3855-.592a.678.678 0 01.1613-.235.9445.9445 0 00.1983-.721.3243.3243 0 00.2168-.021.3222.3222 0 00.1542-.154 5.8037 5.8037 0 002.9163-3.316c.0285-.104.0725-.204.1306-.295.1242-.174.342-.25.5339-.347.6033-.303 1.0194-.8723 1.4017-1.4288a3.326 3.326 0 00.5419-1.0371 3.416 3.416 0 00.0742-.7485l.0339-1.2903a.7412.7412 0 00-.0242-.2533.6442.6442 0 00-.1403-.2064 2.5049 2.5049 0 00-1.3775-.742c-.3532-.0629-.7145-.0516-1.0726-.0806-.6936-.0581-1.3791-.2726-2.0743-.2226-1.0903.0806-2.0614.8371-2.5807 1.8017-.1904.3451-.3807.6355-.7678.6468z" fill="#464353"/><path d="M20.2055 116.54c.2381.082.4911.113.742.089.0177-.205.2935-.25.4984-.241a.5656.5656 0 01.2935.065c.0516.032.0903.08.1404.114a.5899.5899 0 00.2903.074l1.0678.091c.4758.04.9677.077 1.4162-.094a.4604.4604 0 00.2274-.151c.1209-.173 0-.421-.1613-.547-.1613-.126-.3823-.184-.55-.313-.371-.282-.421-.807-.6178-1.232a3.5383 3.5383 0 00-.5097-.741 2.8353 2.8353 0 00-.5049-.516c-.4274-.31-.921-.303-1.4226-.347-.3548-.032-.6887-.053-.9436.262-.3145.39-.1887 1.177-.1693 1.643.0191.619.087 1.236.2032 1.844z" fill="#514E7F"/><path opacity=".05" d="M20.2055 116.54c.2381.082.4911.113.742.089.0177-.205.2935-.25.4984-.241a.5656.5656 0 01.2935.065c.0516.032.0903.08.1404.114a.5899.5899 0 00.2903.074l1.0678.091c.4758.04.9677.077 1.4162-.094a.4604.4604 0 00.2274-.151c.1209-.173 0-.421-.1613-.547-.1613-.126-.3823-.184-.55-.313-.371-.282-.421-.807-.6178-1.232a3.5383 3.5383 0 00-.5097-.741 2.8353 2.8353 0 00-.5049-.516c-.4274-.31-.921-.303-1.4226-.347-.3548-.032-.6887-.053-.9436.262-.3145.39-.1887 1.177-.1693 1.643.0191.619.087 1.236.2032 1.844z" fill="#000"/><path d="M20.6378 95.7842c-.3226.1049-.4677.5113-.4081.85.0597.3388.2629.6291.4307.9275.4742.85.6807 1.8226 1.0791 2.7093.2984.663.7016 1.276.9968 1.936.2951.66.4839 1.415.2984 2.119-.0871.344-.2549.66-.3678.996a5.6363 5.6363 0 00-.2161 1.129 21.3987 21.3987 0 00-.0774 3.897c.0015.158.0349.315.0984.461.0661.129.1822.264.1258.398-.0226.054-.071.092-.0952.146-.0677.148.0694.303.1936.408a.347.347 0 01-.0882.102.3272.3272 0 01-.1215.059.4961.4961 0 01.2113.552c-.1113.016-.1178.185-.0468.274.071.088.179.145.229.245a.3425.3425 0 01-.1887.432.8867.8867 0 01-.5145.039 5.5122 5.5122 0 01-.8613-.189.7638.7638 0 01-.2646-.121.7858.7858 0 01-.2371-.522 9.452 9.452 0 01-.0597-1.613c.0468-2.607 0-5.217-.1129-7.822-.0467-1.048-.3613-2.071-.7677-3.038a15.5724 15.5724 0 00-.7484-1.4521c-.5839-1.0742-1.1033-2.2581-.9678-3.4759.0145-.1307.0629-.2888.1919-.3097a.2785.2785 0 01.1484.0242c.2699.1269.5312.2713.7823.4322a2.9643 2.9643 0 001.3581.4065z" fill="#464353"/><path opacity=".05" d="M20.6378 95.7842c-.3226.1049-.4677.5113-.4081.85.0597.3388.2629.6291.4307.9275.4742.85.6807 1.8226 1.0791 2.7093.2984.663.7016 1.276.9968 1.936.2951.66.4839 1.415.2984 2.119-.0871.344-.2549.66-.3678.996a5.6363 5.6363 0 00-.2161 1.129 21.3987 21.3987 0 00-.0774 3.897c.0015.158.0349.315.0984.461.0661.129.1822.264.1258.398-.0226.054-.071.092-.0952.146-.0677.148.0694.303.1936.408a.347.347 0 01-.0882.102.3272.3272 0 01-.1215.059.4961.4961 0 01.2113.552c-.1113.016-.1178.185-.0468.274.071.088.179.145.229.245a.3425.3425 0 01-.1887.432.8867.8867 0 01-.5145.039 5.5122 5.5122 0 01-.8613-.189.7638.7638 0 01-.2646-.121.7858.7858 0 01-.2371-.522 9.452 9.452 0 01-.0597-1.613c.0468-2.607 0-5.217-.1129-7.822-.0467-1.048-.3613-2.071-.7677-3.038a15.5724 15.5724 0 00-.7484-1.4521c-.5839-1.0742-1.1033-2.2581-.9678-3.4759.0145-.1307.0629-.2888.1919-.3097a.2785.2785 0 01.1484.0242c.2699.1269.5312.2713.7823.4322a2.9643 2.9643 0 001.3581.4065z" fill="#000"/><path d="M16.2312 92.6147a1.1475 1.1475 0 00-.5678-.179 1.1518 1.1518 0 00-.6178.3065 6.4775 6.4775 0 00-.6129.5387 3.28 3.28 0 00-.7323 3.2437c.1952.579.5484 1.0903.8968 1.5903l.7097 1.0194c1.0823 1.5547 2.1663 3.1097 3.3002 4.6277a.1736.1736 0 00.1226.161c.0419.012.0919.01.1177.044a.1241.1241 0 01.0145.069 1.058 1.058 0 01-.0629.323.1497.1497 0 00-.0129.111c.0355.086.192.037.2403.118.0339.051 0 .121-.0516.161-.0516.04-.0968.095-.0887.161.0081.066.1161.128.1113.208 0 .046-.0387.079-.0661.115a.292.292 0 00-.0498.193.294.294 0 00.0853.18c.0742.742-.3226 1.443-.4081 2.185-.1274 1.166.4 2.305.4645 3.476a.9293.9293 0 00.0726.384c.1097.202.3903.323.3807.553-.02.095-.0464.188-.0791.279.0021.134.0161.267.042.399 0 .133-.1129.293-.2371.242.0935.309.1763.622.2484.937l2.4839.205c.0264-.224.0188-.45-.0226-.671-.0516-.239-.1613-.463-.2161-.702a.8283.8283 0 01.0984-.702.2757.2757 0 01-.1786-.062.2748.2748 0 01-.0956-.164 1.1016 1.1016 0 010-.385c.0661-.645-.2065-1.29-.1984-1.936.0081-.513.1871-1.004.279-1.508.1936-1.077-.008-2.247.471-3.226.2904-.593.692-1.251.3662-1.826-.1613-.283-.4436-.483-.6275-.745a3.02 3.02 0 01-.3371-.806c-.3839-1.187-1.0016-2.2825-1.5452-3.4068a3.5855 3.5855 0 01-.3323-.8952 4.5428 4.5428 0 01-.0403-.8258 12.69 12.69 0 00-.0919-1.4839 1.3902 1.3902 0 00-.1807-.6146 1.3767 1.3767 0 00-.3871-.3532c-.8146-.5549-1.7856-.8758-2.6646-1.3388z" fill="#464353"/><path d="M19.2071 117.45c.2381.082.4911.112.7419.088.0194-.205.2936-.25.4984-.24a.5781.5781 0 01.2855.066c.0516.032.0903.081.142.115a.6005.6005 0 00.2903.074l1.0662.09c.4758.04.9677.077 1.4178-.093a.4668.4668 0 00.2258-.152c.1209-.173 0-.421-.1613-.547-.1613-.126-.3823-.184-.5517-.313-.3693-.282-.4209-.806-.6177-1.232a3.558 3.558 0 00-.5097-.74 2.829 2.829 0 00-.5033-.517c-.429-.309-.921-.303-1.4226-.346-.3565-.033-.6903-.054-.9436.261-.3226.39-.1903 1.177-.171 1.644.0233.618.0945 1.234.213 1.842z" fill="#514E7F"/><path d="M45.2612 98.7408H32.6753v12.5862h12.5859V98.7408z" fill="#fff"/><path d="M30.2139 88.3146c1.3585 0 2.4598-1.1013 2.4598-2.4598s-1.1013-2.4597-2.4598-2.4597-2.4597 1.1012-2.4597 2.4597c0 1.3585 1.1012 2.4598 2.4597 2.4598z" fill="#A1616A"/><path d="M27.8946 86.5839c-.3533.3048-.8581.3226-1.3211.3742a8.2555 8.2555 0 00-2.842.8226 1.015 1.015 0 00-.3226.2258.9299.9299 0 00-.1613.3516 2.3256 2.3256 0 00-.0935.8549c.0322.2804.1124.5532.2371.8065a4.3288 4.3288 0 001.5258 1.7388c.1115.0818.2374.1419.371.1774.3226.0678.6371-.121.9549-.2048a1.5644 1.5644 0 01.8823.029c.2677.0887.55.2516.8065.1436a.8423.8423 0 00.3677-.4178c.2514-.4767.4754-.9673.671-1.4694a5.5504 5.5504 0 01.2436-.571c.2855-.5436.779-.9678 1.0242-1.5259a.336.336 0 00.0226-.2871.3989.3989 0 00-.1807-.1387 4.3132 4.3132 0 01-.9823-.771c-.1613-.1613-.4597-.5742-.6919-.6113-.2549-.0339-.3339.321-.5113.4726z" fill="#A1616A"/><path d="M27.9526 91.5824c-.2855.1371-.621.0759-.9307.0113-.7968-.1613-1.6017-.3355-2.3388-.6806a1.2523 1.2523 0 01-.5742-.4404 1.407 1.407 0 01-.1613-.5516l-.1355-.9146c-.0468-.3226.0355-.6161.0419-.9387a.274.274 0 00-.0532-.2049.2214.2214 0 00-.1613-.05c-.3694 0-.592.392-.8516.6549a1.5711 1.5711 0 01-.5226.3516c-.2371.0968-.5291.1613-.6243.4017-.0403.0983-.0354.2113-.0758.3097-.1613.3935-.871.2629-1.05.6451-.0516.1097-.0484.2484-.1339.3355-.0855.0871-.2419.0839-.371.1065-.5129.0839-.7629.6774-1.2016.9565-.3694.2355-.8452.2306-1.242.4145a4.754 4.754 0 01-.6452.3226 3.0463 3.0463 0 01-.7484.0371.202.202 0 00-.15.0484.2064.2064 0 00-.0242.1613 4.5283 4.5283 0 00.9347 2.1234 4.5295 4.5295 0 001.8638 1.3816.99.99 0 01.2387.1145c.2242.1613.2629.5274.5162.6452a.534.534 0 00.5387-.1162 4.6733 4.6733 0 00.3887-.429 1.5487 1.5487 0 01.8662-.4549c.3048-.0484.6452-.0129.8919-.2a2.7273 2.7273 0 00.2807-.3 1.7593 1.7593 0 01.6452-.3806 6.4498 6.4498 0 012.0162-.4259c.6452-.0371 1.3145.0226 1.9259-.1887a1.1303 1.1303 0 00.429-.2419 1.2903 1.2903 0 00.2871-.4984 3.806 3.806 0 00.1307-2.005z" fill="#514E7F"/><path d="M24.7815 87.9581c.1822-.0161.3645 0 .5467 0 .2146 0 .4259-.0516.6452-.0532a1.5905 1.5905 0 011.5001 1.142.2906.2906 0 01.0097.1613.1148.1148 0 01-.1242.0838 2.7216 2.7216 0 00-.2759-.5532 1.566 1.566 0 00-.8258-.5742 2.1438 2.1438 0 00-1.0162-.0371c-.1387.0258-.2758.0629-.4129.1016l-.6694.1806c-.1209.0323-.2419.0662-.3596.1097-.0904.0323-.2468.1613-.3355.1613-.121 0-.0226-.1048.0306-.1758a.8613.8613 0 01.4291-.3113 3.6078 3.6078 0 01.8581-.2355z" fill="#514E7F"/><path d="M26.4396 95.3471c.1613.5097.3226 1.0194.5178 1.5162a12.827 12.827 0 001.342 2.4452c.344.5028.7139.9875 1.1081 1.4515.4936.582 1.0452 1.168 1.2194 1.912.1016.429.0677.879.1097 1.317.0419.439.1855.905.5403 1.168.2695.167.5746.267.8904.294.2226.035.5016.046.6177-.147a.55.55 0 00.0613-.255l.0533-.645c.0129-.139.0613-.323.2-.323.1387 0 .2097.179.3226.262a.3584.3584 0 00.2768.024.3641.3641 0 00.1227-.072.3459.3459 0 00.0844-.114.8172.8172 0 00.0129-.564 2.6821 2.6821 0 00-1.3727-1.707 4.1366 4.1366 0 01-.671-.35 2.2508 2.2508 0 01-.5274-.664c-1.221-2.0085-2.4469-4.0327-3.3066-6.2118a4.5953 4.5953 0 01-.3403-1.2243 7.9028 7.9028 0 01.0532-1.2903 7.3826 7.3826 0 00-.2081-2.3066 1.8119 1.8119 0 00-.2209-.5597c-.3533-.5387-1.1872-.6177-1.713-.2468a1.7645 1.7645 0 00-.6807 1.2453c-.0387.4338.2129.8871.3404 1.2903a7890.208 7890.208 0 001.1677 3.755z" fill="#A1616A"/><path d="M33.7931 84.116c.0193-.2048-.1613-.3903-.3726-.521a5.2 5.2 0 01-.6323-.3871c-.1871-.1613-.2887-.3726-.4758-.5339a2.0984 2.0984 0 00-.7098-.3532 5.386 5.386 0 00-1.6968-.3048 2.9874 2.9874 0 00-1.6242.429.967.967 0 00-.2759.2565 1.1291 1.1291 0 00-.1338.408 8.0613 8.0613 0 01-.4243 1.2904c-.1822.4646-.3774.9452-.8064 1.3033-.4597.3839-1.1646.6049-1.4678 1.0678a.3464.3464 0 00-.0662.2984c.0436.1161.1839.1951.3113.2693.7468.4291 1.3904.9839 1.7227 1.6485a1.9111 1.9111 0 01-.1516 2.0565c-.1726.2258-.4113.4936-.242.721.2565.3452 1.142.1484 1.3452.5129a.7299.7299 0 01.0275.3775c0 .3823.3693.7242.8177.9a4.5605 4.5605 0 001.4711.242 1.271 1.271 0 00.037-.9517.3796.3796 0 01-.037-.2161.5196.5196 0 01.1612-.2081c.5404-.5097.4259-1.2597.1017-1.8646-.3242-.6048-.8275-1.1597-1.0146-1.7968-.0935-.3226-.0952-.6726.1613-.9356a3.2738 3.2738 0 01.4629-.3387 1.7592 1.7592 0 00.6452-.8065c.15-.4193.1274-.9242.5694-1.2016.4419-.2774 1.0145-.1871 1.4807-.3662.3758-.15.7871-.6968.8162-.9952z" fill="#464353"/><path d="M47.5856 87.6678c1.4814 0 2.6823-1.2009 2.6823-2.6824 0-1.4814-1.2009-2.6823-2.6823-2.6823s-2.6824 1.2009-2.6824 2.6823c0 1.4815 1.201 2.6824 2.6824 2.6824z" fill="#FBBEBE"/><path d="M50.0002 84.8725a3.4764 3.4764 0 002.2258 1.5565l-.2016.7323c-.3484 1.2614-.7419 2.5969-1.7162 3.4711a1.6225 1.6225 0 00-.2726-1.2549 4.7523 4.7523 0 00-.9097-.9516l-1.5436-1.3436a.4208.4208 0 01-.1161-.1291.393.393 0 010-.2935c.1968-.6129.7581-.9952 1.2129-1.4081a4.2767 4.2767 0 00.6114-.7114c.3161-.4355.5145.0049.7097.3323z" fill="#FBBEBE"/><path d="M50.3421 88.342a1.4527 1.4527 0 01-.0791.592.4163.4163 0 01-.4839.2484c.0565-.1275-.0919-.2726-.2306-.2565a.4346.4346 0 00-.3065.2597.9677.9677 0 00-.0887.6c.0436.2549.1903.4984.1516.7533-.0306.2113-.1871.4226-.1032.621a.9981.9981 0 00.2.2387.6771.6771 0 01-.0726.929l2.0969.0404c-.0774.35.0806.7081.2597 1.0177a6.4086 6.4086 0 004.7776 3.1195.4154.4154 0 00-.2003.2941.4163.4163 0 00.1003.3414c.1709.1694.458.1484.671.0387a5.1046 5.1046 0 00.5758-.4306 1.7595 1.7595 0 011.1807-.3226c.2629.0242.5161.1081.779.1226.7743.0419 1.4404-.5162 2.1808-.7436.5435-.1613 1.1581-.1613 1.6129-.5065.1968-.1451.3581-.3839.3-.6226a1.0134 1.0134 0 00-.2258-.3645c-.2629-.3403-.4161-.7484-.6048-1.1291a6.7406 6.7406 0 00-1.5114-2.0226 13.3468 13.3468 0 00-1.4968-1.1372 2.534 2.534 0 00-.4065-.2435 4.1663 4.1663 0 01-.5548-.2259c-.2468-.1613-.3872-.4274-.5759-.6451-.4145-.4839-1.0516-.7049-1.5629-1.0856-.342-.2548-.6452-.5903-1.0533-.7145-.1984-.0597-.4113-.0645-.6097-.1242-.4516-.1371-.7807-.5387-1.2242-.7-.3501-.1291-.7372-.0952-1.1081-.142a2.5812 2.5812 0 01-1.1388-.4306 1.366 1.366 0 00-.3678-.2162c-.5597-.1613-.6048.8742-.658 1.2355-.0839.5275-.2226 1.0678-.2226 1.6114z" fill="#3F3D56"/><path d="M50.8889 91.8437c.0935 1.0178-.6759 2.005-.4517 3.0034.0484.2129.1387.4145.1726.629.0936.592-.2597 1.1517-.5968 1.6469l-2.9033 4.249a2.5873 2.5873 0 01-.4129.511c-.5549.492-1.3839.44-2.1114.589a3.6154 3.6154 0 00-1.4146.625.0932.0932 0 00-.0341.06.091.091 0 00.0164.066c.12.164.2791.295.4629.381.1837.086.3862.125.5887.113.0759.1 0 .248-.1048.322-.1613.108-.3694.137-.4.4a.4515.4515 0 00.0516.267.8269.8269 0 00.5081.351c1.0016.307 2.0839-.232 2.834-.968.75-.735 1.2903-1.656 2.0258-2.403.4081-.413.871-.766 1.2904-1.166.8371-.8066 1.4888-1.7744 2.1178-2.7422.205-.2827.36-.5986.4581-.9339.0774-.3306.042-.6822.1323-1.0097.1161-.4306.4306-.7742.6936-1.1291.5145-.708.8564-1.5726.7887-2.4452-.0678-.8726-.6081-1.7307-1.4291-2.0275a1.2789 1.2789 0 00-.8065-.0484c-.3371.1032-.5855.3823-.8161.6452l-.5501.6355a1.51 1.51 0 00-.3225.4839.508.508 0 00.1129.5403" fill="#FBBEBE"/><path d="M52.3535 87.6613c-.3807.0226-.8065.0597-1.0694.3226a1.4943 1.4943 0 00-.2678.4226c-.2613.5307-.5161 1.0872-.5339 1.6791-.0161.4726.121.9355.1936 1.4033.0597.3887-.0919.7855-.121 1.1791a8.0506 8.0506 0 001.5227-.5855 5.0942 5.0942 0 01.8919-.463c.4533-.1516 1.2178.1081 1.6469.3226.0242-.3032-.2033-.8306-.1791-1.129a1.2367 1.2367 0 01.0678-.3758c.064-.128.1402-.2495.2274-.363a1.4856 1.4856 0 00-.1339-1.7436c-.3823-.4306-.9823-.5919-1.5549-.6597a6.795 6.795 0 00-1.0871-.0371" fill="#3F3D56"/><path d="M44.0515 82.2885l-.0612-.5048c.4242.108.8258-.25 1.0968-.6226.2709-.3726.521-.8065.9323-.9678.5016-.1887 1.0323.1129 1.5113.3613a4.7326 4.7326 0 001.7339.5742c.0973.0042.1936.0199.2871.0468.3114.1113.4597.5016.5049.8565.0452.3548.0323.7322.1855 1.0484.1177.2387.3226.4177.4387.6452.3226.6339.0113 1.5016.3581 2.1242l-.8597-.7871c-.079-.0726-.1903-.1484-.2758-.0871-.0855.0613-.0742.1613-.1033.2371a.45.45 0 01-.6113.2226 1.6759 1.6759 0 01-.5468-.5 3.341 3.341 0 00-1.3645-1.0339 1.744 1.744 0 00-1.4436.0855c-.4017.2274-.6952.7548-1.1872.7726-.6742.0258-.9548-1.2291-1.2661-1.7243a.6118.6118 0 00.1774-.7613c.0468-.0161.4839-.0629.4935.0145z" fill="#464353"/><path d="M104.734 50.368a2.9505 2.9505 0 01-.842.2307c.306-.1824.535-.4688.646-.8065a2.9585 2.9585 0 01-.933.3564c-.2-.2157-.461-.366-.748-.4311a1.4656 1.4656 0 00-.862.0661 1.4623 1.4623 0 00-.674.5403 1.4591 1.4591 0 00-.253.8264c-.001.1129.012.2255.037.3355a4.1542 4.1542 0 01-3.0224-1.5355 1.4725 1.4725 0 00.4548 1.9613 1.4288 1.4288 0 01-.6661-.1839v.0178a1.4693 1.4693 0 001.1774 1.4404 1.5275 1.5275 0 01-.3871.0516 1.4268 1.4268 0 01-.2758-.0275 1.473 1.473 0 001.371 1.0194 2.9417 2.9417 0 01-1.8226.6291 3.1488 3.1488 0 01-.35-.021 4.107 4.107 0 002.2452.6629c2.7016 0 4.1776-2.2371 4.1776-4.1791v-.1887c.286-.2096.532-.4685.727-.7646zM99.4036 81.9482l.4839 1.2145 3.1595 3.3502 1.058-.9968.667.7048.704-.6661.041-1.3694.88-.8323.071-2.3985-2.827-2.9969-4.2374 3.9905zm6.3714-.671l-.041 1.371-1.058.9968-.04 1.371-.664-.7048-.883.8323-2.834-2.9985 3.35-3.1598 2.17 2.292z" fill="#00BAFC"/><path d="M103.202 80.6772l.529-.4984 1.342 1.421-.529.4968-1.342-1.4194zm-1.234 1.1646l.529-.5 1.341 1.4226-.529.4984-1.341-1.421zM40.9337 101.13h-5.1744a.3241.3241 0 00-.2281.094.3242.3242 0 00-.0945.228v5.176c0 .086.034.168.0945.228a.3209.3209 0 00.2281.095H38.34v-2.305h-.6952v-.849h.7081v-.627c0-.75.521-1.16 1.192-1.16.3226 0 .6678.024.7468.036v.784h-.5339c-.3645 0-.4355.172-.4355.427v.54h.8694l-.1129.849h-.7581v2.303h1.613a.3243.3243 0 00.2281-.094.3242.3242 0 00.0945-.228v-5.175c0-.085-.034-.167-.0945-.228a.3243.3243 0 00-.2281-.094zM86.174 64.1928a1.2143 1.2143 0 011.2114 1.2113v2.4194a1.2149 1.2149 0 01-1.2114 1.2114h-2.4194a1.2167 1.2167 0 01-.8565-.3549 1.2018 1.2018 0 01-.3564-.8565v-2.4194a1.214 1.214 0 011.2129-1.2113h2.4194zm0-.4839h-2.4194a1.701 1.701 0 00-1.1984.4984 1.701 1.701 0 00-.4984 1.1984v2.4194a1.7012 1.7012 0 001.6968 1.6969h2.4194a1.7019 1.7019 0 001.6969-1.6904v-2.4194a1.7036 1.7036 0 00-1.6969-1.7033z" fill="#00BAFC"/><path d="M86.537 65.4073a.3642.3642 0 01-.3381-.2243.3643.3643 0 01.2658-.4978.3643.3643 0 01.4352.3592.3607.3607 0 01-.1058.2571.361.361 0 01-.2571.1058zm-1.5694.2371a.9683.9683 0 01.8941.5974.9678.9678 0 11-.8941-.5974zm0-.4839a1.4518 1.4518 0 00-.2832 2.8755 1.4514 1.4514 0 001.4902-.6173 1.4517 1.4517 0 00-1.207-2.2582zM161.049 91.1098c0-.6806-.501-1.229-1.129-1.229-.84-.0404-1.695-.0549-2.569-.0549h-.273c-.872 0-1.73.0145-2.569.0549-.618 0-1.12.55-1.12 1.2323-.038.5403-.054 1.079-.053 1.6129.002.5339.015 1.0791.052 1.613 0 .6823.502 1.2355 1.119 1.2355.881.0404 1.786.0581 2.705.0581.92 0 1.823-.0161 2.707-.0581.619 0 1.129-.5532 1.129-1.2355.035-.5403.053-1.0791.051-1.621-.001-.542-.014-1.0775-.05-1.613v.0048zm-4.569 3.1082v-2.9775l2.197 1.4871-2.197 1.4904zM80.9352 34.0303a3.3875 3.3875 0 00-3.3457 2.6929 3.3869 3.3869 0 001.9843 3.809 3.023 3.023 0 01.0581-.7791c.0661-.2758.4371-1.8501.4371-1.8501a1.29 1.29 0 01-.1097-.5355c0-.5032.292-.879.6549-.879.3097 0 .4581.2322.4581.5097 0 .3097-.1984.7742-.3 1.2032a.5238.5238 0 00.1025.4621.5233.5233 0 00.433.1912c.6451 0 1.0758-.8258 1.0758-1.8049 0-.7436-.5016-1.2984-1.4113-1.2984a1.613 1.613 0 00-1.5463.9897 1.6142 1.6142 0 00-.1248.6345.9764.9764 0 00.2242.6662.161.161 0 01.0484.1887c-.0161.0629-.0532.2129-.0693.2726a.1173.1173 0 01-.0636.0865.117.117 0 01-.1074-.0011c-.4742-.1935-.6952-.7129-.6952-1.2903 0-.9678.8065-2.1195 2.4195-2.1195 1.2903 0 2.1484.9372 2.1484 1.9437 0 1.3307-.7403 2.3259-1.8323 2.3259a.9678.9678 0 01-.8275-.4226s-.1984.7806-.2403.9323a2.7969 2.7969 0 01-.3403.7274c.3143.0921.6402.1388.9678.1387a3.3973 3.3973 0 002.4022-.9943 3.397 3.397 0 00-2.4006-5.7995z" fill="#00BAFC"/><path d="M116.457 127.989c-.13-.554-.209-1.038-.209-1.038a2.144 2.144 0 00-.241-1.053v-1.264c.077-.202.171-.397.281-.583.2-.348 0-1.629 0-1.629s-.742-1.805-.563-2.95c.179-1.145-1.522-5.085-1.522-5.085.01-.382.064-.761.161-1.13a.8441.8441 0 00.021-.235.1405.1405 0 000-.029v.01c-.026-.755-.623-2.171-.623-2.171l.081-2.697s.381-1.592-.24-3.728c-.218-.745-.357-1.34-.446-1.802-.009-.051-.019-.101-.027-.15 1.279-.195 2.258-.358 2.258-.358s-.742-3.1046-1.244-3.6482c-.501-.5435-.901-2.2501-.901-2.2501s-.261-2.1936.161-2.8339c.423-.6404.484-1.7469.484-1.7469s.968-.6984 1.082-1.0097c.171-.442.28-.9056.323-1.3775 0-.3693-.121-.6984-.081-.8935.041-.1952-.28-.9307-.119-1.2807a.948.948 0 00.063-.3372.0157.0157 0 000-.0096c0-.3058-.028-.611-.086-.9113a2.5767 2.5767 0 00-.951-.5097l-.021-.0823-.055-.2178a.7311.7311 0 00-.095-.0564v-.4032l.15-.7098c.296-1.2306-1.349-1.4145-1.349-1.4145a.8637.8637 0 00-.466-.4097c-.322-.1161-.055 1.8549.1 1.9807.116.0936.484.7129.645 1.0162l.029.05a.6839.6839 0 00-.075.079l.062.4274.01.0662a1.7627 1.7627 0 00-.263.4468s.302.3306.241.7c-.024.2882.01.5782.1.8533-.018-.021-.23-.2501-.441-.1936-.211.0564-.806.2323-.806.2323s-.442.0774-.402.1742c.04.0967-.3.5242-.3.5242l-1.185-1.1291a2.0547 2.0547 0 01-.036-.1016 2.8481 2.8481 0 01-.102-.4839 2.639 2.639 0 00.378-.121.8102.8102 0 00.322-.2097c.1-.1548.165-.3291.191-.5113.093-.3451.295-.6532.44-.9807.24-.5502.319-1.1567.229-1.75a1.163 1.163 0 00-.18-.5162c-.194-.2661-.546-.3742-.807-.5871-.261-.2129-.419-.5355-.718-.6952a1.4134 1.4134 0 00-.9-.0774 4.8103 4.8103 0 00-1.679.6097c-.174.1032-.363.221-.563.1855a.7645.7645 0 01-.405-.2968v-.0177l-.014-.0145c-.125.279-.187.5816-.184.8871v.1903a.293.293 0 010 .0419.2696.2696 0 01-.01.063.4589.4589 0 01-.109.1613.679.679 0 00-.097.1322c0-.0161.01-.0323.016-.0484a.7008.7008 0 00-.124.3726.3693.3693 0 00.09.2678c.059.0598.123.1139.192.1613a2.2567 2.2567 0 00-.034.3935c.002.3946.106.782.302 1.1247.195.3428.476.6293.814.8319l.041.1016c.171.4073.245.8494.214 1.2903 0 .0323 0 .0629-.014.0952l-.042.0484s-1.958.0193-2.42-.3984c-.461-.4178-1.163 1.0194-1.163 1.0194s-.701.1371-.842 0c-.14-.1371-.967-.0194-.967-.0194a1.7767 1.7767 0 00-1.223-.4451 3.6029 3.6029 0 00-.8985-.5001l-.0225-.008a1.0038 1.0038 0 00-.442-.0549s-.9678-.7968-1.242-1.2226c-.2742-.4258-1.6129-2.0114-1.6242-2.0194v-.0758l-.0162-.2307a.9002.9002 0 01-.1193.0113c0-.0242-.0161-.05-.0274-.0807a4.363 4.363 0 00-.2839-.6451s0-.2904.0855-.363c.0855-.0725-.0355-1.1403-.0355-1.1403s-.8678-2.0275-1.6436-.5145c0 0-1.4694.979-.2371 2.121 0 0 .4839.2371.5613.4258.0468.1226.2129.4662.3226.6936l.05.1016-.0145.0113.0193.1903v.0742c-.2323.1307-.3887.2613-.3516.3613.069.168.1162.3442.1403.5242 0 0 1.7049 2.134 1.9259 3.0469 0 0 4.5714 2.7163 6.0744 2.9114l-.26 1.3581c-.039.3676-.059.7369-.059 1.1065.019.2904-.181 1.613-.181 1.613s-.261 1.9355-.484 2.2114c-.222.2758-.181 1.4371-.181 1.4371a9.6123 9.6123 0 01-.3 1.6482c-.221.739-.059 1.65-.059 1.65s-.763 1.747 1.063.563c0 0 .895-.055 1.935-.09v.531c-.013 1-.019 2.379.026 3.422.081 1.844.645 5.484.645 5.484v1.833c-.035.172-.052.348-.051.524-.014.646.157 1.283.493 1.835l.141 1.223s.322.807.335 1.29a.656.656 0 01-.014.117.8348.8348 0 00-.017.187c-.017.555.323 1.884.323 1.884s.021 1.338.221 1.416c.171.066-.229.772-.348.968a.2744.2744 0 01-.009-.039.4102.4102 0 01-.024.04.9566.9566 0 00-.063.339c-.011.091.003.184.043.268a.484.484 0 00.18.203c.381.234.585.427.263.505-.119.018-.237.043-.353.074 0-.015-.013-.031-.018-.045a.2205.2205 0 00-.1.091.2136.2136 0 00-.026.133c.004.159.045.314.121.453.141.35.323.683.542.991l.161-.018a.7282.7282 0 01-.09.161.6216.6216 0 01-.226.2.7222.7222 0 01-.274.095.7608.7608 0 00-.314.077.7568.7568 0 00-.254.199c-.2.258-.322.611.07.921l1.433.494s2.467.322 2.336-.233c-.131-.554-.21-1.037-.21-1.037a2.188 2.188 0 00-.201-.982 1.0123 1.0123 0 00-.087-.145l.087-.01s.18-1.222.421-1.451c.056-.054.069-.096.055-.128.025-.066-.038-.105-.118-.127l-.018.048a1.2673 1.2673 0 00-.239-.026s-.08-.645.179-.874a.2335.2335 0 00.046-.09.242.242 0 00.006-.1c.001-.088-.008-.176-.027-.262l-.01.017a9.2846 9.2846 0 00-.576-1.505s-.019-.583.14-.817c.16-.233-.019-3.163-.019-3.163s.06-1.416-.121-2.075c-.181-.66.221-1.438.221-1.438V114.448s-.01-.087-.024-.224v.014c-.04-.376-.116-1.055-.173-1.368-.08-.446.02-2.58.02-2.58l.361-.912.645 1.571.681 2.097c.194.26.314.568.347.89v.067a.8181.8181 0 000 .14c-.012.265.061.526.208.747 0 0 .18.99.461 1.242.281.251.281.737.281.737s.34 1.437.501 1.689c.136.213.142.796.141.967v.054s.046.513.045.945v.161-.011c-.001.117-.015.234-.042.348V120.971c-.072.292-.107.593-.103.895-.01.516.069 1.129.382 1.485.542.621.882.544.882.544s-.261.776-.582.932a.2394.2394 0 00-.034.021c0-.014 0-.03-.008-.045a.3709.3709 0 00-.077.135.3882.3882 0 00-.017.155c.015.415.153.815.397 1.15a.639.639 0 00.271.162l-.05.03c-.036.02-.073.038-.111.054a.5302.5302 0 01-.161.041.7767.7767 0 00-.314.077.7723.7723 0 00-.254.199c-.2.258-.323.612.069.921l1.434.494s2.436.329 2.311-.232z" fill="url(#paint0_linear)"/><path d="M107.038 128.905l-1.389-.494c-.382-.309-.26-.663-.066-.921.066-.083.149-.15.244-.198a.7285.7285 0 01.304-.078.6643.6643 0 00.266-.095.6302.6302 0 00.22-.2c.103-.16.158-.346.161-.537 0 0 1.524-.445 1.936 0 .074.081.137.172.185.271.137.309.203.645.194.982 0 0 .077.484.203 1.038.126.553-2.258.232-2.258.232zM113.83 128.227l-1.387-.493c-.384-.31-.262-.663-.068-.92a.7356.7356 0 01.244-.199c.095-.048.2-.075.306-.078.056-.005.11-.019.161-.042a.8188.8188 0 00.107-.053c.389-.213.379-.737.379-.737s1.522-.447 1.935 0c.056.06.105.127.146.198.163.327.244.689.233 1.055 0 0 .078.484.204 1.037.126.553-2.26.232-2.26.232z" fill="#2D293D"/><path opacity=".1" d="M108.715 126.382c.075.081.137.172.186.271l-2.284.265c.103-.161.158-.347.161-.538 0 0 1.521-.443 1.937.002zM115.654 125.897v.427c-.355.586-2.072.458-2.571.161a.8863.8863 0 00.107-.053c.388-.213.379-.737.379-.737s1.522-.447 1.935 0c.058.061.108.129.15.202z" fill="#000"/><path d="M115.927 124.053c-.107.186-.198.381-.273.582v1.534c-.387.645-2.406.428-2.677.078-.271-.35-.563-1.262-.253-1.417.309-.154.562-.932.562-.932s-.322.078-.853-.543c-.53-.621-.368-1.999-.271-2.33.097-.33 0-1.435 0-1.435s.02-.776-.135-1.029c-.155-.253-.484-1.689-.484-1.689s0-.484-.271-.737-.447-1.242-.447-1.242a1.2763 1.2763 0 01-.194-.834c.059-.484-.33-1.01-.33-1.01l-.66-2.096-.621-1.573-.348.911s-.099 2.136-.02 2.581c.079.445.194 1.629.194 1.629s-.389.777-.213 1.437c.176.66.116 2.076.116 2.076s.174 2.931.02 3.165c-.155.234-.136.806-.136.806s.795 1.708.542 1.936c-.253.227-.174.874-.174.874s.543 0 .311.232c-.232.233-.408 1.452-.408 1.452l-2.35.297c-.212-.31-.389-.642-.526-.991-.31-.717.058-.645.371-.717.313-.073.115-.271-.255-.505-.369-.234-.161-.757-.161-.757s.563-.951.369-1.029c-.193-.077-.214-1.416-.214-1.416s-.387-1.592-.291-2.018c.097-.426-.311-1.452-.311-1.452l-.135-1.222a3.3613 3.3613 0 01-.42-2.313v-1.889s-.543-3.648-.622-5.484c-.049-1.181-.036-2.792-.02-3.799.01-.562.02-.937.02-.937l8.387-.872c.014.419.065.835.153 1.245.086.46.22 1.056.429 1.802.602 2.134.234 3.726.234 3.726l-.077 2.696s.737 1.805.582 2.42c-.096.369-.15.748-.161 1.129 0 0 1.65 3.94 1.476 5.086-.175 1.145.545 2.942.545 2.942s.193 1.29 0 1.632z" fill="#464353"/><path opacity=".05" d="M111.133 113.943l2.545-.34s-1.438 1.474-2.545.34z" fill="#000"/><path opacity=".1" d="M113.315 111.109s.089.902-.464 1.242c0 0 .989-.155.464-1.242zM113.159 108.236s-2.132 1.757-2.903 1.613c-.771-.143 2.903-1.613 2.903-1.613zM107.968 114.767s-1.613.37-1.667 1.02c-.055.65 1.667-1.02 1.667-1.02z" fill="#000"/><path opacity=".05" d="M108.325 122.859s-2.289.428-1.639.72c.558.22 1.132.395 1.718.522 0 0 .737.039-.079-1.242z" fill="#000"/><g opacity=".05" fill="#000"><path opacity=".05" d="M106.223 124.034a.4646.4646 0 01-.143-.143.4408.4408 0 01-.066-.19l-.023.042s-.215.523.161.757c.042.026.083.053.12.079.067-.013.142-.023.211-.04.306-.071.11-.267-.26-.505zM109.173 123.885c.063-.058.06-.208.023-.4-.094.173-.139.367-.131.563a.435.435 0 01.108-.163zM108.82 114.23c-.086.229-.14.469-.161.713.044-.166.103-.328.177-.484 0 0 .003-.093-.016-.229zM114.064 113.211c.015-.07.022-.142.021-.213-.029.145-.049.28-.063.398.013-.061.026-.122.042-.185zM108.765 121.13c.045-.139.065-.284.058-.43-.072.172-.11.356-.111.543a.5529.5529 0 01.053-.113zM109.246 124.789c-.12.389-.209.788-.266 1.191l-2.347.273a4.894 4.894 0 01-.526-.99 1.7738 1.7738 0 01-.066-.171c-.14.064-.197.209-.011.645.136.349.312.681.525.989l2.346-.273s.175-1.223.408-1.452c.114-.124.042-.182-.063-.212zM106.146 121.303s.019 1.34.213 1.418c.098-.221.161-.431.075-.466-.193-.078-.212-1.417-.212-1.417s-.389-1.592-.291-2.019c.099-.427-.311-1.452-.311-1.452l-.136-1.222a3.371 3.371 0 01-.427-2.31v-1.886s-.544-3.648-.621-5.492c-.05-1.18-.035-2.792-.019-3.798v-.484h-.066s-.01.372-.02.937c-.016 1.005-.03 2.618.02 3.798.077 1.844.621 5.493.621 5.493v1.882a3.352 3.352 0 00.437 2.329l.135 1.223s.408 1.027.31 1.451c-.099.425.292 2.015.292 2.015zM113.054 125.729a2.2565 2.2565 0 01-.371-.923c-.24.216.036 1.057.294 1.389.258.332 2.29.563 2.679-.079v-.369c-.526.521-2.344.313-2.602-.018zM116.004 123.535c-.106.187-.197.381-.271.583v.272c.044-.1.107-.232.194-.389.062-.153.091-.318.085-.483l-.008.017zM113.173 123.842c.075-.15.139-.304.192-.462 0 0-.322.078-.854-.543-.381-.452-.402-1.305-.349-1.863-.097.331-.253 1.708.271 2.329.344.408.6.513.74.539zM112.162 119.538c.034.383.047.767.039 1.15.013-.075.027-.137.039-.18.098-.323 0-1.436 0-1.436s.019-.777-.136-1.029c-.155-.252-.484-1.689-.484-1.689s0-.484-.271-.737-.447-1.242-.447-1.242a1.277 1.277 0 01-.195-.834c.06-.484-.322-1.009-.322-1.009l-.66-2.097-.629-1.563-.35.911s0 .115-.011.295l.283-.74.621 1.571.66 2.097s.387.524.323 1.008c-.029.29.042.582.201.826 0 0 .175.989.446 1.242s.272.737.272.737.323 1.435.484 1.689c.161.253.137 1.03.137 1.03z"/></g><path d="M113.791 83.8306l-.145.7097.008.3226v.2322l-.806.0839-.091-.1613c-.161-.3032-.516-.921-.629-1.0162-.15-.1258-.416-2.0968-.097-1.9791a.8472.8472 0 01.452.4081s1.595.1677 1.308 1.4001z" fill="#FFCDD3"/><path opacity=".1" d="M113.661 85.087l-.807.0839-.09-.1613a.712.712 0 01.893-.1468l.004.2242z" fill="#000"/><path d="M113.864 85.4709l-1.066.2484-.023-.1613-.061-.4274a.7259.7259 0 01.215-.1922.7295.7295 0 01.272-.0946.7346.7346 0 01.547.1448l.053.2178.063.2645z" fill="#DCE6F2"/><path d="M96.5665 83.908l-1.1388.6129-.1032-.2161c-.1097-.2274-.271-.5694-.3226-.692-.0678-.1887-.5436-.4274-.5436-.4274-1.1936-1.1404.2274-2.1194.2274-2.1194.7533-1.5146 1.592.5129 1.592.5129s.1162 1.0694.0339 1.1403c-.0823.071-.0823.3646-.0823.3646.1089.2074.2011.4232.2759.6452.0435.1129.0613.179.0613.179z" fill="#FFCDD3"/><path opacity=".1" d="M96.5664 83.908l-1.1387.6129-.1033-.2161c.1613-.1339.7307-.5968.9178-.5759.0901.0092.1809.0092.271 0a4.786 4.786 0 01.0532.1791z" fill="#000"/><path d="M96.6825 84.2531l-1.2807.6307-.0258-.2758-.0177-.1887s.7419-.6371.9678-.6129c.1112.0158.2242.0158.3355 0l.0145.2306.0064.2161z" fill="#DCE6F2"/><path d="M110.686 88.5372s-5.585.6306-4.542.2919c.728-.2371 1.016-.6984 1.078-1.2113a2.9497 2.9497 0 00-.208-1.2904 5.6599 5.6599 0 00-.5-1.0097s4.269-2.3485 3.416-.2129a3.3285 3.3285 0 00-.242 1.0113 2.85 2.85 0 00.108 1.0226c.162.5394.47 1.0235.89 1.3985z" fill="#FFCDD3"/><path opacity=".1" d="M109.93 85.1032a3.3278 3.3278 0 00-.242 1.0113c-.403.3371-.844.3226-1.41.3226-.435 0-.918.1064-1.264-.1033a5.6632 5.6632 0 00-.5-1.0097s4.269-2.3565 3.416-.2209z" fill="#000"/><path d="M108.202 86.579c1.276 0 2.31-1.0341 2.31-2.3098 0-1.2756-1.034-2.3097-2.31-2.3097-1.275 0-2.309 1.0341-2.309 2.3097 0 1.2757 1.034 2.3098 2.309 2.3098z" fill="#FFCDD3"/><path opacity=".1" d="M110.686 88.5372s-5.585.6306-4.542.2919c.728-.2371 1.016-.6984 1.078-1.2113.277-.3017.835-.5194 1.195-.6339a1.665 1.665 0 011.011-.0162c.13.0352.254.0895.368.1613.16.543.469 1.0305.89 1.4082zM113.864 85.4709l-1.066.2484-.023-.1613a.9446.9446 0 01.457-.3382.9432.9432 0 01.569-.0134l.063.2645zM96.6825 84.2531l-1.2807.6307-.0258-.2758a9.4256 9.4256 0 011.2904-.571l.0161.2161zM112.896 102.612c-2.163.34-5.242.785-5.731.637-.405-.124-1.698-.111-2.826-.073.01-.563.02-.937.02-.937l8.387-.872c.012.418.063.835.15 1.245z" fill="#000"/><path d="M115.053 102.097s-7.123 1.223-7.888.989c-.764-.234-4.689.021-4.689.021-1.766 1.182-1.027-.563-1.027-.563s-.161-.913.058-1.65c.142-.541.239-1.0929.29-1.65 0 0-.038-1.1645.174-1.4355.213-.271.467-2.213.467-2.213s.195-1.3194.175-1.613c-.019-.2935.058-1.1048.058-1.1048l.252-1.3598c-1.452-.1935-5.8808-2.9114-5.8808-2.9114-.2129-.9113-1.863-3.0469-1.863-3.0469a2.2462 2.2462 0 00-.1354-.5242c-.1162-.3097 1.6307-.9306 1.6307-.9306s1.3 1.5919 1.571 2.0178c.271.4258 1.2033 1.2226 1.2033 1.2226a.9404.9404 0 01.4274.0565h.0226c.3122.1229.6042.2908.8682.4984.437-.0109.862.1494 1.183.4467 0 0 .797-.1161.933.0194.135.1355.806 0 .806 0s.681-1.4355 1.129-1.0194c.449.4162 2.341.3984 2.341.3984.253-.3355.866-.5758 1.251-.7a1.6675 1.6675 0 011.012-.0161c.144.0401.279.1057.4.1935l1.148 1.1291s.323-.4274.292-.5242c-.031-.0968.389-.1742.389-.1742s.563-.1742.776-.2339c.213-.0597.409.1742.425.1936a2.2612 2.2612 0 01-.096-.8533.9681.9681 0 00-.233-.6984c.686-1.6581 2.22-.2549 2.22-.2549s.174.9114.019 1.2614c-.155.35.162 1.0871.116 1.2807-.045.1935.078.5242.078.8919a5.306 5.306 0 01-.31 1.3791c-.118.3097-1.048 1.0081-1.048 1.0081s-.058 1.1065-.466 1.7469c-.409.6403-.162 2.8339-.162 2.8339s.387 1.7082.873 2.2582c.485.55 1.21 3.6304 1.21 3.6304z" fill="#3F3D56"/><path opacity=".1" d="M104.67 89.334s-.213-.6452-.408-.7001a4.6 4.6 0 01-.563-.2516l.126-.2387s.729.2.845.4129c.116.2129 0 .7775 0 .7775zM100.775 87.9162c-.039.1951-1.765.3693-1.765.3693l.8727-.8758.0225.0081c.3128.1228.6058.2907.8698.4984z" fill="#000"/><path d="M95.7712 85.408a.1548.1548 0 100-.3096.1548.1548 0 000 .3096zM95.9696 85.7193a.1549.1549 0 100-.3098.1549.1549 0 000 .3098zM96.1648 86.0048a.1548.1548 0 100-.3096.1548.1548 0 000 .3096zM96.368 86.3161a.1549.1549 0 100-.3098.1549.1549 0 000 .3098zM114.662 86.2693c.07 0 .126-.0563.126-.1258a.1256.1256 0 00-.126-.1258.1263.1263 0 00-.126.1258c0 .0695.057.1258.126.1258zM114.682 86.5565c.069 0 .125-.0564.125-.1259a.1255.1255 0 10-.251 0c0 .0695.056.1259.126.1259zM114.698 86.8419c.069 0 .126-.0563.126-.1258a.1263.1263 0 00-.126-.1258.1257.1257 0 100 .2516z" fill="#575988"/><path opacity=".1" d="M104.68 94.5922c-.018-.0225 4.355 5.5018 7.753 2.3098 0 0-5.368.7274-7.753-2.3098zM102.167 97.4649s2.617.071 2.892.8242v.7839a.5033.5033 0 01-.242.0622.5004.5004 0 01-.242-.0622c-.265-.1419-1.847-.9468-2.405-.5597l-.003-1.0484z" fill="#000"/><path d="M102.215 97.4649s2.503.0677 2.766.7855v.7484a.4833.4833 0 01-.466 0c-.253-.1371-1.774-.9032-2.3-.5339v-1z" fill="#3F3D56"/><path opacity=".1" d="M103.596 91.7744a8.4338 8.4338 0 001.014 1.7404c.443.5952.98 1.1139 1.591 1.5355 0 0-2.562-2.9098-2.605-3.2759zM102.739 88.7388s.437 1.8855 1.562 2.5259l-1.562-2.5259zM102.065 88.9291c-.011-.0355-.389 1.4904 1.452 2.3356 0 0-.778-.2646-1.452-2.3356zM113.501 87.6646c-.029 0 .906.5968 1.161.8726 0 0-.608-.9114-1.161-.8726z" fill="#000"/><path d="M107.578 86.3613c.018.1232.082.235.179.3129a.5062.5062 0 00.218.0484c.705.0436 1.437.0742 2.097-.1968a.7804.7804 0 00.322-.2113c.093-.1551.152-.3284.171-.5081.092-.3451.287-.6451.428-.9806a3.299 3.299 0 00.227-1.7614 1.1747 1.1747 0 00-.176-.5161c-.187-.2662-.527-.3742-.774-.5872-.247-.2129-.406-.5371-.693-.6967a1.3492 1.3492 0 00-.871-.0775 4.6 4.6 0 00-1.626.6113c-.162.1033-.352.221-.544.1855a.7467.7467 0 01-.4-.3064 2.151 2.151 0 00-.172 1.0048.5506.5506 0 010 .1517.4844.4844 0 01-.109.1613c-.174.2016-.282.5209-.111.7242.076.0887.19.1371.263.2274.131.1613.086.3952.082.6033a.3228.3228 0 00.052.2048.2983.2983 0 00.285.0677.7884.7884 0 01.304-.029.512.512 0 01.264.2032c.32.413.447.8662.584 1.3646z" fill="#2D293D"/><path opacity=".1" d="M110.452 86.137a.7592.7592 0 01-.322.2097c-.645.2726-1.384.2404-2.087.1968a.4747.4747 0 01-.218-.0484.4845.4845 0 01-.181-.3113c-.137-.4984-.263-.9532-.589-1.3661a.4989.4989 0 00-.264-.2033.7796.7796 0 00-.303.0291.3024.3024 0 01-.152.0034.3017.3017 0 01-.134-.0712.315.315 0 01-.05-.2048c0-.2081.047-.442-.084-.6033-.072-.0903-.187-.1387-.263-.2274a.4526.4526 0 01-.085-.2263.4546.4546 0 01.042-.2382c-.124.1967-.178.4484-.034.6193.076.0887.19.1371.263.2275.131.1613.085.3951.082.6032a.323.323 0 00.052.2049.3.3 0 00.134.0713.295.295 0 00.151-.0036.7827.7827 0 01.304-.029.5115.5115 0 01.264.2032c.323.4145.452.8678.589 1.3662.018.1232.082.235.179.3129a.5045.5045 0 00.218.0484c.704.0435 1.437.0742 2.096-.1968a.7862.7862 0 00.323-.2113.6079.6079 0 00.1-.1871c-.01.0113-.016.0242-.031.0322zM107.165 87.7613s2.886.3823 3.145-.0516l-3.145.0516zM112.775 86.5677s1.602 0 1.955.6033l-1.955-.6033z" fill="#000"/></g><defs><linearGradient id="paint0_linear" x1="105.043" y1="128.998" x2="105.043" y2="80.503" gradientUnits="userSpaceOnUse"><stop stop-color="gray" stop-opacity=".25"/><stop offset=".54" stop-color="gray" stop-opacity=".12"/><stop offset="1" stop-color="gray" stop-opacity=".1"/></linearGradient><clipPath id="clip0"><path fill="#fff" transform="translate(.5725)" d="M0 0h176.855v130H0z"/></clipPath></defs></svg>