<svg width="300" height="172" fill="none" xmlns="http://www.w3.org/2000/svg"><g clip-path="url(#clip0)"><path opacity=".1" d="M180.346 123.829c5.796-.331 12.986-4.262 18.577-6a876.8163 876.8163 0 0119.93-5.924 866.589 866.589 0 0170.403-16.8883c2.213-.4353 4.43-.8601 6.65-1.2744a47.064 47.064 0 00-15.54-18.6635c.172-1.636.26-3.2798.262-4.9248 0-25.9983-20.777-47.0743-46.416-47.0743a45.6789 45.6789 0 00-22.526 5.9134c-18.147-11.937-41.832-19.1617-67.746-19.1617-36.824 0-69.1498 14.5883-87.4671 36.556L142.56 60.9311l52.799 8.9161c-60.191 1.7963-120.5688 3.5821-180.5872-.6347a47.5755 47.5755 0 00-6.8496 60.0525c0 .941.0393 1.875.1101 2.801 1.5289.438 3.0053.862 4.3296 1.14a950.4673 950.4673 0 0064.1905 11.277c-15.868 9.784-35.1923 11.168-53.4965 15.312 8.8637 7.316 20.9004 11.8 34.1644 11.8H254.717c21.385 0 38.719-14.887 38.719-33.254a47.258 47.258 0 006.294-17.279c-39.572 3.821-79.636.504-119.384 2.767z" fill="#00BAFC"/><path opacity=".1" d="M300 113.24a47.2017 47.2017 0 00-19.93-38.6595 48.459 48.459 0 00.262-4.9222c0-25.9982-20.787-47.0664-46.416-47.0664a45.7024 45.7024 0 00-22.529 5.9108C193.24 16.5604 169.552 9.3331 143.638 9.3331c-42.152 0-78.4352 19.1303-94.5261 46.563a46.0466 46.0466 0 00-2.701-.0813c-25.6312 0-46.4161 21.076-46.4161 47.0742a47.3424 47.3424 0 007.6363 25.875c0 23.392 22.0778 42.354 49.3007 42.354H254.434c21.382 0 38.716-14.89 38.716-33.257A47.333 47.333 0 00300 113.24z" fill="#00BAFC"/><path d="M245.004 84.3988a2.9208 2.9208 0 00-1.28-.5612c-.491-.1128-.991-.1836-1.49-.2623l-6.456-.9309a7.6048 7.6048 0 00-1.977-.1049c-.332.0272-.655.12-.95.2731a2.5233 2.5233 0 00-.771.6185 1.3486 1.3486 0 00-.299.8392c.036.3075.136.6041.294.8706.063.1245.116.2533.16.3855.062.2966.139.5898.231.8785a.7446.7446 0 00.11.1731.3319.3319 0 010 .0446c-.071.3618.157.7395.055 1.0882-.089.299-.38.4799-.564.7291-.122.1767-.19.3855-.195.6005-.004.2149.054.4265.169.6084.197.3042.553.5113.656.8601.133.4589-.228.9021-.551 1.2561a19.561 19.561 0 00-1.642 2.0691c-.14.1786-.231.3912-.262.6162-.029.4563.409.8576.333 1.3112-.06.3567-.409.5743-.71.7867-1.115.7343-2.009 1.9144-2.098 3.2492a11.3845 11.3845 0 00-2.539-5.7693c-.375-.451-.787-.9047-.941-1.4763-.058-.2282-.068-.4721-.147-.6924-.262-.6949-1.096-.9938-1.461-1.6337-.262-.451-.262-1.0306-.587-1.4266-.325-.396-.837-.4851-1.117-.868a5.5383 5.5383 0 01-.357-.8077 1.7675 1.7675 0 00-.485-.5821 1.4087 1.4087 0 00-.121-.0866.4129.4129 0 00.103-.1399.4125.4125 0 00.036-.1695c0-.3068-.304-.5088-.569-.6609-.341-.194-.674-.4038-.999-.6215.355-.1651.662-.4167.894-.7316a2.4021 2.4021 0 00.341-1.5734 1.9873 1.9873 0 00-.469-1.2037c-.165-.1757-.373-.3016-.546-.4668-.448-.4379-.6-1.0856-.786-1.6836-.247-.7867-.632-1.6127-1.351-2.0297-.346-.2019-.75-.2963-1.088-.5087-.338-.2124-.622-.6136-.504-.9991.079-.2623.323-.4432.488-.6661a1.33 1.33 0 00.211-.9863 1.3299 1.3299 0 00-.544-.8494c-.194-.1232-.433-.2308-.472-.4563a.8346.8346 0 01-.397-.235.8261.8261 0 01-.211-.4101 2.4843 2.4843 0 010-.9336c.068-.4877.135-.9737.202-1.458a.946.946 0 00.364.0728c.125 0 .249-.0248.365-.0728.226.3683.49.7127.786 1.028.799.943 1.421 2.0223 1.836 3.1862.149.4195.302.889.69 1.1119.133.076.285.1153.417.1966.161.1127.3.2551.409.4196.314.417.629.8313.941 1.2483l.016.0629a.3365.3365 0 00.042.1049.3475.3475 0 00.225.1154c.965.2229 2.048.4274 2.885-.0997.755-.472 1.086-1.4056 1.725-2.0297.454-.4432 1.097-.7867 1.225-1.4108a4.6305 4.6305 0 01-.451-.1652c.131-.1312.262-.2833.441-.4563.259-.2537.492-.5321.697-.8313.222-.3692.398-.7636.525-1.1748.505-1.4406 1.012-2.882 1.521-4.3244.241-.6818.482-1.3688.786-2.0323.315-.7185.687-1.4082 1.031-2.1136a28.0027 28.0027 0 002.04-5.743c.083-.2705.111-.5551.081-.8366-.073-.4536-.417-.8103-.744-1.1328a5.4954 5.4954 0 00-1.117-.9257 1.8387 1.8387 0 00-1.401-.2256c-.671.1967-1.093.8838-1.248 1.5735-.155.6896-.097 1.4003-.163 2.0979-.094 1.0096-.44 1.9851-.524 2.9973-.045.5848 0 1.1775-.071 1.7623a6.4115 6.4115 0 01-.787 2.1713 14.047 14.047 0 01-3.39 4.1801c-.16.1337-.326.2622-.483.4064 0-.1127.018-.2281.034-.3409a2.0832 2.0832 0 00-.333.118c.013-.1324 0-.2661-.039-.3933-.21-.6268-1.144-.7867-1.311-1.424a2.9379 2.9379 0 01-.045-.4772c-.055-.5586-.435-1.0306-.566-1.5735-.121-.5008-.029-1.0489-.263-1.5131a4.2075 4.2075 0 00-.697-.7867 3.0977 3.0977 0 01-.664-1.2509c-.034-.1285-.065-.2622-.102-.3907.04-.291.008-.5873-.094-.8628-.239-.5926-.855-.9729-1.078-1.5734-.173-.4668-.097-1.0489-.425-1.4108a1.5327 1.5327 0 00-.621-.375 13.8385 13.8385 0 00-3.743-.8838c-.718-.0655-1.51-.1022-2.024-.6084-.601-.5874-.629-1.6442-1.332-2.0979-.619-.4012-1.495-.1049-1.975.459a2.4302 2.4302 0 00-.199.2622 2.802 2.802 0 01-.055-1.0752c0-.0891.018-.1809.026-.2622a5.246 5.246 0 002.843-2.2448v.0158l.031.0813c.076.1914.197.375.375.3959a.523.523 0 00.325-.118c.159-.1099.304-.2365.436-.3776.066-.0734.129-.1495.188-.2281a2.973 2.973 0 00.31-.5245 3.104 3.104 0 00.262-.8785c.047-.3042.053-.6163.105-.9205.049-.2354.113-.4676.191-.6949.027-.0761.053-.1521.076-.2281.024-.0761.058-.1784.084-.2623a6.0486 6.0486 0 00.263-1.6626v-.2832a2.7805 2.7805 0 00-.244-1.0656 2.7673 2.7673 0 00-.637-.8881c-.452-.3697-1.049-.5244-1.38-1.0253-.215-.3357-.262-.7684-.388-1.1617a2.6174 2.6174 0 00-.766-1.2217 2.6209 2.6209 0 00-1.295-.6323 2.2926 2.2926 0 00-1.631.4484l-.037.0288c-.26.1986-.481.4441-.65.7238a2.1575 2.1575 0 01-.923-.5245c-.263-.2439-.465-.5507-.729-.7867a1.8765 1.8765 0 00-1.868-.3933 2.233 2.233 0 00-.851.6039 2.221 2.221 0 00-.483.9249c-.145.5402-.118 1.1617-.42 1.6128-.233.3514-.616.5244-.884.8444a1.5934 1.5934 0 00-.33.7001 1.8977 1.8977 0 00-.045.438c0 .0655 0 .1311.016.194v.0315c.009.0719.024.1429.045.2124.074.2659.208.5115.39.7186.173.1983.39.3544.632.4563.1.0386.201.071.305.097l.312.0708.11.0262a5.2171 5.2171 0 00-.611 2.2919 5.2201 5.2201 0 00.464 2.3261c0 .0734-.018.1469-.026.2203a18.1553 18.1553 0 00.136 3.0918c.037.4064.058.8549-.191 1.1774a2.2291 2.2291 0 01-.381.3383c.142-.1836.286-.3645.433-.5454-.37-.3724-.954-.4196-1.479-.3829-1.015.0758-2 .3768-2.885.8811-.587.3383-1.19.7867-1.861.708-.396-.0445-.787-.2622-1.173-.1573a2.377 2.377 0 00-.6.3566.8148.8148 0 01-.493.1521c-.412-.5061-1.049-.8496-1.542-1.2613a12.1251 12.1251 0 01-1.534-1.6443c-.85-1.0253-1.697-2.0533-2.531-3.0891-.703-.8706-1.424-1.8121-1.547-2.9266a2.6473 2.6473 0 01-.018-.333 8.4217 8.4217 0 01.199-1.5735.7888.7888 0 000-.3802c-.079-.2622-.38-.3593-.64-.417.034-.2019.058-.409.071-.6057.147-2.2553-.013-4.5472.464-6.7553.181-.8496.477-1.7098 1.088-2.326.957-.9677 2.56-1.2011 3.294-2.347.614-.9546.37-2.3051-.401-3.1469-.771-.8418-1.959-1.1853-3.089-1.1434a1.595 1.595 0 00-.9.2413c-.251.2234-.44.5093-.545.8287l-1.125 2.7351a16.5519 16.5519 0 00-.824 2.1976c-.314 1.1486-.385 2.3601-.634 3.5192 0 .8916-.575 2.0035-.889 2.8243-.352.9231-.732 1.8357-1.049 2.7771-.079.236-.354.9362-.525 1.5734a.9687.9687 0 00-.178.1338 4.7253 4.7253 0 00-.372.5533c-.239.3147-.627.4825-.889.7867-.263.3042-.318.8628.047 1.0149.074.0248.15.0415.228.0498.048.004.095.0119.142.0236.393.1101.548.6058.49 1.0148-.058.4091-.262.7868-.296 1.1959-.071.7237.354 1.3977.763 2.0061.423.6595.891 1.2894 1.4 1.8855.37.4143.787.7867 1.159 1.1853 1.419 1.458 2.546 3.1626 3.821 4.7465.458.5978.98 1.1446 1.555 1.6311.376.2938.769.5644 1.177.8103l2.193 1.3899c.248.1822.53.3148.828.3907.098.0131.197.0131.294 0 .013.0656.024.1285.039.1941.171.687.546 1.3111.588 2.0113.042.7002-.021 1.4161.029 2.1241.047.653.191 1.3112.228 1.9537.073 1.2378-.231 2.4598-.525 3.6713-.443 1.7728-.71 3.5822-1.573 5.1897-.241.4432-.525.8943-.525 1.4004 0 .0603 0 .1232.016.1835l-.393.2229c-.116.0656-.231.1312-.336.1994-.498.3251-1.03.6844-1.235 1.2456-.165.4537-.089.9729-.288 1.4134a.623.623 0 01-.032.0577c-.21.4091-.627.7133-.721 1.1618-.071.3435.066.708 0 1.0489v.0131c-.06.1712-.107.3465-.142.5245a.6715.6715 0 00.016.1731c.05.1987.16.3772.315.5113.094.0907.197.1724.307.2439.111.0734.227.1416.346.2046l.068.0367c.1.0524.199.1022.302.1494l.068.0289c.118.0524.238.0996.359.1416l.084.0262c.094.0315.191.0603.288.0839l.066.021.06.0131.262.0551.097.0184c.116.0192.234.0349.355.0472h.104c.09 0 .176.0131.263.0157h.48c.123 0 .246-.0184.369-.0341h.04c.11-.0157.22-.0341.33-.0577l.084-.0184c.102-.0236.204-.0472.307-.0786l.055-.0158c.123-.0367.246-.076.367-.1232a9.7238 9.7238 0 001.212-.6005c.262-.1443.524-.2911.786-.4249a6.151 6.151 0 01.598-.2622 3.3764 3.3764 0 011.574-.2622c.265.0361.528.0896.786.1599v.0866c.214 1.2587.424 2.5175.632 3.7762a7.7386 7.7386 0 011.086-.653 2.3954 2.3954 0 00-.139.5901c-.016.156-.016.3133 0 .4694.024.2491.076.5244-.073.7211-.092.1207-.263.1888-.313.3252a1.1194 1.1194 0 00-.026.4274.6803.6803 0 01-.194.4332.6828.6828 0 01-.43.2015.996.996 0 01-.396 1.1695 1.374 1.374 0 00-.304.1993.9077.9077 0 00-.176.396 7.0018 7.0018 0 01-2.053 3.375c-.373.293-.713.6254-1.015.9913-.186.2833-.34.5868-.459.9047a543.3435 543.3435 0 01-2.129 5.1318c-.399.957-.787 1.93-.913 2.961-.315 2.827-2.832 5.224-2.36 8.03.095.701.378 1.363.818 1.917.525.632 1.311.993 2.098 1.287 2.022.787 4.154 1.217 6.278 1.65l3.336.684c.654.151 1.318.256 1.988.315.805.055 1.631-.021 2.415.183.485.126.949.36 1.45.386.43.023.96-.068 1.214.283s.058.816.299 1.128c.388.495 1.335 0 1.757.466.115.18.204.375.262.58.064.127.154.239.262.33.026.148.037.299.032.449a7.7497 7.7497 0 01-.378 1.788c-.314 1.065-.628 2.13-.941 3.197-.12.377-.207.763-.262 1.154-.02.19-.02.381 0 .571.055.58.388 1.178.941 1.367.429.113.886.057 1.275-.158.375-.195.727-.433 1.049-.708.58-.439 1.09-.964 1.513-1.557 1.311-1.962.886-4.616 1.806-6.784.611-1.448 1.802-2.623 2.198-4.149.093-.29.104-.601.031-.897-.165-.524-.723-.823-1.245-1.012h-.024c-.428-.153-.866-.278-1.311-.375-.11-.024-.223-.042-.336-.06a2.0564 2.0564 0 01-.579-.756 1.7782 1.7782 0 00-.123-.453.4654.4654 0 00-.164-.151.4702.4702 0 00-.214-.059c-.262-.026-.614.068-.9.047-.584-.042-.972-.616-1.497-.881-.524-.265-1.093-.199-1.652-.16-.2.027-.403.015-.598-.037a2.2306 2.2306 0 01-.629-.432 2.6374 2.6374 0 00-2.311-.465c-.251.102-.516.162-.786.179-.512-.029-.874-.485-1.251-.832-1.033-.946-2.505-1.195-3.758-1.817a.8545.8545 0 01-.451-.388c-.144-.357.181-.713.475-.957l2.155-1.791c2.36-1.962 5.31-3.438 6.407-6.315.114-.386.291-.75.524-1.078.085-.1.183-.188.291-.262a2.2038 2.2038 0 011.613-.315c.68.153 1.325.434 1.899.829.938.568 1.852 1.18 2.74 1.836.88.628 1.716 1.315 2.504 2.056 1.377 1.311 2.523 2.866 3.805 4.279 1.283 1.414 2.749 2.733 4.529 3.409 1.781.677 3.934.648 5.463-.487 1.765-1.312 2.331-3.656 2.777-5.806.983-.95 1.279-2.395 1.759-3.672.302-.81.687-1.573 1.013-2.381.388-.949.692-1.9298.996-2.9079.345-.9823.579-2 .698-3.0341.126-1.6338-.312-3.3724.147-4.9065.605-.1337 1.156-.4747 1.751-.674.887-.291 1.836-.2438 2.775-.2386h.06a1.431 1.431 0 00.923-.2176c.315-.2623.365-.7107.38-1.1172.037-1.0044-.026-2.132-.778-2.7823zm-37.996-44.7325a1.9518 1.9518 0 01-.664.0472l.664-.0472z" fill="url(#paint0_linear)"/><path d="M208.041 56.2553c-.317.2697-.69.4674-1.091.5796l-1.859.666c-1.01.3619-2.064.7264-3.129.5953-.595-.0734-3.146-.4484-3.532-.9126-.587-.7185 1.471-1.7753 2.174-2.3811.159-.1145.307-.2445.441-.3881.262-.3199.228-.7684.191-1.1722a18.0934 18.0934 0 01-.136-3.0865c.02-.2458.055-.4901.105-.7317.262-1.2063 1.384-.7657 2.27-.4458 1.067.3466 2.099.7935 3.082 1.3348.299.1543.559.375.76.6451.388.5874.234 1.3584.171 2.0979-.055.5743-.053 1.125.307 1.542.18.1594.346.3349.495.5244a.9814.9814 0 01.06.6071.9792.9792 0 01-.309.5258zM182.358 37.3559c.262-1.1618.319-2.3602.634-3.5114.222-.7485.497-1.4803.824-2.1897l1.156-2.6984c.106-.3186.294-.6036.545-.8261.27-.1669.583-.2508.9-.2412 1.13-.042 2.318.3094 3.089 1.1407.771.8313 1.015 2.1766.401 3.1285-.734 1.146-2.336 1.3768-3.293 2.3418-.611.6163-.908 1.4738-1.089 2.3208-.477 2.2028-.317 4.4869-.464 6.7369-.047.7002-.183 1.5-.787 1.8619a2.2907 2.2907 0 01-1.174.2281l-1.721.0289c-.288 0-1.334.1809-1.526-.0367-.336-.3803.43-2.2737.569-2.6959.31-.9361.69-1.8487 1.049-2.7692.312-.8208.887-1.9301.887-2.819z" fill="#BE6F72"/><path d="M217.878 119.741c-.396 1.515-1.587 2.695-2.198 4.14-.92 2.164-.506 4.81-1.807 6.766-.422.594-.932 1.12-1.513 1.56a5.62 5.62 0 01-1.049.706c-.389.214-.845.271-1.274.157-.554-.189-.887-.787-.942-1.364a2.8471 2.8471 0 010-.569c.055-.39.143-.775.263-1.151.314-1.061.628-2.124.941-3.189.196-.577.323-1.176.378-1.783.034-.661-.386-1.521-.208-2.137.082-.278.386-.525.525-.758.197-.336.349-.697.451-1.073.215-.731.362-1.513.813-2.129a4.97 4.97 0 011.023-.957c.283-.249.615-.435.975-.548.349-.062.707-.045 1.049.05.445.095.883.219 1.311.372h.024c.524.189 1.08.48 1.246 1.01.08.294.077.604-.008.897zM245.78 87.501c-.016.4065-.066.8601-.381 1.1145a1.431 1.431 0 01-.923.2177h-.07c-.937 0-1.889-.0525-2.775.2386-.674.2229-1.293.632-1.995.7133-.968.1101-1.878-.4196-2.736-.8811a27.1485 27.1485 0 00-2.483-1.1801c-.556-.2282-1.691-.375-1.959-.9834a8.8298 8.8298 0 01-.231-.8759 2.8418 2.8418 0 00-.16-.3855 2.2137 2.2137 0 01-.293-.868c.001-.3056.106-.6017.299-.8391a2.5106 2.5106 0 011.717-.8838 7.6124 7.6124 0 011.978.1049l6.456.9283c.498.0708.999.1416 1.489.2623.466.0808.905.2733 1.28.5612.763.6398.826 1.7648.787 2.7561z" fill="#3F3D56"/><path d="M240.105 89.1793c-.787 1.66-.22 3.6241-.362 5.4598a13.907 13.907 0 01-.698 3.0262c-.304.9755-.608 1.9537-.996 2.9007-.325.786-.711 1.573-1.012 2.376-.48 1.279-.787 2.719-1.76 3.671-.446 2.145-1.012 4.489-2.777 5.79-1.534 1.133-3.671 1.172-5.462.488-1.791-.685-3.247-1.996-4.529-3.409-1.283-1.414-2.429-2.953-3.805-4.269a23.8604 23.8604 0 00-2.51-2.054 39.3035 39.3035 0 00-2.74-1.82 5.506 5.506 0 00-1.899-.826 2.2038 2.2038 0 00-1.613.315c-.108.074-.206.162-.291.262-.233.327-.41.69-.524 1.075-1.102 2.869-4.057 4.343-6.417 6.299l-2.156 1.786c-.294.244-.619.601-.474.955.099.179.259.316.451.388 1.253.619 2.724.868 3.757 1.812.378.346.74.802 1.251.828.27-.015.536-.075.787-.175a2.6445 2.6445 0 012.31.461c.184.179.397.326.63.433.195.052.398.064.598.037.558-.04 1.151-.089 1.652.16.501.249.912.836 1.497.878.286.021.627-.073.9-.047.075.002.148.023.214.059.065.037.122.088.163.151.061.144.103.296.123.451.108.37.47.595.706.899.362.467.414 1.102.378 1.692a7.2175 7.2175 0 01-2.298 4.83c-.385.394-.876.667-1.413.787-.269.056-.549.026-.801-.085a1.3136 1.3136 0 01-.6-.537 2.1316 2.1316 0 00-.262-.577c-.422-.464-1.369.029-1.757-.466-.241-.31-.068-.805-.299-1.125-.23-.32-.786-.263-1.214-.281-.501-.026-.965-.262-1.45-.385-.787-.205-1.61-.129-2.415-.184-.669-.059-1.333-.164-1.988-.315l-3.336-.681c-2.124-.433-4.256-.871-6.278-1.645-.773-.293-1.552-.655-2.098-1.285a3.94 3.94 0 01-.818-1.914c-.474-2.798 2.043-5.19 2.36-8.009.113-1.028.525-1.998.913-2.953.712-1.706 1.421-3.413 2.129-5.1211.115-.318.264-.6223.446-.9073a6.5859 6.5859 0 011.015-.9886 6.9754 6.9754 0 002.053-3.3672.9077.9077 0 01.176-.396c.093-.0778.195-.1438.304-.1966a.9941.9941 0 00.4-.515.9915.9915 0 00-.004-.652.6803.6803 0 00.43-.2014.6755.6755 0 00.194-.4332c-.019-.142-.01-.2863.027-.4248.063-.1364.22-.2046.312-.3252.149-.1967.097-.472.073-.7185a2.3021 2.3021 0 010-.4695 2.408 2.408 0 01.703-1.4659c.627-.6162 1.518-.4563 2.384-.6031a13.6452 13.6452 0 002.517-.8051 24.732 24.732 0 017.109-1.6442c2.45-.1927 4.911.1992 7.18 1.1433.331.1338.642.3101.926.5245.202.1557.368.3534.485.5796.097.2776.216.5468.357.805.281.3829.81.5062 1.117.868.307.3619.333.973.587 1.4214.365.6398 1.209.9362 1.461 1.6311.079.2203.089.4615.147.6897.142.5717.566 1.0227.941 1.4738a11.3337 11.3337 0 012.539 5.7693c.084-1.3297.978-2.5071 2.098-3.2414.301-.1967.65-.4143.71-.771.077-.451-.361-.8522-.333-1.3111a1.287 1.287 0 01.263-.6137 19.3533 19.3533 0 011.641-2.0638c.323-.354.685-.7867.551-1.2535-.102-.3488-.459-.5533-.656-.8575a1.0938 1.0938 0 01-.168-.6071 1.082 1.082 0 01.195-.5992c.183-.2491.474-.4301.563-.7264.103-.3488-.125-.7264-.055-1.0857.096-.2877.287-.5344.541-.7001.347-.3168.743-.577 1.172-.771.692-.2623 1.463-.1652 2.197-.0629 1.228.1704 2.604.4326 3.297 1.4606.443.6425.668 1.618.338 2.3051z" fill="#65617D"/><path opacity=".1" d="M245.78 87.501c-.016.4064-.066.8601-.381 1.1145a1.4303 1.4303 0 01-.923.2176h-.07c.107-.5454.771-.8575.886-1.4108.02-.17.004-.3422-.045-.5059a1.2651 1.2651 0 00-.243-.446c-.562-.7579-1.464-1.1775-2.361-1.4843a15.634 15.634 0 00-7.883-.59 7.938 7.938 0 00-2.071.6372 6.8914 6.8914 0 00-.63.4458 2.2137 2.2137 0 01-.293-.868c.001-.3056.106-.6017.299-.8391.214-.2533.476-.4617.77-.6134.295-.1517.617-.2436.947-.2704a7.6124 7.6124 0 011.978.1049l6.456.9283c.498.0708.999.1416 1.489.2623.466.0808.905.2733 1.28.5612.771.6398.834 1.7648.795 2.7561zM217.878 119.74c-.396 1.516-1.587 2.696-2.198 4.141-.92 2.164-.506 4.81-1.807 6.766-.422.594-.932 1.12-1.513 1.56a5.62 5.62 0 01-1.049.706c-.389.214-.845.27-1.274.157-.554-.189-.887-.787-.942-1.364-.019-.189-.019-.38 0-.569l.016.042c.228.551.601 1.128 1.188 1.225.22.016.442-.014.65-.088.209-.073.4-.189.561-.34.866-.694 1.369-1.73 1.849-2.729.376-.721.673-1.48.887-2.264.104-.445.154-.902.262-1.347.498-2.167 2.195-3.934 2.57-6.129.03-.151.037-.306.021-.459-.05-.2-.126-.392-.226-.572a2.8296 2.8296 0 01-.199-.634c.524.189 1.08.48 1.246 1.009.067.295.053.603-.042.889zM213.918 115.98a3.7944 3.7944 0 01-1.183 1.615c-.746.569-1.62.947-2.546 1.102-.431.11-.883.104-1.311-.016-.583-.202-1.002-.747-1.597-.905-.425-.115-.882-.013-1.312-.076-.773-.107-1.374-.697-1.998-1.169-1.912-1.437-4.421-1.901-6.333-3.339a.584.584 0 01-.204-.212.6239.6239 0 01-.04-.296c.007-.872.203-1.732.575-2.52a8.771 8.771 0 011.08-1.54c1.712-2.098 3.433-4.211 5.483-5.981.86-.743 1.799-1.435 2.885-1.77.603-.187 1.794-.362 2.528-.048-.108.074-.206.162-.291.263-.234.326-.411.69-.525 1.075-1.104 2.871-4.059 4.345-6.419 6.301l-2.156 1.786c-.294.244-.619.601-.474.955.099.179.259.316.451.388 1.253.619 2.724.868 3.757 1.812.378.346.74.802 1.251.829.27-.016.536-.076.787-.176a2.6445 2.6445 0 012.31.461c.184.179.397.326.63.433.195.052.398.064.598.037.558-.04 1.151-.089 1.652.16.501.249.912.836 1.497.878.291.021.632-.078.905-.047z" fill="#000"/><path d="M189.8 80.3891c-.498.32-1.028.6819-1.233 1.2378-.168.4537-.089.9729-.291 1.4135-.202.4405-.655.7473-.755 1.2194-.071.3435.068.7054 0 1.0489a4.4682 4.4682 0 00-.144.5455c-.026.3907.309.708.637.9257a5.3229 5.3229 0 004.765.5244c.7-.2622 1.332-.6896 2.003-1.0253a3.965 3.965 0 012.159-.5245c.432.0472.847.2046 1.279.2622.214.0423.435.0319.644-.0302a1.349 1.349 0 00.555-.3264c.133-.1845.223-.397.262-.6215.364-1.4397.199-2.9659-.147-4.4135-.346-1.4475-.871-2.84-1.24-4.2797-.263-1.0673-.464-2.1608-.902-3.1704-.438-1.0096-1.175-1.9485-2.206-2.3339a.4104.4104 0 00-.262-.0341.4492.4492 0 00-.171.1258 8.059 8.059 0 00-1.798 3.0263c-.412 1.2561-.525 2.5883-.903 3.8496-.162.5245-.372 1.2273-.786 1.6285-.415.4012-.997.6504-1.466.9519z" fill="#3F3D56"/><path opacity=".1" d="M199.689 85.0307a1.5206 1.5206 0 01-.276.6215 1.3288 1.3288 0 01-1.198.3541c-.43-.0525-.844-.2125-1.277-.2623a3.9525 3.9525 0 00-2.158.5245c-.672.3357-1.311.7526-2.006 1.0227a5.2952 5.2952 0 01-3.181.181 5.1365 5.1365 0 01-1.574-.6923c-.33-.2151-.663-.5245-.637-.9258.037-.1837.085-.365.144-.5428.068-.3435-.068-.7054 0-1.0489.1-.4721.556-.7867.755-1.2221.2-.4353.124-.9571.289-1.4108.204-.5586.737-.9178 1.235-1.2404.498-.3225 1.091-.569 1.49-.9598.051-.0608.098-.1257.139-.194.287-.4434.498-.9318.624-1.445.385-1.264.49-2.5935.899-3.8522a8.0727 8.0727 0 011.802-3.0237.3888.3888 0 01.168-.1258c.088-.018.18-.007.262.0314 1.028.3882 1.765 1.327 2.205 2.3366.441 1.0096.627 2.0979.902 3.1678.367 1.4397.895 2.8374 1.241 4.2824.346 1.4449.516 2.9816.152 4.4239zM207.488 53.0482a5.2455 5.2455 0 01-3.747-.2185 5.2429 5.2429 0 01-2.641-2.6661c.02-.2457.055-.4901.105-.7316.262-1.2063 1.384-.7658 2.271-.4458 1.066.3465 2.098.7935 3.081 1.3347.299.1543.559.375.76.6451.388.5796.234 1.3506.171 2.0822z" fill="#000"/><path d="M205.904 53.0325c2.896 0 5.245-2.3482 5.245-5.2448s-2.349-5.2447-5.245-5.2447c-2.897 0-5.245 2.3481-5.245 5.2447s2.348 5.2448 5.245 5.2448z" fill="#BE6F72"/><path opacity=".1" d="M220.135 86.9818c0 .4353-.59.5743-1.027.5507-1.574-.0918-3.113-.5245-4.671-.3934-1.969.1784-3.779 1.2666-5.753 1.3663-.761.0393-1.535-.0734-2.285.0656-.97.1809-1.835.7709-2.824.8548-.857.0735-1.704-.2491-2.562-.215a4.1162 4.1162 0 00-1.712.4878 2.4078 2.4078 0 01.703-1.4659c.626-.6163 1.518-.4563 2.383-.6032a13.655 13.655 0 002.518-.8051 24.731 24.731 0 017.109-1.6442 15.52 15.52 0 017.177 1.1355c.331.1337.642.31.926.5245a.3997.3997 0 01.018.1416z" fill="#000"/><path d="M203.478 57.3646l-2.124-.7868-.897-.3304a4.3346 4.3346 0 00-1.143-.3042c-1.028-.0787-1.996.6058-2.544 1.479-.548.8733-.755 1.9144-.931 2.9292a79.6185 79.6185 0 00-.613 4.1801 27.3307 27.3307 0 00-.276 3.8129c.06 3.2465.748 6.4485 1.503 9.6084.37 1.4011.649 2.8245.836 4.2614.063.5926.092 1.1879.155 1.7832.068.6687.178 1.3296.289 1.993l.632 3.7684c.786-.5586 1.68-1.049 2.648-1.0778.858-.0315 1.707.2884 2.562.215.984-.0813 1.854-.6713 2.824-.8523.75-.139 1.524-.0288 2.287-.0655 1.972-.0997 3.784-1.1906 5.751-1.3663 1.56-.1416 3.11.299 4.673.3907.435.0263 1.025-.1127 1.025-.5507 0-.3041-.304-.5061-.569-.6582a28.1014 28.1014 0 01-3.553-2.5358c-1.033-.8182-2.082-1.6574-2.793-2.764-1.712-2.6617-1.125-6.2622-2.585-9.0708-1.188-2.2815 0-5.271 0-7.8435 0-1.2824 0-2.5804-.302-3.8261-.188-.6967-.423-1.38-.703-2.0454l-1.02-2.5831a.4255.4255 0 00-.12-.1966.4042.4042 0 00-.234-.0708 2.4597 2.4597 0 00-1.694.5428c-.48.3907-.787.9519-1.259 1.3584-.516.4484-1.182.8418-1.825.6058z" fill="#E3E8F4"/><path d="M206.906 55.8751c.167-.7185.348-1.4659.828-2.0271.48-.5612 1.356-.8575 1.975-.4563.703.4563.732 1.5105 1.332 2.0979.525.5035 1.311.5429 2.025.6084 1.282.1167 2.542.4134 3.742.8811.234.0726.447.2003.621.3724.328.3724.262.9441.425 1.4082.223.5979.839.9782 1.078 1.5735.262.6608 0 1.4003-.22 2.0795-.396 1.2194-.646 2.486-1.031 3.7107-.386 1.2246-.934 2.4309-1.836 3.354-.398.4091-.991.7867-1.515.5428l-.202 1.4554a2.4706 2.4706 0 000 .931c.03.1538.103.296.211.4101a.8346.8346 0 00.397.235c.039.2255.278.333.472.4563.143.0979.266.2234.36.369.094.1456.159.3085.19.4792.031.1708.028.346-.009.5155a1.321 1.321 0 01-.208.472c-.165.2229-.409.3986-.488.6634-.118.3829.163.7867.504.9965.341.2098.742.3068 1.088.5088.719.4143 1.104 1.2299 1.351 2.0218.183.5979.335 1.2456.786 1.681.173.1652.381.291.546.4641.286.3379.451.7614.469 1.2037a2.3836 2.3836 0 01-.341 1.5734c-.524.75-1.502.9729-2.36 1.3112-1.392.5717-2.538 1.5944-3.766 2.465a4.0084 4.0084 0 01-1.717.8077c-.85.1128-1.686-.2622-2.541-.2963a6.3097 6.3097 0 00-1.516.1993l-1.573.3409c.083-1.2194-.588-2.4414-.963-3.6031-.708-2.1871-.839-4.5263-.671-6.8182.168-2.292.634-4.5525 1.096-6.8025.322-1.5734.291-3.2176.787-4.7465.464-1.4711 1.127-2.8846 1.371-4.416.399-2.4782-1.259-4.5787-.697-7.0228z" fill="#3F3D56"/><path d="M218.835 60.7239c.144.2665.246.5541.301.8523.122.4619.349.8893.664 1.2482.264.2327.498.497.697.7867.242.4563.15 1.0123.263 1.5105.131.5429.511 1.0149.566 1.5735.002.16.017.3197.045.4772.17.6347 1.104.7868 1.311 1.4214.139.4117-.1.8601-.055 1.2928.032.1338.04.2724.023.4091a.8272.8272 0 01-.299.3829 6.0313 6.0313 0 00-1.725 3.0708 17.4919 17.4919 0 00-.396 3.548l-1.025-1.3557a1.5619 1.5619 0 00-.41-.4196c-.131-.0787-.283-.118-.417-.1967-.388-.2203-.54-.687-.689-1.1066a10.2151 10.2151 0 00-1.836-3.1784c-.417-.4903-.902-.9833-.994-1.6206a3.0288 3.0288 0 01.047-.8759c.263-1.7176.543-3.4772 1.38-5.0008.391-.7133.897-1.3584 1.272-2.0822.251-.4799.605-1.7282 1.277-.7369zM192.965 62.3734c.005.2207-.051.4385-.163.6293a.8227.8227 0 01-.377.2485.827.827 0 01-.451.0138 2.3977 2.3977 0 01-.829-.3881c-.731-.4616-1.461-.924-2.192-1.3873a12.2336 12.2336 0 01-1.178-.8077 10.5338 10.5338 0 01-1.555-1.6285c-1.274-1.5734-2.402-3.2806-3.821-4.7202-.385-.3934-.786-.771-1.159-1.1827a17.3159 17.3159 0 01-1.4-1.8829c-.409-.6058-.834-1.2771-.763-2.0009.042-.4091.239-.7867.296-1.1932.058-.4064-.097-.9021-.49-1.0122a.8916.8916 0 00-.142-.0236 1.0739 1.0739 0 01-.228-.0498c-.364-.1521-.309-.7159-.047-1.0123.262-.2963.65-.4615.889-.7867.111-.1929.235-.3778.372-.5533.176-.1506.386-.2559.611-.3068a9.4568 9.4568 0 014.655-.1757c.262.0577.561.1626.64.4169a.7786.7786 0 010 .3777 8.337 8.337 0 00-.199 1.5734c-.001.1104.005.2207.018.3304.123 1.1119.844 2.0533 1.547 2.9213.834 1.0333 1.681 2.0586 2.531 3.0813.459.5927.973 1.1414 1.534 1.639.524.4353 1.203.7867 1.613 1.3453.333.451.225 1.0673.262 1.6101.122 1.6391.131 3.2846.026 4.9249z" fill="#3F3D56"/><path d="M226.269 73.3139c.259-.2518.493-.5285.698-.826.22-.3687.396-.7622.524-1.1722l1.521-4.3138c.242-.6818.483-1.3663.787-2.0297.315-.716.687-1.4056 1.031-2.0979a28.0252 28.0252 0 002.037-5.7037c.083-.2706.111-.5551.081-.8365-.073-.4537-.417-.8077-.744-1.1303a5.4829 5.4829 0 00-1.117-.9231 1.8415 1.8415 0 00-.678-.2534 1.8349 1.8349 0 00-.723.0279c-.671.1967-1.093.8838-1.248 1.5734-.155.6897-.097 1.3951-.163 2.0979-.094 1.007-.44 1.9799-.524 2.9895-.045.5848 0 1.1749-.071 1.757a6.4177 6.4177 0 01-.787 2.1687 14.083 14.083 0 01-3.39 4.1696c-.38.2806-.722.6094-1.018.9782-.246.3688-.413.785-.49 1.222a2.8151 2.8151 0 00.212 1.9851c.428.729 1.248 1.049 2.033 1.2116 1.059.2202 1.303-.1416 2.029-.8943z" fill="#BE6F72"/><path d="M205.935 40.188a2.4469 2.4469 0 012.376-1.2876c.482.0854.931.3041 1.295.6313.365.3272.63.7498.766 1.2201.124.3907.173.8234.388 1.1591.326.5061.929.6529 1.38 1.0201.269.2502.486.5516.637.8866.151.3351.234.6969.244 1.0644a5.8947 5.8947 0 01-.349 2.2054 7.039 7.039 0 00-.262.9231c-.052.3042-.058.6137-.105.9179a2.9817 2.9817 0 01-.401 1.1141c-.207.341-.48.6371-.803.871a.523.523 0 01-.325.118c-.204-.0236-.33-.2622-.406-.4773-.417-1.2036-.318-2.6748-1.086-3.6346a3.9676 3.9676 0 00-1.243-.9257 1.5975 1.5975 0 00-.635-.2386 1.6683 1.6683 0 00-.917.3356 5.7207 5.7207 0 01-1.815.8025 2.2292 2.2292 0 01-1.875-.4039c-.362-.2989-.627-.7473-1.028-.9807-.401-.2334-.821-.2203-1.217-.3803a1.7972 1.7972 0 01-.656-.4781 1.7921 1.7921 0 01-.38-.7178 1.8095 1.8095 0 01-.026-.8117c.053-.269.167-.5223.333-.7406.262-.3147.651-.493.884-.8418.301-.4511.275-1.0699.419-1.6101.086-.3418.251-.6583.484-.9233.232-.265.524-.4708.851-.6003.318-.1079.659-.1286.987-.0599.329.0688.633.2244.88.4506.263.236.472.5402.729.7867.254.2429.565.4182.904.5098.339.0916.695.0967 1.037.0147" fill="#3F3D56"/><path opacity=".1" d="M210.246 78.7868c-.152.136-.26.3148-.31.5131-.05.1983-.038.407.033.5988.057.1233 2.763-.3986 3.049-.4379.714-.1023 1.964-.0525 2.444-.7054.855-1.1565-1.793-.8995-2.278-.8576-.924.0787-2.235.2046-2.938.889z" fill="#000"/><path d="M185.628 44.9582a8.421 8.421 0 00-.2 1.5734c-.786.1599-1.605-.1023-2.36-.3645l-2.169-.7395a.613.613 0 00-.444-.0865.6145.6145 0 00-.384.2412c-.349.3619-.829 1.0489-1.311 1.4554a1.0695 1.0695 0 01-.229-.0498c-.364-.1521-.309-.7159-.047-1.0123.263-.2963.651-.4615.889-.7867.111-.1929.236-.3778.373-.5533.175-.1506.385-.2559.611-.3068a9.4524 9.4524 0 014.654-.1757c.263.0577.562.1626.64.4169a.7636.7636 0 01-.023.3882z" fill="#3F3D56"/><path opacity=".1" d="M185.628 44.9582a8.421 8.421 0 00-.2 1.5734c-.786.1599-1.605-.1023-2.36-.3645l-2.169-.7395a.613.613 0 00-.444-.0865.6145.6145 0 00-.384.2412c-.349.3619-.829 1.0489-1.311 1.4554a1.0695 1.0695 0 01-.229-.0498c-.364-.1521-.309-.7159-.047-1.0123.263-.2963.651-.4615.889-.7867.111-.1929.236-.3778.373-.5533.175-.1506.385-.2559.611-.3068a9.4524 9.4524 0 014.654-.1757c.263.0577.562.1626.64.4169a.7636.7636 0 01-.023.3882zM205.466 94.744c.378.1258.787.3094.915.687l-3.037-.771-1.573-.4012c-.278-.0708-1.275-.1521-1.458-.3698-.262-.3199.669-.0996.836-.076.509.076 1.018.1547 1.524.2465.955.1705 1.872.4511 2.793.6845zM206.643 97.4319c-.262-.1757-1.014-.1547-1.337-.2308-.472-.1127-.936-.2622-1.4-.4064-.942-.3069-1.875-.6556-2.843-.8812-.178-.0393-.787-.0498-.758-.2753.029-.2256.608-.3042.753-.3147.857-.0629 1.927.3383 2.724.6241 1.016.364 1.979.8632 2.861 1.4843zM204.719 92.3471c-.963-.2623-1.836-.8602-2.827-.9755a1.1503 1.1503 0 01-.722-.2203.8542.8542 0 01-.233-.4196c.664-.0341 1.435.2465 2.038.5114.332.1424.651.3125.954.5087.22.1338.551.5192.79.5953z" fill="#000"/><path d="M223.065 68.8665A4.5816 4.5816 0 00223.728 72a4.5836 4.5836 0 002.552 1.9355c-.129.6215-.771.9651-1.225 1.4082-.64.6215-.97 1.5525-1.725 2.0245-.842.5245-1.925.3199-2.885.0997a.354.354 0 01-.226-.118.343.343 0 01-.042-.1023c-.317-1.1617-.524-2.4021-.199-3.5665.262-.9912.892-1.8356 1.395-2.7115.504-.8759.551-1.8147 1.692-2.1031zM199.618 53.8297a6.8187 6.8187 0 00-2.885.8785c-.587.3356-1.19.7867-1.862.7054-.395-.0446-.786-.2623-1.172-.1574a2.3007 2.3007 0 00-.6.3567.6804.6804 0 01-.661.1049l-.262 3.6293c-.1 1.3794-.197 2.7876.133 4.1329.171.6871.546 1.3112.588 2.0087.042.6976-.021 1.4135.029 2.1189.047.653.191 1.2955.228 1.9484.073 1.2326-.231 2.4546-.525 3.653-.443 1.7675-.71 3.5743-1.573 5.174-.241.4431-.525.8942-.525 1.3977 0 .0629 0 .1232.016.1835-.262.1443-.506.2806-.729.4223-.498.3225-1.03.6818-1.235 1.2403-.165.4537-.089.9729-.288 1.4109-.2.4379-.656.75-.756 1.222-.07.3435.066.7054 0 1.049-.059.1777-.107.359-.144.5428-.026.3933.307.7106.637.9257a5.1341 5.1341 0 001.574.6923l1.565-6.215a50.0346 50.0346 0 003.548-8.2527c.267-.932.61-1.8407 1.026-2.7167.297-.4956.559-1.0108.786-1.542.239-.6608.263-1.3767.378-2.0743.137-.8141.343-1.6151.616-2.3942.284-.8418.611-1.681.669-2.5647.087-1.264-.372-2.5988.115-3.7684.207-.4377.477-.8432.8-1.2036.677-.8287 1.293-1.6967 1.97-2.5254-.352-.375-.937-.4143-1.461-.3828z" fill="#3F3D56"/><g opacity=".1" fill="#000"><path opacity=".1" d="M207.008 39.3253l-.328.0236-.037.0262c.123-.005.245-.0216.365-.0498zM213.008 44.7693a7.0446 7.0446 0 01-.336 1.5315 7.0332 7.0332 0 00-.262.923c-.052.3042-.058.6137-.105.9179a2.9828 2.9828 0 01-.401 1.1142c-.207.3409-.48.637-.803.8709a.523.523 0 01-.325.118c-.204-.0236-.33-.2622-.406-.4772-.417-1.2037-.318-2.6749-1.086-3.6347a3.9691 3.9691 0 00-1.243-.9257 1.599 1.599 0 00-.635-.2386 1.6676 1.6676 0 00-.917.3357 5.7227 5.7227 0 01-1.815.8024 2.2292 2.2292 0 01-1.875-.4038c-.362-.299-.627-.7474-1.028-.9808-.401-.2334-.821-.2203-1.217-.3802a1.795 1.795 0 01-.645-.4682 1.795 1.795 0 01-.378-.7014.677.677 0 01-.02-.0997c-.066.2928-.059.5971.02.8864.072.2592.201.499.378.7015.177.2024.398.3624.645.4681.396.1599.842.1626 1.217.3802.375.2177.666.6818 1.028.9808a2.2281 2.2281 0 001.875.4038 5.7227 5.7227 0 001.815-.8024c.265-.2009.585-.3178.917-.3357.227.0334.443.1148.635.2387.465.2283.881.5454 1.225.9335.768.9598.668 2.431 1.085 3.6346.076.2177.202.4537.407.4773a.5215.5215 0 00.343-.1259c.325-.2345.598-.5318.806-.8741a3.003 3.003 0 00.401-1.1189c.047-.3042.052-.6136.105-.9178.066-.3133.153-.6217.262-.9231a5.9151 5.9151 0 00.349-2.2054c-.006-.0315-.011-.0682-.016-.1049z"/></g><path d="M196.416 65.8113l-.178 2.3942c-.026.3252-.648 8.0664-5.232 17.1136-3.933 7.7597-11.588 17.8659-26.04 23.5459-1.128.446-2.298.862-3.511 1.249l-1.354-4.249c3.398-1.069 6.67-2.5 9.761-4.269 7.366-4.2533 13.093-10.3241 17.087-18.1361a48.7492 48.7492 0 004.485-13.1906h-16.443v-4.458h21.425z" fill="#00BAFC"/><path opacity=".1" d="M163.196 108.868c14.449-5.68 22.106-15.784 26.037-23.5436 4.584-9.0472 5.208-16.7832 5.232-17.1136l.178-2.3943h1.836l-.178 2.3943c-.024.3251-.648 8.0664-5.232 17.1136-3.934 7.7596-11.588 17.8636-26.038 23.5436-1.127.446-2.298.863-3.514 1.251l-.178-.559c.633-.225 1.252-.456 1.857-.692z" fill="#fff"/><path d="M134.266 105.865l-1.353 4.249c-1.215-.388-2.387-.805-3.514-1.251-14.45-5.68-22.107-15.7842-26.038-23.5439-4.5839-9.0472-5.2081-16.7832-5.2317-17.1136l-.1783-2.3942h21.414v4.458H102.92a48.7655 48.7655 0 004.498 13.1906c3.994 7.812 9.718 13.8828 17.085 18.1341a49.5212 49.5212 0 009.763 4.271z" fill="#00BAFC"/><path opacity=".1" d="M131.166 108.868c-14.449-5.68-22.107-15.784-26.037-23.5436-4.584-9.0472-5.2085-16.7832-5.2321-17.1136l-.1784-2.3943h-1.8356l.1783 2.3943c.0236.3251.6477 8.0664 5.2318 17.1136 3.933 7.7596 11.588 17.8636 26.037 23.5436 1.128.446 2.299.863 3.514 1.251l.179-.559c-.631-.225-1.25-.456-1.857-.692z" fill="#fff"/><path d="M171.92 146.932v24.039h-49.476v-24.039l1.573-2.098c16.034-5.691 19.283-20.531 19.931-26.402.096-.812.151-1.627.165-2.444h6.118c.013.817.069 1.632.165 2.444.658 5.871 3.907 20.717 19.93 26.402l1.594 2.098z" fill="#00BAFC"/><path opacity=".1" d="M171.92 146.932h-49.476v3.016h49.476v-3.016z" fill="#000"/><path opacity=".1" d="M126.64 144.834c16.033-5.691 19.282-20.531 19.93-26.402.096-.812.151-1.627.165-2.444h-2.622c-.014.817-.069 1.632-.165 2.444-.659 5.871-3.908 20.717-19.931 26.402l-1.573 2.098v24.039h2.622v-24.039l1.574-2.098z" fill="#fff"/><path opacity=".1" d="M114.928 65.8113h4.437v4.458h-4.043a113.428 113.428 0 01-.394-4.458zM134.266 105.865l-1.353 4.249c-1.215-.388-2.387-.805-3.514-1.251a46.9852 46.9852 0 01-4.896-7.269 49.5212 49.5212 0 009.763 4.271zM160.099 105.865a49.658 49.658 0 009.76-4.269 47.131 47.131 0 01-4.896 7.272c-1.127.446-2.298.862-3.511 1.248l-1.353-4.251zM179.434 65.8113a115.3802 115.3802 0 01-.394 4.458h-4.041v-4.458h4.435zM150.406 118.432c-2.129.412-4.318.412-6.448 0 .096-.812.152-1.627.165-2.444h6.118c.014.817.069 1.632.165 2.444z" fill="#000"/><path d="M115.453 58.4266c.113 33.0577 14.273 59.7904 31.731 59.7904 17.457 0 31.615-26.7327 31.73-59.7904h-63.461z" fill="#00BAFC"/><path opacity=".1" d="M121.091 58.4266h-5.638c.113 33.0577 14.273 59.7904 31.731 59.7904.944-.002 1.887-.082 2.819-.239-16.138-2.696-28.805-28.2926-28.912-59.5514z" fill="#fff"/><path d="M164.009 156.134h-33.653v8.654h33.653v-8.654z" fill="#3F3D56"/><path opacity=".1" d="M131.929 157.314h32.08v-1.18h-33.653v8.654h1.573v-7.474z" fill="#fff"/><path d="M97.5053 90.3436c-.6058-.2019-4.1722-3.0236-4.4423-4.3007-.2701-1.2771 1.8855-13.1748 1.8855-13.1748s-.1993 0-.5245-.0393v-.1915l.4432-15.6294s1.8173-10.4895-1.6154-9.8784c-3.4327.611-1.2797 9.8784-1.2797 9.8784s-.3908 4.7046-.6661 6.1154c-.2623 1.361-1.4633 6.9047-.6451 8.6276a1.862 1.862 0 00.0996.1784s.1364 5.9134-1.3452 6.7211c-1.4135.7684-2.0009 4.6364-2.0507 4.9825l-.0761-.0314a4.1096 4.1096 0 01-1.0935-.9992c-.0315-.0393-.0551-.0812-.0839-.1232a5.7692 5.7692 0 00-.1548-7.833 5.816 5.816 0 00-1.6232-1.1854 3.724 3.724 0 00-.3488-1.4475c-.6818-1.4581-4.458-3.3645-7.1407-3.4091-1.2378-.0367-2.2527.3147-2.6224 1.2823-.1888.4904-.1311 1.049-.2098 1.5577-.1573 1.049-.8313 1.8698-1.6967 2.5228a10.63 10.63 0 00-1.1302-1.0883c-.8759-.6714-2.6224-2.8846-2.6224-2.8846s-5.4519-5.646-5.8558-7.1932c-.4038-1.5472-5.8505-10.8383-7.062-9.2203-1.2116 1.618 4.1722 8.6696 4.1722 8.6696s1.0227 2.562 1.8094 3.4274c.7867.8654 6.8182 9.6242 6.8182 9.6242l.2885.5979c-1.2745.6713-2.4389 1.5262-2.8506 2.8583-.6031 1.9616.7159 3.9336 1.6285 5.7693 1.778 3.5821 2.0324 8.1503-.2622 11.423-2.056 2.8899-5.6224 4.2638-8.9607 5.4648a8.8232 8.8232 0 005.6644 1.881c-.771 2.234-3.5035 2.973-5.8322 3.388 1.222 1.174 2.9711 1.602 4.6495 1.862.8219.139 1.6548.205 2.4886.196h.2045l.2046-.016c.2842-.018.5671-.054.847-.107 1.2116-.247 2.389-.907 3.0079-1.977.5245-.916.708-2.164 1.66-2.623.2478-.112.5149-.175.7867-.186h-.0289.5402l3.9677.039h.5061c1.1198-.026 2.3156-.22 2.8846-1.146.2341-.449.3573-.948.3593-1.455.0839-1.256 0-2.5489.0341-3.8155.3383 2.3051.6923 5.8975-.1495 7.2245a12.3186 12.3186 0 01-2.4598 2.667c-.2382.2-.456.423-.6503.666-.1285.092-.2046.142-.2046.142l-.0813.244a4.6073 4.6073 0 00-.6398 1.484 1.0293 1.0293 0 00-.0499.422c.0918.186-.6556.955-.4379 1.277-1.8671 2.19-2.2211 5.507-2.2211 5.507l-3.4091 5.177c-1.7518 4.602-4.3742 5.074-4.3742 5.074s-6.1599-4.133-6.3278-4.335c-.1678-.202-2.5227-1.211-2.5227-1.211a2.6721 2.6721 0 00-1.2115-1.107c-.8077-.336-.8759-1.573-.8759-1.573-.0997-2.924-1.8173-3.147-1.8173-3.147-1.3846-.118-2.4415.128-3.2544.579l-.2465.019a291.642 291.642 0 01-4.1958.309c-4.3767.289-5.4178 3.123-5.4178 3.123s-.5376.606.1678 1.262c.7054.655 5.2212 0 5.4126-.016a2.9409 2.9409 0 01-1.028-.071c.7107-.026 1.6888-.052 2.5227-.052h.202c-.0525.442-.0779.887-.0761 1.332 0 .839 2.3208 1.377 2.3208 1.377l7.0673 6.293s4.4423 1.986 7.2693 4.841c2.8269 2.856 5.326.391 5.326.391 2.9921-.739 11.6014-11.148 11.6093-11.158 0 .304.1809 10.426.5245 12.459.0136.103.0391.204.076.301.4039.874-.1364 3.26-.3697 4.267a11.8471 11.8471 0 00-.1705 2.554s-3.2282 12.325-2.9607 13.408c.2675 1.083-1.7491 6.116-1.7491 6.116v4.196l.3514-.019a2.3556 2.3556 0 00-.1259.21l-.0236.045s2.153.469 3.6006.335c1.4475-.133 3.9335 1.115 3.9335 1.115s.8418.398 3.4327.566c2.5909.168 2.5909-1.143 2.5909-1.143-.2963-1.786-4.3898-2.384-4.5157-2.402-.3304-.207-.6399-.433-.8942-.627l-.0525-.042c.0172-.039.0321-.08.0446-.121.4379-1.783-1.9851-2.556-1.9851-2.556v-.436c1.5734-.807 1.8854-6.351 1.8854-6.351s2.3602-6.855 2.6906-7.998c.3304-1.144 0-2.856 0-2.856l.236-1.479s.5061-1.007.5061-1.209c.0655-.512.2625-.998.5717-1.411.3698-.438-.4038-1.479-.4038-1.479l.6739-1.746v-1.917l1.5735-6.955s1.6494-8.1 1.0777-10.752c-.5716-2.651.674-3.999.674-3.999a3.3742 3.3742 0 01-.3462.158c.1575-.364.2932-.738.4065-1.118l3.5402.438v.053h1.2771s-.4038-4.983-.4038-6.991c0-2.009 1.361-9.2181 1.361-9.2181s.6058-7.0464 0-7.2483zm-15.7159-5.8164c0 .1967-.0184.4012-.0315.611l-.0708.1075-.1311-.1101-.16.2491-.0472.0236c-.3461-.1783-.5245-1.1984-.7736-.9782l-.0341.0289c-.055-.0629-.1101-.0813-.1678-.0289l-.0525.0446v-.2334c.4798.1235.9732.186 1.4686.1862.0026.0341 0 .0682 0 .0997zM93.5639 107.73h.076l-.1259.33c.0158-.11.0315-.217.0499-.33zm-12.9258 59.468l-.4825-.121.2623-.045.2439.16.0288.021-.0525-.015zm4.9301-.706c-.1599-.084-.3225-.181-.4799-.28.0525.028.2596.136.4799.28z" fill="url(#paint1_linear)"/><path d="M95.3051 102.776l-3.1757 8.276h.7709l-2.9868 2.382 5.3916.671v-11.329z" fill="#F86D70"/><path opacity=".1" d="M95.3051 102.776l-3.1757 8.276-.7999-.215-1.416 2.597 5.3916.671v-11.329z" fill="#000"/><path d="M90.3252 108.071h4.9799l1.8278-15.0394h-6.8077v15.0394z" fill="#F86D70"/><path opacity=".1" d="M90.3252 108.071h4.9799l1.8278-15.0394h-6.8077v15.0394z" fill="#000"/><path d="M80.5987 96.5927l1.0752-.181 2.4703-.4195s7.4187-1.6731 8.9502-1.8095a9.5656 9.5656 0 002.6853-.7657c.4012-.1731.6556-.3042.6556-.3042l-2.6722-4.8802-4.146-3.0735s-2.6224-.5585-3.7316-2.0848a2.4571 2.4571 0 01-.3436-2.3286c.6766-2.0979-4.0411 2.0061-4.0411 2.0061s.0446.9834 0 2.2369c0 .2465-.0236.5035-.0419.7657 0 .1731-.0236.3462-.042.5245-.1154 1.2456-.3514 2.528-.8182 3.2937-1.1407 1.8724 0 7.0201 0 7.0201z" fill="#FBBEBE"/><path opacity=".1" d="M81.5009 85.0936h.1049c.1888 0 .3409-.4012.5244-.4196 1.4764-.1416 2.8243-.451 3.7605-1.4974a2.4596 2.4596 0 01-.3435-2.326c.6766-2.0979-4.0411 2.0035-4.0411 2.0035s.0498.986-.0052 2.2395z" fill="#000"/><path d="M75.7579 79.1461a5.7452 5.7452 0 005.7482 5.7482c.1888 0 .375 0 .5612-.0262a5.7485 5.7485 0 004.9977-7.184 5.7479 5.7479 0 00-7.8869-3.7925 5.7486 5.7486 0 00-3.4202 5.2545z" fill="#FBBEBE"/><path d="M73.993 70.4215c-.1888.4877-.1311 1.0332-.2071 1.5498-.2806 1.8645-2.1766 2.9816-3.8916 3.7631-1.7151.7815-3.6504 1.7072-4.1958 3.5087-.5979 1.9484.708 3.9021 1.6153 5.7299 1.7675 3.5612 2.0193 8.1032-.2622 11.3601-2.0271 2.8847-5.5594 4.2539-8.8846 5.4549a8.7566 8.7566 0 005.625 1.872c-.7631 2.221-3.4773 2.958-5.7902 3.367 1.2141 1.17 2.9528 1.595 4.618 1.852 1.2142.188 2.4598.312 3.6713.068 1.2116-.244 2.3602-.902 2.9843-1.967.5245-.91.7028-2.15 1.6495-2.609a2.9845 2.9845 0 011.3452-.197l3.9336.042c1.2247 0 2.6748-.094 3.3068-1.141.2331-.447.3554-.943.3567-1.447.1704-2.5807-.3252-5.308.7369-7.6629.3199-.7106-1.7334-1.8356-1.5184-2.5882.7395-2.5883.9257-4.6259.9178-7.3191 0-2.0848 1.3558-3.8811 2.4756-5.6407 1.1197-1.7596 2.0559-3.9808 1.1722-5.8689-.9965-2.1058-8.4808-5.1661-9.6583-2.1267z" fill="#3F3D56"/><path d="M79.2299 166.443l1.0017.663.1548.102.0288.019 1.1879.786 2.7745.467 2.4388-.168s.7028-1.468-.4012-1.434a2.3002 2.3002 0 01-1.007-.291l-.1521-.076c-.16-.084-.3199-.179-.4773-.278-.3277-.207-.6372-.433-.8863-.624-.3671-.284-.611-.499-.611-.499l-4.0516 1.333z" fill="#FBBEBE"/><path opacity=".1" d="M80.2448 167.106l.1547.102.0288.019 1.188.786 2.7744.467 2.4388-.168s.7028-1.468-.4012-1.434a2.3002 2.3002 0 01-1.007-.291c.1941.152.3567.317.3724.456.0446.375-1.8042 1.049-1.8042 1.049l-2.6066-.69s-.4432-.126-1.049-.283l-.0577-.016-.0314.003z" fill="#000"/><path d="M75.7867 167.746s2.1373.466 3.5743.333c1.4371-.134 3.9126 1.104 3.9126 1.104s.8365.393 3.4091.561c2.5725.168 2.5725-1.138 2.5725-1.138-.2937-1.776-4.3583-2.36-4.4842-2.387.0498.027.2622.134.4773.278.2884.189.6005.436.6241.635.0446.372-1.8042 1.049-1.8042 1.049l-2.6067-.687s-.4431-.129-1.0489-.286h-.0577a22.3152 22.3152 0 00-2.7325-.564c-1.1224-.12-1.6967.834-1.8147 1.049a.3247.3247 0 00-.021.053z" fill="#3F3D56"/><path d="M42.0996 120.587l1.1355.871s.3304-.016.8234-.031h.1574c.7054-.027 1.6783-.053 2.5044-.053a7.9779 7.9779 0 011.597.089c.5664.2 1.5734-3.241 1.5734-3.241l-1.1381-.262-.3776-.089-.2623-.063-.9257-.218-2.8059.32-1.972 1.269-.3095 1.408z" fill="#FBBEBE"/><path opacity=".1" d="M42.0996 120.587l1.1355.871s.3304-.016.8234-.031a.9988.9988 0 01-.5244-.47c-.7343-2.037 2.9082-2.908 2.9082-2.908l1.6967-.073.3304-.016h.2622l-.3776-.089-.2622-.063-.9257-.218-2.806.32-1.972 1.269-.2885 1.408z" fill="#000"/><path d="M39.8601 121.508c.6871.635 5.1871 0 5.3759-.016a2.8053 2.8053 0 01-1.0201-.071 1.1121 1.1121 0 01-.4571-.193 1.1227 1.1227 0 01-.3296-.37c-.7343-2.041 2.9082-2.909 2.9082-2.909l1.6967-.073.3278-.016 4.125-.178.1993-1.135s-1.3401.125-3.4432.293c-1.1827.097-2.6224.205-4.1775.307-4.3452.288-5.3785 3.108-5.3785 3.108s-.5271.603.1731 1.253z" fill="#3F3D56"/><path d="M90.3278 72.286c.0279.0622.0613.1219.0997.1783l1.0017 1.4685 2.6067.2623.0288-1.0332.4379-15.5455s1.8042-10.4266-1.6048-9.826c-3.4091.6005-1.2693 9.826-1.2693 9.826s-.3881 4.6783-.6608 6.0839c-.2649 1.3584-1.4528 6.8811-.6399 8.5857zM84.4773 110.898l.7421 1.269 1.66 2.84s3.0105 1.104 3.7814.262c.4222-.459.8785-2.061 1.1985-3.409.2622-1.091.4379-2.011.4379-2.011l-7.8199 1.049z" fill="#FBBEBE"/><path opacity=".1" d="M84.4773 110.898l.7421 1.269a.8733.8733 0 00.1259-.134c.8391-1.07 4.5341-.228 6.514-.16.2622-1.091.4379-2.011.4379-2.011l-7.8199 1.036zM46.7203 121.369a7.9779 7.9779 0 011.597.089c.5664.2 1.5734-3.241 1.5734-3.241l-1.5157-.357 4.125-.178.1993-1.135s-1.3401.125-3.4432.293c-.4346.25-.8223.574-1.146.957l-.0629.079c-.8785 1.078-1.2037 2.468-1.3269 3.493zM79.2299 166.443l1.1565.765c1.7255-.312 3.3016-.802 3.4877-1.573a.2539.2539 0 000-.037c-.3671-.283-.611-.498-.611-.498l-4.0332 1.343zM75.8103 167.701a40.1007 40.1007 0 004.5472-.488 22.5497 22.5497 0 00-2.7351-.569c-1.1198-.12-1.6941.834-1.8121 1.057z" fill="#000"/><path d="M46.8461 122.693c0 .837 2.3051 1.372 2.3051 1.372l7.0201 6.249s4.4109 1.972 7.2168 4.812c2.8059 2.84 5.2815.401 5.2815.401 2.9737-.734 11.5384-11.095 11.5384-11.095s.1993 11.832.6005 12.7c.4013.868-.1337 3.241-.3671 4.246a11.7956 11.7956 0 00-.1678 2.538s-3.2072 12.265-2.9397 13.335c.2675 1.07-1.7386 6.084-1.7386 6.084v4.177s7.854-.301 8.2867-2.071c.4327-1.771-1.9694-2.542-1.9694-2.542v-.435c1.5734-.802 1.8697-6.315 1.8697-6.315s2.3418-6.818 2.6749-7.953c.333-1.136 0-2.843 0-2.843l.2333-1.468s.5009-1.005.5009-1.204c.0655-.509.2615-.992.5691-1.403.3671-.435-.4013-1.471-.4013-1.471l.6688-1.739v-1.904l1.5734-6.917s1.639-8.056 1.0699-10.697c-.569-2.641.6687-3.976.6687-3.976-2.6827 1.406-4.0358-1.723-4.479-3.068-.1128-.346-.1678-.577-.1678-.577s-3.6845-1.358-7.1145-1.033a8.1604 8.1604 0 00-2.0429.433c-3.8103 1.371-4.4108 7.051-4.4108 7.051l-3.375 5.148c-1.7386 4.579-4.3453 5.045-4.3453 5.045s-6.1154-4.109-6.2937-4.311c-.1783-.202-2.507-1.203-2.507-1.203a2.651 2.651 0 00-1.2037-1.102c-.8024-.335-.868-1.573-.868-1.573-.0996-2.908-1.8042-3.147-1.8042-3.147-5.916-.493-5.882 5.622-5.882 6.456z" fill="#3F3D56"/><path d="M80.8689 106.353h3.6083V95.1583h-3.6083v11.1947z" fill="#F86D70"/><path opacity=".1" d="M80.8689 106.353h3.6083V95.1583h-3.6083v11.1947zM90.3252 72.2623a.155.155 0 000 .0236 1.152 1.152 0 00.0996.1783l1.0018 1.4686 2.6066.2622.0289-1.0332c-.813-.0629-2.6644-.2858-3.7369-.8995z" fill="#000"/><path d="M90.4275 72.4644s.1337 5.8793-1.3374 6.6818c-1.4712.8024-2.0429 4.9825-2.0429 4.9825s4.4581 2.9318 5.452 4.222c.9939 1.2902 3.2753 4.3637 2.8059 5.0979-.4694.7343 1.1381 4.0778 1.1381 4.0778s-2.9423 6.0156-2.2736 8.2896c.6687 2.273.7343 8.286.7343 8.286h1.2718s-.4012-4.945-.4012-6.951c0-2.007 1.3348-9.1578 1.3348-9.1578s.6032-7.0175 0-7.2168c-.6031-.1993-4.1434-3.0078-4.4108-4.2797-.2675-1.2718 1.8723-13.1119 1.8723-13.1119s-2.7403-.118-4.1433-.9204z" fill="#F86D70"/><path opacity=".1" d="M80.8007 94.1199a5.7214 5.7214 0 00.8733 2.292l2.4702-.4196s7.4187-1.6731 8.9502-1.8095a9.558 9.558 0 002.6853-.7657 11.8427 11.8427 0 00-3.3173-5.4414l-.9414-.8733a15.7743 15.7743 0 00-4.7465-3.034c.1101.0917 7.8933 6.7368 6.1888 8.0402-1.7046 1.3033-6.2937-1.8698-6.2937-1.8698l-5.2185-4.4843-.1889-.1625-.3015.4694c.1534.0631.3031.1349.4484.215a7.6784 7.6784 0 013.6713 4.5629c1.0726 3.6058-4.2797 3.2806-4.2797 3.2806z" fill="#000"/><path d="M79.1958 110.83s4.9458 2.74 6.1469 1.203c.2622-.338.8155-.485 1.5052-.524-.1128-.346-.1678-.577-.1678-.577s-3.6845-1.359-7.1145-1.033c-.2256.566-.3698.931-.3698.931z" fill="#444053"/><path d="M81.472 85.5972l5.4074 4.6521s4.5708 3.1835 6.2937 1.8697-6.1915-8.0428-6.1915-8.0428a15.9957 15.9957 0 014.7439 3.0262l.9415.8732c2.4755 2.2946 3.0341 2.2946 3.118 5.667.021.8313-.2623 2.0245-.4799 2.2395-.8025.7867-1.3637 6.5009-1.2404 7.1699.1232.668-1.4948 6.44-.9703 8.045.5245 1.605-6.5559-.802-7.7544.737-1.1984 1.539-6.1442-1.204-6.1442-1.204s2.7404-7.02 3.4091-7.487c.6687-.466 1.4711-4.0773 0-5.7478-1.4712-1.6704-1.6023-3.2753-1.6023-3.2753s5.3497.3304 4.2771-3.2754a7.5672 7.5672 0 00-4.1119-4.7779l.3042-.4694z" fill="#E8E8F0"/><path opacity=".1" d="M88.6888 97.4292s-2.0743 3.9098-4.757 4.9248c-.0865.032-.1704.06-.2622.087-2.8007.852 5.229-3.8003 5.0192-5.0118z" fill="#000"/><path d="M59.6801 62.8375s1.0017 2.5411 1.8042 3.4091c.8024.868 6.75 9.5586 6.75 9.5586l.5035 1.0489.4327.8942 3.8103-.4012.2622-1.5367-.1468-.1783c-.3829-.4589-1.4266-1.6914-2.1268-2.229-.868-.6661-2.6066-2.8715-2.6066-2.8715s-5.4126-5.6172-5.8139-7.1539c-.4012-1.5367-5.8164-10.7517-7.0174-9.1573-1.2011 1.5944 4.1486 8.6171 4.1486 8.6171z" fill="#FBBEBE"/><g opacity=".1" fill="#000"><path opacity=".1" d="M70.736 104.174a2.9972 2.9972 0 00-1.3452.194c-.9441.459-1.1224 1.699-1.6469 2.609-.6136 1.065-1.7832 1.723-2.9869 1.967-.2392.047-.4809.08-.7238.1.7667.074 1.54.041 2.2972-.1 1.2037-.244 2.3733-.902 2.9869-1.967.5245-.91.7028-2.15 1.6469-2.609.2479-.111.515-.174.7867-.183l-1.0149-.011zM80.0508 84.0578c0-2.0847 1.3557-3.8811 2.4729-5.6407 1.1171-1.7596 2.0559-3.9808 1.1722-5.8689-.7553-1.6127-5.3077-3.7762-7.9354-3.3487 2.5726.333 5.7431 2.027 6.3619 3.3487.8838 1.8881-.055 4.1093-1.1722 5.8689-1.1171 1.7596-2.4781 3.556-2.4729 5.6407 0 2.6906-.1809 4.7203-.9204 7.3191-.2124.7474 1.8356 1.8776 1.5209 2.5857-1.0646 2.3601-.5664 5.0821-.7368 7.6624-.0036.504-.1267 1-.3593 1.448-.5245.862-1.5997 1.085-2.646 1.133h.9152c1.222 0 2.6722-.095 3.3042-1.141.2326-.447.3557-.944.3593-1.448.1704-2.5801-.3278-5.3048.7369-7.6623.3199-.708-1.7334-1.8357-1.521-2.5857.7395-2.5804.9257-4.6206.9205-7.3112z"/></g><path opacity=".1" d="M68.7378 76.8489l.4327.8942 3.8103-.4012.2622-1.5367-.1468-.1784c-.4065.1993-3.4511 1.6652-4.3584 1.2221z" fill="#000"/><path opacity=".1" d="M82.8069 86.9004s-.9362-1.4685-1.4712-1.0699c-.535.3986-.7421-1.2037-1.0489-.9362-.3069.2675-1.2011 1.0123-1.5735-.0288-.2911-.8287-3.4589-6.0708-4.7439-8.1792-.3304-.5455-.5375-.8811-.5375-.8811s-3.6084 1.8042-4.4764 1.2036v1.2693l.7342.0682 3.9336 7.3426s1.2378 1.9694 1.1538 2.6565c-.0839.687 1.5866 3.6949 1.8541 3.8942.2674.1993 3.1468 3.5428 3.1468 3.5428s1.4712 7.2196.1993 9.2256c-1.2718 2.006-3.4746 3.475-3.4746 3.475s-.6635 1.938-.5665 2.139c.0971.202-.7709 1.07-.3697 1.338.4012.267.9362 2.137.9362 2.137s1.8723-3.008 2.8846-3.475c1.0122-.466 2.3077-6.618 2.3077-6.618s.3697-3.625.3986-5.9637c.0288-2.3392-.0892-11.1399.7133-11.1399z" fill="#000"/><path d="M82.6049 86.9005s-.9335-1.4686-1.4685-1.07c-.535.3986-.7448-1.2037-1.0489-.9362-.3042.2675-1.1985 1.0123-1.5735-.0288-.2937-.8287-3.4615-6.0708-4.7439-8.1792l-.5375-.8811s-3.6084 1.8042-4.4791 1.2036v1.2693l.7369.0682 3.9336 7.3426s1.2404 1.9694 1.1538 2.6565c-.0865.687 1.5735 3.6949 1.8541 3.8942.2805.1993 3.1468 3.5428 3.1468 3.5428s1.4712 7.2196.2019 9.2256a12.2784 12.2784 0 01-2.4204 2.68 4.6757 4.6757 0 00-1.5734 2.523.9926.9926 0 00-.0472.419c.097.2-.771 1.07-.3698 1.338.4012.267.9414 2.145.9414 2.145s1.8724-3.008 2.8846-3.475c1.0123-.467 2.3104-6.619 2.3104-6.619s.3671-3.624.3986-5.963c.0314-2.3391-.0866-11.1555.7001-11.1555z" fill="#F86D70"/><path opacity=".1" d="M73.4475 117.315s2.8086.524 3.9336 1.335c1.125.81-4.2771-1.27-4.2771-1.27l.3435-.065zM80.2002 124.432s2.9292 2.441 2.4047 4.647c-.5245 2.205-1.8776 7.754-1.8776 7.754l-.5271-12.401zM54.5822 119.738s-4.1276.451-3.8601.986c.2674.535 3.8601-.493 3.8601-.493v-.493zM86.2762 140.04s.2622.333-1.2692 0c-1.5315-.333-.4013-1.361-.4013-1.361l1.6705 1.361zM85.7518 144.653s-2.0979.333-3.2229 0c-1.1251-.333 3.2229 0 3.2229 0zM81.4353 162.7s-.3671-.401-2.2054.333c-1.8383.735-2.5725.769-3.1075.525-.535-.244 5.3129-.858 5.3129-.858zM83.4755 119.169l-2.6066 3.627s1.403-3.176 2.6066-3.627zM78.4091 85.8304s-.1128 1.2037-1.7937 1.6731c-1.681.4694-2.0009.8497-2.0009.8497M74.0402 77.1058s-2.2186 1.5735-4.5341 1.2404l4.5341-1.2404zM75.729 110.796s.6478.406 2.2028-1.372l-2.2028 1.372zM91.8803 91.9433c.0629-.3252-.1626-.6268-.375-.8812l-.4354-.5244a2.0093 2.0093 0 00-.2858-.2937c-.2622-.202-.5979-.2623-.8706-.4432" fill="#000"/><path opacity=".1" d="M232.681.5246s-22.078-1.3322-19.482 14.1399c0 0-.524 2.7351 1.962 3.9755 0 0 .039-1.146 2.266-.7553a10.347 10.347 0 002.399.1154 4.9984 4.9984 0 002.932-1.2115s6.207-2.5647 8.62-12.708c0 0 1.786-2.2133 1.715-2.7824L229.366 2.89s1.275 2.688.263 4.9222c0 0-.121-4.8252-.837-4.7203-.144.0236-1.935.931-1.935.931s2.189 4.6809.537 8.0847c0 0 .627-5.7692-1.222-7.7465l-2.622 1.5315s2.559 4.8357.823 8.7824c0 0 .446-6.0525-1.376-8.41l-2.376 1.854s2.404 4.7675.938 8.0402c0 0-.191-7.0463-1.452-7.5786 0 0-2.08 1.8356-2.397 2.5856 0 0 1.647 3.4615.624 5.2867 0 0-.627-4.694-1.141-4.7203 0 0-2.071 3.1102-2.287 5.2448 0 0 .09-3.1705 1.786-5.5385 0 0-2.003.3436-3.173 1.6416 0 0 .323-2.1975 3.685-2.3889 0 0 1.712-2.3602 2.168-2.5044 0 0-3.341-.278-5.368.6189 0 0 1.784-2.0743 5.982-1.1303l2.347-1.917s-4.4-.6005-6.267.063c0 0 2.147-1.8357 6.899-.4982l2.554-1.5263s-3.752-.8077-5.987-.5244c0 0 2.361-1.2719 6.737.1075l1.836-.8208s-2.748-.5402-3.553-.6268c-.805-.0865-.847-.3068-.847-.3068a9.531 9.531 0 015.163.5743s3.881-1.4318 3.813-1.6757zM205.45 4.4608s-9.965-.6031-8.798 6.3881c0 0-.233 1.2378.884 1.799 0 0 .018-.5245 1.025-.3436.358.0602.721.0778 1.083.0525.49-.0333.955-.2258 1.325-.5481 0 0 2.806-1.1565 3.896-5.7404 0 0 .805-1.0017.774-1.2587l-1.684.7185s.577 1.2168.124 2.2264c0 0-.055-2.1818-.378-2.1294-.065 0-.876.4196-.876.4196s.991 2.1163.244 3.6556c0 0 .283-2.6066-.553-3.5009l-1.186.6924s1.16 2.1844.373 3.9676c0 0 .202-2.7351-.622-3.7998l-1.072.847s1.085 2.1556.425 3.632c0 0-.087-3.1836-.659-3.4222 0 0-.938.8287-1.083 1.1696 0 0 .745 1.5734.284 2.3864 0 0-.284-2.1215-.525-2.1294 0 0-.933 1.4056-1.033 2.3601a5.125 5.125 0 01.808-2.5044 2.8218 2.8218 0 00-1.435.7422s.147-.9913 1.665-1.0804c0 0 .787-1.0647.981-1.1303 0 0-1.51-.1258-2.426.2806 0 0 .805-.9388 2.704-.5245l1.049-.8654s-1.988-.2622-2.832.0289c0 0 .97-.8287 3.118-.2255l1.154-.6897s-1.694-.3671-2.707-.2334c0 0 1.068-.577 3.045.0472l.826-.3697s-1.243-.2466-1.607-.2833c-.365-.0367-.383-.139-.383-.139a4.2992 4.2992 0 012.334.2623s1.77-.6478 1.738-.7579z" fill="#00BAFC"/><path d="M240.26 171.15c5.823 0 10.544-.799 10.544-1.784 0-.984-4.721-1.783-10.544-1.783-5.824 0-10.545.799-10.545 1.783 0 .985 4.721 1.784 10.545 1.784z" fill="#00BAFC"/><path d="M244.621 166.45a3.058 3.058 0 001.004-1.518c.131-.601-.126-1.311-.703-1.545-.645-.246-1.335.202-1.856.653-.522.451-1.123.968-1.805.871.352-.319.615-.724.763-1.175.149-.45.179-.932.087-1.398-.03-.192-.111-.374-.236-.524-.359-.383-1.007-.22-1.437.081-1.364.96-1.744 2.814-1.752 4.479-.136-.6-.021-1.227-.023-1.835-.003-.609-.173-1.312-.695-1.634a2.0842 2.0842 0 00-1.049-.247c-.611-.023-1.296.04-1.713.488-.524.556-.385 1.49.066 2.098.451.608 1.141.999 1.775 1.421.508.303.941.716 1.267 1.209.039.069.071.142.094.218h3.845c.859-.438 1.656-.99 2.368-1.642z" fill="#00BAFC"/></g><defs><linearGradient id="paint0_linear" x1="212.022" y1="132.908" x2="212.022" y2="27.4093" gradientUnits="userSpaceOnUse"><stop stop-color="gray" stop-opacity=".25"/><stop offset=".54" stop-color="gray" stop-opacity=".12"/><stop offset="1" stop-color="gray" stop-opacity=".1"/></linearGradient><linearGradient id="paint1_linear" x1="10450.5" y1="65713.3" x2="23402.9" y2="65713.3" gradientUnits="userSpaceOnUse"><stop stop-color="gray" stop-opacity=".25"/><stop offset=".54" stop-color="gray" stop-opacity=".12"/><stop offset="1" stop-color="gray" stop-opacity=".1"/></linearGradient><clipPath id="clip0"><path fill="#fff" transform="translate(0 .4957)" d="M0 0h300v171.115H0z"/></clipPath></defs></svg>