<svg width="300" height="278" fill="none" xmlns="http://www.w3.org/2000/svg"><g clip-path="url(#clip0)"><path d="M18.1829 22.1398A18.2036 18.2036 0 000 40.3227V249.8a18.2016 18.2016 0 005.3318 12.851 18.2008 18.2008 0 0012.8511 5.332H171.85a18.2046 18.2046 0 0012.851-5.332 18.2028 18.2028 0 005.332-12.851V40.3227a18.2052 18.2052 0 00-5.332-12.8512 18.2034 18.2034 0 00-12.851-5.3317H18.1829z" fill="#3F3D56"/><path d="M180.577 35.0546H9.4555V255.068H180.577V35.0546z" fill="#fff"/><path d="M158.207 74.491H31.8259v8.3024H158.207V74.491zM158.207 96.6307H31.8259v8.3023H158.207v-8.3023zM158.207 118.77H31.8259v8.303H158.207v-8.303zM158.207 140.91H31.8259v8.303H158.207v-8.303zM158.207 163.05H31.8259v8.302H158.207v-8.302zM158.207 185.19H31.8259v8.302H158.207v-8.302zM158.207 207.329H31.8259v8.303H158.207v-8.303z" fill="#00BAFC"/><path d="M159.986 21.1041L34.6673 44.0377 64.1534 205.162l125.3186-22.934-29.486-161.1239z" fill="#E6E6E6"/><path d="M148.889 52.9828L56.3352 69.9203l1.1127 6.0801 92.5531-16.9375-1.112-6.0801zM151.856 69.1965L59.3023 86.134l1.1127 6.0802 92.553-16.9375-1.112-6.0802zM154.823 85.4103L62.2695 102.348l1.1127 6.08 92.5528-16.9376-1.112-6.0801zM157.79 101.624l-92.5534 16.938 1.1127 6.08 92.5537-16.938-1.113-6.08zM160.756 117.838l-92.5533 16.937 1.1127 6.08 92.5526-16.937-1.112-6.08zM163.724 134.051l-92.553 16.938 1.1126 6.08 92.5534-16.937-1.113-6.081zM166.691 150.265l-92.5529 16.938 1.1127 6.08 92.5532-16.938-1.113-6.08z" fill="#00BAFC"/><path d="M248.688 197.361l-35.459 6.489 8.343 45.591 35.459-6.489-8.343-45.591z" fill="#E6E6E6"/><path d="M245.548 206.381l-26.188 4.793.315 1.72 26.188-4.792-.315-1.721zM246.388 210.969l-26.189 4.793.315 1.72 26.189-4.792-.315-1.721zM247.227 215.557l-26.188 4.792.315 1.721 26.188-4.793-.315-1.72zM248.067 220.145l-26.188 4.792.314 1.721 26.189-4.793-.315-1.72zM248.906 224.732l-26.188 4.793.315 1.72 26.188-4.792-.315-1.721zM249.746 229.32l-26.188 4.793.315 1.72 26.188-4.792-.315-1.721zM250.586 233.908l-26.189 4.792.315 1.721 26.188-4.793-.314-1.72z" fill="#fff"/><path d="M126.701 11.5311h-15.08v-3.087a8.442 8.442 0 00-2.473-5.9709A8.4443 8.4443 0 00103.177 0H86.8556a8.4439 8.4439 0 00-8.444 8.444v3.0871H63.3321a8.4433 8.4433 0 00-5.9708 2.4732 8.4431 8.4431 0 00-2.4732 5.9708V43.357h80.2569V19.9751a8.4416 8.4416 0 00-2.474-5.9708 8.4453 8.4453 0 00-2.739-1.8304 8.4465 8.4465 0 00-3.231-.6428zM89.6033 239.069c2.4932-1.706 5.0557-3.481 8.0164-4.256 2.7013-.708 5.8033-.521 7.9393 1.457 1.725 1.596 2.453 4.05 1.175 6.15-.274.479-.646.894-1.093 1.219a3.911 3.911 0 01-1.496.665c-.522.068-1.053.004-1.543-.187-.49-.192-.924-.505-1.261-.909-.67-.74-1.071-1.834-.715-2.81.375-1.026 1.376-1.653 2.359-2.003 1.145-.363 2.324-.606 3.518-.727l4.893-.67 20.025-2.741 22.302-3.053a.6974.6974 0 00.483-.851.7113.7113 0 00-.329-.412.7093.7093 0 00-.522-.072l-44.375 6.075c-1.605.22-3.233.377-4.821.7a8.1048 8.1048 0 00-3.462 1.438c-2.1256 1.683-1.9737 4.66-.018 6.42 1.981 1.783 4.852 1.476 6.59-.493a5.977 5.977 0 001.482-3.582 5.9773 5.9773 0 00-1.029-3.739c-1.897-2.86-5.354-3.959-8.6567-3.553-3.8197.469-7.058 2.616-10.1604 4.739-.7304.5-.0391 1.7.6984 1.195z" fill="#3F3D56"/><path d="M245.308 187.788l.462 4.613s-2.768 10.147 3.228 10.147 1.384-10.147 1.384-10.147l.461-3.69-5.535-.923zM287.203 172.421l-2.116 4.125s-7.833 7.02-2.797 10.274c5.036 3.255 6.67-7.771 6.67-7.771l2.391-2.848-4.148-3.78z" fill="#A0616A"/><path d="M252.688 191.939l6.458 43.819 3.228 31.364s2.768 6.919 11.993.923l-1.384-17.989-.923-16.143s-.922-15.683-1.844-18.45c-.923-2.768.461-11.992.461-11.992l3.69-15.221-21.679 3.689z" fill="#2F2E41"/><path d="M263.297 266.2l-3.69 4.151s-5.535-1.845-6.919 1.845c-1.383 3.69 10.609 4.612 10.609 4.612s12.453.923 12.453 0c0-.922-.333-7.977-2.011-8.37-1.678-.393-10.442-2.238-10.442-2.238zM270.215 189.633l6.458 46.125 3.229 31.364s2.767 6.919 11.992.923l-1.384-17.989-.922-16.143s-.923-15.683-1.845-18.45c-.923-2.768.461-11.992.461-11.992l-.922-17.066-17.067 3.228z" fill="#2F2E41"/><path d="M280.824 266.2l-3.69 4.151s-5.535-1.845-6.918 1.845c-1.384 3.69 10.608 4.612 10.608 4.612s12.454.923 12.454 0c0-.922-.334-7.977-2.012-8.37-1.678-.393-10.442-2.238-10.442-2.238z" fill="#2F2E41"/><path d="M256.378 116.757c5.35 0 9.686-4.337 9.686-9.686 0-5.35-4.336-9.6866-9.686-9.6866-5.349 0-9.686 4.3366-9.686 9.6866 0 5.349 4.337 9.686 9.686 9.686z" fill="#A0616A"/><path d="M263.527 111.452l4.152 6.919-10.609 4.612-1.384-8.302 7.841-3.229z" fill="#A0616A"/><path d="M268.832 117.679s-9.686-.922-13.376 5.074l-9.104 6.919a5.2448 5.2448 0 00-1.669 2.16c-.356.855-.48 1.789-.358 2.707l7.902 59.707 11.531-.462 18.911-3.69 5.535-1.383-2.767-24.446s-3.229-9.686.461-16.144l-1.845-22.601-12.915-5.073-2.306-2.768z" fill="#575A89"/><path d="M247.153 131.517l-.692-1.154s-.922 0-.922 1.845-1.614 41.743-1.614 41.743l-.462 15.221 8.764.923 3.229-28.598-1.384-18.911-6.919-11.069zM277.595 124.598l6.458.922a42.8564 42.8564 0 016.457 8.764c2.768 5.074 11.07 14.76 9.225 22.14-1.845 7.38-7.38 20.756-7.38 20.756l-8.763-3.69s6.918-16.144 6.457-17.527c-.461-1.384-5.996-9.687-5.996-9.687l-6.458-21.678z" fill="#575A89"/><path d="M249.69 101.766s-7.841-.461-2.767-5.5347c0 0 4.151-1.845 5.996-.9225 0 0 2.767-1.845 2.767-.9225 0 0 9.686-2.7674 11.07 6.9187 1.384 9.686-.922 14.299-.922 14.299l-6.458-.462s1.384-7.841-3.69-6.918c0 0-4.151 1.383-4.612 0-.461-1.384-1.384-6.458-1.384-6.458z" fill="#2F2E41"/><path opacity=".2" d="M253.38 189.403l4.151-27.675-2.767-17.066.922 18.563-2.767 26.178h.461z" fill="#000"/></g><defs><clipPath id="clip0"><path fill="#fff" d="M0 0h300v278H0z"/></clipPath></defs></svg>