<svg width="300" height="260" fill="none" xmlns="http://www.w3.org/2000/svg"><g clip-path="url(#clip0)"><path d="M163.752 72.6947c15.256 0 27.623-12.3674 27.623-27.6234s-12.367-27.6234-27.623-27.6234-27.624 12.3674-27.624 27.6234 12.368 27.6234 27.624 27.6234z" fill="#A0616A"/><path d="M143.134 58.8831s5.204 39.2333-2.802 43.6369c-8.007 4.404 47.64 4.804 47.64 4.804s-12.41-34.0287-6.806-44.4376l-38.032-4.0033z" fill="#A0616A"/><path d="M228.606 107.523l-4.628 21.073-9.785 44.585-.293 2.442-3.377 28.267-2.247 18.779-1.506 12.614c-9.158 4.707-15.796 7.956-15.796 7.956s-.571-2.862-1.491-6.525c-6.428 1.927-18.32 5.124-28.399 5.763 3.67 4.09 5.357 7.933 3.069 10.769-6.904 8.55-35.408-9.361-45.378-16.04-.232 1.599-.32 3.216-.263 4.831l-7.629-5.867.755-13.501 1.273-22.843 1.601-28.647a29.9205 29.9205 0 01-1.266-3.767c-2.337-8.31-5.173-24.902-7.348-38.816-1.75-11.198-3.065-20.66-3.343-22.674-.038-.263-.056-.398-.056-.398l42.233-18.6619c3.002 6.9607 17.017 9.053 17.017 9.053 11.611-.8001 20.713-6.9231 20.713-6.9231l46.144 18.531z" fill="#D0CDE1"/><path d="M194.178 235.234s-1.788.612-4.695 1.48c-6.428 1.927-18.32 5.124-28.399 5.762-8.677.556-16.01-.781-17.351-6.442-.575-2.434.24-4.436 2.017-6.081 5.304-4.918 19.158-6.679 30.146-7.284 3.102-.169 5.972-.248 8.362-.278 4.056-.053 6.716.03 6.716.03l.064.248 3.14 12.565z" fill="#A0616A"/><path d="M140.771 18.942l-5.164-2.0677s10.799-11.8894 25.824-10.8555l-4.226-4.6525s10.33-4.1354 19.721 6.7201c4.936 5.7065 10.648 12.4143 14.208 19.9704h5.532l-2.309 5.0832 8.08 5.0831-8.293-.913a28.41 28.41 0 01.225 8.4313 10.9088 10.9088 0 01-3.995 7.1365s-6.405-13.2586-6.405-15.3264v5.1694s-5.165-4.6524-5.165-7.754l-2.817 3.6185-1.409-5.6862-17.373 5.6862 2.817-4.6523-10.799 1.5508 4.226-5.6863s-12.208 6.7201-12.678 12.4064c-.469 5.6862-4.042 11.0742-4.042 11.0742s-9.574-26.5822 4.042-34.3362z" fill="#2F2E41"/><path d="M258.631 204.405c-2.813 3.05-9.785 7.644-18.237 12.618-3.144 1.848-6.491 3.753-9.906 5.646-8.148 4.519-16.679 8.996-23.718 12.614-9.158 4.707-15.796 7.956-15.796 7.956s-.571-2.862-1.491-6.525c-1.232-4.902-3.088-11.239-5.023-14.045-.067-.098-.135-.188-.202-.278-.564-.74-1.131-1.172-1.691-1.172l27.956-17.329 12.08-7.49-8.703-20.777-10.917-26.062 6.589-20.965 6.623-21.074h12.411s4.11 8.971 9.365 21.48c.785 1.871 1.596 3.82 2.423 5.834 10.811 26.295 24.289 63.014 18.237 69.569z" fill="#D0CDE1"/><path d="M164.153 253.246c-6.904 8.55-35.408-9.361-45.378-16.04-2.171-1.453-3.463-2.374-3.463-2.374l9.12-12.163 2.889-3.851s2.585 1.372 6.405 3.603c.139.083.278.165.421.248 3.294 1.934 7.43 4.463 11.603 7.284 5.759 3.895 11.581 8.339 15.334 12.524 3.67 4.09 5.357 7.933 3.069 10.769z" fill="#A0616A"/><path d="M133.726 222.421c-1.02-.004-2.038.079-3.043.248-8.636 1.484-11.183 9.301-11.908 14.537-.232 1.6-.32 3.216-.263 4.831l-7.629-5.867-2.78-2.138c-6.69-2.333-12.6516-6.476-17.8205-11.363a89.6183 89.6183 0 01-12.0019-14.233 125.5537 125.5537 0 01-9.2859-15.928 11.7088 11.7088 0 01-1.1865-4.949 11.711 11.711 0 011.025-4.986l9.4474-21.055 13.8087-30.773c.1015-.733.2129-1.449.3343-2.149 2.7385-15.702 10.0744-22.674 10.0744-22.674h5.605l3.749 22.674 4.658 28.17-3.264 10.646-7.543 24.586 7.208 7.828 20.815 22.595z" fill="#D0CDE1"/><path d="M140.069 156.788l4.791 5.59c1.78-.339 3.639-.738 5.554-1.186l-1.376-4.404 3.365 3.926c20.284-4.989 45.425-14.688 45.425-14.688s-27.143 1.99-47.409-2.438c-8.967-1.959-18.193 2.486-21.873 10.895-2.138 4.887-1.803 9.122 5.783 9.122 2.563-.044 5.119-.285 7.645-.72l-1.905-6.097z" fill="#00BAFC"/><path d="M249.297 248.663v2.281c.001.625-.115 1.246-.342 1.829-.101.26-.223.511-.365.751a5.0422 5.0422 0 01-1.843 1.806c-.761.432-1.621.659-2.495.659H76.5076a5.0521 5.0521 0 01-2.4951-.659 5.0446 5.0446 0 01-1.8436-1.806 5.1196 5.1196 0 01-.3643-.751 5.0109 5.0109 0 01-.3419-1.829v-2.281a5.04 5.04 0 01.3837-1.93 5.0305 5.0305 0 011.0936-1.637 5.0366 5.0366 0 013.5676-1.477h9.6691v-1.064a.2095.2095 0 01.0615-.148.212.212 0 01.0683-.046.203.203 0 01.0806-.016h5.0449a.21.21 0 01.1488.062.1972.1972 0 01.0456.068c.0106.025.016.053.0159.08v1.064h3.1517v-1.064a.2076.2076 0 01.0615-.148.211.211 0 01.0683-.046.2027.2027 0 01.0806-.016h5.0446c.028 0 .055.005.081.016.025.011.049.026.068.046.02.019.035.042.046.068.01.025.016.053.016.08v1.064h3.155v-1.064c0-.027.005-.055.016-.08a.1996.1996 0 01.046-.068c.019-.02.042-.035.068-.046a.2006.2006 0 01.08-.016h5.045c.028 0 .055.005.081.016.025.011.049.026.068.046.02.019.035.042.046.068.01.025.016.053.016.08v1.064h3.151v-1.064c0-.027.006-.055.016-.08a.1996.1996 0 01.046-.068c.019-.02.043-.035.068-.046a.2054.2054 0 01.081-.016h5.045c.027 0 .055.005.08.016.026.011.049.026.068.046.02.019.035.042.046.068.011.025.016.053.016.08v1.064h3.152v-1.064c0-.027.005-.055.016-.08a.197.197 0 01.045-.068.221.221 0 01.068-.046.2054.2054 0 01.081-.016h5.045c.028 0 .055.005.08.016a.214.214 0 01.069.046.197.197 0 01.045.068c.011.025.016.053.016.08v1.064h3.156v-1.064c0-.027.005-.055.016-.08a.197.197 0 01.045-.068.221.221 0 01.068-.046.2054.2054 0 01.081-.016h5.045c.028 0 .055.005.08.016a.214.214 0 01.069.046.197.197 0 01.045.068c.011.025.016.053.016.08v1.064h3.152v-1.064c0-.027.005-.055.016-.08a.197.197 0 01.045-.068.214.214 0 01.069-.046.2006.2006 0 01.08-.016h39.518c.028 0 .055.005.081.016a.221.221 0 01.068.046c.02.019.035.042.046.068.01.025.016.053.015.08v1.064h3.156v-1.064c0-.027.005-.055.016-.08a.197.197 0 01.045-.068.214.214 0 01.069-.046.2006.2006 0 01.08-.016h5.045a.214.214 0 01.148.062c.04.04.062.093.063.148v1.064h3.151v-1.064c0-.027.006-.055.016-.08a.1996.1996 0 01.046-.068c.019-.02.042-.035.068-.046a.2054.2054 0 01.081-.016h5.044c.028 0 .056.005.081.016.026.011.049.026.068.046.02.019.035.042.046.068.01.025.016.053.016.08v1.064h3.152v-1.064a.1996.1996 0 01.015-.08.1996.1996 0 01.046-.068.221.221 0 01.068-.046.2054.2054 0 01.081-.016h5.045c.027 0 .055.005.08.016a.214.214 0 01.069.046.197.197 0 01.045.068c.011.025.016.053.016.08v1.064h3.156v-1.064c0-.027.005-.055.015-.08a.215.215 0 01.114-.114.2054.2054 0 01.081-.016h5.045a.206.206 0 01.146.063c.039.039.061.092.06.147v1.064h3.156v-1.064c0-.027.005-.055.016-.08a.197.197 0 01.045-.068.214.214 0 01.069-.046.2006.2006 0 01.08-.016h5.045c.028 0 .055.005.081.016a.221.221 0 01.068.046c.02.019.035.042.046.068.01.025.016.053.015.08v1.064h3.152v-1.064c0-.027.006-.055.016-.08a.1996.1996 0 01.046-.068c.019-.02.042-.035.068-.046a.2006.2006 0 01.08-.016h5.045c.028 0 .055.005.081.016.026.011.049.026.068.046.02.019.035.042.046.068.01.025.016.053.016.08v1.064h14.714c.662-.001 1.318.13 1.931.383a5.038 5.038 0 011.636 1.094c.469.468.841 1.024 1.094 1.637.253.612.384 1.268.384 1.93z" fill="#3F3D56"/><path d="M298.074 252.773H22.7266v.751H298.074v-.751zM235.79 152.638h-62.523v-1.289h-28.351v1.289H82.135a4.2291 4.2291 0 00-2.9905 1.238 4.2314 4.2314 0 00-1.2387 2.991v85.614a4.23 4.23 0 004.2292 4.229H235.79c1.122 0 2.197-.446 2.991-1.239a4.2288 4.2288 0 001.238-2.99v-85.614a4.2339 4.2339 0 00-1.238-2.991 4.2339 4.2339 0 00-2.991-1.238z" fill="#3F3D56"/><path d="M159.086 191.919c5.186 0 9.391-4.205 9.391-9.392 0-5.186-4.205-9.391-9.391-9.391-5.187 0-9.392 4.205-9.392 9.391 0 5.187 4.205 9.392 9.392 9.392z" stroke="#D0CDE1" stroke-width="2" stroke-miterlimit="10"/><path d="M156.08 195.299c5.187 0 9.392-4.204 9.392-9.391 0-5.186-4.205-9.391-9.392-9.391-5.186 0-9.391 4.205-9.391 9.391 0 5.187 4.205 9.391 9.391 9.391zM40.7372 248.978H30.2191v10.518h10.5181v-10.518z" fill="#D0CDE1"/><path d="M34.3527 240.714v12.772h12.7719v-12.772H34.3527zm12.216 12.216H34.9049v-11.66h11.6638v11.66z" fill="#3F3D56"/><path d="M284.155 248.978h-10.518v10.518h10.518v-10.518z" fill="#D0CDE1"/><path d="M277.77 240.714v12.772h12.772v-12.772H277.77zm12.216 12.216h-11.663v-11.66h11.663v11.66z" fill="#3F3D56"/><path d="M35.5285 87.0339c16.4602 0 29.8038-13.3436 29.8038-29.8038S51.9887 27.4263 35.5285 27.4263 5.7247 40.7699 5.7247 57.2301s13.3436 29.8038 29.8038 29.8038z" fill="#00BAFC"/><path d="M45.9147 21.8132a32.2136 32.2136 0 00-8.1283 0A31.6924 31.6924 0 0011.6358 43.868a31.2643 31.2643 0 00-1.3728 8.1373 33.0657 33.0657 0 00-.0226 1.1606A31.642 31.642 0 0041.8506 84.776a32.902 32.902 0 002.0095-.0633 31.2603 31.2603 0 004.6331-.6412 31.6144 31.6144 0 0018.3517-11.5544 31.6142 31.6142 0 00-20.9302-50.7039zm5.8298 60.4249H51.74a30.39 30.39 0 01-7.88 1.567 29.6375 29.6375 0 01-2.0095.0677 30.7444 30.7444 0 01-30.7069-30.7069c0-.3884.009-.7767.0225-1.1606a30.7491 30.7491 0 0130.6844-29.5464 30.7086 30.7086 0 019.894 59.7792z" fill="#3F3D56"/><path d="M42.3021 24.2651h-.9032v6.3221h.9032v-6.3221zM21.734 32.4107l-.6386.6386 4.4703 4.4704.6386-.6387-4.4703-4.4703zm-8.7842 20.3036v.9031h6.322v-.9031h-6.322zm8.1456 20.5681l.6386.6386 4.4703-4.4703-.6386-.6386-4.4703 4.4703zM57.4968 36.881l.6386.6387 4.4703-4.4704-.6386-.6386-4.4703 4.4703zm6.9324 15.8333v.9031h6.322v-.9031h-6.322zm-6.2939 16.0978l-.6386.6386 4.4703 4.4703.6387-.6386-4.4704-4.4703zm-15.8332 6.9324h-.9032v6.322h.9032v-6.322zm.9032-24.385a2.2582 2.2582 0 00-2.7095 0 2.3256 2.3256 0 00-.6457.7587 2.2576 2.2576 0 00.2099 2.4238 2.2584 2.2584 0 003.3964.2112 2.258 2.258 0 00-.2511-3.3937zm-1.3548 3.161a1.3585 1.3585 0 01-1.3547-1.3547 1.3795 1.3795 0 01.2394-.7677 1.3537 1.3537 0 011.8481-.3678 1.3536 1.3536 0 01-.0683 2.315 1.3537 1.3537 0 01-.6645.1752zm4.0642-40.6415h-8.1283v8.1283h8.1283V13.879z" fill="#3F3D56"/><path d="M41.8505 15.2337c5.9855 0 10.8377-1.7184 10.8377-3.8383S47.836 7.557 41.8505 7.557s-10.8377 1.7185-10.8377 3.8384c0 2.1199 4.8522 3.8383 10.8377 3.8383zm1.3547 20.7724h-2.7094v15.3535h2.7094V36.0061zm41.6905 47.394H0v.9032h84.8957v-.9032z" fill="#3F3D56"/><path d="M56.5697 225.887c.3505 12.002-6.6621 16.401-15.4628 16.658a31.329 31.329 0 01-.6105.011c-.4081.003-.8123-.004-1.2125-.021-7.9592-.33-14.2595-4.555-14.5854-15.717-.3374-11.551 13.9998-26.559 15.0755-27.669l.0019-.001c.0409-.043.0618-.064.0618-.064s16.3815 14.802 16.732 26.803z" fill="#D0CDE1"/><path d="M40.4734 240.726l5.5904-8.314-5.579 9.208.0116.936c-.4081.003-.8122-.004-1.2124-.021l.2772-12.025-.0076-.093.0103-.018.0265-1.136-6.1222-8.889 6.115 8.039.0217.24.2094-9.086-5.2879-9.215 5.303 7.619-.0554-18.822.0001-.063.0018.062.3511 14.835 4.8193-6.026-4.8036 7.304.1052 8.126 4.4348-7.931-4.4185 9.126.0586 4.519 6.4493-11.048-6.4297 12.624.131 10.049z" fill="#3F3D56"/><path d="M299.987 225.887c.351 12.002-6.662 16.401-15.462 16.658-.205.006-.408.009-.611.011-.408.003-.812-.004-1.212-.021-7.96-.33-14.26-4.555-14.586-15.717-.337-11.551 14-26.559 15.076-27.669l.002-.001c.04-.043.061-.064.061-.064s16.382 14.802 16.732 26.803z" fill="#D0CDE1"/><path d="M283.891 240.726l5.591-8.314-5.579 9.208.011.936c-.408.003-.812-.004-1.212-.021l.277-12.025-.008-.093.011-.018.026-1.136-6.122-8.889 6.115 8.039.022.24.209-9.086-5.288-9.215 5.303 7.619-.055-18.822v-.063l.002.062.351 14.835 4.819-6.026-4.804 7.304.106 8.126 4.434-7.931-4.418 9.126.058 4.519 6.45-11.048-6.43 12.624.131 10.049z" fill="#3F3D56"/></g><defs><clipPath id="clip0"><path fill="#fff" transform="translate(0 .593)" d="M0 0h300v258.903H0z"/></clipPath></defs></svg>