<svg width="300" height="233" fill="none" xmlns="http://www.w3.org/2000/svg"><g clip-path="url(#clip0)"><path opacity=".8" d="M273.693 221.077H15.5216V54.0952a5.2664 5.2664 0 015.2661-5.2661H268.427c1.397 0 2.736.5548 3.724 1.5424a5.2681 5.2681 0 011.542 3.7237V221.077z" fill="url(#paint0_linear)"/><path d="M24.3306 51.8621H264.867c1.397 0 2.736.5548 3.724 1.5424a5.2679 5.2679 0 011.542 3.7236V221.077H19.0779V57.1315a5.2663 5.2663 0 015.2527-5.2694z" fill="#fff"/><path d="M262.051 61.7075H27.1603V215.774H262.051V61.7075z" fill="#F5F5F5"/><path opacity=".8" d="M261.954 69.1868H28.0602V207.798H261.954V69.1868z" fill="#E0E0E0"/><path d="M261.954 61.821H28.0602v7.3659H261.954V61.821z" fill="#F5F5F5"/><path d="M33.0763 67.1804c.9867 0 1.7865-.7999 1.7865-1.7865 0-.9866-.7998-1.7865-1.7865-1.7865-.9866 0-1.7864.7999-1.7864 1.7865 0 .9866.7998 1.7865 1.7864 1.7865z" fill="#FF5252"/><path d="M37.9858 67.1804c.9866 0 1.7865-.7999 1.7865-1.7865 0-.9866-.7999-1.7865-1.7865-1.7865-.9867 0-1.7865.7999-1.7865 1.7865 0 .9866.7998 1.7865 1.7865 1.7865z" fill="#FF0"/><path d="M42.8986 67.1804c.9866 0 1.7865-.7999 1.7865-1.7865 0-.9866-.7999-1.7865-1.7865-1.7865-.9866 0-1.7865.7999-1.7865 1.7865 0 .9866.7999 1.7865 1.7865 1.7865z" fill="#69F0AE"/><path opacity=".8" d="M280.915 232.149c-14.371 1.09-261.1772.666-269.7996 0C-.19 226.699.0167 205.555.0167 205.555l113.1873-.756.38 6.436h48.435l1.893-5.667h125.433s2.493 19.385-8.43 26.581z" fill="url(#paint1_linear)"/><path d="M287.508 207.258H164.522c.473.548.78 1.221.882 1.938.102.717-.005 1.448-.307 2.107a3.7757 3.7757 0 01-1.397 1.606c-.611.39-1.32.597-2.045.595h-46.954a3.7803 3.7803 0 01-2.045-.595c-.61-.39-1.095-.948-1.397-1.606a3.7792 3.7792 0 01-.307-2.107c.102-.717.408-1.39.882-1.938H1.7031s-.19 18.361 10.9788 23.107c8.5158.567 252.3051.947 266.5001 0 10.802-6.262 8.326-23.107 8.326-23.107z" fill="#F5F5F5"/><path d="M27.257 212.748c.8357 0 1.5131-.678 1.5131-1.514 0-.835-.6774-1.513-1.5131-1.513-.8357 0-1.5132.678-1.5132 1.513 0 .836.6775 1.514 1.5132 1.514zM31.7998 212.748c.8357 0 1.5132-.678 1.5132-1.514 0-.835-.6775-1.513-1.5132-1.513-.8357 0-1.5132.678-1.5132 1.513 0 .836.6775 1.514 1.5132 1.514zM36.3393 212.748c.8357 0 1.5132-.678 1.5132-1.514 0-.835-.6775-1.513-1.5132-1.513-.8357 0-1.5132.678-1.5132 1.513 0 .836.6775 1.514 1.5132 1.514z" fill="#E0E0E0"/><path d="M139.944 125.88h10.729c12.331 0 24.158 4.899 32.877 13.618a46.4943 46.4943 0 0113.618 32.877v33.8H93.4496v-33.8a46.4955 46.4955 0 0113.6184-32.877 46.4944 46.4944 0 0132.876-13.618z" fill="#00BAFC"/><path d="M145.411 107.803c26.179 0 47.401-21.2228 47.401-47.4018 0-26.1791-21.222-47.4014-47.401-47.4014-26.18 0-47.4019 21.2223-47.4019 47.4014 0 26.179 21.2219 47.4018 47.4019 47.4018z" fill="#333"/><path opacity=".1" d="M138.431 112.075h13.709c2.563 0 5.022 1.019 6.834 2.831a9.6665 9.6665 0 012.831 6.835v9.419c0 3.919-1.557 7.678-4.328 10.45a14.782 14.782 0 01-10.45 4.328h-3.496a14.7784 14.7784 0 01-14.779-14.778v-9.406c0-2.563 1.019-5.022 2.831-6.834a9.6647 9.6647 0 016.835-2.831l.013-.014z" fill="#000"/><path d="M128.752 111.109h33.07v19.098c0 3.919-1.557 7.678-4.328 10.45a14.782 14.782 0 01-10.45 4.328h-3.513a14.7784 14.7784 0 01-14.779-14.778v-19.098z" fill="#FDB797"/><path opacity=".1" d="M128.812 115.878a47.592 47.592 0 0033.07.09v-4.059h-33.07v3.969z" fill="#000"/><path d="M145.411 118.091c26.179 0 47.401-21.222 47.401-47.401 0-26.1791-21.222-47.4014-47.401-47.4014-26.18 0-47.4019 21.2223-47.4019 47.4014 0 26.179 21.2219 47.401 47.4019 47.401z" fill="#FDB797"/><path opacity=".1" d="M100.092 53.9119h90.39s-7.716-36.4993-41.889-34.1895c-34.172 2.3097-48.501 34.1895-48.501 34.1895z" fill="#000"/><path d="M100.092 52.6853h90.39s-7.716-36.4993-41.889-34.1729c-34.172 2.3264-48.501 34.1729-48.501 34.1729z" fill="#333"/><path d="M98.989 76.9393c2.435 0 4.409-3.7022 4.409-8.2691s-1.974-8.2691-4.409-8.2691c-2.4353 0-4.4095 3.7022-4.4095 8.2691s1.9742 8.2691 4.4095 8.2691zM191.585 76.9393c2.436 0 4.41-3.7022 4.41-8.2691s-1.974-8.2691-4.41-8.2691c-2.435 0-4.409 3.7022-4.409 8.2691s1.974 8.2691 4.409 8.2691z" fill="#FDB797"/><path d="M107.108 28.5013c1.083-3.5396 3.053-6.9225 6.093-9.0323 2.309-1.6032 5.073-2.3731 7.722-3.313a59.0312 59.0312 0 0011.226-5.3694c4.019-2.4764 7.795-5.4594 12.222-7.0959 7.615-2.8163 16.098-1.2932 23.96.7266 1.937.4966 3.897 1.0366 5.603 2.0831 1.976 1.2099 3.493 3.0297 4.973 4.8128l12.478 15.0517c1.144 1.3765 2.293 2.7697 3.1 4.3695a15.0292 15.0292 0 011.42 4.9295c.333 2.7597.073 5.686-1.333 8.0891-2.11 3.6029-6.46 5.4127-10.629 5.5793-4.17.1667-8.263-1.0432-12.269-2.2164-12.918-3.7829-25.997-7.3092-39.395-8.879a111.13 111.13 0 00-20.048-.6499c-2.1.1366-4.873 1.0999-6.149-1.0399-1.104-1.8565.456-6.186 1.026-8.0458z" fill="#333"/><path opacity=".05" d="M113.754 169.372v36.803M177.694 169.372v36.803" stroke="#000" stroke-width="4" stroke-miterlimit="10"/><path opacity=".8" d="M300 66.7604h-59.48l-20.075 16.7381V66.7604h-13.381V.6111H300v66.1493z" fill="url(#paint2_linear)"/><path d="M298.74 1.3977h-90.416V64.654h90.416V1.3977z" fill="#fff"/><path d="M290.148 10.6965h-71.642v1.8798h71.642v-1.8798zM267.76 19.1624h-49.254v1.8797h49.254v-1.8797zM277.613 27.6248h-59.107v1.8797h59.107v-1.8797z" fill="#E0E0E0"/><path d="M265.97 36.0906h-47.464v1.8798h47.464v-1.8798zM290.148 44.5527h-71.642v1.8798h71.642v-1.8798z" fill="#00BAFC"/><path d="M290.148 53.0186h-71.642v1.8797h71.642v-1.8797z" fill="#E0E0E0"/><path d="M223.792 63.4241v16.7315l18.401-18.4046-18.401 1.6731z" fill="#fff"/></g><defs><linearGradient id="paint0_linear" x1="144.607" y1="221.077" x2="144.607" y2="48.8358" gradientUnits="userSpaceOnUse"><stop stop-color="gray" stop-opacity=".25"/><stop offset=".54" stop-color="gray" stop-opacity=".12"/><stop offset="1" stop-color="gray" stop-opacity=".1"/></linearGradient><linearGradient id="paint1_linear" x1="169221" y1="22572.9" x2="169221" y2="20217.9" gradientUnits="userSpaceOnUse"><stop stop-color="gray" stop-opacity=".25"/><stop offset=".54" stop-color="gray" stop-opacity=".12"/><stop offset="1" stop-color="gray" stop-opacity=".1"/></linearGradient><linearGradient id="paint2_linear" x1="70901.9" y1="20613.9" x2="70901.9" y2=".6111" gradientUnits="userSpaceOnUse"><stop stop-color="gray" stop-opacity=".25"/><stop offset=".54" stop-color="gray" stop-opacity=".12"/><stop offset="1" stop-color="gray" stop-opacity=".1"/></linearGradient><clipPath id="clip0"><path fill="#fff" transform="translate(0 .611)" d="M0 0h300v232.198H0z"/></clipPath></defs></svg>