<svg width="204" height="130" fill="none" xmlns="http://www.w3.org/2000/svg"><g clip-path="url(#clip0)"><path opacity=".5" d="M191.138 111.268c-.366-1.513-1.57-2.652-2.456-3.933a10.6428 10.6428 0 01-1.803-5.315 10.6512 10.6512 0 011.148-5.4931c.853-1.6214 2.189-3.2981 1.705-5.0686-.324-1.191-1.4-2.007-2.457-2.6462a24.0377 24.0377 0 00-13.331-3.428c-5.739.2343-11.46 2.5268-17.089 1.3912-5.482-1.11-10.126-3.8584-15.862-4.1844-4.284-.2429-8.522.0298-12.815-.4389a190.0006 190.0006 0 00-31.9433-.7627 189.999 189.999 0 00-31.9413.7627c-4.2824.4687-8.5222.196-12.8153.4389-5.7525.3239-10.3864 3.0765-15.8705 4.1844-5.631 1.1377-11.3494-1.1569-17.0891-1.3912a24.0389 24.0389 0 00-13.331 3.428c-1.0652.6392-2.1305 1.4552-2.4564 2.6462-.4815 1.7683.8522 3.4451 1.7044 5.0686a10.6535 10.6535 0 011.1507 5.4931 10.6509 10.6509 0 01-1.8005 5.315c-.8863 1.279-2.09 2.42-2.4565 3.933-.7372 3.043 2.22 5.723 5.1133 6.931 7.8937 3.3 17.494 1.704 24.7144 6.3 3.2363 2.062 6.0678 5.373 9.9028 5.497 2.5929.083 4.9514-1.357 7.2162-2.625a69.2406 69.2406 0 0110.591-4.809c3.1958-1.137 6.5813-2.049 9.9539-1.672 5.1496.569 27.4096 11.324 37.4442 4.968 6.873-4.357 12.234-4.393 17.396-4.97 3.373-.377 6.756.534 9.954 1.672a69.1445 69.1445 0 0110.591 4.809c2.263 1.267 4.624 2.708 7.216 2.625 3.835-.124 6.667-3.435 9.903-5.497 7.216-4.598 16.815-3 24.715-6.3 2.878-1.213 5.837-3.884 5.098-6.929z" fill="url(#paint0_linear)"/><path d="M190.094 111.206c-.362-1.491-1.553-2.624-2.429-3.89a10.543 10.543 0 01-1.777-5.257c-.113-1.88.28-3.7556 1.138-5.432.852-1.6043 2.165-3.2619 1.688-5.0111-.322-1.1782-1.385-1.9856-2.429-2.6163a23.7757 23.7757 0 00-13.184-3.3918c-5.676.2301-11.333 2.4991-16.902 1.3742-5.424-1.0951-10.013-3.818-15.696-4.1397-4.237-.2386-8.437.0298-12.672-.4261a187.9102 187.9102 0 00-31.592-.7542 187.908 187.908 0 00-31.5919.7542c-4.2355.4645-8.4349.1939-12.6725.4261-5.6801.3196-10.2714 3.0424-15.6958 4.1397-5.5671 1.1249-11.2259-1.1441-16.9017-1.3742a23.7748 23.7748 0 00-13.1839 3.3918c-1.044.6392-2.107 1.4381-2.4288 2.6163-.4773 1.7492.8522 3.4089 1.6874 5.0111a10.5447 10.5447 0 01-.6392 10.689c-.8777 1.266-2.0666 2.393-2.4288 3.89-.7478 3.009 2.1774 5.659 5.0345 6.844 7.8085 3.262 17.3022 1.683 24.4375 6.229 3.1958 2.039 6.0017 5.316 9.8005 5.438 2.5567.083 4.9003-1.343 7.1374-2.598a68.444 68.444 0 0110.4759-4.757c3.1639-1.127 6.5088-2.028 9.8453-1.655 5.1133.57 27.1219 11.2 37.0371 4.915 6.799-4.308 12.1-4.345 17.205-4.915 3.336-.373 6.683.528 9.845 1.655a68.4495 68.4495 0 0110.476 4.757c2.239 1.253 4.572 2.679 7.137 2.598 3.793-.122 6.594-3.396 9.801-5.438 7.137-4.546 16.631-2.967 24.437-6.229 2.847-1.185 5.772-3.835 5.041-6.844z" fill="#00BAFC"/><path opacity=".6" d="M8.0468 46.706c.6094-.2131 1.257-.4155 1.8941-.3047 1.0653.1854 1.8131 1.1953 2.1306 2.2328.3174 1.0376.3068 2.1306.5092 3.1959.2024 1.0653.686 2.1667 1.6405 2.6759.9545.5093 2.0815.309 3.1404.1854a19.8274 19.8274 0 014.1823-.0383c1.1675.1129 2.5396.507 2.8826 1.6298.2813.9162-.2769 1.8515-.6391 2.7357-.6946 1.6533-.75 3.607.0447 5.2134.7947 1.6065 2.4054 2.8038 3.0787 4.4997.195.4242.2517.899.1619 1.3572a2.4763 2.4763 0 01-.4815.8735c-.5284.6797-1.159 1.2784-1.6405 1.9942-1.0035 1.4914-1.2784 3.345-1.3934 5.1368a37.452 37.452 0 00.0298 5.2902c-1.3082-.4262-2.7527-.0469-4.1013-.326-2.8699-.5923-4.6617-3.9884-7.5848-4.1951-1.3827-.098-2.8698.554-4.1034-.0788a3.0981 3.0981 0 01-1.3125-1.4914 5.2922 5.2922 0 01-.3366-3.558c.213-.8224.6392-1.6278.556-2.4736-.0702-.7244-.5049-1.3635-1.0034-1.894-1.421-1.5085-3.4835-2.431-4.504-4.2356a4.8256 4.8256 0 01.5731-5.4308 14.2371 14.2371 0 001.0333-1.1228c.49-.6903.6392-1.5617.7053-2.4075.1406-2.0261-.213-4.1716.4495-6.1402.5944-1.7812 2.4097-2.7271 4.0885-3.3237z" fill="#00BAFC"/><path opacity=".6" d="M8.0767 46.7657S13.8952 79.0798 21.45 82.9339M24.2646 55.7097s-6.2319.8522-12.4573 7.2546M12.9024 66.7183S8.1065 62.0311.6134 62.8258M27.0087 68.7572s-8.7523.7436-11.9928 4.1034M16.3261 75.9904s-4.9002-.8522-9.4234 2.0348" stroke="#535461" stroke-miterlimit="10"/><path opacity=".6" d="M188.183 21.3226c-.978-.3473-2.015-.6647-3.036-.4879-1.704.2983-2.906 1.9175-3.409 3.5772-.503 1.6597-.492 3.4302-.816 5.1346-.324 1.7045-1.099 3.4707-2.629 4.2888-1.53.8182-3.336.4943-5.034.2983a31.7968 31.7968 0 00-6.699-.0703c-1.873.1811-4.069.8139-4.619 2.6121-.449 1.47.443 2.9657 1.04 4.3825 1.114 2.6483 1.204 5.7823-.073 8.3582-1.297 2.6205-3.856 4.4954-4.934 7.2119-.273.6903-.445 1.4552-.26 2.1732.16.5149.423.9919.773 1.4019.853 1.0908 1.858 2.0517 2.63 3.1958 1.608 2.3862 2.045 5.3605 2.232 8.2325a59.9645 59.9645 0 01-.047 8.4774c2.097-.6903 4.415-.0746 6.575-.5198 4.6-.9481 7.472-6.3917 12.157-6.7241 2.216-.1555 4.6.8864 6.577-.1278.963-.4943 1.647-1.4168 2.105-2.399a8.4894 8.4894 0 00.51-5.6886c-.348-1.3188-1.023-2.6078-.891-3.9649.113-1.1612.807-2.186 1.609-3.0339 2.277-2.4182 5.584-3.8968 7.22-6.788 1.534-2.71 1.146-6.3767-.918-8.7054-.541-.6115-1.185-1.1356-1.658-1.8003-.786-1.1058-1.037-2.5034-1.131-3.8585-.224-3.2491.328-6.6857-.722-9.841-.959-2.872-3.867-4.3911-6.552-5.3349z" fill="#00BAFC"/><path opacity=".6" d="M188.128 21.4078s-9.326 51.7959-21.438 57.9724M162.18 35.7443s9.988 1.3721 19.967 11.6307M180.392 53.3895s7.689-7.5187 19.697-6.2404M157.793 56.6578s14.027 1.191 19.222 6.5792M174.905 68.2523s7.86-1.3763 15.106 3.2597" stroke="#535461" stroke-miterlimit="10"/><path d="M16.5626 0v105.505H171.439V0H16.5626z" fill="url(#paint1_linear)"/><path d="M169.798 4.7873H18.8594v98.8087H169.798V4.7873z" fill="#fff"/><path d="M169.798.0874H18.8594v7.2694H169.798V.0874z" fill="#EEE"/><path d="M24.6033 5.3733c.9731 0 1.762-.7889 1.762-1.762s-.7889-1.762-1.762-1.762-1.7619.7889-1.7619 1.762.7888 1.762 1.7619 1.762z" fill="#FF5252"/><path d="M29.4503 5.3733c.9731 0 1.762-.7889 1.762-1.762s-.7889-1.762-1.762-1.762-1.7619.7889-1.7619 1.762.7888 1.762 1.7619 1.762z" fill="#FF0"/><path d="M34.2974 5.3733c.9731 0 1.7619-.7889 1.7619-1.762s-.7888-1.762-1.7619-1.762c-.9731 0-1.762.7889-1.762 1.762s.7889 1.762 1.762 1.762z" fill="#69F0AE"/><path opacity=".5" d="M80.8905 19.0003H24.6439v2.3436h56.2466v-2.3436zM80.8905 23.6875H24.6439v2.3436h56.2466v-2.3436zM80.8905 28.3747H24.6439v2.3436h56.2466v-2.3436zM80.8905 33.0619H44.0319v2.3437h36.8586v-2.3437zM54.2586 37.7491H24.6439v2.3437h29.6147v-2.3437zM63.4199 42.4364H40.623V44.78h22.7969v-2.3436zM154.608 35.4055H88.3474v38.1369h66.2606V35.4055z" fill="#00BAFC"/><path d="M162.491 39.0275H96.2305v38.1369h66.2605V39.0275z" fill="#EEE"/><path opacity=".5" d="M202.328 74.2114c.137-.1758.212-.3925.213-.6157v-.017c0-.0043.013-.0448.019-.0661v-.0277a.637.637 0 000-.0618v-.0255a.491.491 0 000-.0767c-.126-.8523-5.19-6.4045-6.456-13.1775-.14-.7374-.349-1.46-.624-2.1583a2.9824 2.9824 0 00-.068-1.0439c-.213-.8672-.639-1.7471-.426-2.6121.03-.1131.069-.2236.117-.3302.266-.3905.51-.7952.731-1.2123.082-.136.154-.2785.213-.4261.778-2.0496-1.63-4.1653-1.187-6.3043.192-.9268.91-1.7364.891-2.6803-.024-1.0802-1.017-1.9175-2.048-2.318-1.031-.4005-2.166-.5156-3.178-.963-2.218-.9822-3.433-3.3535-5.457-4.6723-2.571-1.6725-5.927-1.3742-9.01-.9417a.6238.6238 0 00-.28.1155.6193.6193 0 00-.193.2339h-.03a2.1397 2.1397 0 01-.081.2003c-.426.7265-1.144 1.2783-1.853 1.7875-.865.6093-1.792 1.2101-2.32 2.1135a4.6525 4.6525 0 00-.203.3856c-1.15 2.0518.232 2.9381 1.918 3.4302a5.1897 5.1897 0 00-.077.8885c0 2.9827 2.495 5.418 5.569 5.418.243-.0003.486-.016.727-.0469l.179.1172h.04c.571.4112 1.065.9268 1.278 1.5404l-1.785 1.3635s.073.1875.179.4858l-7.018 3.2342c-2.659.1235-6.963-8.2517-6.963-8.2517s-.639-4.8022-2.912-5.6651c-.686-.2599-.959.2833-1.006 1.1697-1.016 1.0652.691 7.0478.691 7.0478l5.443 9.6067c.507.9843.639 1.6 3.038 1.9708 1.975.3025 8.128-1.8835 10.27-2.676l.1.8522a4.9947 4.9947 0 00-.324 2.0389c0 1.5703.701 3.8542 4.122 5.6737 0 0 3.533 4.5658 3.141 8.8759 0 0 .17.179.443.4133-.038 1.2144-.213 2.7122-.824 3.296a.3246.3246 0 00-.088.1388.3362.3362 0 00-.008.1637.308.308 0 00.021.1893.3076.3076 0 00.128.141l-4.459 7.8084c-.167.2131-.335.4261-.508.6392a22.7718 22.7718 0 01-2.746 2.9295c-.743.6626-1.517 1.387-1.67 1.6576-.237.4261-.831 1.8003-.58 2.9359.326 1.3769.459 2.7922.397 4.2053l-.578 10.101c-.193 1.128-.46 2.242-.799 3.335h-.087s-2.152 2.586-5.569 3.195c-3.418.61-3.292 2.344-2.28 2.587 1.012.243 13.292-.247 13.292-.247s.465-.906.337-1.732c3.92-.377 9.351-1.017 9.351-1.017s.744-1.787-.336-2.567a2.5217 2.5217 0 01-.866-1.229 43.779 43.779 0 01-.202-.91c-.017-.16-.017-.258-.017-.258h-.036c-.19-.952-.341-1.973-.254-2.507.318-1.417 1.14-9.607-.886-11.9464-.92-1.0653-.795-2.2755-.386-3.2853 2.431-1.5916 5.832-5.0154 7.798-7.0863.111.0916.213.1833.309.2749l.064.0618s6.692-3.313 6.72-9.1614a9.0273 9.0273 0 00-1.061-4.3059zm-21.436 41.2556c-.012-.213-.004-.427.024-.639l-.213-.023c.123-.929.426-1.969 1.103-2.687a22.8171 22.8171 0 002.438-6.749l1.229 4.651s.124.963.158 1.981h-.022s-1.715 2.448-4.717 3.466z" fill="url(#paint2_linear)"/><path d="M186.449 55.2282s-3.006 1.0823-4.687 2.8869c0 0-8.18 3.247-10.466 2.8869-2.286-.3601-2.405-.963-2.887-1.9175l-5.173-9.3744s-2.164-7.8192 0-6.9776c2.165.8416 2.77 5.5394 2.77 5.5394s4.091 8.1792 6.615 8.0599l6.85-3.264s1.564-2.2861 2.286-2.1646c.723.1214 4.692 4.325 4.692 4.325z" fill="#FDB797"/><path opacity=".05" d="M186.449 55.2282s-3.006 1.0823-4.687 2.8869c0 0-8.18 3.247-10.466 2.8869-2.286-.3601-2.405-.963-2.887-1.9175l-5.173-9.3744s-2.164-7.8192 0-6.9776c2.165.8416 2.77 5.5394 2.77 5.5394s4.091 8.1792 6.615 8.0599l6.85-3.264s1.564-2.2861 2.286-2.1646c.723.1214 4.692 4.325 4.692 4.325z" fill="#000"/><path d="M181.51 50.7945l-2.399 1.8834s1.2 3.1383.899 4.2377c-.3 1.0994 4.798-1.7257 4.798-1.7257l-2.098-4.7086-1.2.3132z" fill="#F9CE43"/><path opacity=".05" d="M181.51 50.7945l-2.399 1.8834s1.2 3.1383.899 4.2377c-.3 1.0994 4.798-1.7257 4.798-1.7257l-2.098-4.7086-1.2.3132z" fill="#000"/><path d="M177.368 48.6981s5.352 1.7449 2.887 4.8108l7.698-3.7285s-3.247.2407-5.292-4.6872l-5.293 3.6049zM187.471 80.0939l-6.615 11.9077 4.453 17.3124s.481 3.85-.241 4.21h5.052s-.974-3.408-.723-4.57c.301-1.382 1.083-9.3741-.852-11.6665-1.934-2.2925.963-5.2923.963-5.2923l5.774-9.1422-7.811-2.7591z" fill="#FDB797"/><path opacity=".05" d="M187.471 80.0939l-6.615 11.9077 4.453 17.3124s.481 3.85-.241 4.21h5.052s-.902-3.428-.723-4.57c.179-1.142 1.083-9.3741-.852-11.6665-1.934-2.2925.963-5.2923.963-5.2923l5.774-9.1422-7.811-2.7591z" fill="#000"/><path d="M185.437 111.258s-1.833 2.699-5.028 3.555c-3.196.857-2.936 2.527-1.958 2.689.978.162 12.57-1.242 12.57-1.242s.705-1.745-.32-2.508c-1.024-.762-1.031-2.343-1.031-2.343l-4.233-.151z" fill="#0D134D"/><path opacity=".1" d="M187.834 75.281s.285 3.9117-.757 4.9386a.3206.3206 0 00-.081.1232.3052.3052 0 00-.016.1467.3127.3127 0 00.052.138.3117.3117 0 00.109.0992l3.098 1.6512 2.77-5.2923-5.175-1.8046z" fill="#000"/><path d="M187.834 75.1617s.285 3.9117-.757 4.9386a.3199.3199 0 00-.081.1232.3052.3052 0 00-.016.1467.3127.3127 0 00.052.138.3126.3126 0 00.109.0992l3.098 1.6512 2.77-5.2924-5.175-1.8045z" fill="#E23553"/><path opacity=".1" d="M187.834 75.3748s.285 3.9116-.757 4.9386a.3195.3195 0 00-.081.1231.3054.3054 0 00-.016.1467.3136.3136 0 00.052.1381.3114.3114 0 00.109.0991l3.098 1.6512 2.77-5.2923-5.175-1.8045z" fill="#000"/><path d="M187.953 82.8594s-1.788 1.1931-5.54 6.104a22.0444 22.0444 0 01-2.609 2.8613c-.706.6392-1.441 1.3551-1.588 1.6193-.226.4069-.79 1.7598-.549 2.8677.309 1.3461.436 2.7278.377 4.1073l-.548 9.867s-.722 4.451-1.683 4.932l4.932.852s-.36-3.127 1.083-4.687c0 0 3.368-5.774 2.526-12.2696 0 0-.36-2.8869 2.887-4.4508 3.247-1.5638 9.865-9.1422 9.865-9.1422l-9.153-2.661z" fill="#FDB797"/><path d="M176.646 113.533s-2.045 2.527-5.292 3.128c-3.247.6-3.128 2.286-2.165 2.526.963.241 12.63-.24 12.63-.24s.852-1.683-.119-2.527c-.972-.844-.722-2.406-.722-2.406l-4.332-.481z" fill="#0D134D"/><path opacity=".1" d="M190.961 76.4848s-1.468 4.93-3.328 6.366a.238.238 0 00-.077.1003.236.236 0 00-.016.1259.2388.2388 0 00.052.116.2382.2382 0 00.103.0733c1.538.5603 6.481 2.448 8.199 4.1652l.059.0597s10.284-5.2326 4.751-14.1341l-9.743 3.1277z" fill="#000"/><path d="M190.961 76.3654s-1.468 4.9301-3.328 6.3661a.238.238 0 00-.077.1003.236.236 0 00-.016.1259.2388.2388 0 00.052.116.239.239 0 00.103.0733c1.538.5603 6.481 2.448 8.199 4.1652l.059.0597s10.284-5.2327 4.751-14.1341l-9.743 3.1276z" fill="#E23553"/><path opacity=".1" d="M182.516 51.9195c-.764.5141-1.6.9132-2.48 1.1845l.826 7.3569s-1.932 4.325 3.595 7.3461c0 0 3.355 4.4593 2.983 8.6692 0 0 1.8 1.9303 3.004 1.4509 1.203-.4793.119.2408.36.1215.24-.1193.72.9651 4.45.0106 3.731-.9544 6.392-3.4706 6.266-4.3143-.125-.8437-4.915-6.2681-6.102-12.8878-1.186-6.6196-8.27-11.3281-8.27-11.3281s-.235.1299-.64.3025a28.0034 28.0034 0 00-3.992 2.088z" fill="#000"/><g opacity=".1" fill="#000"><path opacity=".1" d="M187.54 82.8956a.2308.2308 0 00.036.1469c.028.0436.07.0766.119.0939 1.325.4836 5.177 1.9515 7.317 3.4472-1.852-1.4957-5.791-3.0488-7.472-3.688zM200.704 73.2378l-.213.0724c4.728 8.2644-4.176 13.2563-4.953 13.6718.134.1108.255.213.366.3302l.06.0597s10.273-5.2327 4.74-14.1341z"/></g><path d="M195.291 77.8078c-3.729.963-4.21-.1193-4.451 0-.241.1193.852-.6008-.36-.1193-1.213.4815-3.006-1.4445-3.006-1.4445.017-.213.025-.4112.025-.6179.013-4.0224-3.042-8.0428-3.042-8.0428-5.54-3.0062-3.609-7.3376-3.609-7.3376l-.226-1.9729-.62-5.3818a9.3868 9.3868 0 002.475-1.1888 28.1618 28.1618 0 013.987-2.0965c.407-.1747.639-.3047.639-.3047s7.097 4.6872 8.309 11.3069c1.212 6.6196 6.015 12.0291 6.134 12.8706.119.8416-2.527 3.3663-6.255 4.3293z" fill="#F9CE43"/><path opacity=".1" d="M182.78 45.2104l-5.292 3.6091c.729.2531 1.423.599 2.064 1.0291 1.803-.2535 2.906-1.5447 3.65-3.1341-.29-.4644-.162-.8799-.422-1.5041z" fill="#000"/><path d="M178.691 49.7825c2.923 0 5.293-2.3694 5.293-5.2923 0-2.9228-2.37-5.2923-5.293-5.2923s-5.292 2.3695-5.292 5.2923c0 2.9229 2.369 5.2923 5.292 5.2923z" fill="#FDB797"/><path opacity=".1" d="M196.132 77.207c-3.728.963-4.21-.1193-4.451 0-.24.1193.853-.6008-.36-.1193-1.212.4815-3.006-1.4445-3.006-1.4445.017-.2131.026-.4112.026-.6179.015-4.0161-3.034-8.0428-3.034-8.0428-5.54-3.0062-3.609-7.3376-3.609-7.3376l-.224-1.9751-.586-5.0941a5.8143 5.8143 0 01-.876.3132l.61 5.3839.228 1.9729s-1.918 4.3314 3.609 7.3376c0 0 3.049 4.0268 3.034 8.0428 0 .2131 0 .4112-.026.6179 0 0 1.805 1.9175 3.006 1.4445 1.202-.473.12.2408.36.1193.241-.1214.723.963 4.451 0a12.9158 12.9158 0 004.66-2.2818 13.1173 13.1173 0 01-3.812 1.681z" fill="#000"/><path d="M186.148 56.2764s-3.006 1.0824-4.687 2.8869c0 0-8.179 3.247-10.465 2.8869-2.286-.36-2.406-.963-2.887-1.9175l-5.173-9.3744s-2.165-7.8191 0-6.9776c2.165.8416 2.77 5.5395 2.77 5.5395s4.09 8.1792 6.615 8.0599l6.852-3.2683s1.564-2.2861 2.286-2.1647c.722.1215 4.689 4.3293 4.689 4.3293z" fill="#FDB797"/><path opacity=".1" d="M182.088 51.8726s-2.495-.228-3.218 2.8997c-.722 3.1276 5.54 5.0515 5.54 5.0515l3.368-4.6872-5.69-3.264z" fill="#000"/><path d="M182.209 51.8726s-2.495-.228-3.217 2.8997c-.722 3.1276 5.539 5.0515 5.539 5.0515l3.369-4.6872-5.691-3.264z" fill="#F9CE43"/><g opacity=".1" fill="#000"><path opacity=".1" d="M181.19 52.4287c-.377.1902-.772.343-1.18.4559l.021.1811c.398-.1916.785-.4043 1.159-.637zM201.546 73.4786c-.119-.8523-4.932-6.2553-6.134-12.8707-1.202-6.6154-8.309-11.3069-8.309-11.3069s-.235.13-.639.3047a28.8304 28.8304 0 00-3.149 1.5873 28.5689 28.5689 0 012.066-.9844c.407-.1747.64-.3046.64-.3046s7.096 4.6872 8.309 11.3068c1.212 6.6197 6.014 12.0291 6.134 12.8707.076.5305-.949 1.73-2.651 2.7868 2.337-1.1612 3.824-2.7548 3.733-3.3897z"/></g><path opacity=".1" d="M183.639 51.9216s3.11 1.5404 3.696 4.5018" stroke="#000" stroke-miterlimit="10"/><path opacity=".1" d="M176.033 44.1919c.496.1108 1.05.2664 1.295.7116.177.3239.145.7308.317 1.0653.443.8352 1.743.5476 2.557 1.0376 1.491.8991.518 3.7029 2.003 4.6063.279.1704.609.2386.897.3941 1.255.686 1.078 2.5013.852 3.9138-.226 1.4126.043 3.345 1.459 3.5453.78.1086 1.656-.407 2.312.0255.343.2259.499.6392.786.9396.198.1971.449.3321.722.3885.273.0564.557.0317.816-.071.482-.2003.829-.6584 1.33-.8054.805-.2365 1.704.4155 2.48.1151.775-.3004.952-1.4211.752-2.2669-.2-.8459-.609-1.7045-.396-2.5567.176-.7031.752-1.24 1.003-1.9175.737-2.0006-1.549-4.0672-1.127-6.1573.183-.9055.865-1.7044.852-2.6184-.021-1.0653-.965-1.8728-1.947-2.2648-.982-.392-2.06-.5028-3.021-.9396-2.107-.9587-3.26-3.2768-5.186-4.5636a7.272 7.272 0 00-2.853-1.0951 9.35 9.35 0 00-3.94.2087 9.3564 9.3564 0 00-3.504 1.8153c-.189.1534-.383.2983-.579.4389-.823.5944-1.705 1.1803-2.206 2.0623-1.828 3.1831 2.372 3.5474 4.326 3.9884z" fill="#000"/><path d="M176.182 43.8915c.496.1108 1.05.2664 1.295.7117.177.3238.145.7307.317 1.0652.444.8352 1.743.5476 2.557 1.0376 1.491.8991.518 3.7029 2.003 4.6063.279.1704.609.2386.897.3941 1.255.6861 1.078 2.5013.852 3.9139-.226 1.4125.043 3.3449 1.459 3.5452.78.1087 1.656-.4069 2.312.0256.343.2258.499.6391.786.9395.198.1971.449.3321.722.3885.273.0564.557.0317.817-.071.481-.2003.828-.6584 1.329-.8054.805-.2365 1.704.4155 2.48.1151.775-.3004.952-1.4211.752-2.2669-.2-.8458-.609-1.7045-.396-2.5567.177-.7031.752-1.24 1.003-1.9175.737-2.0006-1.549-4.0672-1.127-6.1573.183-.9055.865-1.7044.852-2.6184-.021-1.0653-.965-1.8728-1.947-2.2648-.982-.392-2.06-.5028-3.021-.9396-2.107-.9587-3.26-3.2768-5.186-4.5636a7.1299 7.1299 0 00-2.578-1.044 9.3568 9.3568 0 00-7.725 1.9771 8.9656 8.9656 0 01-.573.4261c-.823.5945-1.705 1.1804-2.205 2.0624-1.828 3.1916 2.373 3.5581 4.325 3.9969zM133.302 77.1644H96.2305v-6.9861c9.0565-4.2334 22.9925-6.6111 37.0715 6.9861z" fill="#00BAFC"/><path opacity=".1" d="M162.065 76.1651v.9993h-46.233v-.2131s22.75-22.1513 46.233-.7862z" fill="#000"/><path d="M162.491 76.1651v.9993h-46.233v-.2131s22.75-22.1513 46.233-.7862zM103.9 49.2541c1.883 0 3.409-1.5262 3.409-3.4089 0-1.8826-1.526-3.4088-3.409-3.4088-1.882 0-3.408 1.5262-3.408 3.4088 0 1.8827 1.526 3.4089 3.408 3.4089z" fill="#00BAFC"/><path d="M132.923 43.2673c-.39 0-.825 0-1.121.0234a1.3702 1.3702 0 00-.388.0789l-2.004.7201c1.619.0405 3.308.0277 4.968.0149l9.306-.0724c.951 0 1.948-.0171 2.738-.0725.531-.0383.92-.0937 1.41-.1363 1.762-.1577 4.33-.1279 6.624-.1194 2.295.0086 5.065-.0511 5.872-.2812h-4.926c-.53 0-1.088 0-1.557-.0256-.548-.0319-.882-.0916-1.364-.1342-.797-.0682-1.896-.0767-2.919-.0809-5.614-.0235-11.157.1086-16.639.0852zM138.437 47.3963h-.243a.2952.2952 0 00-.085.017l-.427.1556h1.076l2.016-.0149c.213 0 .426 0 .592-.0149.115 0 .2-.0214.305-.0299.381-.0341.937-.0277 1.436-.0255.427.0143.855-.0064 1.278-.0618h-1.402c-.1 0-.191-.0192-.296-.0299-.172-.0149-.411-.017-.639-.017-1.214 0-2.416.0277-3.611.0213zM124.162 53.3618h-.243a.292.292 0 00-.085.0171l-.426.1555h1.076l2.015-.0149c.213 0 .426 0 .593-.0149.115 0 .2-.0213.304-.0298.382-.0341.938-.0277 1.436-.0256.427.0143.855-.0063 1.279-.0618H128.709c-.101 0-.192-.0192-.297-.0298-.172-.0149-.411-.0171-.639-.0171-1.214 0-2.416.0277-3.611.0213z" fill="#F4F4F4"/><path d="M116.153 75.2746h-1.602s-.501-17.5217 1.602-22.929h.401s-1.402 19.8248-.401 22.929z" fill="#00BAFC"/><path d="M115.052 51.4444s-1.302 3.6048-.701 5.207c0 0 .901-3.3045 1.951-3.8052 1.051-.5006 2.152 3.8052 2.152 3.8052s.601-2.7037-.5-4.9003c0 0 2.203 1.2017 3.304 3.5048 0 0 .2-1.4914-2.403-4.6062 0 0 2.303.6008 3.805 2.0027 0 0 .501-1.1015-2.604-2.904 0 0 .401-1.3017 2.804-.7009 0 0 0-1.7045-3.805-1.4019 0 0 0-1.1015 2.503-.9012 0 0 0-1.402-2.903-.9013 0 0 .6-.9012 1.001-1.1015a2.0137 2.0137 0 00-1.402.4006s.1-1.8025-1.402-2.5034l-.2 2.5034s-1.683-1.9836-1.302-1.6022c.1.1001.401 1.3018.3 1.9026 0 0-1.704-1.4019-3.805.1001 0 0 2.604.2003 3.004 1.1015 0 0-2.203-.4005-2.703-.1001 0 0 1.704.6008 1.602 1.0013 0 0-3.004 0-3.409 1.1015 0 0 3.104.4006 3.304.701 0 0-3.604 2.6035-3.805 3.3045 0 0 3.705-2.203 4.306-2.203s-2.704 3.1958-2.503 4.0054c.008-.0064 2.72-3.2107 3.411-3.0104zM135.914 74.6184h1.223s.384-13.3863-1.223-17.5174h-.307s1.074 15.1418.307 17.5174z" fill="#00BAFC"/><path d="M136.756 56.4128s.995 2.7548.534 3.9777c0 0-.688-2.5247-1.491-2.906-.803-.3814-1.645 2.906-1.645 2.906s-.458-2.0645.384-3.7476a6.6499 6.6499 0 00-2.525 2.6781s-.153-1.1484 1.837-3.5197c0 0-1.76.4581-2.906 1.5298 0 0-.384-.8416 1.99-2.2179 0 0-.307-.995-2.142-.5348 0 0 0-1.2997 2.906-1.0653 0 0 0-.8416-1.917-.6882 0 0 0-1.0652 2.218-.6881 0 0-.458-.6882-.765-.8416.381-.0337.761.0757 1.065.3068 0 0-.077-1.3763 1.065-1.9175l.154 1.9175s1.278-1.5148.995-1.2229a3.3546 3.3546 0 00-.23 1.453s1.299-1.0653 2.906.0767c0 0-1.99.1534-2.295.8416 0 0 1.683-.3068 2.065-.0767 0 0-1.3.458-1.223.7648 0 0 2.294 0 2.601.8416 0 0-2.371.3068-2.525.5348 0 0 2.755 1.9899 2.907 2.5247 0 0-2.83-1.6832-3.29-1.6832-.46 0 2.064 2.448 1.917 3.0595.011-.0085-2.053-2.4522-2.59-2.3031zM150.557 72.0021h.759s.236-8.29-.759-10.8488h-.189s.662 9.3851.189 10.8488z" fill="#00BAFC"/><path d="M151.079 60.7272s.616 1.7044.333 2.4629c0 0-.426-1.5638-.925-1.8003-.498-.2365-1.018 1.8003-1.018 1.8003s-.284-1.2783.236-2.3223a4.1169 4.1169 0 00-1.564 1.6576s-.093-.7116 1.138-2.1796a4.7993 4.7993 0 00-1.8.9481s-.237-.522 1.231-1.3742c0 0-.189-.6157-1.327-.3324 0 0 0-.8053 1.8-.6626 0 0 0-.522-1.184-.4261 0 0 0-.6626 1.374-.4261a2.0882 2.0882 0 00-.473-.522.954.954 0 01.663.1896s-.047-.8522.662-1.1846l.094 1.1846s.797-.9374.616-.7584a2.0617 2.0617 0 00-.143.899 1.4755 1.4755 0 011.8.0469s-1.231.0938-1.421.522c0 0 1.042-.1896 1.278-.0469 0 0-.805.2834-.758.473 0 0 1.421 0 1.611.522 0 0-1.468.1896-1.564.3324 0 0 1.704 1.2314 1.8 1.5638 0 0-1.753-1.0418-2.037-1.0418-.283 0 1.279 1.5169 1.185 1.894.004.0021-1.276-1.5148-1.607-1.4189z" fill="#00BAFC"/><path d="M122.86 62.6276l-.16-.8522a.4565.4565 0 00-.038-.1821.4697.4697 0 00-.106-.1524l-.74-.3622a.8485.8485 0 01-.132-.213l.013-.0192a.4331.4331 0 00.085-.1726.2008.2008 0 000-.049h.011a.276.276 0 00.194-.0472.2715.2715 0 00.11-.1658v-.0192a.2729.2729 0 01-.089.1478.2755.2755 0 01-.16.0652.7605.7605 0 00.246-.2713.758.758 0 00.089-.355v-.032a.284.284 0 00.082-.0782.2544.2544 0 00.043-.105v-.0192a.2767.2767 0 01-.047.0985.2595.2595 0 01-.083.0719.7403.7403 0 00-.046-.213h.019c.073 0 .143-.029.194-.0805a.2736.2736 0 00.081-.1944v-.0191a.2746.2746 0 01-.087.1813.2728.2728 0 01-.186.0743h-.034v-.0128a.442.442 0 00.21-.1363.444.444 0 00.105-.228v-.0191a.2793.2793 0 01-.055.147.2794.2794 0 00-.062-.1884.2724.2724 0 00-.172-.098.272.272 0 00-.193.0433.2721.2721 0 00-.114.1621l-.049-.0277a.2732.2732 0 01.247-.2003h-.019a.2776.2776 0 00-.263.1854.7535.7535 0 00-.526-.041.7557.7557 0 00-.424.3137c-.057.0426-.132.1044-.13.1577a.5472.5472 0 00-.066.0809 1.049 1.049 0 00-.085.5689.6016.6016 0 01-.034.285.6045.6045 0 01-.162.237c.032.0132.066.02.1.02a.255.255 0 00.1-.02.7601.7601 0 00.177-.1044.3983.3983 0 00.126-.1215v-.0106a.591.591 0 00.113.0596c.015.1279.019.2749-.039.3239l.011-.0235a.6913.6913 0 01-.479.1364.5985.5985 0 00-.497.3196l-.232.9694V62.4764c.004.013.011.0249.02.0343a.076.076 0 00.035.0189l.073.0192c.011.1656-.006.3319-.049.4922a4.1028 4.1028 0 00-.083.7243c.017.1215.047.7543.062 1.0547a2.9956 2.9956 0 00-.062.311l-.343 2.0581s-.256 1.647-.243 2.1455l-.045.2876s-.697.8736-.492.9971c.204.1236.52.1769.82-.2876a.76.76 0 01.192-.2876.2747.2747 0 00.077-.1087.2839.2839 0 00.019-.1321l-.021-.213.036.0128h.021s.343-1.1271.305-1.9175c0 0 .639-2.2627 1.118-2.6185v-.0149l.045-.0213.102 2.1923-.104 2.4161-.024.1449s-.696.8735-.492.9971c.205.1235.52.1768.821-.2877a.747.747 0 01.191-.2876.2875.2875 0 00.078-.1087.283.283 0 00.018-.132l-.032-.3196c.12-.407.426-1.5788.301-2.2584l.213-1.4445c.213-.2408.185-.8523.185-.8523.168-.3515.213-1.73.213-1.73l.043-.6817a.5699.5699 0 01.096 0h.034v-.0128a.0726.0726 0 00.015-.0192h.012v-.017l-.002-.0022zm-.596 1.3849a2.161 2.161 0 00-.064-.1406h-.017v-.0171a.0485.0485 0 010-.017v-.0171a.5754.5754 0 00.025-.0703.264.264 0 00.041-.147c.025.1349.03.2727.015.4091zm-.064-.5838l-.043-.4559.013-.0362.057.5795-.027-.0874zm-2.02.0618a.147.147 0 00-.032.0577.1473.1473 0 00-.006.0659v.0149a.484.484 0 00.019.1363l-.066.2855v-.5454c.044-.0575.082-.1188.115-.1832a.297.297 0 01-.03.1683z" fill="url(#paint3_linear)"/><path d="M120.61 59.9708a1.0104 1.0104 0 00-.083.5476c.011.0928 0 .187-.033.2746a.5886.5886 0 01-.156.2282.247.247 0 00.097.0194c.033 0 .066-.0066.097-.0194a.7417.7417 0 00.17-.1002.375.375 0 00.121-.1171.4498.4498 0 00.028-.2323c0-.1392.013-.2782.036-.4154.013-.0852.094-.3175 0-.3622-.093-.0447-.236.1129-.277.1768z" fill="#72351C"/><path d="M119.202 69.0278l-.066.4261s-.671.8522-.473.9609c.198.1087.501.1704.79-.277a.7246.7246 0 01.184-.2769.2797.2797 0 00.074-.105.2635.2635 0 00.017-.1273l-.066-.6498-.46.049zM121.222 69.1961l-.066.4261s-.671.8523-.473.9609c.198.1087.5.1705.79-.277.039-.1052.102-.2.183-.2769a.271.271 0 00.075-.1049.2639.2639 0 00.017-.1274l-.066-.6498-.46.049z" fill="#333"/><path d="M120.176 64.102s-.316.2279-.426 1.0205l-.331 1.9836s-.279 1.7981-.228 2.1433l.559.1917s.33-1.0865.294-1.8429c0 0 .671-2.3905 1.142-2.5566l.1 2.1113-.107 2.3756.478.0959s.483-1.5127.33-2.3138l.249-1.7045s.286-.9097-.111-1.7044l-1.949.2003z" fill="#4D8AF0"/><g opacity=".1" fill="#000"><path opacity=".1" d="M121.137 65.0735v-.0362c-.471.1683-1.142 2.5567-1.142 2.5567a6.7523 6.7523 0 01-.288 1.8237l.06.0213s.33-1.0866.294-1.8429c-.002.0021.611-2.171 1.076-2.5226zM122.144 63.9124h-.064c.23.534.267 1.1308.107 1.6895l-.249 1.7044c.147.7585-.282 2.154-.326 2.301l.062.0128s.483-1.5127.33-2.3138l.249-1.7044s.288-.9055-.109-1.6895z"/></g><path d="M119.748 62.5488a.0626.0626 0 00.015.0451c.01.0128.024.0217.04.0252.156.0392.301.1119.426.2131.234.1832-.249-.3665-.249-.3665l-.162.0362-.066.0597-.004-.0128z" fill="#F55F44"/><path opacity=".1" d="M119.748 62.5488a.0626.0626 0 00.015.0451c.01.0128.024.0217.04.0252.156.0392.301.1119.426.2131.234.1832-.249-.3665-.249-.3665l-.162.0362-.066.0597-.004-.0128z" fill="#000"/><path d="M122.053 63.0346a1.49 1.49 0 01.664-.2621c.017 0 .033-.0065.044-.0181a.06.06 0 00.018-.0437s-.558-.2194-.726.3239z" fill="#F55F44"/><path opacity=".1" d="M122.779 62.7086s-.558-.2131-.726.3238c0 0 .411-.3153.696-.2642" fill="#000"/><path d="M121.405 60.8678c.401 0 .727-.3253.727-.7265 0-.4013-.326-.7266-.727-.7266a.7263.7263 0 00-.726.7266c0 .4012.325.7265.726.7265z" fill="#72351C"/><path d="M120.904 60.6505s.103.4261 0 .5134c-.102.0874-.309.2493-.153.375s.712.3388.897.2344c.185-.1044.396-.0725.345-.2855-.051-.2131-.456-.1683-.462-1.2272l-.627.3899z" fill="#FDB797"/><path opacity=".1" d="M119.875 62.421c.016.231.001.4631-.044.6903a3.9802 3.9802 0 00-.081.6967c.021.1534.066 1.1675.066 1.1675s-.081.8884.351.8075c.433-.081-.066-1.0142-.066-1.0142l.021-1.2123c.118-.1593.191-.3466.214-.5432.032-.2919-.461-.5923-.461-.5923z" fill="#000"/><path d="M119.869 62.421c.015.231 0 .4631-.045.6903a4.078 4.078 0 00-.081.6967c.022.1534.066 1.1675.066 1.1675s-.081.8884.352.8075c.432-.081-.066-1.0142-.066-1.0142l.021-1.2123a1.131 1.131 0 00.213-.5432c.03-.2919-.46-.5923-.46-.5923z" fill="#FDB797"/><path opacity=".1" d="M122.636 62.487l-.059.9481s-.036 1.3295-.198 1.6661c0 0 .044.9332-.39.9098-.435-.0235.072-1.0206.072-1.0206s.232-1.0376.113-1.3657l-.113-1.1377h.575z" fill="#000"/><path d="M122.643 62.487l-.06.9481s-.036 1.3295-.198 1.6661c0 0 .045.9332-.39.9098-.434-.0235.073-1.0206.073-1.0206s.232-1.0376.113-1.3657l-.113-1.1377h.575z" fill="#FDB797"/><path opacity=".1" d="M121.235 61.5687s.351.162.543-.3195l.714.3494a.4441.4441 0 01.102.1476.445.445 0 01.036.1762l.154.8224s-.522-.1768-.684.3089l.044.4624a.495.495 0 01-.023.3451.0828.0828 0 00-.007.0309.082.082 0 00.007.0309.23.23 0 01.008.1042.24.24 0 01-.04.0965.2264.2264 0 01-.08.0682.2233.2233 0 01-.101.0251 4.3265 4.3265 0 00-.573.0448c-.154.0447-.618-.0874-.771 0-.154.0873-.478-.0661-.478-.0661l.088-.375s-.06-.1832.015-.2492c.074-.0661.029-.6392-.037-.8011 0 0-.264-.2493-.426-.2131l.213-.9481a.5755.5755 0 01.477-.3089.6703.6703 0 00.463-.1321s-.16.3494.356.4005z" fill="#000"/><path opacity=".1" d="M121.271 61.5517c.096.0256.351.0533.505-.3324l.714.3494c.043.0418.078.092.102.1477a.4447.4447 0 01.036.1762l.153.8224s-.522-.1769-.683.3089l.044.4623.03.0917a.2633.2633 0 01.01.1215.2583.2583 0 01-.046.1128.0884.0884 0 00-.02.0405.0853.0853 0 00.005.0447.2303.2303 0 01.008.1043.2395.2395 0 01-.04.0964.2254.2254 0 01-.08.0682.2247.2247 0 01-.101.0252 4.3264 4.3264 0 00-.573.0447c-.154.0447-.618-.0874-.771 0-.154.0874-.478-.0661-.478-.0661l.088-.3749s-.06-.1833.015-.2493c.074-.0661.029-.6392-.037-.8011 0 0-.264-.2493-.426-.213l.213-.9481a.5732.5732 0 01.198-.2176.5776.5776 0 01.279-.0914.6703.6703 0 00.463-.1321s-.173.3154.281.3835l.111.0256z" fill="#000"/><path d="M121.271 61.5666c.096.0256.351.0533.505-.3324l.714.3495a.4593.4593 0 01.102.1476.4447.4447 0 01.036.1762l.153.8224s-.522-.1768-.684.3089l.045.4624a.495.495 0 01-.023.3451.0824.0824 0 00-.007.0309c0 .0106.003.0212.007.0309.01.0337.013.0694.007.1042a.2148.2148 0 01-.04.0965.2137.2137 0 01-.079.0681.2234.2234 0 01-.101.0252 4.3133 4.3133 0 00-.573.0448c-.154.0447-.618-.0874-.772 0-.153.0873-.477-.0661-.477-.0661l.087-.375s-.059-.1832.015-.2492c.075-.0661.03-.6392-.036-.8011 0 0-.264-.2493-.426-.2131l.213-.9481a.5755.5755 0 01.477-.3089.6703.6703 0 00.463-.1321s-.173.3153.281.3835l.113.0298z" fill="#F55F44"/><path opacity=".1" d="M121.541 60.2989l-.624.3899c.016.0704.028.1415.036.2131a.6044.6044 0 00.224.0426.6393.6393 0 00.405-.1832 2.4725 2.4725 0 01-.041-.4624z" fill="#000"/><path d="M121.164 60.8976a.603.603 0 10-.603-.6029c0 .333.27.6029.603.6029z" fill="#FDB797"/><path d="M122.053 59.8323c.146 0 .264-.1182.264-.2641a.264.264 0 10-.528 0c0 .1459.118.2641.264.2641z" fill="#72351C"/><path d="M122.104 59.8473a.2638.2638 0 01-.18-.0705.2654.2654 0 01-.084-.1746v.0192a.266.266 0 00.077.1868c.05.0496.117.0774.187.0774.07 0 .137-.0278.187-.0774a.266.266 0 00.077-.1868v-.0192a.2654.2654 0 01-.084.1746.2638.2638 0 01-.18.0705z" fill="#72351C"/><path d="M121.953 60.0987a.2655.2655 0 01-.164-.1031.2644.2644 0 01-.049-.1867v.017a.262.262 0 00.042.1979c.04.0577.101.0973.17.11a.2627.2627 0 00.197-.0422.2606.2606 0 00.11-.1698v-.0192a.263.263 0 01-.114.1593.2631.2631 0 01-.192.0368zM121.748 60.7378a.263.263 0 01-.163-.103.2604.2604 0 01-.05-.1867v.017a.2665.2665 0 00.042.1979.2652.2652 0 00.368.0678.2647.2647 0 00.11-.1698v-.0192a.2633.2633 0 01-.114.1593.2647.2647 0 01-.193.0367zM122.104 59.7066a.264.264 0 01-.264-.2471v.0192c0 .07.028.1372.077.1868.05.0495.117.0774.187.0774.07 0 .137-.0279.187-.0774a.2663.2663 0 00.077-.1868v-.0192a.264.264 0 01-.264.2471z" fill="#72351C"/><path d="M121.735 59.5639a.2686.2686 0 01.073-.1804.2649.2649 0 01.177-.0817h-.02c-.07 0-.137.0279-.186.0774a.263.263 0 000 .3736.2613.2613 0 00.186.0774h.02a.2653.2653 0 01-.25-.2663z" fill="#72351C"/><path opacity=".1" d="M122.002 62.0566a.9796.9796 0 010 .3963s-.037.3452.021.4048M120.216 62.1376a.9453.9453 0 010 .3963s-.036.3451.022.4048M120.201 63.5544c.057.0205.12.0205.177 0a.3663.3663 0 01.213 0M120.291 63.0346a1.522 1.522 0 00.609-.0959s.75.1832.963.0511" fill="#000"/><path d="M120.065 66.2006h-.177a.1428.1428 0 00-.143.1427c0 .0788.064.1427.143.1427h.177c.079 0 .143-.0639.143-.1427a.1428.1428 0 00-.143-.1427z" fill="#FDB797"/><path d="M119.747 66.2773l.248-.0107.213.0341h-.075l-.386-.0234zM121.414 65.082h.247l.213.0213h-.075l-.385-.0213zM121.414 65.1332h.247l.213.0213h-.075l-.385-.0213zM121.414 65.1864h.247l.213.0213h-.075l-.385-.0213zM121.414 65.2375h.247l.213.0213h-.075l-.385-.0213zM119.747 66.4754h.248l.213.0256h-.075l-.386-.0256zM119.747 66.4498h.248l.213.0256h-.075l-.386-.0256zM119.747 66.4243h.248l.213.0255h-.075l-.386-.0255zM119.747 66.3987h.248l.213.0256h-.075l-.386-.0256zM119.747 66.2389l.248-.0106.213.0341h-.075l-.386-.0235zM119.747 66.1942l.248-.0107.213.0341h-.075l-.386-.0234z" fill="#F0E4E4"/><path opacity=".1" d="M121.267 59.909c-.024.2252.005.4528.085.6648a.7907.7907 0 01.051.323.7918.7918 0 01-.083.3162.211.211 0 00.099-.001.208.208 0 00.088-.0459.743.743 0 00.137-.1598.4323.4323 0 00.083-.1662.6583.6583 0 00-.043-.2812 3.6319 3.6319 0 01-.089-.4965c-.013-.1022 0-.3962-.115-.4261-.115-.0298-.192.1875-.213.2727z" fill="#000"/><path d="M121.282 59.9026c-.024.2252.005.4528.085.6648a.7905.7905 0 01.051.3229.7919.7919 0 01-.083.3163.2122.2122 0 00.187-.0469.743.743 0 00.137-.1598.4323.4323 0 00.083-.1662.6583.6583 0 00-.043-.2812 3.6319 3.6319 0 01-.089-.4965c-.013-.1022 0-.3962-.115-.4261-.115-.0298-.192.1854-.213.2727z" fill="#72351C"/><path opacity=".1" d="M121.022 60.0603c.051.0533.061.1321.104.1918a.3765.3765 0 00.298.1193.17.17 0 01.088.0191c.046.0299.049.098.078.1449a.1782.1782 0 00.057.0401.1708.1708 0 00.193-.0401.4175.4175 0 00.096-.262c.01-.1056.01-.2119 0-.3175a.4845.4845 0 00-.135-.3238.5634.5634 0 00-.236-.1023.7006.7006 0 00-.364-.0277.6615.6615 0 00-.167.0831 9.626 9.626 0 00-.213.1427c-.079.0554-.228.1662-.083.2259.092.0426.207.0234.284.1065z" fill="#000"/><path d="M121.036 60.0518c.052.0532.062.1321.105.1917a.3752.3752 0 00.136.093.3736.3736 0 00.162.0263.1722.1722 0 01.088.0192c.046.0298.049.098.078.1449a.1763.1763 0 00.057.04.1692.1692 0 00.136 0 .1763.1763 0 00.057-.04.4109.4109 0 00.095-.2621 1.5305 1.5305 0 000-.3174.4792.4792 0 00-.134-.3239.57.57 0 00-.236-.1022.7025.7025 0 00-.365-.0277.652.652 0 00-.166.0831 9.2871 9.2871 0 00-.213.1427c-.079.0554-.228.1662-.083.2259.092.0426.213.0255.283.1065z" fill="#72351C"/><path d="M121.428 65.082h.248l.213.0213h-.071l-.39-.0213zM121.428 65.1332h.248l.213.0213h-.071l-.39-.0213zM121.428 65.1864h.248l.213.0213h-.071l-.39-.0213zM121.428 65.2375h.248l.213.0213h-.071l-.39-.0213zM121.322 68.0648h.247l.213.0213h-.074l-.386-.0213zM121.322 68.1181h.247l.213.0213h-.074l-.386-.0213zM121.322 68.1692h.247l.213.0213h-.074l-.386-.0213zM121.322 68.2203h.247l.213.0213h-.074l-.386-.0213z" fill="#F0E4E4"/></g><defs><linearGradient id="paint0_linear" x1="96.2304" y1="129.998" x2="96.2304" y2="81.0505" gradientUnits="userSpaceOnUse"><stop stop-color="gray" stop-opacity=".25"/><stop offset=".54" stop-color="gray" stop-opacity=".12"/><stop offset="1" stop-color="gray" stop-opacity=".1"/></linearGradient><linearGradient id="paint1_linear" x1="67909.7" y1="52246.1" x2="67909.7" y2="0" gradientUnits="userSpaceOnUse"><stop stop-color="gray" stop-opacity=".25"/><stop offset=".54" stop-color="gray" stop-opacity=".12"/><stop offset="1" stop-color="gray" stop-opacity=".1"/></linearGradient><linearGradient id="paint2_linear" x1="41634.5" y1="61047.3" x2="41634.5" y2="26293.6" gradientUnits="userSpaceOnUse"><stop stop-color="gray" stop-opacity=".25"/><stop offset=".54" stop-color="gray" stop-opacity=".12"/><stop offset="1" stop-color="gray" stop-opacity=".1"/></linearGradient><linearGradient id="paint3_linear" x1="3089.72" y1="5676.23" x2="3089.72" y2="5025.35" gradientUnits="userSpaceOnUse"><stop stop-color="gray" stop-opacity=".25"/><stop offset=".54" stop-color="gray" stop-opacity=".12"/><stop offset="1" stop-color="gray" stop-opacity=".1"/></linearGradient><clipPath id="clip0"><path fill="#fff" transform="translate(.6027)" d="M0 0h202.795v130H0z"/></clipPath></defs></svg>